<?xml version="1.0" standalone="no"?>
<!DOCTYPE svg PUBLIC "-//W3C//DTD SVG 20010904//EN"
 "http://www.w3.org/TR/2001/REC-SVG-20010904/DTD/svg10.dtd">
<svg version="1.0" xmlns="http://www.w3.org/2000/svg"
 width="700.000000pt" height="700.000000pt" viewBox="0 0 700.000000 700.000000"
 preserveAspectRatio="xMidYMid meet">
<metadata>
Created by potrace 1.11, written by Peter Selinger 2001-2013
</metadata>
<g transform="translate(0.000000,700.000000) scale(0.100000,-0.100000)"
fill="#000000" stroke="none">
<path d="M3248 6995 c-2 -2 -41 -6 -88 -9 -47 -4 -92 -8 -100 -10 -8 -3 -40
-7 -71 -11 -60 -6 -90 -11 -117 -19 -9 -3 -37 -8 -62 -11 -62 -9 -287 -67
-395 -103 -1016 -335 -1822 -1140 -2172 -2167 -32 -95 -105 -370 -118 -445 -6
-32 -29 -185 -40 -255 -25 -166 -25 -671 -1 -802 2 -10 7 -45 10 -78 19 -162
78 -419 141 -615 42 -130 154 -403 167 -408 4 -2 8 -8 8 -14 0 -6 14 -37 30
-70 17 -32 30 -60 30 -63 0 -2 -51 -45 -113 -95 -116 -95 -198 -165 -299 -260
-54 -49 -59 -58 -54 -85 10 -50 40 -59 126 -40 26 5 230 44 265 50 11 2 47 9
80 14 33 6 78 13 100 17 22 3 60 9 84 14 49 9 48 9 95 -55 112 -152 326 -383
466 -505 34 -30 68 -60 74 -65 37 -34 204 -160 276 -208 47 -31 90 -60 95 -65
6 -4 17 -11 25 -15 8 -4 29 -16 45 -26 121 -75 329 -180 462 -231 43 -17 87
-35 98 -40 20 -9 83 -30 205 -68 91 -28 289 -76 360 -87 19 -3 46 -7 60 -10
48 -8 140 -20 248 -32 145 -15 647 -7 712 12 8 2 38 6 65 9 49 6 84 11 135 21
14 3 39 8 55 11 17 3 46 9 65 14 19 5 46 11 60 14 148 29 465 140 645 227 516
248 946 600 1287 1054 33 44 63 79 66 78 4 0 23 -4 42 -7 19 -3 47 -8 63 -11
15 -3 37 -7 50 -9 12 -2 54 -12 92 -21 90 -21 88 -21 165 -39 36 -8 98 -24
139 -35 75 -20 97 -19 118 8 18 24 16 46 -13 109 -65 142 -201 286 -364 387
-25 15 -46 29 -48 30 -2 2 10 29 26 61 146 290 281 735 317 1049 4 33 9 69 11
80 27 145 24 620 -5 820 -6 39 -13 90 -16 115 -3 25 -13 79 -21 120 -9 41 -20
93 -24 115 -23 121 -102 369 -170 535 -243 591 -628 1085 -1147 1471 -333 248
-745 445 -1152 550 -122 32 -231 55 -296 64 -22 3 -49 7 -60 10 -11 2 -51 7
-90 11 -38 3 -81 8 -95 11 -33 5 -527 13 -532 8z"/>
</g>
</svg>
