<?xml version="1.0" encoding="UTF-8" standalone="no"?>
<svg
   xmlns:dc="http://purl.org/dc/elements/1.1/"
   xmlns:cc="http://creativecommons.org/ns#"
   xmlns:rdf="http://www.w3.org/1999/02/22-rdf-syntax-ns#"
   xmlns:svg="http://www.w3.org/2000/svg"
   xmlns="http://www.w3.org/2000/svg"
   xmlns:sodipodi="http://sodipodi.sourceforge.net/DTD/sodipodi-0.dtd"
   xmlns:inkscape="http://www.inkscape.org/namespaces/inkscape"
   width="250"
   height="300"
   viewBox="0 0 66.145832 79.375001"
   version="1.1"
   id="svg11333"
   inkscape:version="1.0.1 (0767f8302a, 2020-10-17)"
   sodipodi:docname="arror.svg">
  <defs
     id="defs11327" />
  <sodipodi:namedview
     id="base"
     pagecolor="#ffffff"
     bordercolor="#666666"
     borderopacity="1.0"
     inkscape:pageopacity="0.0"
     inkscape:pageshadow="2"
     inkscape:zoom="1.6820145"
     inkscape:cx="179.0572"
     inkscape:cy="153.86453"
     inkscape:document-units="mm"
     inkscape:current-layer="g12610"
     inkscape:document-rotation="0"
     showgrid="false"
     units="px"
     inkscape:window-width="1850"
     inkscape:window-height="1016"
     inkscape:window-x="70"
     inkscape:window-y="27"
     inkscape:window-maximized="1" />
  <metadata
     id="metadata11330">
    <rdf:RDF>
      <cc:Work
         rdf:about="">
        <dc:format>image/svg+xml</dc:format>
        <dc:type
           rdf:resource="http://purl.org/dc/dcmitype/StillImage" />
        <dc:title></dc:title>
      </cc:Work>
    </rdf:RDF>
  </metadata>
  <g
     inkscape:label="Layer 1"
     inkscape:groupmode="layer"
     id="layer1">
    <g
       id="g12610">
      <g
         id="g12702"
         transform="matrix(0.50504068,0,0,0.50504068,-0.99021067,-51.498085)">
        <path
           d="m 118.07918,108.2205 -4.61353,2.90078 -4.66781,2.85619 c -3.01188,1.79291 -6.0656,3.49113 -9.158878,5.07031 -3.141008,1.59818 -6.333527,3.09521 -9.540121,4.45602 l -4.761051,1.92614 -4.632258,1.99549 0.171432,0.86545 4.948715,-1.52544 4.753236,-1.95639 c 3.214085,-1.3825 6.393067,-2.88024 9.533025,-4.50832 3.19506,-1.63718 6.36273,-3.40113 9.47036,-5.27444 l 4.46182,-2.85193 4.43775,-3.19343 -0.44184,-0.71232"
           style="fill:#100f0d;fill-opacity:1;fill-rule:nonzero;stroke:none;stroke-width:2.2427"
           id="path1354" />
        <path
           d="m 117.28219,109.41364 -0.30806,2.09711 -0.30612,2.48222 -0.36657,4.5862 c -0.16152,3.06276 -0.17607,6.11521 -0.0474,9.13153 0.12571,3.0627 0.4235,6.0985 0.86523,9.07611 0.43487,2.93546 0.85386,6.09395 1.80846,8.80921 l 1.53025,-0.65494 c -0.46173,-2.85328 -1.24616,-5.58003 -1.68958,-8.45445 -0.41824,-2.86596 -0.71086,-5.77316 -0.89043,-8.71331 -0.16809,-2.99925 -0.2163,-6.01019 -0.0849,-9.04883 0.11152,-2.94597 0.51491,-5.97231 0.60166,-8.92313 l -1.34274,-1.31412 0.014,1.35273 0.2213,-0.43625"
           style="fill:#100f0d;fill-opacity:1;fill-rule:nonzero;stroke:none;stroke-width:2.2427"
           id="path1356" />
        <path
           d="m 79.781166,128.46006 3.251179,2.58889 3.789772,1.40506 0.409114,-1.13682 -3.787322,-1.58699 -3.41333,-1.69595 -0.269773,0.40386"
           style="fill:#100f0d;fill-opacity:1;fill-rule:nonzero;stroke:none;stroke-width:2.2427"
           id="path1358" />
        <path
           d="m 110.50993,143.55846 -0.0979,0.10151 0.39635,-0.069 0.0198,0.1801 -0.45362,0.3645 1.21029,0.55813 1.30716,0.62284 2.72595,1.40367 c 1.77216,0.93345 3.53464,1.86043 5.26051,2.84639 l 0.90566,-1.35583 c -2.6634,-1.52878 -5.43224,-2.87767 -8.2454,-4.15603 l -2.01371,-0.84449 -1.24944,0.0248 0.22147,1.15755 0.33801,-0.19142 0.0567,-0.12899 -0.45089,-0.46806"
           style="fill:#100f0d;fill-opacity:1;fill-rule:nonzero;stroke:none;stroke-width:2.2427"
           id="path1360" />
        <path
           d="m 119.39083,145.41975 -0.009,0.8531 0.28767,0.94309 0.78653,1.64346 0.89236,-0.49696 -0.47749,-1.81249 -0.37928,-0.83742 -0.47047,-0.56458 -0.59893,0.26743"
           style="fill:#100f0d;fill-opacity:1;fill-rule:nonzero;stroke:none;stroke-width:2.2427"
           id="path1362" />
        <path
           d="m 87.879852,133.76381 0.0039,-0.006 -0.0039,0.006"
           style="fill:#100f0d;fill-opacity:1;fill-rule:nonzero;stroke:none;stroke-width:2.2427"
           id="path1364" />
        <path
           d="m 80.016098,128.23734 c 3.149242,2.43737 6.777968,4.49253 10.75054,5.43724 l 0.401418,-1.12527 c -3.847267,-1.19316 -7.536852,-2.56468 -10.97187,-4.61722 l -0.192698,0.28849"
           style="fill:#100f0d;fill-opacity:1;fill-rule:nonzero;stroke:none;stroke-width:2.2427"
           id="path1366" />
        <path
           d="m 89.690131,132.85955 c -4.208729,5.88125 -8.368637,11.79428 -12.588158,17.69168 -3.421108,4.80702 -6.940644,9.55163 -10.898024,13.93452 -3.859556,4.28886 -8.164115,8.21622 -13.043785,10.97011 -4.922316,2.78631 -10.165728,4.07653 -15.343207,4.12499 -5.96019,0.0405 -11.270268,-1.75434 -16.861387,-3.01097 l -0.592975,1.09746 c 4.411555,2.52961 9.794691,3.57221 15.043341,3.82409 5.214277,0.23727 10.628805,-0.65161 15.787814,-3.04452 10.476745,-4.84415 18.456152,-14.90008 25.404069,-24.44686 4.900637,-6.70736 9.718217,-13.44767 14.568164,-20.16301 l -1.487015,-0.99329"
           style="fill:#100f0d;fill-opacity:1;fill-rule:nonzero;stroke:none;stroke-width:2.2427"
           id="path1368" />
        <path
           d="m 109.86167,142.56057 c -6.0748,8.36027 -12.078986,16.80359 -18.297393,25.05375 -5.918735,7.81204 -12.233014,15.47166 -19.79462,21.53798 -12.172926,9.77125 -27.285591,13.96848 -40.880935,12.26889 -3.765105,-0.44574 -7.417852,-1.39213 -10.865106,-2.73528 -3.475458,-1.4037 -6.482989,-3.44604 -9.663806,-5.36215 l -1.2728406,1.48604 c 2.3900496,2.43088 5.5187876,4.02017 8.6357506,5.35128 3.112813,1.41178 6.443547,2.37671 9.889916,2.98501 6.78928,1.22258 13.987894,1.00811 21.131157,-0.63675 7.166975,-1.63737 14.301488,-4.76244 20.694967,-9.2761 7.915835,-5.5794 14.599345,-13.01575 20.65861,-20.78648 7.37814,-9.40958 14.26124,-19.23162 21.33048,-28.87089 l -1.56936,-1.04829"
           style="fill:#100f0d;fill-opacity:1;fill-rule:nonzero;stroke:none;stroke-width:2.2427"
           id="path1370" />
        <path
           d="m 22.143651,177.67722 -2.421647,-1.53414 -1.638411,-2.73815 -1.349494,-0.15049 c -1.510196,2.47059 -2.938939,5.02896 -4.402241,7.53423 -1.396242,2.40486 -2.8601911,4.80622 -4.1626493,7.28041 l -1.1762034,5.67243 3.4434457,2.13327 0.104665,-0.68104 -2.1478474,-3.41219 2.5350794,-5.64083 c 2.35148,-4.04466 4.725957,-8.01887 7.00214,-12.08712 l -1.283346,0.002 5.404475,3.94381 0.105759,-0.26311"
           style="fill:#100f0d;fill-opacity:1;fill-rule:nonzero;stroke:none;stroke-width:2.2427"
           id="path1372" />
        <path
           d="m 7.6256252,193.79278 2.0743637,1.88625 0.2222912,-0.43558 -1.9336859,-1.70885 -0.3765482,0.2491"
           style="fill:#100f0d;fill-opacity:1;fill-rule:nonzero;stroke:none;stroke-width:2.2427"
           id="path1374" />
        <path
           d="m 16.750811,174.74161 4.294054,-3.03075 4.761438,-1.39188 c 3.207384,-0.58598 6.425157,-0.50585 9.507638,-0.19068 7.453353,0.70663 14.612289,2.59331 21.321501,5.35358 l 0.595766,-1.52111 c -5.869206,-2.42695 -12.088167,-4.14468 -18.543911,-5.02765 -5.308454,-0.76742 -11.063647,-1.12404 -16.61696,0.91537 -1.354635,0.4969 -7.046228,2.73597 -5.799188,4.9799 l 0.483318,-0.0944"
           style="fill:#100f0d;fill-opacity:1;fill-rule:nonzero;stroke:none;stroke-width:2.2427"
           id="path1376" />
        <path
           d="m 74.850447,187.07167 3.042045,2.11547 3.028573,2.52364 c 1.739941,1.57942 3.338279,3.38133 4.885845,5.1827 2.538389,2.96384 5.05627,6.99867 2.445298,11.61427 -2.362506,4.2709 -7.140923,6.83126 -11.272908,8.2456 -4.084466,1.38518 -8.277841,1.77144 -12.312659,1.52603 -2.303996,-0.13726 -4.550499,-0.48642 -6.764915,-0.956 l -3.308719,-0.86679 -3.277686,-0.82937 -0.652449,1.29134 c 1.825877,1.13619 4.20513,1.59073 6.324285,2.06343 2.10657,0.46428 4.26313,0.81177 6.460816,0.97814 4.386704,0.34362 8.993602,-0.008 13.443419,-1.48327 4.466178,-1.50567 9.394257,-4.15378 12.198162,-8.58209 2.932279,-4.59954 1.73257,-9.16898 -0.857747,-12.58887 -1.699025,-2.22794 -3.681778,-4.21988 -5.691346,-6.10457 -2.030987,-1.94072 -4.5261,-4.23317 -7.480035,-4.57929 l -0.172897,0.46857"
           style="fill:#100f0d;fill-opacity:1;fill-rule:nonzero;stroke:none;stroke-width:2.2427"
           id="path1378" />
        <path
           d="m 48.924466,215.94089 c -3.243963,7.10058 -6.515169,14.13707 -10.213792,21.03742 l 0.303827,1.21254 c 7.89348,3.42867 17.254187,4.41645 26.331104,1.5484 8.778251,-2.75967 16.833997,-9.34866 21.477368,-18.13525 1.26083,-2.41189 2.245883,-4.88282 2.896225,-7.47137 0.604017,-2.4668 1.122885,-5.34092 0.624764,-7.66783 l -1.56808,0.22917 -0.712602,6.58286 -2.116899,6.17883 c -1.897578,4.17262 -4.715552,8.00329 -8.046586,11.10242 -7.006149,6.58755 -16.01119,9.34592 -24.398056,9.11294 -4.88907,-0.13686 -9.554751,-1.23422 -13.862149,-3.11019 l 0.297116,1.23309 c 3.718616,-7.02465 7.223941,-14.18094 10.10518,-21.53548 l -1.112999,-0.32628"
           style="fill:#100f0d;fill-opacity:1;fill-rule:nonzero;stroke:none;stroke-width:2.2427"
           id="path1380" />
        <path
           d="m 49.1982,201.61302 -2.012844,0.26583 -0.220285,0.85411 4.138071,0.69487 4.067249,0.98965 c 2.65479,0.79711 5.204848,1.86636 7.600328,3.19114 2.329189,1.30552 4.547813,2.87094 6.558517,4.63124 1.725193,1.48614 3.676007,4.61653 0.880169,6.94591 l 0.611997,1.0763 c 2.639511,-1.42421 2.745706,-4.94944 1.605165,-6.99625 l -3.127237,-3.29877 -3.880228,-2.75877 c -2.692666,-1.63176 -5.545101,-2.95305 -8.597136,-3.84864 l -4.732964,-1.12561 -4.900282,-0.36128 0.08909,0.81046 1.929812,-0.98046 -0.0089,-0.0894"
           style="fill:#100f0d;fill-opacity:1;fill-rule:nonzero;stroke:none;stroke-width:2.2427"
           id="path1382" />
        <path
           d="m 54.316981,202.10023 5.751756,-3.69243 -0.02969,-0.27015 c -2.084806,0.87692 -4.061021,2.25191 -5.879359,3.71566 l 0.20364,0.21949"
           style="fill:#100f0d;fill-opacity:1;fill-rule:nonzero;stroke:none;stroke-width:2.2427"
           id="path1384" />
        <path
           d="m 56.260703,203.34102 3.795431,-2.87153 4.397229,-3.15374 c 2.819133,-1.91333 5.765817,-3.48278 8.59997,-5.27176 l -0.11667,-0.24481 c -3.031441,1.32929 -5.991713,3.26514 -8.824546,5.1885 l -3.869183,2.7722 -4.079411,3.39106 0.106756,0.15477"
           style="fill:#100f0d;fill-opacity:1;fill-rule:nonzero;stroke:none;stroke-width:2.2427"
           id="path1386" />
        <path
           d="m 60.08626,202.71156 -1.752683,1.04036 0.06823,0.21246 c 3.320515,-2.1291 6.504447,-4.57806 9.846592,-6.64515 l 5.00216,-2.95826 5.248097,-2.84404 -0.08803,-0.39255 -5.163312,2.71712 -5.157622,3.05465 c -3.289687,2.08295 -6.798193,4.22081 -9.805282,6.84547 l 0.106765,0.15478 1.702055,-1.17431 -0.02626,-0.0635"
           style="fill:#100f0d;fill-opacity:1;fill-rule:nonzero;stroke:none;stroke-width:2.2427"
           id="path1388" />
        <path
           d="m 61.964889,204.36861 -1.18526,0.93545 0.06824,0.21245 c 3.139742,-2.09966 6.126374,-4.47348 9.339974,-6.43203 l 4.785141,-2.72774 5.070925,-2.53686 -0.136463,-0.4249 c -3.378879,1.2307 -6.759497,3.30297 -9.917445,5.24112 -3.161413,1.94334 -6.497611,4.06447 -9.29398,6.64631 l 0.155202,0.18713 1.138481,-1.07516 -0.03801,-0.0479"
           style="fill:#100f0d;fill-opacity:1;fill-rule:nonzero;stroke:none;stroke-width:2.2427"
           id="path1390" />
        <path
           d="m 64.110557,206.57283 c 3.286252,-1.91001 6.566672,-3.83227 9.876098,-5.68259 l 4.903361,-2.63208 2.466768,-1.28095 2.561552,-1.27602 -0.105759,0.26311 0.09688,0.0647 0.135423,0.007 0.288515,-0.64167 -1.054034,0.0469 -6.500018,3.41789 c -4.295737,2.36212 -8.576848,4.84915 -12.740703,7.5864 l 0.05833,0.12242"
           style="fill:#100f0d;fill-opacity:1;fill-rule:nonzero;stroke:none;stroke-width:2.2427"
           id="path1392" />
        <path
           d="m 68.668471,207.12261 -0.782787,0.22806 0.07813,0.30251 c 2.892419,-1.61406 5.773175,-3.25259 8.694374,-4.80486 l 4.271836,-2.25293 4.144353,-2.1879 -0.116676,-0.24481 -4.027063,1.90746 -4.470786,2.362 c -2.886802,1.54271 -5.796612,3.16183 -8.625201,4.932 l 0.07813,0.30251 0.734345,-0.26042 -0.02969,-0.27014"
           style="fill:#100f0d;fill-opacity:1;fill-rule:nonzero;stroke:none;stroke-width:2.2427"
           id="path1394" />
        <path
           d="m 70.011589,209.27303 -1.233005,0.78673 0.155194,0.18712 c 3.084718,-1.2937 6.103855,-2.8982 9.102355,-4.5557 l 4.411363,-2.53521 4.389369,-2.81689 -0.12657,-0.33486 -4.101115,2.45875 -4.590924,2.65722 c -3.01409,1.69132 -6.118529,3.21381 -9.148842,4.83504 l 0.155202,0.18713 0.986509,-0.7428 -0.0198,-0.1801"
           style="fill:#100f0d;fill-opacity:1;fill-rule:nonzero;stroke:none;stroke-width:2.2427"
           id="path1396" />
        <path
           d="m 73.016227,210.50908 -1.034428,0.91938 0.165114,0.27717 c 2.845034,-1.22852 5.642097,-2.68932 8.411484,-4.23454 l 4.092513,-2.41443 3.685184,-2.48627 -0.06824,-0.21245 -3.783465,2.24539 -4.09835,2.40219 c -2.763933,1.55803 -5.549543,2.95975 -8.352545,4.36653 l 0.213551,0.30951 1.001396,-0.97482 -0.156749,-0.1848"
           style="fill:#100f0d;fill-opacity:1;fill-rule:nonzero;stroke:none;stroke-width:2.2427"
           id="path1398" />
        <path
           d="m 72.559459,213.76844 -1.289305,1.09123 0.165105,0.27716 c 2.785605,-1.40171 5.513344,-3.12577 8.212984,-4.71339 l 4.027883,-2.34914 3.827742,-2.33263 -0.126571,-0.33487 -3.711344,2.08498 -4.186204,2.46032 c -2.731908,1.60446 -5.501785,3.10846 -8.15493,4.87816 l 0.165108,0.27717 1.219408,-1.19633 -0.155203,-0.18713"
           style="fill:#100f0d;fill-opacity:1;fill-rule:nonzero;stroke:none;stroke-width:2.2427"
           id="path1400" />
        <path
           d="m 73.921639,216.03504 c 3.000606,-1.28312 6.364105,-2.85785 8.991437,-5.12374 l -0.213546,-0.30952 -4.355673,2.75596 -4.542558,2.28069 0.136462,0.42491"
           style="fill:#100f0d;fill-opacity:1;fill-rule:nonzero;stroke:none;stroke-width:2.2427"
           id="path1402" />
        <path
           d="m 18.235411,175.92936 c 3.699041,-2.36019 7.488149,-4.28893 11.343096,-6.18619 l -0.07813,-0.30251 c -3.927391,1.5485 -7.780157,3.7718 -11.388638,6.22503 l 0.116662,0.24481"
           style="fill:#100f0d;fill-opacity:1;fill-rule:nonzero;stroke:none;stroke-width:2.2427"
           id="path1404" />
        <path
           d="m 20.191348,177.29345 c 2.040519,-1.56566 4.194737,-2.91352 6.435681,-4.00321 l 6.890195,-2.48141 -0.03959,-0.3602 -6.900194,2.34958 c -2.341456,1.11432 -4.550624,2.53395 -6.652971,4.20266 l 0.213537,0.30952"
           style="fill:#100f0d;fill-opacity:1;fill-rule:nonzero;stroke:none;stroke-width:2.2427"
           id="path1406" />
        <path
           d="m 23.488879,178.43813 c 2.739044,-1.45785 5.494814,-2.8044 8.285407,-4.06677 2.779213,-1.2558 5.632483,-2.2869 8.374255,-3.58106 l -0.07813,-0.30249 c -2.803593,0.78894 -5.595243,2.09483 -8.313397,3.32216 -2.842949,1.28831 -5.654654,2.69762 -8.424028,4.16942 l 0.136463,0.42491"
           style="fill:#100f0d;fill-opacity:1;fill-rule:nonzero;stroke:none;stroke-width:2.2427"
           id="path1408" />
        <path
           d="m 29.712333,178.55935 c 2.253183,-1.22336 4.536515,-2.37651 6.827875,-3.41583 l 6.959391,-3.03595 -0.07812,-0.3025 -6.903211,2.68966 c -2.370525,1.09491 -4.689538,2.29098 -7.000519,3.60088 l 0.184901,0.45726"
           style="fill:#100f0d;fill-opacity:1;fill-rule:nonzero;stroke:none;stroke-width:2.2427"
           id="path1410" />
        <path
           d="m 33.5252,178.80669 -0.935274,0.35149 0.09793,0.4826 c 2.640924,-1.24804 5.282741,-2.52886 7.941997,-3.72044 l 4.301735,-1.8992 3.701823,-1.64077 -0.08803,-0.39255 -3.736039,1.49275 -4.173268,1.84318 c -2.72118,1.25284 -5.422999,2.51861 -8.104011,3.90008 l 0.184901,0.45726 0.902258,-0.40691 -0.08803,-0.39256"
           style="fill:#100f0d;fill-opacity:1;fill-rule:nonzero;stroke:none;stroke-width:2.2427"
           id="path1412" />
        <path
           d="m 38.800709,179.54795 c 2.203753,-1.26473 4.459015,-2.42828 6.724182,-3.50179 l 6.878356,-2.95657 -0.09793,-0.48261 -6.775181,2.83359 c -2.332762,1.11178 -4.612031,2.34274 -6.864017,3.65868 l 0.184909,0.45727"
           style="fill:#100f0d;fill-opacity:1;fill-rule:nonzero;stroke:none;stroke-width:2.2427"
           id="path1414" />
        <path
           d="m 43.736066,179.7057 c 2.694881,-1.32881 5.505025,-2.58898 8.066116,-4.1999 l -0.04948,-0.45025 c -2.737805,1.18333 -5.446377,2.83675 -8.095645,4.30701 l 0.126576,0.33486"
           style="fill:#100f0d;fill-opacity:1;fill-rule:nonzero;stroke:none;stroke-width:2.2427"
           id="path1416" />
        <path
           d="m 118.18178,109.94612 0.1772,-1.45027 -0.30937,0.0437 0.64377,3.32533 1.40251,3.53176 c 1.07962,2.43163 2.20945,4.83006 2.68251,7.5741 0.51194,2.82008 0.44115,5.80994 0.45611,8.75529 0.0162,2.96451 0.15995,5.90579 0.61492,8.75873 0.51773,3.19941 1.36201,6.26651 2.49752,9.19439 l 0.58903,-0.35748 c -1.34427,-3.45115 -2.27372,-7.11749 -2.73849,-10.94569 -0.4317,-3.60086 -0.28541,-7.33294 -0.39934,-11.01941 -0.10463,-3.52423 -0.74225,-6.71195 -2.06266,-9.74581 l -1.99381,-4.46075 -0.824,-2.31096 -0.58442,-2.41792 -0.29947,0.13371 0.0374,1.4017 0.08,-0.015"
           style="fill:#100f0d;fill-opacity:1;fill-rule:nonzero;stroke:none;stroke-width:2.2427"
           id="path1418" />
        <path
           d="m 126.56809,148.59195 c 0.42851,2.71427 1.13049,5.34423 1.72902,7.98851 l 0.45363,-0.36449 c -3.83743,-1.51199 -7.70331,-2.99291 -11.55904,-4.47541 l -4.22406,-0.66052 -1.23981,1.54148 -1.99086,3.05065 c -5.04672,7.48504 -10.863901,14.42874 -17.321353,20.61433 -1.811767,1.76852 -3.712704,3.4608 -5.648976,5.1011 -1.911719,1.635 -4.000002,3.05194 -5.827132,4.79102 l 0.175014,0.36721 4.807041,-3.63093 4.816243,-4.20051 c 3.1416,-2.89943 6.165134,-5.97869 9.011773,-9.18111 2.74441,-3.16474 5.43225,-6.44404 7.91566,-9.86822 l 3.64552,-5.35801 1.5662,-2.29968 3.1897,0.0697 c 4.1394,1.60523 8.26338,3.23353 12.4138,4.79606 l 0.39532,-0.48687 c -0.6565,-2.62461 -1.22614,-5.31635 -2.06183,-7.85205 l -0.29947,0.13371"
           style="fill:#100f0d;fill-opacity:1;fill-rule:nonzero;stroke:none;stroke-width:2.2427"
           id="path1420" />
        <path
           d="m 106.21461,150.23211 5.36407,-1.33978 5.32404,-0.72404 0.0187,-0.2378 -5.2279,0.49623 -5.50964,1.52623 0.0297,0.27016"
           style="fill:#100f0d;fill-opacity:1;fill-rule:nonzero;stroke:none;stroke-width:2.2427"
           id="path1422" />
        <path
           d="m 102.43212,154.59331 c 3.70266,-1.30645 7.447,-2.19291 11.16478,-3.37413 l -0.0396,-0.36019 c -3.72868,0.57986 -7.53264,1.98552 -11.17483,3.34406 l 0.0495,0.45024"
           style="fill:#100f0d;fill-opacity:1;fill-rule:nonzero;stroke:none;stroke-width:2.2427"
           id="path1424" />
        <path
           d="m 99.862344,158.44042 5.183876,-1.46849 5.16615,-1.5888 -0.0396,-0.3602 -5.18387,1.46849 -5.177819,1.56432 0.08803,0.39255"
           style="fill:#100f0d;fill-opacity:1;fill-rule:nonzero;stroke:none;stroke-width:2.2427"
           id="path1426" />
        <path
           d="m 97.85611,161.90634 -0.994739,0.54538 0.08803,0.39256 c 3.048783,-0.96726 6.261269,-1.83351 9.240159,-3.21208 l -0.0781,-0.3025 c -3.06978,0.69457 -6.207674,1.99446 -9.225608,3.11583 l 0.08803,0.39255 0.973285,-0.61813 -0.126568,-0.33485"
           style="fill:#100f0d;fill-opacity:1;fill-rule:nonzero;stroke:none;stroke-width:2.2427"
           id="path1428" />
        <path
           d="m 94.951975,166.19843 6.826235,-2.53247 -0.088,-0.39256 -6.784724,2.5018 0.08803,0.39255"
           style="fill:#100f0d;fill-opacity:1;fill-rule:nonzero;stroke:none;stroke-width:2.2427"
           id="path1430" />
        <path
           d="m 92.419823,168.93424 -0.728301,0.35625 0.09793,0.4826 c 2.804625,-1.14704 5.56217,-1.78317 8.399568,-2.59125 l 0.0474,-0.38555 c -2.811008,0.14986 -5.833287,1.27667 -8.515829,2.51361 l 0.1849,0.45726 0.676016,-0.38282 -0.136471,-0.42491"
           style="fill:#100f0d;fill-opacity:1;fill-rule:nonzero;stroke:none;stroke-width:2.2427"
           id="path1432" />
        <path
           d="m 90.232436,172.27916 -1.971527,0.92755 0.09793,0.4826 c 2.914357,-0.96526 5.916015,-1.8305 8.757364,-3.06398 l -0.0396,-0.3602 c -2.939991,0.77293 -5.890595,1.93927 -8.772105,2.9707 l 0.136463,0.4249 1.919027,-1.03771 -0.126562,-0.33486"
           style="fill:#100f0d;fill-opacity:1;fill-rule:nonzero;stroke:none;stroke-width:2.2427"
           id="path1434" />
        <path
           d="m 87.556768,176.24076 3.271217,-1.35268 3.032384,-0.95319 0.03748,-0.47558 -6.492072,2.34683 0.136457,0.42491"
           style="fill:#100f0d;fill-opacity:1;fill-rule:nonzero;stroke:none;stroke-width:2.2427"
           id="path1436" />
        <path
           d="m 84.845745,179.26009 6.040548,-1.92254 -0.126576,-0.33486 -5.972162,1.80969 0.04949,0.45024"
           style="fill:#100f0d;fill-opacity:1;fill-rule:nonzero;stroke:none;stroke-width:2.2427"
           id="path1438" />
        <path
           d="m 80.800023,182.85973 3.037685,-1.14989 2.900409,-1.13313 -0.0297,-0.27014 -5.952051,2.11514 0.04949,0.45026"
           style="fill:#100f0d;fill-opacity:1;fill-rule:nonzero;stroke:none;stroke-width:2.2427"
           id="path1440" />
        <path
           d="m 79.082055,185.50609 -0.940802,0.46462 0.08803,0.39255 4.457669,-2.19555 -0.126571,-0.33486 -4.421882,2.19442 0.175,0.36721 0.903923,-0.51428 -0.126576,-0.33485"
           style="fill:#100f0d;fill-opacity:1;fill-rule:nonzero;stroke:none;stroke-width:2.2427"
           id="path1442" />
        <path
           d="m 109.78019,147.10691 4.08578,-1.25078 0.009,-0.32785 -4.23385,1.21029 0.175,0.36722"
           style="fill:#100f0d;fill-opacity:1;fill-rule:nonzero;stroke:none;stroke-width:2.2427"
           id="path1444" />
        <path
           d="m 115.55013,151.43169 5.34172,-1.37974 5.32273,-0.85842 0.009,-0.32784 -5.2331,0.73472 -5.47177,1.58491 0.0297,0.27015"
           style="fill:#100f0d;fill-opacity:1;fill-rule:nonzero;stroke:none;stroke-width:2.2427"
           id="path1446" />
        <path
           d="m 120.37525,152.6322 5.66625,-1.16295 0.009,-0.32784 -5.69927,1.10752 0.0396,0.3602"
           style="fill:#100f0d;fill-opacity:1;fill-rule:nonzero;stroke:none;stroke-width:2.2427"
           id="path1448" />
        <path
           d="m 124.56212,153.80773 1.66014,-0.53479 -0.0297,-0.27015 -1.66718,0.42997 0.0396,0.36019"
           style="fill:#100f0d;fill-opacity:1;fill-rule:nonzero;stroke:none;stroke-width:2.2427"
           id="path1450" />
        <path
           d="m 120.32043,147.80123 4.26871,-1.95462 -0.0781,-0.30251 -4.31507,1.98207 0.12657,0.33487"
           style="fill:#100f0d;fill-opacity:1;fill-rule:nonzero;stroke:none;stroke-width:2.2427"
           id="path1452" />
        <path
           d="m 119.33189,144.71204 3.86775,-1.80528 -0.088,-0.39256 -3.92478,1.81725 0.12657,0.33486"
           style="fill:#100f0d;fill-opacity:1;fill-rule:nonzero;stroke:none;stroke-width:2.2427"
           id="path1454" />
        <path
           d="m 119.41168,141.48955 2.01584,-1.38189 2.17387,-0.84246 -10e-4,-0.41789 -4.48256,2.29574 0.26198,0.34186"
           style="fill:#100f0d;fill-opacity:1;fill-rule:nonzero;stroke:none;stroke-width:2.2427"
           id="path1456" />
        <path
           d="m 118.86391,138.4211 4.77899,-2.86536 -0.088,-0.39255 -4.85837,2.83736 0.13648,0.42491"
           style="fill:#100f0d;fill-opacity:1;fill-rule:nonzero;stroke:none;stroke-width:2.2427"
           id="path1458" />
        <path
           d="m 119.55583,134.49194 1.84444,-1.47136 1.90304,-0.85648 -0.0396,-0.3602 -3.933,2.39583 0.21354,0.30952"
           style="fill:#100f0d;fill-opacity:1;fill-rule:nonzero;stroke:none;stroke-width:2.2427"
           id="path1460" />
        <path
           d="m 119.29271,132.3145 5.32468,-3.53548 -0.0781,-0.3025 -5.51823,3.48964 0.26198,0.34187"
           style="fill:#100f0d;fill-opacity:1;fill-rule:nonzero;stroke:none;stroke-width:2.2427"
           id="path1462" />
        <path
           d="m 120.73725,127.73996 2.51181,-1.44275 -0.0396,-0.3602 -2.69346,1.50498 0.21353,0.30952"
           style="fill:#100f0d;fill-opacity:1;fill-rule:nonzero;stroke:none;stroke-width:2.2427"
           id="path1464" />
        <path
           d="m 120.00773,125.99859 4.88811,-2.93432 -0.12658,-0.33485 -4.90472,2.8648 0.175,0.36721"
           style="fill:#100f0d;fill-opacity:1;fill-rule:nonzero;stroke:none;stroke-width:2.2427"
           id="path1466" />
        <path
           d="m 120.62736,123.69825 2.0088,-1.48672 -0.0682,-0.21246 -2.03521,1.36896 0.12657,0.33485"
           style="fill:#100f0d;fill-opacity:1;fill-rule:nonzero;stroke:none;stroke-width:2.2427"
           id="path1468" />
        <path
           d="m 119.94741,113.42927 1.53429,-1.35311 -0.11667,-0.24481 -1.62335,1.31866 0.20363,0.21947"
           style="fill:#100f0d;fill-opacity:1;fill-rule:nonzero;stroke:none;stroke-width:2.2427"
           id="path1470" />
        <path
           d="m 80.510527,129.75075 0.184544,-1.22008 -0.406235,-0.021 0.323011,3.83697 0.330137,3.20761 2.031685,1.31045 3.13724,1.51153 0.261827,-0.49261 -2.716257,-1.3972 -2.223679,-1.65225 -0.321015,-3.04297 -0.369405,-3.44244 -0.434881,0.1267 0.06603,1.25396 0.173941,-0.0507"
           style="fill:#100f0d;fill-opacity:1;fill-rule:nonzero;stroke:none;stroke-width:2.2427"
           id="path1472" />
        <path
           d="m 81.430585,132.72329 4.815346,-1.10556 -0.001,-0.41789 -4.847061,1.1845 0.0297,0.27015"
           style="fill:#100f0d;fill-opacity:1;fill-rule:nonzero;stroke:none;stroke-width:2.2427"
           id="path1474" />
        <path
           d="m 81.155789,135.5068 3.68683,-1.45054 3.477363,-0.90626 0.01874,-0.23779 c -2.361022,-0.12528 -5.068881,1.04467 -7.293986,2.27844 l 0.126571,0.33486"
           style="fill:#100f0d;fill-opacity:1;fill-rule:nonzero;stroke:none;stroke-width:2.2427"
           id="path1476" />
        <path
           d="m 83.786699,136.53994 4.161871,-1.37519 -0.07813,-0.30251 -4.13786,1.3078 0.08803,0.39255"
           style="fill:#100f0d;fill-opacity:1;fill-rule:nonzero;stroke:none;stroke-width:2.2427"
           id="path1478" />
        <path
           d="m 39.816395,238.29179 0.123473,0.0249 0.08695,-0.0254 -0.320738,-0.63143 -0.06524,2.50963 c 0.803954,2.41437 2.510724,4.26367 4.553946,5.495 4.65879,2.7782 10.719047,1.96187 16.25737,0.41892 10.905111,-3.02944 22.492614,-9.39698 28.272157,-20.86396 2.66748,-5.29374 4.298952,-12.21401 2.344438,-17.31352 l -0.598934,0.26745 0.517104,6.78682 c -0.198107,2.36247 -0.759847,4.72401 -1.625433,7.01609 -1.789758,4.74528 -4.778534,9.0309 -8.477539,12.48166 -4.087056,3.81148 -8.893181,6.58112 -13.786587,8.60159 -4.856614,1.99581 -10.143269,3.66431 -15.099977,3.74511 -2.817048,0.054 -5.546621,-0.48429 -7.807988,-1.93643 l -2.816085,-2.63201 -1.553713,-4.04996 -0.02868,0.14772"
           style="fill:#100f0d;fill-opacity:1;fill-rule:nonzero;stroke:none;stroke-width:2.2427"
           id="path1480" />
        <path
           d="m 42.649852,239.75893 1.395969,-0.97826 -1.66905,0.45375 1.251786,1.67055 2.258418,2.0092 c 1.623066,1.25103 3.570442,2.63528 5.609955,3.16324 l 0.190074,-0.37367 -4.81821,-2.71781 -2.18999,-1.71318 -1.21661,-1.14641 -0.489627,-0.49394 -0.222394,0.0183 -0.154155,0.23078"
           style="fill:#100f0d;fill-opacity:1;fill-rule:nonzero;stroke:none;stroke-width:2.2427"
           id="path1482" />
        <path
           d="m 49.856134,241.9743 c 2.136709,1.67757 5.053395,3.31794 7.97664,3.2339 l 0.05728,-0.29549 -3.948972,-1.2611 -3.849482,-2.07073 -0.269773,0.40387"
           style="fill:#100f0d;fill-opacity:1;fill-rule:nonzero;stroke:none;stroke-width:2.2427"
           id="path1484" />
        <path
           d="m 55.097114,241.71542 c 2.047825,0.95071 4.40039,1.9381 6.801283,1.9565 l 0.134355,-0.41087 -3.429604,-0.86411 -3.305616,-1.16509 -0.172897,0.46858"
           style="fill:#100f0d;fill-opacity:1;fill-rule:nonzero;stroke:none;stroke-width:2.2427"
           id="path1486" />
        <path
           d="m 59.985852,241.91045 3.583759,0.63332 3.667292,0.005 0.01874,-0.23779 -3.296678,-0.30806 -3.791622,-0.60528 -0.211435,0.52627"
           style="fill:#100f0d;fill-opacity:1;fill-rule:nonzero;stroke:none;stroke-width:2.2427"
           id="path1488" />
        <path
           d="m 65.205208,240.55661 5.873062,0.31019 0.05728,-0.29549 -2.602784,-0.1199 -3.112375,-0.46863 -0.211434,0.52627"
           style="fill:#100f0d;fill-opacity:1;fill-rule:nonzero;stroke:none;stroke-width:2.2427"
           id="path1490" />
        <path
           d="m 69.118879,238.85876 5.56607,-0.23696 0.03749,-0.47559 -5.519944,0.12595 -0.06612,0.62333"
           style="fill:#100f0d;fill-opacity:1;fill-rule:nonzero;stroke:none;stroke-width:2.2427"
           id="path1492" />
        <path
           d="m 72.967429,236.95638 5.716033,-1.36332 -0.0297,-0.27015 -5.618025,1.11173 -0.07602,0.53329"
           style="fill:#100f0d;fill-opacity:1;fill-rule:nonzero;stroke:none;stroke-width:2.2427"
           id="path1494" />
        <path
           d="m 77.036393,234.52373 4.165938,-1.29739 -0.0396,-0.3602 -4.210825,1.13389 0.05938,0.5403"
           style="fill:#100f0d;fill-opacity:1;fill-rule:nonzero;stroke:none;stroke-width:2.2427"
           id="path1496" />
        <path
           d="m 79.673746,231.97333 4.695495,-1.46096 -0.116662,-0.24481 -2.158558,0.77759 -2.343153,0.4457 -0.07602,0.53328"
           style="fill:#100f0d;fill-opacity:1;fill-rule:nonzero;stroke:none;stroke-width:2.2427"
           id="path1498" />
        <path
           d="m 81.993363,229.09638 1.833876,-0.66905 1.692646,-0.68831 -0.08803,-0.39255 -1.748007,0.59292 -1.73336,0.64441 0.01094,0.50795"
           style="fill:#100f0d;fill-opacity:1;fill-rule:nonzero;stroke:none;stroke-width:2.2427"
           id="path1500" />
        <path
           d="m 84.872907,226.21382 1.03954,-0.42368 0.898404,-0.40114 -0.07813,-0.30251 -0.918976,0.29562 -0.980629,0.38793 0.04948,0.45025"
           style="fill:#100f0d;fill-opacity:1;fill-rule:nonzero;stroke:none;stroke-width:2.2427"
           id="path1502" />
        <path
           d="m 85.821534,223.75443 2.19428,-1.1876 -0.20364,-0.21949 -1.940593,0.92318 -0.07602,0.53329"
           style="fill:#100f0d;fill-opacity:1;fill-rule:nonzero;stroke:none;stroke-width:2.2427"
           id="path1504" />
        <path
           d="m 88.911265,220.57505 -0.378651,-0.58668 -0.25103,0.16607 0.253133,0.66972 0.376548,-0.24911"
           style="fill:#100f0d;fill-opacity:1;fill-rule:nonzero;stroke:none;stroke-width:2.2427"
           id="path1506" />
        <path
           d="m 87.759807,219.38037 1.857407,-1.3125 -0.177523,-0.1537 -1.732108,1.1459 0.0297,0.27015"
           style="fill:#100f0d;fill-opacity:1;fill-rule:nonzero;stroke:none;stroke-width:2.2427"
           id="path1508" />
        <path
           d="m 89.381691,215.74949 0.23123,-0.34616 -0.23123,0.34616"
           style="fill:#100f0d;fill-opacity:1;fill-rule:nonzero;stroke:none;stroke-width:2.2427"
           id="path1510" />
        <path
           d="m 7.9220446,195.8648 c 1.7848612,2.5189 4.5069334,4.49571 7.0351324,6.10106 2.596023,1.65062 5.445329,2.88639 8.380963,3.83772 5.981036,1.90089 12.537635,2.31723 19.125936,1.19696 3.62024,-0.62726 7.48426,-1.60899 10.945863,-3.43859 l -0.107828,-0.57266 c -3.144919,1.19508 -6.226096,2.35763 -9.445845,3.02713 -3.255511,0.67898 -6.507226,0.9433 -9.702779,0.85299 -6.464608,-0.17968 -12.65055,-1.84197 -18.006018,-4.95203 l -4.179415,-2.81423 -3.8259758,-3.49016 -0.1798498,0.21362"
           style="fill:#100f0d;fill-opacity:1;fill-rule:nonzero;stroke:none;stroke-width:2.2427"
           id="path1512" />
        <path
           d="m 14.015764,199.26858 c 2.73838,2.49668 5.863465,4.75104 9.348404,6.07762 l 0.185245,-0.37688 c -3.205893,-1.89115 -6.397048,-3.689 -9.340918,-5.9892 l -0.192698,0.28848"
           style="fill:#100f0d;fill-opacity:1;fill-rule:nonzero;stroke:none;stroke-width:2.2427"
           id="path1514" />
        <path
           d="m 21.959424,202.88429 c 2.388992,2.01299 5.393662,3.68629 8.61672,4.13706 l 0.09582,-0.35318 c -3.035558,-1.07649 -5.918461,-2.20954 -8.505476,-4.12951 l -0.231235,0.34617"
           style="fill:#100f0d;fill-opacity:1;fill-rule:nonzero;stroke:none;stroke-width:2.2427"
           id="path1516" />
        <path
           d="m 27.737334,204.69707 c 1.864196,0.99492 3.796622,2.20228 5.831139,2.86042 l 0.222291,-0.43559 c -1.726812,-1.21107 -3.926557,-1.95534 -5.836469,-2.86398 l -0.221376,0.4362"
           style="fill:#100f0d;fill-opacity:1;fill-rule:nonzero;stroke:none;stroke-width:2.2427"
           id="path1518" />
        <path
           d="m 32.106551,204.1671 c 1.483021,1.32437 3.410807,2.61208 5.441662,2.96739 l 0.21144,-0.52628 -2.967292,-1.23112 -2.395998,-1.63547 -0.30831,0.46156"
           style="fill:#100f0d;fill-opacity:1;fill-rule:nonzero;stroke:none;stroke-width:2.2427"
           id="path1520" />
        <path
           d="m 34.949899,204.49107 c 2.163656,0.8612 4.337845,2.06319 6.627393,2.60799 l 0.221377,-0.43619 c -1.97603,-1.23648 -4.442784,-1.87464 -6.622864,-2.73012 l -0.211443,0.52626"
           style="fill:#100f0d;fill-opacity:1;fill-rule:nonzero;stroke:none;stroke-width:2.2427"
           id="path1522" />
        <path
           d="m 40.482242,204.06971 4.765228,2.03161 0.08592,-0.44324 -2.269793,-0.76523 -2.227905,-1.40472 -0.346848,0.51925"
           style="fill:#100f0d;fill-opacity:1;fill-rule:nonzero;stroke:none;stroke-width:2.2427"
           id="path1524" />
        <path
           d="m 44.108007,203.5254 4.258975,1.46817 0.08592,-0.44324 -1.939686,-0.25269 -1.932431,-1.20736 -0.405186,0.39685"
           style="fill:#100f0d;fill-opacity:1;fill-rule:nonzero;stroke:none;stroke-width:2.2427"
           id="path1526" />
        <path
           d="m 47.405111,203.3473 2.221148,0.64929 0.22911,-0.43103 -2.216734,-0.81321 -0.211435,0.52627"
           style="fill:#100f0d;fill-opacity:1;fill-rule:nonzero;stroke:none;stroke-width:2.2427"
           id="path1528" />
      </g>
    </g>
    <path
       style="opacity:0;fill:none;stroke-width:2;stroke-linejoin:round"
       id="path12612"
       d="m 158.9851,51.626478 c -2.78216,-0.992499 -6.03621,-2.346497 -9.01073,-2.329172 -8.62748,0.05025 -14.40503,5.199375 -17.44939,14.646119 -1.86572,5.789374 6.99051,19.206339 9.2027,23.153391 7.01384,7.296171 7.1468,8.927285 15.89111,12.975114 11.46195,5.30586 2.45502,-0.314156 12.54957,3.50956 4.7223,1.78876 5.47832,3.49362 8.99074,7.182 1.5881,2.12648 3.17619,4.25296 4.76429,6.37944 0,0 8.42481,-4.97596 8.42481,-4.97596 v 0 c -1.52485,-2.20972 -3.0497,-4.41944 -4.57455,-6.62916 -3.39802,-3.8708 -4.32858,-6.010607 -9.22551,-7.786694 -4.14936,-1.50495 -8.95864,-0.58641 -12.91947,-2.902723 -9.14615,-3.613613 -8.8753,-4.925311 -16.22884,-12.162041 -2.02398,-3.714303 -4.04796,-7.428603 -6.07195,-11.142906 -0.69684,-3.902673 -0.25581,-8.193717 -2.09051,-11.708019 -1.01839,-1.950675 -5.87034,-1.079103 -5.73175,-3.275245 0.21528,-3.411625 10.38946,-0.469093 11.14387,-0.237384 1.04197,0.320035 1.99061,0.888833 2.98591,1.333251 0,0 9.3497,-6.029571 9.3497,-6.029571 z" />
  </g>
</svg>
