<?xml version="1.0" encoding="UTF-8" standalone="no"?>
<svg
   xmlns:dc="http://purl.org/dc/elements/1.1/"
   xmlns:cc="http://creativecommons.org/ns#"
   xmlns:rdf="http://www.w3.org/1999/02/22-rdf-syntax-ns#"
   xmlns:svg="http://www.w3.org/2000/svg"
   xmlns="http://www.w3.org/2000/svg"
   xmlns:sodipodi="http://sodipodi.sourceforge.net/DTD/sodipodi-0.dtd"
   xmlns:inkscape="http://www.inkscape.org/namespaces/inkscape"
   width="106.321mm"
   height="106.321mm"
   viewBox="0 0 106.321 106.321"
   version="1.1"
   id="svg1"
   sodipodi:docname="canoe.svg"
   inkscape:version="1.0.1">
  <defs
     id="defs2" />
  <metadata
     id="metadata5">
    <rdf:RDF>
      <cc:Work
         rdf:about="">
        <dc:format>image/svg+xml</dc:format>
        <dc:type
           rdf:resource="http://purl.org/dc/dcmitype/StillImage" />
        <dc:title></dc:title>
      </cc:Work>
    </rdf:RDF>
  </metadata>
  <g
     inkscape:label="Layer 1"
     inkscape:groupmode="layer"
     id="layer1">
    <!-- Canoe body -->
    <path
       d="M 15,45 C 15,35 30,30 45,30 C 60,30 75,35 75,45 C 75,55 60,60 45,60 C 30,60 15,55 15,45 Z"
       style="fill:#e0b84b;fill-opacity:1;fill-rule:nonzero;stroke:none"
       id="canoe-body" />
    <!-- Paddles -->
    <path
       d="M 20,25 L 25,25 L 25,65 L 20,65 Z"
       style="fill:#7acb30;fill-opacity:1;fill-rule:nonzero;stroke:none"
       id="paddle1-shaft" />
    <path
       d="M 15,20 L 30,20 L 30,30 L 15,30 Z"
       style="fill:#7acb30;fill-opacity:1;fill-rule:nonzero;stroke:none"
       id="paddle1-blade1" />
    <path
       d="M 15,60 L 30,60 L 30,70 L 15,70 Z"
       style="fill:#7acb30;fill-opacity:1;fill-rule:nonzero;stroke:none"
       id="paddle1-blade2" />
    <path
       d="M 65,25 L 70,25 L 70,65 L 65,65 Z"
       style="fill:#7acb30;fill-opacity:1;fill-rule:nonzero;stroke:none"
       id="paddle2-shaft" />
    <path
       d="M 60,20 L 75,20 L 75,30 L 60,30 Z"
       style="fill:#7acb30;fill-opacity:1;fill-rule:nonzero;stroke:none"
       id="paddle2-blade1" />
    <path
       d="M 60,60 L 75,60 L 75,70 L 60,70 Z"
       style="fill:#7acb30;fill-opacity:1;fill-rule:nonzero;stroke:none"
       id="paddle2-blade2" />
    <!-- Water -->
    <path
       d="M 10,75 C 10,70 80,70 80,75 C 80,80 10,80 10,75 Z"
       style="fill:#ffffff;fill-opacity:1;fill-rule:nonzero;stroke:none"
       id="water" />
  </g>
</svg> 