<?xml version="1.0" encoding="UTF-8" standalone="no"?>
<svg
   xmlns:dc="http://purl.org/dc/elements/1.1/"
   xmlns:cc="http://creativecommons.org/ns#"
   xmlns:rdf="http://www.w3.org/1999/02/22-rdf-syntax-ns#"
   xmlns:svg="http://www.w3.org/2000/svg"
   xmlns="http://www.w3.org/2000/svg"
   xmlns:sodipodi="http://sodipodi.sourceforge.net/DTD/sodipodi-0.dtd"
   xmlns:inkscape="http://www.inkscape.org/namespaces/inkscape"
   width="106.321mm"
   height="106.321mm"
   viewBox="0 0 106.321 106.321"
   version="1.1"
   id="svg1"
   sodipodi:docname="kayak.svg"
   inkscape:version="1.0.1">
  <defs
     id="defs2" />
  <metadata
     id="metadata5">
    <rdf:RDF>
      <cc:Work
         rdf:about="">
        <dc:format>image/svg+xml</dc:format>
        <dc:type
           rdf:resource="http://purl.org/dc/dcmitype/StillImage" />
        <dc:title></dc:title>
      </cc:Work>
    </rdf:RDF>
  </metadata>
  <g
     inkscape:label="Layer 1"
     inkscape:groupmode="layer"
     id="layer1">
    <!-- Kayak body -->
    <path
       d="M 20,50 C 20,40 30,35 40,35 C 50,35 60,40 60,50 C 60,60 50,65 40,65 C 30,65 20,60 20,50 Z"
       style="fill:#e0b84b;fill-opacity:1;fill-rule:nonzero;stroke:none"
       id="kayak-body" />
    <!-- Paddle -->
    <path
       d="M 65,30 L 75,30 L 75,70 L 65,70 Z"
       style="fill:#7acb30;fill-opacity:1;fill-rule:nonzero;stroke:none"
       id="paddle-shaft" />
    <path
       d="M 60,25 L 80,25 L 80,35 L 60,35 Z"
       style="fill:#7acb30;fill-opacity:1;fill-rule:nonzero;stroke:none"
       id="paddle-blade1" />
    <path
       d="M 60,65 L 80,65 L 80,75 L 60,75 Z"
       style="fill:#7acb30;fill-opacity:1;fill-rule:nonzero;stroke:none"
       id="paddle-blade2" />
    <!-- Water -->
    <path
       d="M 10,80 C 10,75 90,75 90,80 C 90,85 10,85 10,80 Z"
       style="fill:#ffffff;fill-opacity:1;fill-rule:nonzero;stroke:none"
       id="water" />
  </g>
</svg> 