<?xml version="1.0" encoding="UTF-8"?>
<svg version="1.1" xmlns="http://www.w3.org/2000/svg" width="512" height="512">
<path d="M0 0 C0.7734375 -0.00773437 1.546875 -0.01546875 2.34375 -0.0234375 C5.07824661 0.48184992 5.8186013 1.17793676 7.5 3.375 C7.84057617 5.8269043 7.84057617 5.8269043 7.79296875 8.69921875 C7.78330078 9.72724609 7.77363281 10.75527344 7.76367188 11.81445312 C7.73853516 12.88630859 7.71339844 13.95816406 7.6875 15.0625 C7.67396484 16.14595703 7.66042969 17.22941406 7.64648438 18.34570312 C7.61110643 21.02263405 7.56174189 23.69856838 7.5 26.375 C8.28483387 26.37131283 9.06966774 26.36762566 9.87828445 26.36382675 C28.96512296 26.27553258 48.05192076 26.20931812 67.13891983 26.16775131 C76.36921772 26.14711619 85.59937938 26.11897751 94.82958984 26.07324219 C102.87359543 26.03340342 110.91750238 26.0075741 118.96160388 25.99864602 C123.22189464 25.99342622 127.48190317 25.98113831 131.74210358 25.95207977 C135.75089046 25.92495729 139.7592785 25.91654848 143.76814842 25.92256927 C145.24036768 25.92146761 146.71260008 25.91349456 148.18474007 25.8981781 C150.19323229 25.87830397 152.20193787 25.88543931 154.21051025 25.89398193 C155.33509769 25.89029476 156.45968513 25.88660759 157.61835098 25.88280869 C161.16487481 26.48856192 162.37139455 27.51713012 164.5 30.375 C164.5 31.365 164.5 32.355 164.5 33.375 C170.77 33.375 177.04 33.375 183.5 33.375 C183.83 32.055 184.16 30.735 184.5 29.375 C185.70239258 27.64331055 185.70239258 27.64331055 187.5 26.375 C190.13549805 26.03442383 190.13549805 26.03442383 193.26171875 26.08203125 C194.37998047 26.09169922 195.49824219 26.10136719 196.65039062 26.11132812 C198.40125977 26.1490332 198.40125977 26.1490332 200.1875 26.1875 C201.36634766 26.20103516 202.54519531 26.21457031 203.75976562 26.22851562 C206.67363411 26.26390674 209.58658945 26.31328191 212.5 26.375 C212.48428955 25.69397217 212.4685791 25.01294434 212.45239258 24.3112793 C212.39006778 21.22843719 212.35101742 18.14572756 212.3125 15.0625 C212.27479492 13.4547168 212.27479492 13.4547168 212.23632812 11.81445312 C212.22666016 10.78642578 212.21699219 9.75839844 212.20703125 8.69921875 C212.1913208 7.75135498 212.17561035 6.80349121 212.15942383 5.8269043 C212.5 3.375 212.5 3.375 213.88354492 1.56713867 C216.01011535 -0.00121103 217.37748007 -0.0262252 220 0 C220.7734375 -0.00773437 221.546875 -0.01546875 222.34375 -0.0234375 C225.08302546 0.48273297 225.83075174 1.15993877 227.5 3.375 C227.74194336 5.87329102 227.74194336 5.87329102 227.58984375 8.87890625 C227.15390065 26.42403654 230.45634886 38.2139937 238.56933594 53.60742188 C241.94449932 60.10008277 244.89778521 66.8006435 247.93041992 73.45779419 C249.84855467 77.65927248 251.7884255 81.8506898 253.7265625 86.04296875 C254.52116093 87.76350816 255.31575728 89.48404852 256.11035156 91.20458984 C262.43002694 104.88174465 268.77092093 118.54908808 275.10888672 132.21777344 C278.67836205 139.9160991 282.2458596 147.61534129 285.81350708 155.31451416 C287.79225711 159.58471362 289.77113502 163.85485381 291.75 168.125 C292.54166728 169.83333305 293.33333395 171.54166638 294.125 173.25 C294.516875 174.095625 294.90875 174.94125 295.3125 175.8125 C296.5 178.375 297.6875 180.9375 298.875 183.5 C299.26681961 184.34550415 299.65863922 185.1910083 300.06233215 186.06213379 C300.85456239 187.77168593 301.64678854 189.48123997 302.43901062 191.1907959 C304.40952121 195.44299693 306.38010121 199.69516576 308.35083008 203.94726562 C312.01640462 211.85640174 315.68132175 219.76584036 319.34384155 227.6763916 C321.04846156 231.35803282 322.75346558 235.03949615 324.45849609 238.72094727 C325.26060708 240.45311822 326.06253602 242.18537348 326.86425781 243.91772461 C332.03472614 255.08986594 337.24467467 266.24251224 342.5 277.375 C343.61530726 276.4253287 344.7297163 275.47460245 345.84375 274.5234375 C346.46443359 273.99411621 347.08511719 273.46479492 347.72460938 272.91943359 C349.18328294 271.65051597 350.59831516 270.33160059 352 269 C355.40050198 266.78967371 357.52258059 266.79646627 361.5 267.375 C363.9375 268.875 363.9375 268.875 365.5 271.375 C366.27508597 274.83307585 366.51046556 276.11344171 365.5 279.375 C362.88378149 283.10131122 359.74681771 286.19674254 356.5 289.375 C355.67628906 290.22191406 354.85257812 291.06882812 354.00390625 291.94140625 C345.8766899 300.25545516 345.8766899 300.25545516 341.58643156 300.62799966 C339.78240509 300.63011294 339.78240509 300.63011294 337.94193363 300.63226891 C336.93311238 300.63752802 336.93311238 300.63752802 335.90391091 300.64289337 C333.63402544 300.65225066 331.36439412 300.64727304 329.09449768 300.64242554 C327.4572114 300.64615962 325.81992691 300.65076016 324.18264526 300.65615618 C319.67070065 300.66843144 315.15882992 300.66812042 310.6468724 300.66576743 C305.7858508 300.66536041 300.92485326 300.67638738 296.06384277 300.68588257 C286.53577986 300.70251791 277.00774168 300.70799324 267.47966547 300.70910732 C259.73806193 300.71005652 251.99646659 300.71416038 244.25486565 300.72050858 C222.32384981 300.73812726 200.39285358 300.74734637 178.46183062 300.74584763 C177.27874048 300.74576772 176.09565034 300.7456878 174.87670898 300.74560547 C173.69218067 300.74552371 172.50765235 300.74544195 171.28722923 300.74535771 C152.0812717 300.74454445 132.87539254 300.76369059 113.66945768 300.7918822 C93.96644157 300.82057615 74.26346372 300.83442445 54.56042618 300.83269465 C43.49158575 300.83202958 32.42282747 300.83757309 21.35400581 300.85905075 C11.9313203 300.87721662 2.5087542 300.88164778 -6.9139412 300.8680319 C-11.72454919 300.86147917 -16.5349278 300.86146772 -21.3455143 300.8787384 C-25.745434 300.89437277 -30.14494061 300.8917051 -34.54484964 300.87417014 C-36.14038092 300.87107886 -37.7359423 300.87481192 -39.33143812 300.88589029 C-41.49349635 300.89991366 -43.65408586 300.88950482 -45.81609249 300.87277794 C-47.01893916 300.87321267 -48.22178583 300.87364741 -49.4610824 300.87409532 C-52.5 300.375 -52.5 300.375 -54.91774422 298.59388888 C-56.5 296.375 -56.5 296.375 -56.5 292.375 C-62.77 292.375 -69.04 292.375 -75.5 292.375 C-75.83 294.025 -76.16 295.675 -76.5 297.375 C-78.06307531 299.53924387 -78.91726154 300.25463454 -81.53981018 300.79632568 C-82.32017136 300.81680969 -83.10053253 300.8372937 -83.90454102 300.85839844 C-84.7929921 300.88722107 -85.68144318 300.9160437 -86.59681702 300.94573975 C-87.55615646 300.95848938 -88.51549591 300.97123901 -89.50390625 300.984375 C-90.99349098 301.01002533 -90.99349098 301.01002533 -92.51316833 301.03619385 C-94.61878883 301.06454876 -96.72454256 301.0841479 -98.83032227 301.09570312 C-102.02797903 301.1246871 -105.21972991 301.21764153 -108.41601562 301.3125 C-125.5664999 301.57994179 -125.5664999 301.57994179 -131.65234375 296.1328125 C-132.98305254 294.5870597 -134.27387589 293.00495621 -135.5 291.375 C-136.923125 290.01761719 -136.923125 290.01761719 -138.375 288.6328125 C-139.07625 287.92898438 -139.7775 287.22515625 -140.5 286.5 C-141.221875 285.78070313 -141.94375 285.06140625 -142.6875 284.3203125 C-146.04891369 280.71258832 -146.96386404 278.27592203 -146.80859375 273.31640625 C-146.5 271.375 -146.5 271.375 -144.9375 268.875 C-141.28266663 266.62587178 -139.7567785 266.48244967 -135.5 267.375 C-132.68102851 269.52198278 -130.16868794 271.83090874 -127.63671875 274.30859375 C-125.67521623 276.41252338 -125.67521623 276.41252338 -123.5 277.375 C-123.19521729 276.71532227 -122.89043457 276.05564453 -122.57641602 275.37597656 C-115.80054652 260.72098543 -108.96704276 246.09480042 -102.0625 231.5 C-96.82557655 220.42984512 -91.60770045 209.35148414 -86.4375 198.25 C-81.52240266 187.69772796 -76.58397943 177.15672509 -71.625 166.625 C-71.29236145 165.9184729 -70.9597229 165.2119458 -70.61700439 164.48400879 C-67.56042831 157.99222796 -64.50230518 151.50117658 -61.44287109 145.01074219 C-59.39873762 140.67414665 -57.35525844 136.33724342 -55.3125 132 C-54.81002243 130.93316986 -54.81002243 130.93316986 -54.2973938 129.8447876 C-49.33079906 119.29694507 -44.40774364 108.7298558 -39.51196289 98.14892578 C-36.0800054 90.74409585 -32.61142178 83.35759218 -29.11488342 75.98306274 C-27.25075162 72.05119479 -25.39276938 68.11672809 -23.55102539 64.17431641 C-17.64082906 51.53943045 -17.64082906 51.53943045 -14.453125 45.625 C-7.64182027 32.65618294 -7.35090449 20.49724382 -7.78955078 5.96850586 C-7.5 3.375 -7.5 3.375 -6.12255859 1.54272461 C-3.99052467 0.00834028 -2.60854675 -0.02608547 0 0 Z " fill="#010000" transform="translate(146.5,105.625)"/>
<path d="M0 0 C6.93 0 13.86 0 21 0 C21.33 1.98 21.66 3.96 22 6 C25.23865635 7.07955212 27.79155838 7.20441741 31.19921875 7.31640625 C33.01196289 7.37924805 33.01196289 7.37924805 34.86132812 7.44335938 C36.12396484 7.48267578 37.38660156 7.52199219 38.6875 7.5625 C40.59885742 7.62727539 40.59885742 7.62727539 42.54882812 7.69335938 C45.69910852 7.7995486 48.84946839 7.90159533 52 8 C58.59111986 21.51952915 64.99992667 35.10459501 71.1875 48.8125 C76.5738085 60.74261002 82.0795995 72.60992803 87.6875 84.4375 C93.97887022 97.71033844 100.19596969 111.01352783 106.32714844 124.36132812 C109.72977709 131.76593248 113.14761144 139.16354452 116.5625 146.5625 C116.94301514 147.3870871 117.32353027 148.21167419 117.71557617 149.06124878 C123.61166347 161.83770555 129.5202349 174.60833878 135.4375 187.375 C136.01804642 188.62777237 136.01804642 188.62777237 136.61032104 189.90585327 C140.74573832 198.82963711 144.88397321 207.7520999 149.02888489 216.67147827 C150.80142763 220.48626865 152.57278901 224.30160698 154.34402466 228.11700439 C155.19277027 229.9443906 156.04210781 231.77150201 156.89205933 233.59832764 C158.06749827 236.12478251 159.24098839 238.65213393 160.4140625 241.1796875 C160.76413864 241.93076782 161.11421478 242.68184814 161.47489929 243.45568848 C162.78397045 246.2802691 164.01458532 249.04375596 165 252 C102.63 252 40.26 252 -24 252 C-21.525 248.535 -21.525 248.535 -19 245 C-18.58765158 241.42631369 -18.86543351 239.40369948 -20 236 C-24.19287932 235.38853843 -27.60481155 235.10823007 -31.2734375 237.453125 C-33.87056464 239.75095496 -36.24764121 242.18708551 -38.6015625 244.73046875 C-40 246 -40 246 -42 246 C-116.25 85.125 -116.25 85.125 -117.3747406 82.68803406 C-118.12557689 81.06124077 -118.8764416 79.4344606 -119.62733459 77.80769348 C-121.48977143 73.77273732 -123.35173136 69.73756252 -125.21264648 65.7019043 C-128.73687149 58.06048113 -132.26625599 50.42154702 -135.81118774 42.78970337 C-137.49201567 39.17035114 -139.17030332 35.54982368 -140.84838867 31.92919922 C-141.65180262 30.19765071 -142.45647143 28.46668383 -143.26245117 26.73632812 C-144.37733252 24.34259168 -145.48794004 21.94691559 -146.59765625 19.55078125 C-146.92903091 18.84226517 -147.26040558 18.13374908 -147.6018219 17.40376282 C-149.03825151 14.29215529 -150.23858342 11.33828635 -151 8 C-150.25124226 7.99576806 -149.50248451 7.99153612 -148.73103714 7.98717594 C-130.52036909 7.88391545 -112.30974034 7.77528457 -94.09914017 7.66066074 C-85.29266943 7.60535956 -76.48619463 7.55188265 -67.6796875 7.50268555 C-60.00482181 7.45980569 -52.32998558 7.41351808 -44.65516543 7.36312145 C-40.59062807 7.33655116 -36.52609643 7.31169884 -32.46152496 7.29092598 C-28.63666181 7.27132439 -24.81185457 7.24717008 -20.98704147 7.21950912 C-19.58258201 7.21015734 -18.17811028 7.20247535 -16.77363205 7.19658089 C-14.85697754 7.18828796 -12.94035482 7.17342252 -11.02374268 7.15821838 C-9.95077564 7.15176583 -8.87780861 7.14531328 -7.77232742 7.1386652 C-5.34892872 7.01745258 -3.31319147 6.69831239 -1 6 C-0.67 4.02 -0.34 2.04 0 0 Z " fill="#DC9200" transform="translate(310,139)"/>
<path d="M0 0 C46.53 0 93.06 0 141 0 C145.61219647 9.22439294 150.18846999 18.37759287 154.42626953 27.76660156 C156.44771648 32.23693799 158.47832586 36.70305411 160.51171875 41.16796875 C160.87342163 41.96264557 161.23512451 42.75732239 161.60778809 43.57608032 C165.50022323 52.11729095 169.45587547 60.62894532 173.41229248 69.14065552 C179.72979469 82.73382558 186.01108138 96.34207384 192.1875 110 C192.49012756 110.66769409 192.79275513 111.33538818 193.10455322 112.02331543 C193.94037044 113.86872506 194.77301752 115.71556955 195.60546875 117.5625 C196.07106201 118.59503906 196.53665527 119.62757813 197.01635742 120.69140625 C198 123 198 123 198 124 C151.8 124 105.6 124 58 124 C48.7975178 105.5950356 48.7975178 105.5950356 45.95703125 99.546875 C45.62651764 98.84692413 45.29600403 98.14697327 44.95547485 97.42581177 C43.90588374 95.20144612 42.85906653 92.97579009 41.8125 90.75 C41.06460242 89.16289117 40.31663572 87.57581491 39.56860352 85.98876953 C34.64249088 75.52935974 29.75605871 65.05200392 24.90380859 54.55810547 C21.88996906 48.04651414 18.84893053 41.54886854 15.78125 35.0625 C15.4203981 34.29882111 15.0595462 33.53514221 14.6877594 32.74832153 C12.921721 29.0112892 11.15276555 25.27569071 9.37866211 21.54248047 C8.73018186 20.17160819 8.08182021 18.8006798 7.43359375 17.4296875 C7.14556885 16.82656738 6.85754395 16.22344727 6.56079102 15.60205078 C4.13710573 10.46310905 2.12350638 5.30876595 0 0 Z " fill="#FEB026" transform="translate(203,177)"/>
<path d="M0 0 C0.33 0 0.66 0 1 0 C1 71.61 1 143.22 1 217 C-13.52 217.33 -28.04 217.66 -43 218 C-46.1490712 220.7018576 -46.1490712 220.7018576 -47 224 C-50.43705705 224.14505175 -53.87333033 224.23398014 -57.3125 224.3125 C-58.77719727 224.3753418 -58.77719727 224.3753418 -60.27148438 224.43945312 C-62.93620982 224.48523879 -65.37832348 224.48515217 -68 224 C-70.04296875 221.54296875 -70.04296875 221.54296875 -71 219 C-73.79120091 217.60439955 -76.20205692 217.78191712 -79.3203125 217.68359375 C-80.57714844 217.64169922 -81.83398438 217.59980469 -83.12890625 217.55664062 C-84.44761719 217.51732422 -85.76632813 217.47800781 -87.125 217.4375 C-88.46485751 217.39430488 -89.80470156 217.35069027 -91.14453125 217.30664062 C-94.42957815 217.20029019 -97.71470281 217.09826192 -101 217 C-99.46464909 211.9713418 -97.38155869 207.36989536 -95.10546875 202.6484375 C-94.72202805 201.84546234 -94.33858734 201.04248718 -93.94352722 200.21517944 C-93.12167675 198.49476101 -92.2983126 196.77506499 -91.47357178 195.05603027 C-89.29395523 190.51225749 -87.12593867 185.96295434 -84.95703125 181.4140625 C-84.31006287 180.05812988 -84.31006287 180.05812988 -83.65002441 178.67480469 C-80.17662897 171.38854644 -76.75862046 164.07843744 -73.375 156.75 C-68.49189039 146.18219306 -63.5411813 135.64804024 -58.5625 125.125 C-53.34518573 114.0970537 -48.14841932 103.06028536 -43 92 C-37.85157989 80.93971293 -32.65457286 69.90306168 -27.4375 58.875 C-18.1789362 39.30182274 -9.07021603 19.661127 0 0 Z " fill="#F16843" transform="translate(138,174)"/>
<path d="M0 0 C1.00438869 -0.00913666 1.00438869 -0.00913666 2.02906805 -0.01845789 C4.27155027 -0.03509984 6.51346542 -0.03031063 8.7559967 -0.0255127 C10.36422313 -0.03285234 11.97244428 -0.04143827 13.58065796 -0.05117798 C17.94843268 -0.07341325 22.31601887 -0.07632368 26.68384242 -0.07443047 C30.32956546 -0.07431086 33.9752484 -0.08287078 37.6209603 -0.09120798 C46.22133812 -0.11044912 54.82161888 -0.11332321 63.42201233 -0.10656738 C72.29604053 -0.09992493 81.16965324 -0.12279739 90.04359716 -0.15988111 C97.6615517 -0.19056165 105.27937247 -0.20193997 112.89738756 -0.1980443 C117.44772989 -0.19597517 121.9977489 -0.20148113 126.54803276 -0.22593689 C130.82703023 -0.2481746 135.10535137 -0.24635146 139.38435173 -0.22600937 C140.95450362 -0.22259405 142.52470077 -0.22771095 144.09479141 -0.24199295 C146.23935933 -0.26015414 148.38162502 -0.24746465 150.52612305 -0.22705078 C151.7257112 -0.22776329 152.92529936 -0.2284758 154.16123867 -0.2292099 C158.25889884 0.57809658 159.70822854 2.21381889 162.32655334 5.39440918 C163.96961975 8.34069824 163.96961975 8.34069824 165.42811584 11.66003418 C165.83878548 12.57956375 165.83878548 12.57956375 166.25775146 13.51766968 C166.85220436 14.85183663 167.44149847 16.18831161 168.02616882 17.52679443 C169.31019274 20.46510594 170.62021972 23.39160231 171.92861938 26.31912231 C172.63138529 27.89195435 173.33288648 29.46535201 174.03320312 31.03927612 C177.74986581 39.38213219 181.59048256 47.66625622 185.44267273 55.94720459 C187.05120751 59.40553591 188.65619155 62.86551073 190.26135254 66.32540894 C191.47516103 68.94165099 192.68939285 71.55769624 193.90370178 74.17370605 C199.70496619 86.67313897 205.50186707 99.17444417 211.24876404 111.69898987 C213.23228912 116.02077282 215.22814595 120.33647744 217.23620605 124.64691162 C218.6746068 127.74456437 220.09294189 130.85128784 221.51405334 133.95690918 C222.02573059 135.0447168 222.53740784 136.13252441 223.06459045 137.2532959 C223.5158429 138.24990234 223.96709534 139.24650879 224.43202209 140.27331543 C224.82542786 141.12482178 225.21883362 141.97632813 225.62416077 142.8536377 C226.52628738 146.11690903 226.30550194 148.16197981 225.32655334 151.39440918 C222.99578646 153.74650843 221.61341054 154.35806556 218.30269718 154.77751923 C216.514942 154.7831123 216.514942 154.7831123 214.69107056 154.78881836 C214.02556165 154.79490946 213.36005275 154.80100057 212.6743769 154.80727625 C210.44571313 154.82391736 208.21762 154.81912911 205.98890686 154.81433105 C204.39053249 154.82167075 202.79216343 154.83025669 201.19380188 154.83999634 C196.85288551 154.86223109 192.51215886 154.86514207 188.17119336 154.86324883 C184.54783817 154.86312922 180.92452333 154.87168924 177.30117935 154.88002634 C168.75353907 154.89926729 160.20599646 154.90214164 151.65834045 154.89538574 C142.8388428 154.88874331 134.0197632 154.91161572 125.20035034 154.94869947 C117.6291044 154.97938041 110.05799305 154.99075829 102.48668617 154.98686266 C97.96428873 154.98479357 93.44221662 154.99029884 88.91987801 155.01475525 C84.66714398 155.03699364 80.41509045 155.03516927 76.16235352 155.01482773 C74.60187694 155.01141253 73.04135481 155.01652881 71.48093987 155.03081131 C69.34950437 155.04897378 67.22038498 155.03628219 65.08901978 155.01586914 C63.89680596 155.01658165 62.70459215 155.01729416 61.47625065 155.01802826 C57.39769846 154.2105021 55.94027959 152.55219937 53.32655334 149.39440918 C51.81947327 146.79602051 51.81947327 146.79602051 50.55702209 143.97644043 C50.06911194 142.90458496 49.58120178 141.83272949 49.07850647 140.72839355 C48.56223694 139.56630371 48.04596741 138.40421387 47.51405334 137.20690918 C46.66279705 135.32633151 45.80740363 133.44766637 44.95207214 131.56893921 C44.34924203 130.2437982 43.74776673 128.91804013 43.14756775 127.59170532 C39.95532312 120.54298568 36.65370374 113.54693302 33.34623718 106.55172729 C27.60438924 94.40385153 21.91627371 82.2321136 16.27333069 70.03796387 C13.275315 63.56743975 10.25464276 57.10842505 7.20936584 50.66003418 C6.8558606 49.91104858 6.50235535 49.16206299 6.13813782 48.39038086 C4.41817897 44.74704298 2.6957623 41.10490223 0.96913147 37.46472168 C-0.61090824 34.12853876 -2.1731395 30.78448421 -3.72410583 27.43469238 C-4.37757637 26.0302811 -5.03685475 24.62856234 -5.70091248 23.22912598 C-6.7198643 21.07735425 -7.71801277 18.91694774 -8.71250916 16.75378418 C-9.02537872 16.10363342 -9.33824829 15.45348267 -9.66059875 14.78363037 C-11.54925518 10.60525438 -12.17655683 7.77893839 -10.67344666 3.39440918 C-7.34490736 0.05680531 -4.59673729 0.01429266 0 0 Z M8.32655334 15.39440918 C9.5800313 18.22522182 10.83458492 21.05554981 12.08973694 23.88562012 C12.43955124 24.67592621 12.78936554 25.4662323 13.14978027 26.28048706 C16.3199542 33.42465059 19.62002667 40.5030932 22.9667511 47.56591797 C24.70559751 51.23586998 26.43731583 54.90918794 28.17030334 58.58190918 C28.52077728 59.32418762 28.87125122 60.06646606 29.23234558 60.83123779 C32.65964389 68.09256926 36.05905751 75.3667675 39.45155334 82.64440918 C40.02070892 83.86463223 40.58988207 85.08484709 41.15907288 86.30505371 C43.82538104 92.02227681 46.48828593 97.74107024 49.14707947 103.46179199 C50.40373168 106.16497265 51.66166986 108.8675539 52.91975403 111.57006836 C53.51142674 112.84198348 54.1024795 114.11418722 54.69282532 115.38671875 C55.51708204 117.16344859 56.34366843 118.93909706 57.17030334 120.71472168 C57.63629944 121.71777344 58.10229553 122.7208252 58.58241272 123.75427246 C61.09614737 129.00060275 63.72490604 134.19111458 66.32655334 139.39440918 C112.52655334 139.39440918 158.72655334 139.39440918 206.32655334 139.39440918 C202.06660929 129.16135365 202.06660929 129.16135365 197.53358459 119.06237793 C197.19021057 118.32007431 196.84683655 117.57777069 196.49305725 116.81297302 C195.37710332 114.40166414 194.25804778 111.99180835 193.13905334 109.58190918 C192.34347389 107.86376351 191.54815032 106.14549934 190.75306702 104.42712402 C189.10283185 100.86120661 187.45150947 97.29579613 185.79920959 93.73083496 C182.28146135 86.14025848 178.7703504 78.54661905 175.2624054 70.95150757 C174.51515565 69.33368447 173.76771995 67.71594725 173.02009583 66.09829712 C168.95118395 57.29287397 164.90142821 48.4793068 160.89686584 39.64440918 C160.5445842 38.86741669 160.19230255 38.09042419 159.8293457 37.28988647 C158.15963628 33.60524758 156.49326204 29.91914605 154.8316803 26.23083496 C154.24536657 24.93378334 153.65902392 23.63674478 153.07264709 22.33972168 C152.56403137 21.21066406 152.05541565 20.08160645 151.53138733 18.91833496 C150.55461389 16.51130047 150.55461389 16.51130047 149.32655334 15.39440918 C147.50427647 15.29797139 145.67821975 15.27253547 143.85339355 15.27415466 C142.66562317 15.27278 141.47785278 15.27140533 140.25408936 15.26998901 C138.9392305 15.27358429 137.62437164 15.27717957 136.26966858 15.28088379 C134.8803762 15.28116566 133.49108367 15.28100793 132.10179138 15.28044128 C128.31890046 15.2801533 124.53604097 15.28605017 120.75315738 15.29301524 C116.80399658 15.29924863 112.85483513 15.29985257 108.90567017 15.30104065 C101.42230259 15.30415401 93.93894956 15.31236746 86.4555884 15.32239014 C77.93819601 15.33355113 69.42080295 15.33906169 60.90340507 15.34408557 C43.37777941 15.35455007 25.85216791 15.3721496 8.32655334 15.39440918 Z " fill="#010100" transform="translate(194.67344665527344,161.6055908203125)"/>
<path d="M0 0 C0.92889542 -0.00861557 1.85779083 -0.01723114 2.81483459 -0.02610779 C5.88603566 -0.04881426 8.95632767 -0.04201994 12.02758789 -0.03295898 C14.1622393 -0.0381927 16.29688838 -0.04446825 18.43153381 -0.05174255 C22.90628945 -0.06215559 27.38072727 -0.0575725 31.85546875 -0.04296875 C37.59028347 -0.02578495 43.32409594 -0.04926706 49.05879879 -0.08445835 C53.46747988 -0.10641838 57.87592067 -0.10499411 62.28463936 -0.09669304 C64.39895285 -0.09587266 66.51328384 -0.10275256 68.62754631 -0.11746407 C71.58435534 -0.13488258 74.53935746 -0.12038918 77.49609375 -0.09765625 C78.80620926 -0.11519455 78.80620926 -0.11519455 80.14279175 -0.13308716 C84.48830001 -0.06510448 86.25830779 0.09533419 89.77250671 2.87223816 C92.0762483 5.8771522 93.92436543 8.96545577 95.61743164 12.33813477 C95.94566925 12.98033966 96.27390686 13.62254456 96.61209106 14.28421021 C97.29773858 15.63470321 97.97816461 16.98785881 98.65356445 18.34350586 C99.68653191 20.4060268 100.74849554 22.45177237 101.81274414 24.49829102 C102.478629 25.81898835 103.14275252 27.14057553 103.80493164 28.46313477 C104.12251434 29.06753387 104.44009705 29.67193298 104.76730347 30.29464722 C106.92519576 34.72778751 107.17994625 37.80268598 105.81274414 42.53344727 C104.03799055 44.53797401 102.59048986 45.418595 99.92802811 45.81176949 C97.4892049 45.94003931 95.06771501 45.96154473 92.62548828 45.95336914 C91.69659286 45.96183868 90.76769745 45.97030823 89.81065369 45.97903442 C86.73959671 46.00243651 83.66903979 46.00342582 80.59790039 46.00219727 C78.4632497 46.00929678 76.32860093 46.01699547 74.19395447 46.02526855 C69.71925553 46.03872068 65.24473304 46.04027876 60.77001953 46.03442383 C55.03523954 46.02852646 49.30130577 46.05911796 43.56668949 46.09954071 C39.15802955 46.12538731 34.74957419 46.12829788 30.34084892 46.12464905 C28.22652497 46.12634307 26.11219184 46.13601263 23.99794197 46.15379333 C21.04118294 46.17592309 18.08614755 46.16631136 15.12939453 46.14868164 C14.25598419 46.16194489 13.38257385 46.17520813 12.48269653 46.18887329 C8.12987945 46.12855336 6.36760929 45.97179222 2.84625244 43.18991089 C0.57658622 40.22494352 -1.09528761 37.30197825 -2.73803711 33.94750977 C-3.041707 33.32750092 -3.34537689 32.70749207 -3.6582489 32.06869507 C-4.29271564 30.76521746 -4.92186888 29.45914118 -5.54589844 28.15063477 C-6.49789482 26.16233415 -7.47507445 24.18787434 -8.45483398 22.21313477 C-9.07163147 20.93784792 -9.6869176 19.66182877 -10.30053711 18.38500977 C-10.85523682 17.2385498 -11.40993652 16.09208984 -11.98144531 14.91088867 C-13.3332784 11.12444223 -13.70395356 8.52107569 -13.18725586 4.53344727 C-9.78118027 -0.56446804 -5.58726871 -0.04164999 0 0 Z " fill="#010100" transform="translate(244.187255859375,191.466552734375)"/>
<path d="M0 0 C2.32322361 2.90244636 3.95626918 5.76849775 5.50390625 9.14453125 C5.98746582 10.19278076 6.47102539 11.24103027 6.96923828 12.32104492 C7.49501465 13.4732251 8.02079102 14.62540527 8.5625 15.8125 C9.13217846 17.05140496 9.7023427 18.29008665 10.27294922 19.52856445 C11.51882124 22.23442683 12.76202329 24.94149473 14.00341797 27.64941406 C16.05900002 32.13152933 18.1242134 36.60916746 20.19140625 41.0859375 C20.5501886 41.8629451 20.90897095 42.6399527 21.27862549 43.44050598 C22.017654 45.04092584 22.75670868 46.64133361 23.49578857 48.24172974 C24.63914115 50.71812846 25.78182884 53.19483295 26.92431641 55.67163086 C34.38343417 71.84129455 41.8708522 87.99779448 49.36207581 104.15260315 C52.29036663 110.46794774 55.21592124 116.78455602 58.140625 123.1015625 C59.41354743 125.85037926 60.68651635 128.59917449 61.95950317 131.34796143 C62.76117292 133.07928437 63.56267389 134.81068548 64.36398315 136.54217529 C65.11932217 138.1742784 65.87494719 139.80624918 66.63087463 141.43807983 C67.35511384 143.00197342 68.07847414 144.56627438 68.80088806 146.13101196 C70.62211502 150.06721133 72.47029905 153.98766365 74.36181641 157.890625 C74.73985916 158.67590576 75.11790192 159.46118652 75.50740051 160.27026367 C76.22895035 161.76587046 76.95692886 163.25839771 77.69218445 164.74731445 C78.52123617 166.4707083 79.26909349 168.23274541 80 170 C79.67 170.66 79.34 171.32 79 172 C78.46375 171.68546875 77.9275 171.3709375 77.375 171.046875 C66.02291305 164.84803805 53.86665207 162.1422232 41 163 C39.64194699 163.07976668 38.28387273 163.15917218 36.92578125 163.23828125 C33.28136727 163.46078588 29.64059638 163.72148443 26 164 C24.61426966 157.41682667 23.48822758 150.84515201 22.5859375 144.1796875 C21.0940984 133.4666993 19.38472745 122.796747 17.625 112.125 C17.31493686 110.234253 17.00512659 108.34346453 16.69555664 106.45263672 C16.23076649 103.61388418 15.76584569 100.77515401 15.30012512 97.93655396 C13.99833897 90.00163508 12.71429904 82.06397659 11.4375 74.125 C9.7180872 63.44853003 7.99480657 52.77269692 6.26541138 42.09783936 C6.01141545 40.52970784 5.75756259 38.96155313 5.50387573 37.39337158 C5.14622689 35.18275338 4.78801768 32.9722266 4.4296875 30.76171875 C4.25691032 29.69313629 4.25691032 29.69313629 4.0806427 28.60296631 C3.45439636 24.74365829 2.8128946 20.88745228 2.15332031 17.03369141 C2.0141922 16.21608841 1.87506409 15.39848541 1.73171997 14.55610657 C1.46410574 12.98741392 1.19380253 11.41917684 0.92037964 9.85148621 C0.34875401 6.49378867 0 3.41910799 0 0 Z " fill="#D06C00" transform="translate(163,194)"/>
<path d="M0 0 C0.33 0 0.66 0 1 0 C1.67717653 4.15825086 2.35253257 8.31679255 3.02636719 12.47558594 C3.25473597 13.88354024 3.48356007 15.29142078 3.71289062 16.69921875 C4.83190787 23.57037727 5.93610615 30.4385055 6.8828125 37.3359375 C8.51240232 48.92761028 10.55468673 60.45811746 12.5 72 C17.2742955 100.32672699 17.2742955 100.32672699 19 113 C19.59641974 117.21308873 20.22516188 121.41984922 20.875 125.625 C21.09736328 127.19701172 21.09736328 127.19701172 21.32421875 128.80078125 C21.48277344 129.80753906 21.64132813 130.81429687 21.8046875 131.8515625 C21.93858887 132.74697754 22.07249023 133.64239258 22.21044922 134.56494141 C23.19816631 137.61116599 24.50735785 139.02100719 27 141 C30.50648045 140.92539403 33.46573604 140.14051874 36.8515625 139.25 C47.41473793 136.5770797 58.53935344 135.17439212 69 139 C69.93457031 139.33 70.86914062 139.66 71.83203125 140 C78.87559338 142.69338728 84.31497821 146.0886794 90 151 C91.18724705 151.95864669 92.37471518 152.9170197 93.5625 153.875 C94.366875 154.57625 95.17125 155.2775 96 156 C96 156.33 96 156.66 96 157 C64.32 157 32.64 157 0 157 C0 105.19 0 53.38 0 0 Z " fill="#6E2C21" transform="translate(154,234)"/>
<path d="M0 0 C3.3 0 6.6 0 10 0 C16.58394205 13.52344149 22.99975701 27.10421915 29.1875 40.8125 C34.5738085 52.74261002 40.0795995 64.60992803 45.6875 76.4375 C51.97887022 89.71033844 58.19596969 103.01352783 64.32714844 116.36132812 C67.72977709 123.76593248 71.14761144 131.16354452 74.5625 138.5625 C74.94301514 139.3870871 75.32353027 140.21167419 75.71557617 141.06124878 C81.61166347 153.83770555 87.5202349 166.60833878 93.4375 179.375 C93.82453094 180.21018158 94.21156189 181.04536316 94.61032104 181.90585327 C98.74573832 190.82963711 102.88397321 199.7520999 107.02888489 208.67147827 C108.80142763 212.48626865 110.57278901 216.30160698 112.34402466 220.11700439 C113.19277027 221.9443906 114.04210781 223.77150201 114.89205933 225.59832764 C116.06749827 228.12478251 117.24098839 230.65213393 118.4140625 233.1796875 C118.76413864 233.93076782 119.11421478 234.68184814 119.47489929 235.45568848 C120.78397045 238.2802691 122.01458532 241.04375596 123 244 C119.37 244 115.74 244 112 244 C94.00454454 205.28745511 94.00454454 205.28745511 85.25 185.9375 C80.11249408 174.58326978 74.87286983 163.28161384 69.56140137 152.00778198 C64.46677664 141.18974876 59.49024469 130.32218162 54.5625 119.42724609 C49.65217802 108.57594602 44.63678782 97.77827475 39.55947876 87.00421143 C34.53352771 76.33427235 29.62965145 65.61373392 24.77975464 54.86276245 C20.95144612 46.38409867 17.0486445 37.94500282 13.0546875 29.54296875 C12.63864761 28.66771545 12.22260773 27.79246216 11.79396057 26.89068604 C9.7489092 22.59344223 7.69692583 18.29962637 5.63745117 14.00927734 C4.89500249 12.45541179 4.15257001 10.90153849 3.41015625 9.34765625 C3.06407318 8.63159714 2.71799011 7.91553802 2.36141968 7.17778015 C0 2.22579901 0 2.22579901 0 0 Z " fill="#D27E02" transform="translate(352,147)"/>
<path d="M0 0 C23.76 0 47.52 0 72 0 C79 13 79 13 79 15 C55.24 15 31.48 15 7 15 C0 2 0 2 0 0 Z " fill="#EED5A2" transform="translate(251,207)"/>
<path d="M0 0 C3.375 4.5 3.375 4.5 4 8 C3.34 8 2.68 8 2 8 C1.67 8.66 1.34 9.32 1 10 C0.67 6.7 0.34 3.4 0 0 Z " fill="#A95800" transform="translate(163,194)"/>
</svg>
