<?xml version="1.0" encoding="UTF-8"?>
<svg version="1.1" xmlns="http://www.w3.org/2000/svg" width="512" height="512">
<path d="M0 0 C0.68370082 -0.00438225 1.36740165 -0.00876451 2.07182068 -0.01327956 C4.34393959 -0.02654656 6.61601985 -0.03281865 8.88816833 -0.03897095 C10.52476674 -0.04688091 12.16136345 -0.0551504 13.79795837 -0.06375122 C19.15280011 -0.08984794 24.50764922 -0.1052573 29.86253357 -0.11953735 C31.7095331 -0.12490039 33.55653258 -0.13027791 35.40353203 -0.13566971 C43.08400198 -0.1572721 50.76446992 -0.1760108 58.4449625 -0.1872921 C69.43993343 -0.20355176 80.43455227 -0.23680851 91.42939049 -0.29369295 C99.16968878 -0.33237307 106.90989277 -0.35192196 114.65028518 -0.35721266 C119.27051216 -0.36086611 123.8903625 -0.37288845 128.5104847 -0.4053154 C132.85349558 -0.43536556 137.19590119 -0.44171899 141.53899384 -0.42993164 C143.13132165 -0.42971071 144.72367736 -0.43803188 146.31590843 -0.45558548 C148.49274637 -0.47827629 150.66738842 -0.46998638 152.84423828 -0.45410156 C154.06113122 -0.45741171 155.27802416 -0.46072186 156.53179264 -0.46413231 C161.0813519 0.38104804 162.68179041 1.79498419 165.85862732 5.15390015 C166.18862732 6.80390015 166.51862732 8.45390015 166.85862732 10.15390015 C174.77862732 10.15390015 182.69862732 10.15390015 190.85862732 10.15390015 C191.18862732 8.50390015 191.51862732 6.85390015 191.85862732 5.15390015 C193.75330657 2.95362747 195.26257953 1.45192404 197.85862732 0.15390015 C202.17386935 0.11224723 205.78431913 0.40188441 209.35862732 2.90390015 C210.85862732 5.15390015 210.85862732 5.15390015 211.85862732 10.15390015 C219.77862732 10.15390015 227.69862732 10.15390015 235.85862732 10.15390015 C236.18862732 8.50390015 236.51862732 6.85390015 236.85862732 5.15390015 C238.75330657 2.95362747 240.26257953 1.45192404 242.85862732 0.15390015 C244.78049337 0.04727076 246.70606155 0.00505567 248.63084412 -0.00723267 C250.44995552 -0.02164398 250.44995552 -0.02164398 252.30581665 -0.03634644 C253.63982453 -0.04120023 254.97383462 -0.04547762 256.30784607 -0.04922485 C257.31958861 -0.05346592 257.31958861 -0.05346592 258.3517704 -0.05779266 C261.93519611 -0.07281065 265.51858144 -0.08201801 269.10203552 -0.08633423 C272.76410442 -0.0917613 276.42579051 -0.11565675 280.0877409 -0.14430618 C282.93379685 -0.16317778 285.77976613 -0.1681514 288.62587929 -0.1696701 C290.61900809 -0.1740835 292.61209004 -0.19262784 294.60513306 -0.2116394 C316.40370205 -0.15945893 335.42960685 6.52356621 351.17112732 21.96640015 C370.47646517 41.61509523 373.01250873 65.19935807 373.00389099 91.40658569 C373.00688802 93.23444181 373.0102918 95.0622973 373.0140686 96.89015198 C373.02285788 101.82843734 373.02524458 106.76670535 373.02588439 111.70499778 C373.02659783 114.79825057 373.02873771 117.89149903 373.03138161 120.98475075 C373.04061858 131.79886782 373.0447186 142.61297262 373.04393005 153.42709351 C373.04332986 163.47049344 373.05387451 173.51383956 373.06967372 183.55722588 C373.08279613 192.21070725 373.08811198 200.86417112 373.08747464 209.51766235 C373.08722102 214.67232873 373.08999684 219.82694725 373.10065269 224.98160362 C373.11041307 229.83507656 373.11035908 234.68845664 373.10313606 239.54193306 C373.10209998 241.31064873 373.10439411 243.07937042 373.11049652 244.84807587 C373.19590348 271.34447472 369.04354962 291.69586255 350.85862732 312.15390015 C372.96862732 312.48390015 395.07862732 312.81390015 417.85862732 313.15390015 C417.85862732 302.26390015 417.85862732 291.37390015 417.85862732 280.15390015 C421.47881963 271.70678476 421.47881963 271.70678476 424.85862732 270.15390015 C429.64644832 269.62192003 431.72265277 269.42881001 435.79612732 272.02890015 C438.81793405 275.14227678 438.99134768 276.8456739 439.05149841 281.07504272 C439.06756134 282.09983231 439.08362427 283.12462189 439.10017395 284.1804657 C439.14457175 288.8692768 439.1856864 293.55794566 439.20872498 298.24691772 C439.22529122 300.72129721 439.25258964 303.19562871 439.29075623 305.66976929 C439.34546583 309.23374304 439.36739075 312.79659451 439.38206482 316.3609314 C439.40473419 317.46628738 439.42740356 318.57164337 439.45075989 319.710495 C439.42962259 327.38098202 439.42962259 327.38098202 436.51341248 331.32846069 C432.90192593 333.81173133 430.31399823 334.27942162 426.03853321 334.29256535 C425.03979233 334.29803979 424.04105144 334.30351423 423.01204568 334.30915457 C421.91186394 334.31013268 420.8116822 334.31111078 419.67816162 334.31211853 C418.51178592 334.31705651 417.34541023 334.32199448 416.14368981 334.3270821 C412.90101742 334.33981063 409.65836829 334.3480855 406.41567838 334.35450876 C402.9207984 334.3625067 399.4259403 334.37620656 395.93107605 334.38922119 C389.87425737 334.41099254 383.8174365 334.42913462 377.76059914 334.44482613 C369.0033816 334.46751876 360.24618828 334.49566243 351.48899128 334.5251454 C337.28172896 334.57282876 323.07445674 334.61609093 308.86717224 334.65658569 C295.06443003 334.69593684 281.26169662 334.73736215 267.45896912 334.78158569 C266.18321076 334.7856721 266.18321076 334.7856721 264.88167951 334.78984106 C260.615031 334.80352048 256.34838262 334.81724076 252.0817343 334.83098137 C216.6740502 334.94495783 181.26634747 335.0517646 145.85862732 335.15390015 C145.60105652 336.02635376 145.34348572 336.89880737 145.07810974 337.79769897 C144.73111023 338.95294067 144.38411072 340.10818237 144.02659607 341.2984314 C143.68652527 342.43901001 143.34645447 343.57958862 142.99607849 344.75473022 C138.06001942 359.5056962 127.71702541 370.21495514 114.23753357 377.5874939 C97.32452513 385.85989425 80.44601132 385.81164061 62.85862732 380.15390015 C48.51075562 374.80051043 37.17677085 363.39772191 30.54612732 349.77890015 C28.5125291 345.29862906 27.61937079 341.51452708 27.04612732 336.65390015 C26.52588891 333.62655536 26.52588891 333.62655536 24.85862732 331.15390015 C20.89078245 329.2947083 17.00292027 328.37931496 12.74925232 327.4078064 C-15.05589848 320.88153709 -39.99702116 298.30254387 -54.93067932 274.65951538 C-67.68505587 253.63825338 -73.45087167 231.76879057 -73.43190002 207.23446655 C-73.43789837 205.66922184 -73.44470687 204.10398007 -73.45225525 202.53874207 C-73.46978608 198.32168888 -73.47460502 194.10471705 -73.47588682 189.88763094 C-73.47731594 187.24481536 -73.48159974 184.60201997 -73.48688126 181.95920944 C-73.50533626 172.71647597 -73.51355725 163.47379987 -73.51197815 154.23104858 C-73.51077683 145.65133734 -73.53188896 137.07187767 -73.56346548 128.49223006 C-73.58971205 121.09394177 -73.600342 113.69573526 -73.59906733 106.29740083 C-73.59856031 101.892804 -73.60409871 97.4884313 -73.62542343 93.08388138 C-73.64494892 88.93862128 -73.64483388 84.79379597 -73.63039017 80.64851952 C-73.62831883 79.13857949 -73.63290143 77.62861118 -73.64511108 76.1187191 C-73.74233036 63.24984478 -71.47306786 51.57947092 -65.57887268 40.02890015 C-65.07613831 39.03515381 -65.07613831 39.03515381 -64.56324768 38.02133179 C-60.83122578 31.02800104 -55.82816075 25.6068702 -50.14137268 20.15390015 C-49.43883362 19.46682983 -48.73629456 18.77975952 -48.01246643 18.0718689 C-35.09524381 6.09408065 -17.47586117 0.0799993 0 0 Z " fill="#010201" transform="translate(73.14137268066406,63.846099853515625)"/>
<path d="M0 0 C3.98749146 2.79124402 3.99793997 3.98969985 5 9 C12.92 9 20.84 9 29 9 C30.98 12.96 30.98 12.96 33 17 C37.04979886 19.02489943 38.65176008 19.2502242 43.03100586 19.25537109 C44.25005112 19.26233002 45.46909637 19.26928894 46.7250824 19.27645874 C48.04170364 19.27546173 49.35832489 19.27446472 50.71484375 19.2734375 C52.09046869 19.28200681 53.46608538 19.29200979 54.84169006 19.30337524 C60.66858788 19.34944813 66.495436 19.37419001 72.32250977 19.38085938 C75.89353898 19.3859306 79.46403594 19.41046931 83.0348835 19.44618607 C85.03133717 19.46051751 87.02790877 19.45340636 89.0243988 19.44564819 C104.49150182 19.6101035 118.27678356 24.49299581 129.75 35.0625 C141.8790941 48.02960423 145.49092628 62.64398886 145.34057617 80.03027344 C145.33972761 81.39163189 145.34020949 82.7529917 145.34190369 84.11434937 C145.34275616 87.77067069 145.3252535 91.42669016 145.30418181 95.08294201 C145.28528855 98.91858024 145.28365469 102.75422719 145.28010559 106.58990479 C145.27082196 113.83567801 145.24625869 121.08131366 145.21605712 128.32702661 C145.18239768 136.58347656 145.16599823 144.83993346 145.15097082 153.09643507 C145.11970532 170.06438302 145.06474001 187.03214173 145 204 C128.5 204 112 204 95 204 C94.97421875 199.9059375 94.9484375 195.811875 94.921875 191.59375 C94.89015867 188.31178294 94.8545063 185.02991067 94.81620789 181.74801636 C94.77696471 178.29325431 94.74452049 174.83874607 94.72900391 171.38378906 C94.71084338 167.41178185 94.66084425 163.44047054 94.609375 159.46875 C94.60753204 157.62766663 94.60753204 157.62766663 94.60565186 155.74938965 C94.46781193 147.63640452 93.50282206 142.07008069 88.0703125 135.7578125 C87.42835938 135.21898437 86.78640625 134.68015625 86.125 134.125 C85.48820312 133.57070312 84.85140625 133.01640625 84.1953125 132.4453125 C78.99657966 129.0226592 73.70696315 128.70559244 67.64306641 128.7253418 C66.82598709 128.72023087 66.00890778 128.71511993 65.16706848 128.70985413 C62.478491 128.6960071 59.7901713 128.69691131 57.1015625 128.69921875 C55.22358099 128.69532892 53.34560036 128.69099365 51.46762085 128.68623352 C47.53535101 128.67878166 43.60317097 128.67905494 39.67089844 128.68432617 C34.64513879 128.69011704 29.61974813 128.673194 24.59404945 128.6499815 C20.7162971 128.63521047 16.8386329 128.63437708 12.96085739 128.63749123 C11.10859827 128.63697963 9.25633401 128.6317724 7.40410233 128.62167931 C4.80773578 128.60926776 2.21207884 128.61613471 -0.38427734 128.62768555 C-1.14090164 128.62004181 -1.89752594 128.61239807 -2.67707825 128.60452271 C-8.79120849 128.66429227 -14.10339605 129.9749406 -19.20703125 133.54296875 C-19.73683594 134.08566406 -20.26664063 134.62835938 -20.8125 135.1875 C-21.35519531 135.71730469 -21.89789063 136.24710938 -22.45703125 136.79296875 C-34.71240363 154.32280519 -27.8191805 193.69328875 -28 204 C-104.56 204 -181.12 204 -260 204 C-260.0825 181.333125 -260.165 158.66625 -260.25 135.3125 C-260.30462402 124.60486206 -260.30462402 124.60486206 -260.36035156 113.6809082 C-260.37841797 104.91638184 -260.37841797 104.91638184 -260.3817749 100.80412292 C-260.38547869 97.95206575 -260.40037604 95.100311 -260.42230225 92.24833679 C-260.45000731 88.59556641 -260.45791591 84.94322745 -260.4522891 81.29036176 C-260.45401187 79.33727375 -260.47532592 77.38423199 -260.497715 75.43127155 C-260.42694277 60.21038747 -255.30767319 46.50684227 -244.9375 35.25 C-239.4058567 30.04930971 -232.88290204 26.16819639 -226 23 C-225.42459126 22.73244431 -224.84918253 22.46488863 -224.25633717 22.1892252 C-216.58887545 19.15861157 -208.63309535 19.57398889 -200.52807617 19.59936523 C-198.86823026 19.59361565 -197.20838852 19.58652998 -195.54855347 19.57821655 C-191.98985608 19.56316122 -188.43130816 19.55732414 -184.87257957 19.55874443 C-179.24604891 19.56078457 -173.61971839 19.54117039 -167.99324036 19.51856995 C-157.07296667 19.47767854 -146.15270907 19.4590019 -135.2323761 19.44239807 C-121.31384001 19.42000833 -107.39535031 19.38654882 -93.47689039 19.33519894 C-87.88236431 19.31526952 -82.28794377 19.3056969 -76.69338357 19.30424678 C-73.2187728 19.30149978 -69.74422055 19.29067786 -66.26963425 19.27773666 C-64.65714242 19.27345168 -63.04463732 19.27260055 -61.43214226 19.27541161 C-59.23340897 19.2788055 -57.03504624 19.27004615 -54.83634949 19.25828552 C-52.99001812 19.25583407 -52.99001812 19.25583407 -51.10638714 19.25333309 C-48.10133917 19.00826444 -46.458505 18.69625944 -44 17 C-41.64644661 13.88214887 -41.64644661 13.88214887 -41 9 C-32.75 9 -24.5 9 -16 9 C-15.67 7.35 -15.34 5.7 -15 4 C-10.32889872 -1.42450471 -6.74971647 -1.54931214 0 0 Z " fill="#FDD88E" transform="translate(280,65)"/>
<path d="M0 0 C1.09256355 0.00607269 1.09256355 0.00607269 2.2071991 0.01226807 C2.97481064 0.00876343 3.74242218 0.00525879 4.53329468 0.00164795 C7.07768219 -0.00717455 9.621793 -0.00131847 12.16618347 0.00543213 C13.92973382 0.00408563 15.69328381 0.00214522 17.45683289 -0.00036621 C21.15572132 -0.00331817 24.85451327 0.00098247 28.5533905 0.01031494 C33.30178253 0.02170954 38.04994849 0.01515045 42.79833221 0.00317001 C46.44079806 -0.00404665 50.08321005 -0.00176156 53.72567749 0.0034256 C55.47682726 0.00476263 57.22798186 0.0031125 58.97912598 -0.00153351 C61.42377228 -0.0065956 63.86804916 0.00110682 66.31266785 0.01226807 C67.04104355 0.0082196 67.76941925 0.00417114 68.51986694 0 C73.5314046 0.04252826 73.5314046 0.04252826 75.75993347 2.27105713 C76.00602913 5.04716682 76.00602913 5.04716682 76.0004425 8.66171265 C76.00215135 9.32495698 76.0038602 9.98820131 76.00562084 10.67154396 C76.00892719 12.90420485 75.9978935 15.13656825 75.98698425 17.36920166 C75.98642038 18.96553541 75.98673622 20.56186968 75.98786926 22.15820312 C75.98844473 26.50096652 75.97665911 30.84362016 75.96272135 35.18635798 C75.95024625 39.72141118 75.94904604 44.25646671 75.94667053 48.79153442 C75.94044627 57.38340584 75.92402269 65.97522655 75.90397155 74.56707561 C75.87746932 86.17435823 75.86664755 97.78165465 75.85496712 109.38895988 C75.83614273 127.6830303 75.79630338 145.97699371 75.75993347 164.27105713 C48.36993347 164.27105713 20.97993347 164.27105713 -7.24006653 164.27105713 C-7.3206726 123.72620471 -7.3206726 123.72620471 -7.33772278 106.78277588 C-7.34960666 95.06710059 -7.36360416 83.35145399 -7.39094543 71.63580322 C-7.4108453 63.10472622 -7.42377486 54.57367242 -7.42824352 46.04257286 C-7.43085669 41.52310496 -7.43702174 37.00370343 -7.45152664 32.48425674 C-7.46505685 28.23424844 -7.46929847 23.98433413 -7.46628189 19.73430634 C-7.46683411 18.17096064 -7.47083864 16.60761195 -7.47847748 15.04428482 C-7.48836758 12.91664361 -7.48605745 10.78936145 -7.48057556 8.66171265 C-7.48241915 7.46891253 -7.48426273 6.2761124 -7.48616219 5.04716682 C-7.03465228 -0.04614133 -4.53348542 0.03847147 0 0 Z " fill="#88DE8E" transform="translate(279.2400665283203,212.72894287109375)"/>
<path d="M0 0 C75.57 0 151.14 0 229 0 C229 29.04 229 58.08 229 88 C218.11 88 207.22 88 196 88 C194.68 83.71 193.36 79.42 192 75 C184.6268662 59.39639127 173.16279675 48.16263061 157 42 C156.15953125 41.67902344 155.3190625 41.35804688 154.453125 41.02734375 C138.93268385 35.97144247 122.36732437 38.78172073 108.08496094 46.03393555 C94.32417098 53.49504353 85.54377976 65.63826182 80 80 C79.61944741 81.65652305 79.26731983 83.32148012 79 85 C54.11928091 80.43853483 31.82915392 63.98958714 17.1875 43.6875 C8.30328729 30.14887439 2.02263847 16.18110774 0 0 Z " fill="#FEFEFE" transform="translate(22,289)"/>
<path d="M0 0 C1.16205963 -0.01248528 1.16205963 -0.01248528 2.34759521 -0.02522278 C4.90211052 -0.04926431 7.45636997 -0.05808908 10.01098633 -0.06469727 C11.79592461 -0.07367032 13.58086215 -0.08279229 15.36579895 -0.09205627 C19.10732853 -0.10853456 22.84876877 -0.11624387 26.59033203 -0.11914062 C31.36391774 -0.12451332 36.13665278 -0.16215194 40.90999889 -0.20788479 C44.59826143 -0.23776502 48.2863222 -0.2448666 51.97469521 -0.24586678 C53.73322749 -0.25004985 55.49176144 -0.2624066 57.25017357 -0.28338432 C76.90384601 -0.49912717 76.90384601 -0.49912717 85.04606628 7.06202698 C90.62044463 12.89736152 92.60882734 19.24406155 92.57543945 27.19433594 C92.583909 27.94982727 92.59237854 28.7053186 92.60110474 29.48370361 C92.62435859 31.96253653 92.62549956 34.44074433 92.62426758 36.91967773 C92.63137719 38.65691877 92.63907735 40.39415749 92.64733887 42.13139343 C92.66075777 45.76686127 92.6623646 49.40211205 92.65649414 53.03759766 C92.6506065 57.67441775 92.68116241 62.31018773 92.72161102 66.946805 C92.74758551 70.53386451 92.75035654 74.1206746 92.74671936 77.70781517 C92.74840212 79.41609519 92.75796258 81.12438779 92.77586365 82.83257484 C92.87920761 93.91431077 91.97106885 102.11497342 84.96801758 111.11889648 C75.2301592 118.69278634 66.12487101 119.05238953 54.24926758 118.97045898 C52.51631328 118.97383426 50.78336131 118.97869277 49.05041504 118.98495483 C45.43271161 118.99229274 41.81562885 118.98172116 38.19799805 118.95825195 C33.58472019 118.92976551 28.97289716 118.9461862 24.35967255 118.97611427 C20.78543338 118.99427134 17.21153329 118.98839099 13.63728333 118.97547531 C11.93740156 118.97216445 10.23748797 118.97614574 8.53764343 118.98787308 C-1.65318455 119.04276864 -10.88954398 118.92023258 -18.73742676 111.5218811 C-24.10511271 105.77737961 -26.29680157 100.0799699 -26.24853516 92.22485352 C-26.25539841 91.43703491 -26.26226166 90.64921631 -26.26933289 89.83752441 C-26.28755854 87.24623328 -26.28376904 84.65555016 -26.27807617 82.06420898 C-26.2826405 80.25348719 -26.28794682 78.44276712 -26.29396057 76.63204956 C-26.30288373 72.84097243 -26.30047819 69.05010604 -26.29052734 65.2590332 C-26.2790475 60.41474406 -26.29923796 55.57118493 -26.32844448 50.72699165 C-26.34684434 46.98818382 -26.34650634 43.24954963 -26.34080696 39.51070786 C-26.34065416 37.72543185 -26.34666412 35.94014376 -26.35909843 34.15491104 C-26.37407607 31.65172624 -26.36328234 29.14987335 -26.34619141 26.64672852 C-26.35585937 25.91815643 -26.36552734 25.18958435 -26.37548828 24.43893433 C-26.28221145 17.87258926 -24.01178291 12.74897127 -19.66088867 7.84545898 C-18.54520508 6.89799805 -18.54520508 6.89799805 -17.40698242 5.93139648 C-16.66577148 5.28428711 -15.92456055 4.63717773 -15.16088867 3.97045898 C-10.29645327 0.47594047 -5.86548891 0.00538691 0 0 Z " fill="#010101" transform="translate(106.844482421875,122.693603515625)"/>
<path d="M0 0 C1.06122574 -0.0076664 1.06122574 -0.0076664 2.14389038 -0.01548767 C4.48867186 -0.02941741 6.83316051 -0.02842437 9.17797852 -0.02612305 C10.80461233 -0.03000823 12.43124512 -0.03434253 14.05787659 -0.03910828 C17.47009568 -0.04657783 20.88221133 -0.046274 24.29443359 -0.04101562 C28.67064037 -0.03522108 33.04642391 -0.05214781 37.42256069 -0.0753603 C40.78284691 -0.09008129 44.14303083 -0.09097157 47.50334358 -0.08785057 C49.11691183 -0.08836465 50.73048568 -0.09361851 52.34402275 -0.10366249 C54.59942106 -0.11597786 56.8539903 -0.10926544 59.109375 -0.09765625 C60.39351791 -0.09828568 61.67766083 -0.0989151 63.00071716 -0.0995636 C66.11938477 0.2746582 66.11938477 0.2746582 68.0332489 1.36653137 C69.70166323 4.2976068 69.50123195 6.82303575 69.50756836 10.17700195 C69.51282532 10.87487823 69.51808228 11.57275452 69.52349854 12.29177856 C69.53670323 14.5987994 69.52795931 16.90513034 69.51782227 19.2121582 C69.51984288 20.81494275 69.52275421 22.41772641 69.52651978 24.02050781 C69.53094374 27.37972771 69.52450989 30.73870831 69.51049805 34.09790039 C69.49340592 38.40572659 69.50324674 42.7129921 69.52121544 47.02079773 C69.53205142 50.33048738 69.52860783 53.64004391 69.52083206 56.94973755 C69.51882953 58.53817816 69.5212912 60.12663083 69.52827072 61.71505737 C69.5358824 63.93446916 69.52428622 66.15297055 69.50756836 68.37231445 C69.50518158 69.63567627 69.5027948 70.89903809 69.50033569 72.20068359 C69.11938477 75.2746582 69.11938477 75.2746582 68.02651978 77.18278503 C65.09566593 78.86075783 62.57487481 78.64864558 59.21704102 78.64697266 C58.17022659 78.65244865 58.17022659 78.65244865 57.1022644 78.65803528 C54.7952237 78.66614182 52.48888518 78.65253049 50.18188477 78.63793945 C48.57910157 78.63742086 46.97631773 78.63793854 45.37353516 78.63945007 C42.01430771 78.63936035 38.65532024 78.62892998 35.29614258 78.61083984 C30.98840767 78.58815256 26.68102345 78.58760848 22.37324524 78.59435749 C19.06356688 78.59769764 15.7539686 78.59106652 12.44430542 78.58122826 C10.85586974 78.57737676 9.26742515 78.57622783 7.6789856 78.5778141 C5.45972701 78.57818462 3.24091941 78.56556876 1.02172852 78.54931641 C-0.2416333 78.54470901 -1.50499512 78.54010162 -2.80664062 78.53535461 C-5.88061523 78.2746582 -5.88061523 78.2746582 -8.88061523 76.2746582 C-9.25483704 73.23828125 -9.25483704 73.23828125 -9.25292969 69.28637695 C-9.25658035 68.56753326 -9.26023102 67.84868958 -9.26399231 67.10806274 C-9.27211524 64.72585613 -9.25847389 62.34432605 -9.24389648 59.9621582 C-9.24337808 58.31070964 -9.24389501 56.65926045 -9.2454071 55.0078125 C-9.2453173 51.54425868 -9.23487199 48.08093726 -9.21679688 44.61743164 C-9.19410933 40.17168926 -9.19356471 35.72628665 -9.20031452 31.28050232 C-9.20365166 27.86963873 -9.19702925 24.45885299 -9.18718529 21.04800415 C-9.18332858 19.40850227 -9.18218701 17.76899174 -9.18377113 16.12948608 C-9.18414087 13.84046855 -9.17154773 11.55189106 -9.15527344 9.26293945 C-9.15066605 7.95881104 -9.14605865 6.65468262 -9.14131165 5.31103516 C-8.62451982 -0.70813015 -5.17909457 0.01859365 0 0 Z " fill="#7FB5FD" transform="translate(109.880615234375,142.725341796875)"/>
<path d="M0 0 C8.0103968 5.86842256 14.24129485 13.90714936 16.73828125 23.640625 C18.46257635 35.27526267 17.29213541 46.68584233 10.4375 56.5 C4.09966953 64.16286808 -3.8005174 71.40416158 -13.875 73.25 C-28.84537327 74.05170897 -38.95583632 72.37654374 -50.8203125 62.65625 C-58.42485221 55.67719191 -62.32656249 46.21093757 -63.12890625 36.02734375 C-63.55170445 23.49342304 -60.37507295 14.47194751 -51.875 5.25 C-38.05814134 -9.36590591 -16.69328975 -10.37307988 0 0 Z " fill="#9CA4BD" transform="translate(181.875,353.75)"/>
<path d="M0 0 C16.5 0 33 0 50 0 C50.0825 6.661875 50.165 13.32375 50.25 20.1875 C50.28641602 22.26184326 50.32283203 24.33618652 50.36035156 26.47338867 C50.46480643 36.72975553 49.99349551 45.41397633 46 55 C45.63213379 55.90862793 45.26426758 56.81725586 44.88525391 57.75341797 C38.90082083 71.8019397 26.45112871 80.58632983 12.77734375 86.2734375 C8.61944233 87.36115855 4.27649357 87.57235064 0 88 C0 58.96 0 29.92 0 0 Z " fill="#FBFBFB" transform="translate(375,289)"/>
<path d="M0 0 C2.71659542 1.90161679 3.67596678 3.22232026 4.9375 6.25 C5.0267155 10.17548182 3.90696871 13.57199673 2 17 C-2.02951778 19.68634518 -5.26712146 19.78881309 -10 19 C-13.00947682 16.99368212 -14.50462948 15.53564862 -15.625 12.0625 C-16.24231724 8.66725516 -16.12825185 6.31050447 -14.8125 3.125 C-10.59781935 -1.81634973 -5.93290847 -1.50503928 0 0 Z " fill="#020101" transform="translate(280,65)"/>
<path d="M0 0 C2.92937654 1.81310142 5.43647949 3.87295899 7 7 C7.59873168 12.26883876 6.25400021 14.8846468 3 19 C-0.21694364 20.60847182 -3.52137222 20.61309149 -7 20 C-10.61391202 17.07811368 -12.74312565 14.88374526 -13.375 10.25 C-12.8528401 5.7246142 -11.15770622 4.2328897 -8 1 C-5.09704195 -0.45147903 -3.22738221 -0.37239025 0 0 Z " fill="#040405" transform="translate(162,377)"/>
<path d="M0 0 C3.9295493 0.92685276 5.41241975 2.29808529 8.00390625 5.47265625 C8.80081546 8.6430936 8.79113913 11.30073982 8.00390625 14.47265625 C5.8223148 17.22835072 4.13213131 18.90854372 1.00390625 20.47265625 C-2.86823557 20.90289423 -4.52105746 20.78934711 -7.80859375 18.59765625 C-10.72359002 15.76594559 -11.1981185 14.1186283 -11.37109375 10.16015625 C-11.31304368 6.56105182 -11.05090721 5.55658936 -8.99609375 2.41015625 C-5.8727976 0.39302749 -3.73747357 -0.27658723 0 0 Z " fill="#030503" transform="translate(333.99609375,287.52734375)"/>
</svg>
