<?xml version="1.0" encoding="UTF-8"?>
<svg version="1.1" xmlns="http://www.w3.org/2000/svg" width="512" height="512">
<path d="M0 0 C2.19140625 1.4453125 2.19140625 1.4453125 4 4 C4.56709758 7.203335 4.5515132 10.3782535 4.5625 13.625 C4.94224764 27.04913883 7.91216787 37.52600336 17.125 47.75 C26.84712126 56.84835684 39.26256161 59.31218872 52.09077454 59.26501465 C53.06752756 59.26939592 54.04428058 59.27377719 55.05063218 59.27829123 C58.3024383 59.29054965 61.55408175 59.28880735 64.8059082 59.28710938 C67.14554583 59.29313726 69.4851813 59.30006244 71.82481384 59.30781555 C76.85186204 59.32267578 81.87887071 59.33144644 86.9059391 59.33552551 C94.17846102 59.34167835 101.45090646 59.35990079 108.72339585 59.38196605 C120.53018459 59.41762719 132.33697758 59.44596801 144.14379883 59.46826172 C145.20224017 59.47026421 145.20224017 59.47026421 146.28206416 59.47230715 C152.00979837 59.48308795 157.73753322 59.49351155 163.46526814 59.5039072 C168.47953128 59.51302049 173.49379415 59.52227204 178.50805664 59.53173828 C179.21433546 59.53306902 179.92061429 59.53439977 180.6482955 59.53577083 C192.41883071 59.55818952 204.18933365 59.58837422 215.95983571 59.62413073 C223.86250478 59.64751103 231.76511458 59.6612279 239.66781485 59.66762543 C244.57478963 59.67355 249.48171605 59.68763335 254.38866615 59.70396996 C256.66875584 59.70986149 258.94885732 59.71231497 261.22895432 59.71113014 C264.33412099 59.70997625 267.43901408 59.72094503 270.54414368 59.73498535 C271.90652655 59.73003689 271.90652655 59.73003689 273.29643232 59.72498846 C274.54362539 59.7343366 274.54362539 59.7343366 275.81601429 59.7438736 C276.53260426 59.74506777 277.24919424 59.74626195 277.98749906 59.74749231 C280.51052715 60.06405564 281.93047974 60.49076451 284 62 C284.66 63.98 285.32 65.96 286 68 C291.61 68 297.22 68 303 68 C303.66 66.02 304.32 64.04 305 62 C308.17010256 59.50298873 311.49131191 59.74340385 315.4140625 59.72875977 C316.71641846 59.71857315 318.01877441 59.70838654 319.3605957 59.69789124 C320.05480621 59.69695024 320.74901672 59.69600925 321.46426392 59.69503975 C323.65238193 59.6913602 325.84005301 59.67458573 328.02807617 59.65428162 C334.24828704 59.59905684 340.46856588 59.5683795 346.68896484 59.54370117 C350.4998122 59.52767501 354.31034829 59.49729136 358.12103271 59.45893669 C359.56244559 59.44740624 361.00391455 59.4413574 362.44537354 59.44125557 C377.49549085 59.43980819 390.31604607 57.24567022 401.75 46.8125 C411.44739759 36.45026901 413.3114978 24.64062717 413.390625 11.0703125 C413.56625662 4.61097186 413.56625662 4.61097186 415.81640625 1.44140625 C418.40578112 -0.26785909 420.54303805 -0.86195151 423.65625 -0.7109375 C429.00888662 0.91269561 432.99246515 5.26283857 437 9 C437.99580078 9.89332031 437.99580078 9.89332031 439.01171875 10.8046875 C453.35718319 24.27975298 464.04524276 47.13840851 465.16113281 66.84570312 C465.53539051 93.00892709 465.53539051 93.00892709 462 104 C461.6596875 105.06605469 461.319375 106.13210938 460.96875 107.23046875 C456.54168965 119.74887927 449.82259859 131.07880196 441 141 C440.34773438 141.74636719 439.69546875 142.49273437 439.0234375 143.26171875 C423.94125193 159.44541225 401.35984408 169.60852737 379.38362134 171.18805003 C376.72161269 171.26024621 374.06593556 171.276405 371.40296936 171.26742554 C369.89239925 171.27422221 369.89239925 171.27422221 368.35131258 171.28115618 C365.00898143 171.29372056 361.66681489 171.29218505 358.32446289 171.29052734 C355.91556593 171.29651712 353.50667087 171.3033237 351.09777832 171.31088257 C345.25519048 171.3266681 339.4126518 171.33298828 333.57004369 171.33410732 C328.82252757 171.33506048 324.07502467 171.33918404 319.32751274 171.34550858 C305.85506385 171.36309035 292.38264669 171.37235091 278.91018624 171.37084763 C278.18564265 171.37076772 277.46109906 171.3706878 276.71459961 171.37060547 C275.62645332 171.37048283 275.62645332 171.37048283 274.51632427 171.37035771 C262.73442667 171.3695431 250.95265637 171.38873259 239.17079563 171.4168822 C227.06120608 171.44558621 214.95167875 171.45942424 202.84205431 171.45769465 C196.04788249 171.45703045 189.25384459 171.46253747 182.45970345 171.48405075 C176.07959017 171.50412517 169.69968724 171.50361483 163.31955719 171.48901749 C160.97495295 171.48691868 158.6303313 171.49169355 156.28575706 171.5037384 C153.0928814 171.51908345 149.90099812 171.50995401 146.70814514 171.49447632 C145.77401749 171.50476344 144.83988984 171.51505057 143.87745529 171.52564943 C137.65529199 171.45868467 137.65529199 171.45868467 134.45574093 169.21909523 C133 167 133 167 132 163 C126.39 163 120.78 163 115 163 C114.01 165.97 114.01 165.97 113 169 C109.31868548 171.45420968 107.49725611 171.25862967 103.10449219 171.2746582 C102.40638428 171.27976913 101.70827637 171.28488007 100.98901367 171.29014587 C98.67488059 171.30406962 96.3610451 171.30308064 94.046875 171.30078125 C92.42799775 171.30467156 90.80912151 171.30900692 89.19024658 171.31376648 C85.78727933 171.32123821 82.38441574 171.32093412 78.98144531 171.31567383 C74.66137429 171.30993012 70.34173916 171.32668036 66.02173996 171.3500185 C62.67040604 171.36491032 59.31917275 171.36560593 55.96781158 171.36250877 C54.37811685 171.36301602 52.78841556 171.36813909 51.19875336 171.37832069 C22.96376265 171.53672818 -1.16090299 162.31943767 -21.6875 142.625 C-41.19005807 122.50657167 -47.59427976 97.89045978 -47.2734375 70.609375 C-46.53605456 44.92508618 -33.5553125 22.88996727 -15.3515625 5.46484375 C-10.19663837 0.96816378 -6.89723351 -1.42701383 0 0 Z " fill="#020200" transform="translate(47,273)"/>
<path d="M0 0 C1.90396302 1.63128276 3.76562995 3.31255272 5.5949707 5.02709961 C6.6630909 6.0224306 7.73142453 7.01753257 8.79995728 8.01242065 C9.33583591 8.51393017 9.87171455 9.01543968 10.42383194 9.53214645 C12.77997692 11.72637679 15.16924848 13.88368517 17.55541992 16.04516602 C23.85112836 21.79641427 30.05357623 27.63929795 36.1875 33.5625 C36.74328484 34.09915787 37.29906967 34.63581573 37.87169647 35.18873596 C58.42910708 55.13196209 84.67051696 84.41376075 87.29443359 114.36035156 C87 117 87 117 86.19165039 119.03613281 C85.74530459 121.27989439 85.74530459 121.27989439 87.99780273 123.56542969 C88.96366195 124.5304969 89.94331757 125.48187934 90.93359375 126.421875 C91.44551773 126.92672424 91.95744171 127.43157349 92.48487854 127.95172119 C94.12440783 129.56323701 95.78044934 131.15652519 97.4375 132.75 C98.55126145 133.83868766 99.66390686 134.92851831 100.77539062 136.01953125 C103.50414866 138.69312799 106.24784521 141.35050219 109 144 C114.36580886 141.70047861 118.19674406 137.43914092 122.32885742 133.42626953 C123.31552088 132.47776074 124.31365982 131.54104226 125.32299805 130.61669922 C126.7896331 129.27242344 128.21767552 127.88642651 129.64453125 126.5 C130.50409424 125.6853125 131.36365723 124.870625 132.24926758 124.03125 C134.52093373 120.09804586 133.81817898 117.99758731 133.17591858 113.64160156 C132.86877676 109.02954573 134.53935749 105.30694829 136.33203125 101.125 C136.73053284 100.18589279 137.12903442 99.24678558 137.53961182 98.27922058 C138.9116916 95.15912895 140.34773112 92.07762799 141.8125 89 C142.31611053 87.9329483 142.81972107 86.86589661 143.33859253 85.76651001 C154.27587214 63.3242461 170.34334583 46.48512484 188.0625 29.1875 C188.71831181 28.54625183 189.37412361 27.90500366 190.0498085 27.24432373 C194.4692939 22.93274539 198.92293178 18.6589797 203.41015625 14.41796875 C203.99239204 13.86681082 204.57462784 13.31565289 205.17450714 12.7477932 C216.57278095 2.01259558 225.81921831 -4.70817527 242.01171875 -4.31640625 C247.21851558 -4.02311743 251.46812351 -2.55601197 256 0 C256.96486328 0.5259375 256.96486328 0.5259375 257.94921875 1.0625 C263.09072284 4.27454594 266.07454155 8.77849992 269 14 C269.34289062 14.60457031 269.68578125 15.20914062 270.0390625 15.83203125 C273.49059062 23.23507521 273.46165711 33.70740927 270.875 41.375 C266.16806575 50.9719748 259.13080794 58.6004093 251.8515625 66.28515625 C251.30613171 66.86192486 250.76070091 67.43869347 250.19874191 68.03293991 C246.04446987 72.41240627 241.84524576 76.74665039 237.625 81.0625 C236.69968475 82.01083143 236.69968475 82.01083143 235.75567627 82.97832108 C213.69992835 105.51514202 184.37238403 132.94088126 151 135 C149.93023926 134.63080444 149.93023926 134.63080444 148.83886719 134.25415039 C147.92862793 134.12834595 147.92862793 134.12834595 147 134 C144.96875627 135.58181075 143.33504091 137.08270011 141.578125 138.93359375 C141.07327576 139.44551773 140.56842651 139.95744171 140.04827881 140.48487854 C138.43676299 142.12440783 136.84347481 143.78044934 135.25 145.4375 C134.16131234 146.55126145 133.07148169 147.66390686 131.98046875 148.77539062 C129.30687201 151.50414866 126.64949781 154.24784521 124 157 C125.39899092 160.15260352 127.04579779 162.30533493 129.46502686 164.75263977 C130.18272247 165.48320084 130.90041809 166.2137619 131.63986206 166.96646118 C132.42740875 167.75781464 133.21495544 168.54916809 134.02636719 169.36450195 C134.85582855 170.20549942 135.68528992 171.04649689 136.53988647 171.91297913 C138.81279772 174.21429291 141.09030912 176.51090791 143.37110043 178.80440927 C144.79611878 180.23752074 146.22008627 181.67166875 147.64377594 183.10610008 C152.09940279 187.59441898 156.5594009 192.07833169 161.02529597 196.55643398 C166.17976631 201.72517859 171.3190593 206.90841918 176.44591403 212.10455352 C180.41162751 216.12199765 184.39064083 220.12594771 188.37997556 224.11993569 C190.76194161 226.505303 193.13780926 228.8960784 195.49990082 231.30114174 C198.13582094 233.97826394 200.7927403 236.63263978 203.45605469 239.2824707 C204.23550446 240.08394531 205.01495422 240.88541992 205.81802368 241.71118164 C209.86733717 245.96992859 209.86733717 245.96992859 215.36676025 246.99723816 C216.23572937 246.66814957 217.10469849 246.33906097 218 246 C227.04054939 245.19492918 233.15911086 246.91943418 240.75 251.75 C246.56420244 257.56420244 249.09552126 263.47711982 249.375 271.625 C249.29513504 278.90158558 247.17518311 284.35470483 242.390625 289.84765625 C236.08179431 295.73686288 229.27493514 297.60388161 220.74609375 297.35546875 C214.44015565 296.53919511 208.43091357 293.55399451 204 289 C200.54158151 283.5962211 197.85474734 278.77135734 197.875 272.25 C197.87242187 271.43015625 197.86984375 270.6103125 197.8671875 269.765625 C198 267 198 267 199.00608826 263.88169861 C198.99789358 258.65700385 197.10204809 257.15969235 193.53982544 253.54446411 C192.71336517 252.74676605 191.88690491 251.94906799 191.03540039 251.12719727 C190.17723221 250.26786087 189.31906403 249.40852448 188.43489075 248.52314758 C186.0810432 246.17391656 183.71086609 243.84383025 181.33163381 241.5204823 C178.84828724 239.08717409 176.38760391 236.6311644 173.92442322 234.17747498 C169.2582559 229.53616468 164.57207429 224.91562113 159.87835068 220.30219835 C154.53504295 215.04833527 149.21445606 209.77171524 143.89565289 204.49306405 C132.95551427 193.63652802 121.98720354 182.80891467 111 172 C107.85048827 173.39836919 105.69504398 175.04372586 103.24736023 177.45829773 C102.51679916 178.17454819 101.7862381 178.89079865 101.03353882 179.62875366 C100.24218536 180.41472931 99.45083191 181.20070496 98.63549805 182.01049805 C97.79450058 182.83835312 96.95350311 183.66620819 96.08702087 184.51914978 C93.30600555 187.26073965 90.53304316 190.01034443 87.76171875 192.76171875 C86.80584636 193.70949277 85.84990647 194.65719872 84.89389992 195.60483742 C80.40529969 200.05537426 75.92150867 204.51068756 71.44356602 208.97194737 C66.27638206 214.11956155 61.0930514 219.25017351 55.89544648 224.36706513 C51.87626491 228.32595902 47.87252785 232.30005175 43.88006431 236.28588706 C41.49593793 238.66531082 39.10565143 241.03765832 36.69885826 243.39417076 C34.01932246 246.02523337 31.36593378 248.68018391 28.7175293 251.3425293 C27.91605469 252.11838379 27.11458008 252.89423828 26.28881836 253.69360352 C21.88758232 257.99437038 21.88758232 257.99437038 21.00276184 263.88142395 C21.33185043 264.91055405 21.66093903 265.93968414 22 267 C22.80515003 275.63226428 20.79444345 281.44609215 16.3125 288.75 C9.89804312 294.99109318 2.61625363 297.32646579 -6.15234375 297.2109375 C-13.44547171 296.6707058 -19.20848155 293.50094229 -24 288 C-28.93068306 281.01486567 -30.05830494 274.4199206 -29 266 C-27.46209269 259.00310873 -23.75625743 254.1111759 -18.0625 249.75 C-11.37771685 245.93012391 -5.56865693 245.54290415 2 246 C2.86670319 246.33273422 3.73340637 246.66546844 4.62637329 247.00828552 C9.41980407 246.99651301 11.01290464 244.81538892 14.33111572 241.53982544 C15.13240906 240.71336517 15.93370239 239.88690491 16.75927734 239.03540039 C17.61846771 238.17723221 18.47765808 237.31906403 19.36288452 236.43489075 C21.71436734 234.07936559 24.04924402 231.70938183 26.37812376 229.33163381 C28.81592286 226.8500828 31.27355283 224.3883342 33.72915649 221.92442322 C38.37553143 217.25628922 43.00377532 212.57059911 47.62578261 207.87835068 C52.88887894 202.53701922 58.17186017 197.21554524 63.45661235 191.89565289 C74.32669904 180.95239306 85.1715212 169.98444235 96 159 C93.47747265 153.6616814 89.46643886 149.86989926 85.37133789 145.67114258 C84.41696634 144.68362072 83.47345659 143.68548277 82.54125977 142.67700195 C77.49749973 136.69449574 77.49749973 136.69449574 70.67163086 133.7487793 C69.18977508 134.01667526 67.71601863 134.33365745 66.25463867 134.69702148 C60.84029573 135.4246013 55.48966766 131.37399317 50.84048462 128.95805359 C45.52330374 126.21499194 40.21052076 123.62252363 34.6862793 121.32177734 C14.22124966 112.4879856 0.26349712 99.09511943 -14.99591064 83.14025879 C-17.5290694 80.5077879 -20.09480558 77.90835184 -22.66232109 75.30944347 C-25.76285983 72.16925562 -28.84805957 69.01420413 -31.9296875 65.85546875 C-32.78880548 64.97652482 -32.78880548 64.97652482 -33.66527939 64.07982445 C-43.73361032 53.73555549 -52.21439781 44.89652732 -52.375 29.6875 C-52.27549252 22.96742822 -51.25571457 17.86885389 -48 12 C-47.649375 11.35546875 -47.29875 10.7109375 -46.9375 10.046875 C-43.71985821 4.90758604 -39.22037962 1.92980489 -34 -1 C-33.11054687 -1.51433594 -33.11054687 -1.51433594 -32.203125 -2.0390625 C-22.76377905 -6.50813337 -8.69952319 -5.43554514 0 0 Z " fill="#010000" transform="translate(146,4)"/>
<path d="M0 0 C4.40444763 3.67037302 4.57431914 7.84686846 5.36328125 13.203125 C6.19530135 16.85788815 7.80784319 19.42651033 9.9765625 22.44140625 C11 24 11 24 11 26 C11.88365234 26.42925781 11.88365234 26.42925781 12.78515625 26.8671875 C15 28 15 28 16.68359375 29.0703125 C22.83147324 32.76725562 28.99025653 32.96657134 36 32 C44.12837695 29.41169569 48.78459058 25.26671443 52.6875 17.75 C53.76567344 14.66950447 54.39445689 12.00053754 54.9375 8.8125 C55.52207396 5.68526694 55.92816589 4.10518566 57.75 1.4375 C60.62894363 -0.40182509 62.5790819 -0.93018534 66 -1 C68.56640625 0.046875 68.56640625 0.046875 71 2 C72.1875 5.29296875 72.1875 5.29296875 73 9.1875 C74.93921695 17.55406482 77.53459049 24.20080817 85 29 C91.80489145 32.96952001 99.76149544 33.37219477 107.37109375 31.37890625 C113.46050171 28.70811329 118.25450294 23.72116955 121.06640625 17.7265625 C122.32097041 14.17499439 123.0067169 10.94146705 123.4375 7.1875 C124.10653988 3.39627399 124.86930486 2.19994793 128 0 C131.62563666 -1.15711808 133.26262402 -1.3351709 136.75 0.25 C140.48613274 3.15588102 141.22892194 5.62311211 141.8125 10.125 C142.98074622 16.82471508 144.87883184 22.3944554 150.22265625 26.85546875 C157.70752803 31.97925903 163.96980313 32.88450676 173 32 C180.44848537 29.82837075 185.21584964 25.70220996 189 19 C190.23301916 16.16405594 190.90139054 13.54621064 191.44921875 10.51171875 C191.61035156 9.62097656 191.77148438 8.73023438 191.9375 7.8125 C192.07027344 6.97332031 192.20304688 6.13414062 192.33984375 5.26953125 C193.09452431 2.67503772 193.88480603 1.64800307 196 0 C199.57638566 -1.11265332 201.49178106 -1.16638505 205.06640625 0.00390625 C208.40298312 2.27420023 208.94292896 3.77501008 209.75390625 7.65820312 C209.93759766 8.72458008 209.93759766 8.72458008 210.125 9.8125 C211.71787847 18.36830762 214.74936608 23.73973617 222 29 C228.14660862 32.565033 233.98862769 32.6800648 241 32 C248.14871657 29.97453031 254.08792187 25.29668644 257.8125 18.875 C258.67233267 16.52120807 259.1468141 14.24207218 259.625 11.7734375 C261.43969014 2.47315055 261.43969014 2.47315055 264.8125 -0.375 C268.34555936 -1.06775674 270.56286592 -1.0693306 274 0 C277.73433583 2.56735588 277.97071974 6.52842224 278.8125 10.6875 C280.58188439 18.36655961 282.61063656 23.77369838 289.15234375 28.58203125 C295.82532105 32.5079482 302.40422762 33.0490325 310 32 C317.24550467 29.81004039 322.45986637 24.83791326 326.09765625 18.234375 C327.69937893 14.26820455 328.40656107 10.0829657 329.19140625 5.890625 C330.01806348 2.93542524 330.55567587 1.78369599 333 0 C337.32200938 -1.22143743 340.05038618 -1.1942299 344 1 C346.26546546 4.39819819 346.65121717 6.81466426 347.375 10.8125 C348.46169994 16.21256276 349.57303117 19.7458318 353 24 C353 24.66 353 25.32 353 26 C353.88365234 26.42925781 353.88365234 26.42925781 354.78515625 26.8671875 C357 28 357 28 358.68359375 29.0703125 C364.83147324 32.76725562 370.99025653 32.96657134 378 32 C386.05727387 29.43433691 390.748231 25.330325 394.625 17.875 C396.33492736 13.63817998 397.10924224 9.14611412 397.9609375 4.671875 C399 2 399 2 401.41015625 0.13671875 C404.79374243 -1.34838469 406.50136663 -1.11658512 410 0 C413.8188903 3.04228761 414.62305132 5.50934699 415.4375 10.25 C416.91785858 17.37972698 419.15839279 22.23317192 424.375 27.3125 C431.84586769 32.11520066 438.12123401 33.01941387 447 32 C449.94776354 31.00966304 452.38740121 29.66090967 455 28 C456.03447266 27.56300781 456.03447266 27.56300781 457.08984375 27.1171875 C459.49666384 25.70951767 459.96639036 24.56095246 461 22 C461.33 21.25363281 461.66 20.50726563 462 19.73828125 C464.02678142 14.82175289 465.56099945 10.16729552 466.41015625 4.91015625 C467.13993268 2.54684051 468.08254332 1.53858572 470 0 C473.59606794 -1.09445546 475.29673757 -1.31966474 478.75 0.25 C481 2 481 2 483 5 C483.32100961 13.32484933 482.22699284 20.80195788 478 28 C477.56558594 28.75925781 477.13117188 29.51851563 476.68359375 30.30078125 C470.60268951 40.15946796 462.28502396 46.35577892 451.08911133 49.54418945 C439.40495975 52.09348372 426.97820939 50.45780214 416.9609375 44.05859375 C409.5931432 38.88971481 409.5931432 38.88971481 407 35 C406.34 35 405.68 35 405 35 C404.40574219 35.75023437 403.81148438 36.50046875 403.19921875 37.2734375 C398.02405436 43.68953829 389.18017473 48.70778622 381 50 C364.30997762 51.49129016 352.41840204 47.83121126 339.4375 37.125 C338.2309375 36.073125 338.2309375 36.073125 337 35 C336.5875 35.44730469 336.175 35.89460938 335.75 36.35546875 C328.22403575 44.23421258 319.54168193 49.73997276 308.421875 50.46875 C295.55994085 50.75299915 285.31169015 49.17688545 275.375 40.3125 C274.59898437 39.54550781 273.82296875 38.77851563 273.0234375 37.98828125 C270.96477093 35.84108593 270.96477093 35.84108593 268 34 C267.75378906 34.5878125 267.50757813 35.175625 267.25390625 35.78125 C263.18922957 42.97357509 253.81989551 47.35885895 246.11865234 49.53051758 C234.65058212 52.07178274 222.54174643 50.36627425 212.4765625 44.5390625 C208.63125637 42.08752428 204.91566721 39.5495079 202 36 C202 35.34 202 34.68 202 34 C201.52691406 34.43570313 201.05382812 34.87140625 200.56640625 35.3203125 C190.27291302 44.59047599 180.8016537 50.62170657 166.625 50.4375 C165.79500488 50.42920166 164.96500977 50.42090332 164.10986328 50.41235352 C152.83363111 50.10297827 145.45363514 46.27331628 137 39 C135.33701655 37.66207564 133.67120177 36.32764461 132 35 C131.40574219 35.59167969 130.81148437 36.18335938 130.19921875 36.79296875 C119.03050825 47.44058856 108.64237426 50.53552673 93.5546875 50.26953125 C82.9510025 49.82789234 74.92645006 44.80807968 67 38 C66.34 37.01 65.68 36.02 65 35 C64.34 35 63.68 35 63 35 C61.83787585 36.16212415 60.67827262 37.32687432 59.53125 38.50390625 C50.26270673 47.55965133 40.38608178 50.6201075 27.63549805 50.47265625 C15.6689494 50.00906114 5.43131052 44.99553883 -2.75 36.25 C-9.34969185 28.2109322 -12.77491358 19.08697254 -13.375 8.75 C-12.94775173 4.47751732 -12.092325 2.91562071 -9 0 C-5.39297148 -1.20234284 -3.64185324 -1.0405295 0 0 Z " fill="#000000" transform="translate(21,462)"/>
<path d="M0 0 C2 1 2 1 2.859375 3.5546875 C3.30023438 5.19824219 3.30023438 5.19824219 3.75 6.875 C8.4757105 22.7139198 17.44552261 34.07660183 32 42 C46.1736176 49.53657197 60.48292796 49.42935073 76.13061523 49.37231445 C78.46907208 49.37474526 80.80752788 49.37846739 83.14598083 49.38337708 C89.4677744 49.39274635 95.78941208 49.38339591 102.11119342 49.37004495 C108.06183542 49.35984878 114.01246299 49.36234655 119.96311141 49.36424746 C131.74716234 49.36742942 143.5311526 49.35581194 155.31518555 49.33618164 C166.74261316 49.3171505 178.16996978 49.31010297 189.59741211 49.31567383 C202.06087205 49.32173182 214.52430087 49.32155652 226.98775822 49.310188 C233.57901341 49.30420506 240.17024529 49.3005188 246.76150322 49.3031559 C252.95118569 49.30503692 259.14077694 49.29694917 265.33043861 49.2810955 C267.6036631 49.27684741 269.87689684 49.27600561 272.1501236 49.27878571 C275.24820858 49.28200034 278.34601972 49.27294388 281.44407654 49.26069641 C282.34737259 49.26447573 283.25066864 49.26825506 284.1813373 49.27214891 C290.39398378 49.33522686 290.39398378 49.33522686 296 47 C296.66 45.02 297.32 43.04 298 41 C304.27 41 310.54 41 317 41 C317.66 42.98 318.32 44.96 319 47 C322.1556474 49.47771764 325.44735852 49.26426623 329.35058594 49.29052734 C330.64003113 49.30328705 331.92947632 49.31604675 333.25799561 49.32919312 C334.66678721 49.33225408 336.07558083 49.33448007 337.484375 49.3359375 C338.94248584 49.3423737 340.40059541 49.34910266 341.85870361 49.35610962 C344.921946 49.36808864 347.98507569 49.37179065 351.04833984 49.37060547 C354.92786813 49.37040415 358.8066483 49.39750632 362.68600082 49.43214989 C365.7045404 49.45468194 368.72290879 49.45843483 371.74152374 49.45738602 C373.16852605 49.4597104 374.59553548 49.46834997 376.02245331 49.48405075 C395.53394621 49.67834238 413.12527359 44.68177031 427.4921875 30.859375 C435.08799014 22.19874021 439.19969697 12.09067384 442 1 C442.99 1 443.98 1 445 1 C446.61366895 2.99480219 447.96142104 4.89751115 449.3125 7.0625 C449.70767822 7.68938721 450.10285645 8.31627441 450.51000977 8.9621582 C458.52278954 22.08982485 462.09973549 35.34873481 462.25 50.6875 C462.26426025 51.88197754 462.26426025 51.88197754 462.27880859 53.10058594 C462.27445801 53.87563477 462.27010742 54.65068359 462.265625 55.44921875 C462.26336914 56.13330811 462.26111328 56.81739746 462.25878906 57.5222168 C461.88764791 61.07571831 460.86653871 64.53384515 460 68 C302.92 68 145.84 68 -16 68 C-20.91265219 48.34939125 -17.67822755 28.7449652 -8 11 C-5.59794426 7.13439083 -2.87557558 3.52538097 0 0 Z " fill="#93C34A" transform="translate(34,300)"/>
<path d="M0 0 C139.92 0 279.84 0 424 0 C415.61614615 8.38385385 406.34159559 12.71571843 395 16 C393.81137328 16.37498501 393.81137328 16.37498501 392.5987339 16.75754547 C381.31878373 19.8701131 369.9685272 19.41832203 358.35693359 19.38476562 C355.97567485 19.38887597 353.59441813 19.39433957 351.21316528 19.40104675 C346.10867511 19.41272556 341.00429292 19.41527285 335.89979172 19.41069031 C328.51650923 19.40444039 321.13337151 19.41645093 313.75011249 19.43419749 C301.76358966 19.46276585 289.77708059 19.48034011 277.79052734 19.48876953 C277.07493702 19.48927671 276.3593467 19.48978389 275.62207182 19.49030644 C269.8111095 19.49434147 264.00014687 19.49783788 258.18918419 19.50130367 C253.09470985 19.50436326 248.00023571 19.50763496 242.90576172 19.51123047 C242.1880204 19.51173308 241.47027909 19.5122357 240.73078804 19.51275355 C228.77367432 19.52148975 216.81660808 19.54190262 204.85952628 19.57071257 C198.15207467 19.58635662 191.44472507 19.59549081 184.7372551 19.58930969 C178.44166116 19.58368371 172.14622813 19.59125996 165.85065842 19.60915565 C163.53627837 19.61317345 161.2218829 19.61200771 158.90750885 19.60538292 C155.75831642 19.59705765 152.60969815 19.60692661 149.46054077 19.62145996 C148.53653736 19.61456603 147.61253396 19.60767209 146.66053045 19.60056925 C145.81959266 19.60817569 144.97865487 19.61578214 144.11223412 19.62361908 C143.38528166 19.62389146 142.65832921 19.62416385 141.90934789 19.62444448 C139.38734424 20.12050515 138.53915326 20.96450306 137 23 C136.67 24.32 136.34 25.64 136 27 C129.73 27 123.46 27 117 27 C116.01 24.525 116.01 24.525 115 22 C112.1944752 19.1944752 110.4394924 19.74872251 106.50927734 19.74462891 C105.84218246 19.74100845 105.17508759 19.737388 104.48777771 19.73365784 C103.03475692 19.72675352 101.58171013 19.72426034 100.12867355 19.72560501 C97.81360297 19.72657183 95.49899491 19.71360239 93.18399048 19.69662476 C86.59991245 19.65045253 80.01587485 19.62582943 73.43164062 19.61914062 C69.40257742 19.61406114 65.37398404 19.58947356 61.34508133 19.55381393 C59.82323687 19.54414433 58.3013266 19.54161216 56.77946091 19.54698563 C35.96806139 19.6168919 16.46140604 14.03980446 0 1 C0 0.67 0 0.34 0 0 Z " fill="#60932D" transform="translate(44,409)"/>
<path d="M0 0 C153.12 0 306.24 0 464 0 C462.35 2.97 460.7 5.94 459 9 C309.18 9 159.36 9 5 9 C3.35 6.03 1.7 3.06 0 0 Z " fill="#F47710" transform="translate(24,384)"/>
<path d="M0 0 C4.19924024 1.87848248 7.37599851 3.9619134 10.73120117 7.09594727 C11.59450043 7.89517609 12.45779968 8.69440491 13.34725952 9.51785278 C14.22266388 10.33696136 15.09806824 11.15606995 16 12 C17.67439312 13.52650117 19.34927925 15.05246174 21.0246582 16.57788086 C26.86007467 21.95592154 32.61327659 27.41582267 38.3125 32.9375 C38.82697945 33.43539284 39.34145889 33.93328568 39.87152863 34.44626617 C59.78449209 53.78967412 72.99976745 73.9048151 83 100 C82.01 101.32 81.02 102.64 80 104 C51.63989345 100.51331266 27.83899901 77.39316251 9.27990723 57.69073486 C6.77391396 55.05099897 4.22646784 52.4532618 1.67678738 49.85580063 C-1.39653617 46.72382613 -4.45330068 43.57596837 -7.50390625 40.421875 C-8.07252443 39.83397942 -8.64114262 39.24608383 -9.22699165 38.64037323 C-10.82639429 36.97782377 -12.41430912 35.30516321 -13.99829102 33.62792969 C-14.89564468 32.68294617 -15.79299835 31.73796265 -16.71754456 30.76434326 C-20.75266064 25.8773055 -22.66001915 21.58547385 -22.40625 15.3046875 C-21.38065734 9.48642146 -17.97969879 5.36754554 -13.25 2 C-8.94527521 -0.40414818 -4.83152438 -0.99619059 0 0 Z " fill="#F9D047" transform="translate(132,16)"/>
<path d="M0 0 C4.79961817 2.66331753 7.56372972 6.33112469 9.75 11.3125 C10.12109375 13.390625 10.12109375 13.390625 10.1875 15.5625 C10.24744141 16.62210938 10.24744141 16.62210938 10.30859375 17.703125 C8.35800613 26.81496087 -0.04793397 33.79904739 -6.28515625 40.2734375 C-6.82645235 40.83748165 -7.36774845 41.4015258 -7.92544746 41.9826622 C-12.02472399 46.24703268 -16.16147707 50.4735464 -20.3125 54.6875 C-21.21879276 55.61020943 -21.21879276 55.61020943 -22.14339447 56.55155945 C-40.26565854 74.97035115 -57.51284114 90.60450672 -82.34814453 99.29003906 C-85.19230247 100.22088132 -85.19230247 100.22088132 -87.51513672 101.46386719 C-89.25 102.3125 -89.25 102.3125 -91.375 102.125 C-93.25 101.3125 -93.25 101.3125 -95.25 98.3125 C-84.7509961 69.18843774 -68.66887628 48.74321444 -46.8125 27.4375 C-46.20891788 26.84782566 -45.60533577 26.25815132 -44.98346329 25.65060806 C-38.8727364 19.69003641 -32.71185308 13.78128747 -26.46313477 7.96533203 C-25.59825943 7.15935577 -24.73338409 6.35337952 -23.84230042 5.52297974 C-16.5521189 -0.69342884 -9.20336962 -4.26623489 0 0 Z " fill="#FCD248" transform="translate(392.25,17.6875)"/>
<path d="M0 0 C129.69 0 259.38 0 393 0 C393 0.66 393 1.32 393 2 C383.89245588 10.58475458 369.00547263 9.29510756 357.40885925 9.26742554 C355.98185927 9.27117136 354.55486133 9.27577656 353.12786657 9.28115618 C349.24315939 9.29328608 345.35853897 9.29313768 341.47381723 9.29076743 C337.26986986 9.29035672 333.06594937 9.30142239 328.86201477 9.31088257 C320.64008034 9.32743745 312.4181746 9.33298957 304.19622489 9.33410732 C297.50902508 9.33506023 290.82183467 9.3391826 284.13463783 9.34550858 C265.14570477 9.36310439 246.15679424 9.37234981 227.16785296 9.37084763 C226.14590631 9.37076772 225.12395966 9.3706878 224.07104492 9.37060547 C223.0478407 9.37052371 222.02463647 9.37044195 220.97042606 9.37035771 C204.38891566 9.36954483 187.80749609 9.38868718 171.22601195 9.4168822 C154.17136952 9.44565143 137.11677134 9.45942034 120.06210405 9.45769465 C110.49873755 9.45703224 100.93546636 9.46245928 91.37212181 9.48405075 C83.23057316 9.50231558 75.08916304 9.50656636 66.94760271 9.4930319 C62.79971241 9.48652948 58.65208746 9.48628565 54.50422287 9.5037384 C50.69618954 9.51959555 46.88862918 9.5164787 43.0806065 9.49917014 C41.07392036 9.494703 39.06721879 9.5096574 37.0605914 9.52564943 C24.04625262 9.4282602 11.86032243 6.35995341 0 1 C0 0.67 0 0.34 0 0 Z " fill="#93C44A" transform="translate(73,410)"/>
<path d="M0 0 C3.41339471 1.87467938 5.57134539 4.04451808 7.75 7.3125 C4.64160767 8.86669617 1.47650622 8.11741035 -1.9375 7.859375 C-13.06639707 9.38172413 -20.66658887 17.86646501 -28.2734375 25.390625 C-29.50823919 26.60165683 -30.74315572 27.81257157 -31.97817993 29.02337646 C-34.56089594 31.56277816 -37.13244008 34.11295045 -39.69824219 36.66943359 C-42.29231947 39.25059899 -44.90579302 41.80900846 -47.54101562 44.34814453 C-65.54125953 61.70336997 -78.58470268 77.00739783 -86.25 101.3125 C-89.22 101.8075 -89.22 101.8075 -92.25 102.3125 C-93.24 100.9925 -94.23 99.6725 -95.25 98.3125 C-84.7509961 69.18843774 -68.66887628 48.74321444 -46.8125 27.4375 C-46.20891788 26.84782566 -45.60533577 26.25815132 -44.98346329 25.65060806 C-38.8727364 19.69003641 -32.71185308 13.78128747 -26.46313477 7.96533203 C-25.59825943 7.15935577 -24.73338409 6.35337952 -23.84230042 5.52297974 C-16.5521189 -0.69342884 -9.20336962 -4.26623489 0 0 Z " fill="#F4B22C" transform="translate(392.25,17.6875)"/>
<path d="M0 0 C1.1690596 2.3381192 1.01169053 3.47904899 0.875 6.0625 C0.86273885 13.73797929 2.72419578 18.91535745 7.9699707 24.5871582 C8.77777985 25.46360992 9.58558899 26.34006165 10.4178772 27.24307251 C11.26997772 28.15285858 12.12207825 29.06264465 13 30 C13.82253265 30.88279633 14.64506531 31.76559265 15.49252319 32.67514038 C20.71781459 38.24646349 26.01541592 43.7452387 31.3512373 49.21055126 C34.02193386 51.94756773 36.67657756 54.69659884 39.29614258 57.48266602 C54.85228987 74.00068092 70.63334414 85.83004201 92 94 C92.66 94 93.32 94 94 94 C94.66 95.65 95.32 97.3 96 99 C94.875 100.5625 94.875 100.5625 93 102 C65.07743543 99.66329242 40.267512 74.78646895 22.27990723 55.69073486 C19.77391396 53.05099897 17.22646784 50.4532618 14.67678738 47.85580063 C11.60346383 44.72382613 8.54669932 41.57596837 5.49609375 38.421875 C4.92747557 37.83397942 4.35885738 37.24608383 3.77300835 36.64037323 C2.17360571 34.97782377 0.58569088 33.30516321 -0.99829102 31.62792969 C-1.89564468 30.68294617 -2.79299835 29.73796265 -3.71754456 28.76434326 C-7.75702694 23.87201735 -9.63404741 19.59280327 -9.421875 13.3125 C-8.49229743 8.21703776 -5.53832961 4.33044723 -1.6875 1 C-1.130625 0.67 -0.57375 0.34 0 0 Z " fill="#F8B52C" transform="translate(119,18)"/>
<path d="M0 0 C1.33007924 2.66015848 0.7213132 3.80680699 0.0625 6.6875 C-1.35051774 13.8189721 -1.17591227 20.75827835 -1 28 C-0.13181641 27.02740234 -0.13181641 27.02740234 0.75390625 26.03515625 C3 24 3 24 6.9375 23.4375 C10.25323796 23.62377741 11.14636472 24.09857216 14.0625 26.0625 C16 29 16 29 16.0625 32.625 C15 36 15 36 13.4375 37.9375 C9.80695544 39.52004507 6.95200431 39.25496802 3 39 C2.34 38.67 1.68 38.34 1 38 C1.08919667 39.50096457 1.19735084 41.00080309 1.3125 42.5 C1.39951172 43.75296875 1.39951172 43.75296875 1.48828125 45.03125 C2.06559078 48.93318664 2.06559078 48.93318664 5 56 C157.46 56.33 309.92 56.66 467 57 C467 57.33 467 57.66 467 58 C309.92 58 152.84 58 -9 58 C-14.04767785 37.80928859 -10.03674814 19.42106352 -1 1 C-0.67 0.67 -0.34 0.34 0 0 Z " fill="#638F30" transform="translate(27,310)"/>
<path d="M0 0 C2.5 1.4375 2.5 1.4375 4 4 C4.76004105 8.31481639 4.73570183 11.74317604 2.5 15.5625 C-1.00246578 17.57641782 -4.12143713 17.87555677 -8 17 C-11 14.9375 -11 14.9375 -13 12 C-13.7878128 7.5882483 -13.52975133 5.77807226 -11 2.0625 C-6.84919686 -0.79117716 -4.9698922 -0.7099846 0 0 Z " fill="#F9D048" transform="translate(374,267)"/>
<path d="M0 0 C3 2.0625 3 2.0625 5 5 C5.7878128 9.4117517 5.52975133 11.22192774 3 14.9375 C-1.15080314 17.79117716 -3.0301078 17.7099846 -8 17 C-10.5 15.5625 -10.5 15.5625 -12 13 C-12.76004105 8.68518361 -12.73570183 5.25682396 -10.5 1.4375 C-6.99753422 -0.57641782 -3.87856287 -0.87555677 0 0 Z " fill="#F9D047" transform="translate(146,267)"/>
<path d="M0 0 C3.0625 2.0625 3.0625 2.0625 5 5 C5.0652915 8.78690691 4.83811613 10.960736 2.4375 13.9375 C-1.09387641 15.47681792 -4.21223417 15.68303974 -8 15 C-10.5 13.4375 -10.5 13.4375 -12 11 C-12.55802097 7.09385318 -12.58392818 4.94888329 -10.5 1.5625 C-7.02348669 -0.61032082 -3.92483969 -0.88425242 0 0 Z " fill="#030401" transform="translate(38,334)"/>
<path d="M0 0 C2.5 1.5625 2.5 1.5625 4 4 C4.55802097 7.90614682 4.58392818 10.05111671 2.5 13.4375 C-1.02558884 15.64099302 -3.95014472 15.79669284 -8 15 C-10.5 13.5 -10.5 13.5 -12 11 C-12.57277908 8.03467496 -12.39362078 6.09976365 -12 3 C-9.09039886 -0.87946819 -4.47718802 -0.80736177 0 0 Z " fill="#030401" transform="translate(483,334)"/>
<path d="M0 0 C16.06904422 -1.22430813 16.06904422 -1.22430813 20.75390625 1.74609375 C25 6.7190762 25 6.7190762 25 9 C18.4 9 11.8 9 5 9 C3.35 6.03 1.7 3.06 0 0 Z " fill="#FD5700" transform="translate(24,384)"/>
</svg>
