<?xml version="1.0" encoding="UTF-8"?>
<svg version="1.1" xmlns="http://www.w3.org/2000/svg" width="512" height="512">
<path d="M0 0 C3.79905064 2.25237832 7.00640799 5.01281599 9 9 C11.15922176 20.68346021 5.39041882 30.61609498 0.625 40.875 C-0.24431587 42.78713392 -1.11204858 44.69998832 -1.97827148 46.61352539 C-4.61921373 52.42447357 -7.3066693 58.21319602 -10 64 C-10.79244316 65.7109668 -11.5846096 67.4220618 -12.37646484 69.13330078 C-26.22119126 99.00199208 -40.55583723 128.73066895 -56.60546875 157.484375 C-58.05802624 160.10467479 -59.48518266 162.73749902 -60.90625 165.375 C-80.28991008 201.3288728 -101.49307311 236.58231368 -125 270 C-123.50302847 273.23650789 -121.7029956 275.56182469 -119.21875 278.14453125 C-118 280 -118 280 -117.48291016 283.02636719 C-115.88164127 288.75613502 -111.19898522 292.4129902 -107.0546875 296.43359375 C-106.1696756 297.31153091 -105.2846637 298.18946808 -104.37283325 299.0940094 C-102.03075282 301.41290948 -99.67828699 303.72054274 -97.32019043 306.02313232 C-94.91138922 308.38055907 -92.51688127 310.75240868 -90.12109375 313.12304688 C-85.42706174 317.76203933 -80.7190374 322.38645417 -76 327 C-75.07872314 326.67692871 -74.15744629 326.35385742 -73.20825195 326.02099609 C-69.71839498 324.91038184 -66.84359095 324.66603357 -63.1875 324.625 C-62.04667969 324.59664063 -60.90585937 324.56828125 -59.73046875 324.5390625 C-48.89318152 325.87811998 -42.42047618 332.8510737 -35.0703125 340.30078125 C-33.94773241 341.42253115 -32.82433493 342.54346358 -31.70016479 343.66362 C-29.35747433 346.00346534 -27.02373034 348.35177542 -24.69628906 350.70678711 C-21.72250597 353.71470945 -18.72902828 356.70208005 -15.72880745 359.68360615 C-13.41012796 361.99168686 -11.10134245 364.30946423 -8.79546738 366.63033104 C-7.69551558 367.73543995 -6.5927614 368.83776729 -5.48709488 369.93715858 C-3.94117676 371.47758729 -2.40886982 373.03042405 -0.87939453 374.5871582 C0.42890823 375.90475883 0.42890823 375.90475883 1.76364136 377.24897766 C5.09123983 381.34237196 6.80568874 385.18642819 7.375 390.5 C6.04326438 402.92953245 -5.00315741 411.23544772 -13.3425293 419.63769531 C-14.40854735 420.71529874 -15.47006621 421.79737108 -16.52709961 422.88378906 C-29.15334151 435.85918859 -29.15334151 435.85918859 -37.72265625 437.53125 C-38.49480469 437.5209375 -39.26695312 437.510625 -40.0625 437.5 C-41.22458984 437.51546875 -41.22458984 437.51546875 -42.41015625 437.53125 C-51.22627918 435.72281453 -57.1767429 428.27956368 -63.26171875 422.171875 C-64.34036143 421.09780097 -65.41937285 420.02409713 -66.49873352 418.95074463 C-68.75201203 416.70636842 -70.99956964 414.45644915 -73.2434082 412.20263672 C-76.10623754 409.32831865 -78.98461561 406.47016492 -81.86773968 403.61622238 C-84.09771302 401.40467573 -86.31821513 399.18380363 -88.53614235 396.96018219 C-89.59311997 395.90305216 -90.6531675 394.84898164 -91.71643639 393.79817963 C-100.03547938 385.56302471 -106.12266965 378.44941835 -106.20115662 366.25280762 C-106 364 -106 364 -105.25209045 361.72473145 C-104.36203756 359.00301244 -103.92525619 356.87115935 -104 354 C-106.12013078 350.13927555 -109.12838524 347.35358589 -112.30859375 344.34375 C-113.18266373 343.47480103 -114.0567337 342.60585205 -114.95729065 341.71057129 C-116.80902073 339.88132068 -118.67518057 338.06657848 -120.55444336 336.265625 C-123.42581669 333.51120743 -126.24937311 330.71416018 -129.06835938 327.90625 C-130.87497236 326.13273177 -132.68413643 324.36180771 -134.49609375 322.59375 C-135.34119003 321.76049194 -136.18628632 320.92723389 -137.05699158 320.06872559 C-141.62141504 315.7213029 -144.79071523 313.18001403 -151 312 C-151.99 311.34 -152.98 310.68 -154 310 C-154.36649658 310.44690186 -154.73299316 310.89380371 -155.1105957 311.35424805 C-176.58833588 337.52888289 -176.58833588 337.52888289 -187.4140625 349.1953125 C-189.64949014 351.61983976 -191.82803516 354.08148088 -194 356.5625 C-198.67880313 361.7762661 -203.61759262 366.72696216 -208.5625 371.6875 C-209.36623047 372.49582275 -210.16996094 373.30414551 -210.99804688 374.13696289 C-215.83840665 378.96491403 -220.81177058 383.55073087 -226 388 C-227.15663753 389.0215276 -228.31162943 390.04492197 -229.46484375 391.0703125 C-238.00796615 398.6090804 -246.83320262 405.66508717 -255.96386719 412.47851562 C-257.85018707 413.88805346 -259.72664564 415.30972936 -261.6015625 416.734375 C-271.97425411 424.5455353 -282.86760761 431.55194701 -293.78613281 438.57055664 C-295.53371622 439.69893124 -297.26915999 440.84610666 -299 442 C-305.17471591 442.45738636 -305.17471591 442.45738636 -308.26953125 440.7421875 C-311.19142082 439.64139786 -311.19142082 439.64139786 -314.55078125 441.5546875 C-315.81583864 442.30974793 -317.06962244 443.08396155 -318.3125 443.875 C-318.95767578 444.26558594 -319.60285156 444.65617187 -320.26757812 445.05859375 C-321.85503001 446.02282379 -323.4289257 447.00930903 -325 448 C-324.9175 448.886875 -324.835 449.77375 -324.75 450.6875 C-325.07061961 454.93570979 -325.90370957 456.08144225 -329 459 C-332.0116581 460.9102077 -335.16246601 462.45722522 -338.375 464 C-339.82108643 464.70503662 -339.82108643 464.70503662 -341.29638672 465.42431641 C-446.98109443 516.30707532 -446.98109443 516.30707532 -494 512 C-498.66072057 509.83035422 -500.68232489 507.50440812 -503 503 C-514.85915466 440.04765403 -453.2126272 336.83396221 -420.4375 288.625 C-411.01519602 274.94884803 -401.39291561 261.43477967 -390.4921875 248.890625 C-388.19469174 246.22581801 -385.99903788 243.50586283 -383.8125 240.75 C-374.46786978 229.30117113 -363.91719766 218.8377018 -353.5 208.375 C-352.77111572 207.64144287 -352.04223145 206.90788574 -351.29125977 206.15209961 C-347.24779476 202.12065634 -343.10665312 198.26448308 -338.78173828 194.53662109 C-336.54508666 192.60766997 -334.36731984 190.61776 -332.1875 188.625 C-322.19214299 179.61702628 -311.51585567 171.38713995 -301 163 C-301.61875 162.319375 -302.2375 161.63875 -302.875 160.9375 C-305 158 -305 158 -305.62084961 154.88305664 C-307.10220093 149.40847407 -311.30759457 145.86003941 -315.19140625 141.93359375 C-316.42031837 140.67616112 -316.42031837 140.67616112 -317.67405701 139.39332581 C-319.40660189 137.63115651 -321.14603636 135.8757379 -322.8918457 134.12670898 C-325.55766176 131.44237186 -328.17790227 128.71832741 -330.79882812 125.99023438 C-332.48955627 124.28124703 -334.18283331 122.57477681 -335.87890625 120.87109375 C-336.65738419 120.05152695 -337.43586212 119.23196014 -338.2379303 118.38755798 C-342.17032908 114.30137252 -342.17032908 114.30137252 -347.41110229 112.95291138 C-349.77384677 113.43327269 -349.77384677 113.43327269 -351.91246033 114.25526428 C-357.55128795 116.26693208 -364.07407809 115.35328433 -369.56748962 113.24507141 C-378.25575412 108.79801547 -385.4154097 99.75455922 -392.27734375 92.92578125 C-393.21050919 91.99831589 -394.14367462 91.07085052 -395.1051178 90.11528015 C-397.0590272 88.17175643 -399.0106971 86.22601313 -400.96118164 84.27905273 C-403.45135549 81.79441032 -405.95071908 79.31922485 -408.45221615 76.84599018 C-410.85883448 74.46250159 -413.25484015 72.06843748 -415.65234375 69.67578125 C-416.54606186 68.79440994 -417.43977997 67.91303864 -418.36058044 67.00495911 C-419.18896927 66.17356918 -420.01735809 65.34217926 -420.87084961 64.4855957 C-421.59791611 63.76217484 -422.3249826 63.03875397 -423.07408142 62.29341125 C-426.41261235 58.31784111 -428.42893659 54.34868218 -428.4375 49.125 C-428.45683594 48.34382813 -428.47617187 47.56265625 -428.49609375 46.7578125 C-427.16347873 39.34973215 -422.71914529 34.13155649 -417.4765625 29.015625 C-416.85276703 28.39274597 -416.22897156 27.76986694 -415.58627319 27.12811279 C-414.27481608 25.82265866 -412.95854075 24.52202854 -411.63769531 23.22607422 C-409.62700408 21.25196761 -407.63285398 19.26225093 -405.640625 17.26953125 C-404.35771096 15.99644774 -403.07388695 14.72428045 -401.7890625 13.453125 C-401.19823883 12.86452698 -400.60741516 12.27592896 -399.99868774 11.66949463 C-390.8096183 2.68712827 -390.8096183 2.68712827 -384.125 2.0625 C-382.95324219 1.92521484 -382.95324219 1.92521484 -381.7578125 1.78515625 C-371.63290413 2.5739239 -365.9349015 9.34521825 -359.203125 16.16796875 C-358.08151141 17.28875236 -356.95908072 18.40871881 -355.83587646 19.52790833 C-353.49140413 21.8695316 -351.15589861 24.2196414 -348.82666016 26.57641602 C-345.85402816 29.58310868 -342.86179619 32.56934213 -339.86275101 35.54966259 C-337.54402062 37.85777737 -335.23520897 40.17561418 -332.92928314 42.49651527 C-331.83015437 43.60079419 -330.7282345 44.70230282 -329.6233902 45.80086327 C-316.62833196 58.74970072 -316.62833196 58.74970072 -315.5390625 67.8515625 C-315.56742188 69.09679687 -315.59578125 70.34203125 -315.625 71.625 C-315.63789063 72.87539062 -315.65078125 74.12578125 -315.6640625 75.4140625 C-315.99129469 78.90707592 -316.74494544 81.73685815 -318 85 C-317.43410156 85.55429688 -316.86820313 86.10859375 -316.28515625 86.6796875 C-315.55167969 87.40414062 -314.81820312 88.12859375 -314.0625 88.875 C-313.33160156 89.59429687 -312.60070312 90.31359375 -311.84765625 91.0546875 C-309.46628881 93.56192003 -309.02341806 94.44967559 -308.875 97.9375 C-309 101 -309 101 -310 104 C-306.04 107.96 -302.08 111.92 -298 116 C-297.34 115.67 -296.68 115.34 -296 115 C-292.32341603 114.41174657 -289.9589003 114.34000016 -286.83203125 116.4921875 C-284.81182574 118.26584698 -282.88538485 120.08427562 -281 122 C-279.08330265 124.27580515 -279.08330265 124.27580515 -275.875 124.6875 C-271.54332895 125.78172171 -268.99713419 128.44277851 -265.89453125 131.5390625 C-263.87080362 133.40710481 -263.87080362 133.40710481 -260 133 C-257.14123232 131.47869696 -257.14123232 131.47869696 -254.109375 129.37109375 C-253.53674423 128.99015564 -252.96411346 128.60921753 -252.37413025 128.21673584 C-251.1394484 127.39431285 -249.90743201 126.56787711 -248.67782593 125.73788452 C-245.40382557 123.52945931 -242.1084836 121.35321784 -238.81640625 119.171875 C-237.81991814 118.50982307 -237.81991814 118.50982307 -236.80329895 117.83439636 C-219.28285876 106.2082343 -201.24241241 95.44707693 -183 85 C-182.0423877 84.45102051 -181.08477539 83.90204102 -180.09814453 83.33642578 C-156.06677104 69.58847243 -131.65758923 56.58323823 -107 44 C-105.88834473 43.43249023 -104.77668945 42.86498047 -103.63134766 42.28027344 C-77.61804517 29.04236693 -51.06104456 17.04967257 -24.37890625 5.23828125 C-23.70617172 4.93991364 -23.03343719 4.64154602 -22.34031677 4.33413696 C-14.63874703 0.93253403 -8.55025527 -1.49132359 0 0 Z " fill="#010100" transform="translate(503,0)"/>
<path d="M0 0 C3.46629835 1.48653506 5.69022036 3.45722351 8.328125 6.1328125 C9.52695312 7.34130859 9.52695312 7.34130859 10.75 8.57421875 C11.575 9.41597656 12.4 10.25773438 13.25 11.125 C14.09046875 11.97449219 14.9309375 12.82398438 15.796875 13.69921875 C17.86915683 15.79504923 19.93662393 17.89540713 22 20 C18.60060448 27.1387306 12.04423815 32.00906606 6.1328125 37.0859375 C3.66067964 39.30451828 1.33437822 41.63706669 -1 44 C-4.52106323 47.56400302 -8.13186008 50.90304168 -11.9375 54.15625 C-15.29035849 57.15350228 -18.39893756 60.39159634 -21.55859375 63.58984375 C-24.27202727 66.26854532 -27.10777023 68.74608118 -30.00390625 71.22265625 C-32.26132626 73.23268777 -34.37735713 75.34832953 -36.5 77.5 C-39.22829407 80.26560408 -41.98516834 82.91287031 -44.9375 85.4375 C-49.02792085 88.9424133 -52.76882423 92.74994117 -56.546875 96.5859375 C-58.71003625 98.71465351 -60.92314298 100.68003173 -63.25 102.625 C-69.60780707 108.09477329 -74.45479794 114.13907788 -75.25 122.6875 C-75.63031767 132.00528296 -73.59606397 139.41007938 -67.35546875 146.51171875 C-65.98193638 147.91923003 -64.59232113 149.31121632 -63.1875 150.6875 C-62.15786133 151.77708008 -62.15786133 151.77708008 -61.10742188 152.88867188 C-56.89830861 157.16515401 -56.89830861 157.16515401 -51.11328125 158.08203125 C-47.94315415 157.23367413 -47.94315415 157.23367413 -46 155 C-45.3658132 151.47674 -45.26984457 149.0822718 -47.3203125 146.04296875 C-49.76931722 143.25901047 -52.35424341 140.6394132 -54.98828125 138.03125 C-59.60044196 133.21856056 -61.10862313 129.70359872 -61 123 C-60.34 123 -59.68 123 -59 123 C-57.88211485 124.3088187 -56.83330841 125.67663428 -55.8125 127.0625 C-45.91385751 139.71978056 -34.50637374 150.6954764 -20.125 158 C-15.05693172 160.71682868 -12.94169374 162.5447652 -11 168 C-10.40004483 172.79164195 -10.27565599 175.91348399 -13 180 C-13.62648437 179.36191406 -14.25296875 178.72382813 -14.8984375 178.06640625 C-15.71570313 177.24011719 -16.53296875 176.41382813 -17.375 175.5625 C-18.18710938 174.73878906 -18.99921875 173.91507813 -19.8359375 173.06640625 C-22.66725175 170.36285889 -23.47082402 170.03848553 -27.4375 169.75 C-30.85088602 169.74717687 -30.85088602 169.74717687 -33 171.0625 C-34.68741744 174.33187129 -33.90924913 176.49086665 -33 180 C-30.96762169 182.88325263 -28.54127332 185.25190826 -26 187.6875 C-25.36449219 188.33783203 -24.72898438 188.98816406 -24.07421875 189.65820312 C-18.74871953 194.89298743 -13.27801574 198.27904568 -5.84765625 199.53125 C6.84274726 199.38886118 14.22212662 194.97481285 23 186 C25.29774674 183.52371213 27.54897582 181.0154085 29.77734375 178.4765625 C31.98312766 176.01879976 34.27232192 173.69185049 36.625 171.375 C39.34915593 168.68848353 41.9501276 165.96928883 44.4375 163.0625 C47.94349685 158.97081459 51.75461891 155.23033117 55.5859375 151.4453125 C58.28751294 148.70876521 60.79078735 145.85020634 63.2890625 142.9296875 C65.748168 140.15617582 68.39887221 137.59191511 71.0390625 134.9921875 C72.90478806 133.09672926 74.64659255 131.14553265 76.375 129.125 C79.90116716 125.01918892 83.72579422 121.25873742 87.57421875 117.45703125 C90.33477166 114.66091566 92.90699059 111.74535815 95.4609375 108.76171875 C97.53424056 106.38847084 99.73833739 104.19312738 102 102 C105.46629835 103.48653506 107.69022036 105.45722351 110.328125 108.1328125 C111.12734375 108.93847656 111.9265625 109.74414062 112.75 110.57421875 C113.575 111.41597656 114.4 112.25773437 115.25 113.125 C116.51070313 114.39923828 116.51070313 114.39923828 117.796875 115.69921875 C119.86915683 117.79504923 121.93662393 119.89540713 124 122 C122.80983689 125.24637312 121.58242251 127.82923114 119.3828125 130.49609375 C118.86444824 131.12999023 118.34608398 131.76388672 117.81201172 132.41699219 C117.25529785 133.08375977 116.69858398 133.75052734 116.125 134.4375 C115.25705811 135.4898584 115.25705811 135.4898584 114.37158203 136.56347656 C112.58975372 138.71641804 110.79724864 140.85992071 109 143 C108.46955078 143.63244629 107.93910156 144.26489258 107.39257812 144.91650391 C101.2865084 152.17183707 95.01584439 159.25602875 88.5703125 166.2109375 C86.24177862 168.73764447 83.96128667 171.29916049 81.6875 173.875 C73.96654885 182.47080713 65.79261815 190.84715167 56.96484375 198.3125 C54.5404227 200.39470655 52.21649968 202.57502207 49.875 204.75 C44.11552936 209.99523219 38.07387164 214.79497195 31.89648438 219.53613281 C29.9768524 221.01786728 28.07358806 222.51879597 26.171875 224.0234375 C12.85372881 234.4808296 -1.18609239 244.04240161 -15.65234375 252.84375 C-19.01651066 254.60820604 -19.01651066 254.60820604 -20 257 C-20.0689472 258.37342831 -20.08467708 259.75002102 -20.0625 261.125 C-20.0315625 263.043125 -20.0315625 263.043125 -20 265 C-22.62214328 266.50519387 -25.24744208 268.00431319 -27.875 269.5 C-28.99455078 270.14388672 -28.99455078 270.14388672 -30.13671875 270.80078125 C-31.20986328 271.40986328 -31.20986328 271.40986328 -32.3046875 272.03125 C-32.96452637 272.40830078 -33.62436523 272.78535156 -34.30419922 273.17382812 C-36 274 -36 274 -38 274 C-38 273.34 -38 272.68 -38 272 C-45.86060042 270.40738086 -49.81436245 271.7609556 -56.6875 275.625 C-58.6409826 276.65648837 -60.59822761 277.68087346 -62.55859375 278.69921875 C-63.59999512 279.2411084 -64.64139648 279.78299805 -65.71435547 280.34130859 C-102.85784588 299.09245095 -144.32826094 312.6777574 -185 321 C-185.88623047 321.18836426 -186.77246094 321.37672852 -187.68554688 321.57080078 C-188.56791016 321.75497559 -189.45027344 321.93915039 -190.359375 322.12890625 C-191.15311523 322.29592041 -191.94685547 322.46293457 -192.76464844 322.63500977 C-195 323 -195 323 -199 323 C-198.44295354 314.71753551 -196.83407418 306.77266801 -195 298.6875 C-194.84827332 298.01692566 -194.69654663 297.34635132 -194.54022217 296.65545654 C-179.06268953 228.7635066 -147.92382612 161.60100384 -106 106 C-105.54254395 105.39091797 -105.08508789 104.78183594 -104.61376953 104.15429688 C-98.93395071 96.61460353 -93.05566923 89.24111834 -87 82 C-86.55962402 81.47325684 -86.11924805 80.94651367 -85.66552734 80.40380859 C-72.22801709 64.38629637 -58.04789149 48.35104656 -42.078125 34.796875 C-39.9191349 32.93007905 -37.82447007 31.00109099 -35.7331543 29.05908203 C-29.68546558 23.44794263 -23.46207808 18.1336668 -17 13 C-16.40799805 12.52965332 -15.81599609 12.05930664 -15.20605469 11.57470703 C-3.85313134 2.56875423 -3.85313134 2.56875423 0 0 Z " fill="#FCC827" transform="translate(214,174)"/>
<path d="M0 0 C-0.59527374 3.43333887 -1.46907739 6.41514939 -2.86328125 9.60546875 C-3.44166748 10.93553955 -3.44166748 10.93553955 -4.03173828 12.29248047 C-4.45438965 13.24783691 -4.87704102 14.20319336 -5.3125 15.1875 C-5.75835449 16.20215332 -6.20420898 17.21680664 -6.66357422 18.26220703 C-16.62104834 40.81386962 -27.25402611 63.03317914 -38.10162354 85.16680908 C-38.9323429 86.86194164 -39.76187833 88.55765428 -40.59130859 90.25341797 C-46.38855848 102.07996373 -52.47863612 113.70957252 -58.83984375 125.2421875 C-61.04999312 129.25245539 -63.22559433 133.27924126 -65.37890625 137.3203125 C-80.90581033 166.45727283 -97.85349611 194.80356252 -115.625 222.625 C-116.26356934 223.62523193 -116.90213867 224.62546387 -117.56005859 225.65600586 C-121.56077813 231.87729859 -125.71175735 237.97341408 -130 244 C-134.82604496 241.83384341 -138.08472271 238.35927312 -141.8125 234.6875 C-142.51826172 234.02298828 -143.22402344 233.35847656 -143.95117188 232.67382812 C-144.61310547 232.02220703 -145.27503906 231.37058594 -145.95703125 230.69921875 C-146.56522705 230.10971436 -147.17342285 229.52020996 -147.80004883 228.9128418 C-149 227 -149 227 -148.7487793 224.44091797 C-147.91826889 221.73356778 -147.00209653 219.08642428 -146 216.4375 C-141.0499594 203.31625268 -140.99955572 188.0152253 -146.44140625 175.01953125 C-148.8715512 170.31150608 -151.71153793 166.14330819 -155 162 C-156.0828125 160.453125 -156.0828125 160.453125 -157.1875 158.875 C-165.00628803 149.82166649 -177.32146765 144.30694048 -189 143 C-201.53201191 142.10930876 -211.39464317 142.97211103 -223 148 C-224.91503906 148.79638672 -224.91503906 148.79638672 -227 149 C-229.01464844 147.5847168 -229.01464844 147.5847168 -231.109375 145.44921875 C-231.86347656 144.68802734 -232.61757813 143.92683594 -233.39453125 143.14257812 C-234.56048828 141.92731445 -234.56048828 141.92731445 -235.75 140.6875 C-236.54277344 139.88892578 -237.33554687 139.09035156 -238.15234375 138.26757812 C-244 132.29411171 -244 132.29411171 -244 130 C-242.42138672 128.70996094 -242.42138672 128.70996094 -240.1796875 127.234375 C-239.34598633 126.68144775 -238.51228516 126.12852051 -237.65332031 125.55883789 C-236.73647461 124.96192139 -235.81962891 124.36500488 -234.875 123.75 C-233.9272168 123.12665771 -232.97943359 122.50331543 -232.00292969 121.86108398 C-229.00814544 119.89769949 -226.00549046 117.94694985 -223 116 C-222.09217773 115.41041504 -221.18435547 114.82083008 -220.24902344 114.21337891 C-188.41818306 93.59395114 -155.50658905 74.74642311 -122 57 C-121.09137207 56.5167627 -120.18274414 56.03352539 -119.24658203 55.53564453 C-89.94377763 39.97409993 -60.2218161 25.29750731 -29.89483643 11.84295654 C-27.37024252 10.71983957 -24.85028313 9.58653254 -22.33033752 8.45303345 C-19.43113132 7.15041778 -16.52801804 5.85659349 -13.625 4.5625 C-12.58432373 4.09521484 -11.54364746 3.62792969 -10.47143555 3.14648438 C-9.05084839 2.5190332 -9.05084839 2.5190332 -7.6015625 1.87890625 C-6.77994629 1.5135376 -5.95833008 1.14816895 -5.11181641 0.77172852 C-3 0 -3 0 0 0 Z " fill="#FCC727" transform="translate(496,16)"/>
<path d="M0 0 C-0.59527374 3.43333887 -1.46907739 6.41514939 -2.86328125 9.60546875 C-3.44166748 10.93553955 -3.44166748 10.93553955 -4.03173828 12.29248047 C-4.45438965 13.24783691 -4.87704102 14.20319336 -5.3125 15.1875 C-5.75835449 16.20215332 -6.20420898 17.21680664 -6.66357422 18.26220703 C-16.62104834 40.81386962 -27.25402611 63.03317914 -38.10162354 85.16680908 C-38.9323429 86.86194164 -39.76187833 88.55765428 -40.59130859 90.25341797 C-46.38855848 102.07996373 -52.47863612 113.70957252 -58.83984375 125.2421875 C-61.04999312 129.25245539 -63.22559433 133.27924126 -65.37890625 137.3203125 C-80.90581033 166.45727283 -97.85349611 194.80356252 -115.625 222.625 C-116.26356934 223.62523193 -116.90213867 224.62546387 -117.56005859 225.65600586 C-121.56077813 231.87729859 -125.71175735 237.97341408 -130 244 C-134.82604496 241.83384341 -138.08472271 238.35927312 -141.8125 234.6875 C-142.51826172 234.02298828 -143.22402344 233.35847656 -143.95117188 232.67382812 C-144.61310547 232.02220703 -145.27503906 231.37058594 -145.95703125 230.69921875 C-146.56522705 230.10971436 -147.17342285 229.52020996 -147.80004883 228.9128418 C-149 227 -149 227 -148.94018555 224.58129883 C-147.80175908 221.45572545 -146.14901062 219.53094379 -144 217 C-142.7627537 215.096946 -141.55881824 213.1719639 -140.3828125 211.23046875 C-139.35969971 209.54522095 -139.35969971 209.54522095 -138.31591797 207.82592773 C-137.58531094 206.61329982 -136.85501266 205.40048583 -136.125 204.1875 C-135.36217251 202.92454207 -134.59931401 201.66160288 -133.83642578 200.39868164 C-117.36047212 173.07999621 -101.60248364 145.3688238 -87 117 C-87.86902954 117.09849243 -87.86902954 117.09849243 -88.75561523 117.19897461 C-93.1880884 117.69716465 -97.61926987 118.16879606 -102.0625 118.5625 C-102.93447021 118.63976318 -103.80644043 118.71702637 -104.70483398 118.79663086 C-105.84094116 118.89729858 -105.84094116 118.89729858 -107 119 C-107.11102051 119.8957373 -107.22204102 120.79147461 -107.33642578 121.71435547 C-108.46977676 130.56272735 -109.83002823 139.33736532 -111.49462891 148.1015625 C-111.75134122 149.46717974 -112.0011851 150.83410356 -112.24462891 152.20214844 C-112.60442291 154.22366655 -112.98349474 156.24071095 -113.3671875 158.2578125 C-113.58487793 159.4348877 -113.80256836 160.61196289 -114.02685547 161.82470703 C-115.11019001 165.35954121 -116.43607246 167.3578856 -119 170 C-121.9375 171.0625 -121.9375 171.0625 -125 171 C-127.875 169.625 -127.875 169.625 -130 167 C-130.68575633 159.10956915 -129.00210078 151.52268824 -127.49145508 143.81396484 C-127.05966762 141.61054634 -126.63918003 139.40520033 -126.22070312 137.19921875 C-124.17925764 126.53777292 -124.17925764 126.53777292 -123 123 C-124.01312256 123.21205078 -125.02624512 123.42410156 -126.07006836 123.64257812 C-129.86462302 124.43431104 -133.66153376 125.21420444 -137.45922852 125.99072266 C-139.09595219 126.32706445 -140.73203874 126.66652344 -142.36743164 127.00927734 C-144.73158698 127.50418444 -147.09788171 127.98746829 -149.46484375 128.46875 C-150.18397446 128.62186646 -150.90310516 128.77498291 -151.64402771 128.93273926 C-156.68078791 129.94106949 -161.8731581 130.69604664 -167 130 C-169.625 127.875 -169.625 127.875 -171 125 C-171.0625 121.9375 -171.0625 121.9375 -170 119 C-166.52871005 115.69013851 -163.83192689 114.40977991 -159.1328125 113.62109375 C-157.44297241 113.32464966 -157.44297241 113.32464966 -155.71899414 113.0222168 C-154.53297607 112.82926025 -153.34695801 112.63630371 -152.125 112.4375 C-149.68865261 112.01648905 -147.25245343 111.59461956 -144.81640625 111.171875 C-143.64352051 110.97271484 -142.47063477 110.77355469 -141.26220703 110.56835938 C-136.05583998 109.66127791 -130.892162 108.57483195 -125.72265625 107.48046875 C-123 107 -123 107 -119 107 C-119.04769531 106.11570312 -119.09539062 105.23140625 -119.14453125 104.3203125 C-119.14006945 98.4099157 -117.80929941 92.65435625 -116.6875 86.875 C-116.47416016 85.70839844 -116.26082031 84.54179688 -116.04101562 83.33984375 C-115.82509766 82.21449219 -115.60917969 81.08914062 -115.38671875 79.9296875 C-115.19295654 78.91116699 -114.99919434 77.89264648 -114.79956055 76.84326172 C-113.6699583 72.82636162 -111.94199231 69.94199231 -109 67 C-105.08227033 66.39057538 -103.42945449 66.72588011 -100.0625 68.875 C-95.70904621 75.4711421 -99.59338877 85.7302562 -101.0625 93.125 C-101.701875 96.38375 -102.34125 99.6425 -103 103 C-94.09 101.35 -85.18 99.7 -76 98 C-75.34 96.02 -74.68 94.04 -74 92 C-73.01018822 89.86625991 -71.98298268 87.74960367 -70.92578125 85.6484375 C-70.34119141 84.46765625 -69.75660156 83.286875 -69.15429688 82.0703125 C-68.23103816 80.21344076 -67.30422957 78.3586346 -66.36889648 76.5078125 C-65.46054798 74.70584675 -64.56792955 72.89597866 -63.67578125 71.0859375 C-62.8700769 69.4779126 -62.8700769 69.4779126 -62.0480957 67.83740234 C-60.95527528 64.87892134 -60.71610226 63.82729845 -62 61 C-64.2318318 58.44216142 -64.2318318 58.44216142 -66.9375 55.9375 C-73.78985905 49.38092623 -73.78985905 49.38092623 -74.4375 45.125 C-73.84664231 40.90458789 -72.35694833 39.53636096 -69 37 C-66.6484375 36.5859375 -66.6484375 36.5859375 -64 37 C-61.39453125 38.96875 -61.39453125 38.96875 -58.8125 41.5 C-55.89214973 44.84144713 -55.89214973 44.84144713 -52 46 C-50.30753743 42.21051275 -48.61691247 38.42021168 -46.92797852 34.62915039 C-46.35328685 33.33986328 -45.77809548 32.05079878 -45.20239258 30.76196289 C-44.37449452 28.90829986 -43.54840283 27.05384101 -42.72265625 25.19921875 C-42.22515869 24.08377686 -41.72766113 22.96833496 -41.21508789 21.8190918 C-39.95317815 19.0013775 -39.95317815 19.0013775 -39 16 C-36.3907186 14.59934924 -33.84310868 13.38002145 -31.1328125 12.20703125 C-30.34228485 11.85613937 -29.5517572 11.5052475 -28.73727417 11.14372253 C-27.06324656 10.40332971 -25.38691029 9.66813838 -23.70849609 8.93774414 C-21.13727243 7.81784527 -18.57414288 6.68088314 -16.01171875 5.54101562 C-14.38586728 4.82449747 -12.75957909 4.1089693 -11.1328125 3.39453125 C-10.36397736 3.05396194 -9.59514221 2.71339264 -8.80300903 2.36250305 C-3.34795644 0 -3.34795644 0 0 0 Z " fill="#FD9F00" transform="translate(496,16)"/>
<path d="M0 0 C3.46629835 1.48653506 5.69022036 3.45722351 8.328125 6.1328125 C9.12734375 6.93847656 9.9265625 7.74414062 10.75 8.57421875 C11.9875 9.83685547 11.9875 9.83685547 13.25 11.125 C14.09046875 11.97449219 14.9309375 12.82398438 15.796875 13.69921875 C17.86915683 15.79504923 19.93662393 17.89540713 22 20 C20.80983689 23.24637312 19.58242251 25.82923114 17.3828125 28.49609375 C16.86444824 29.12999023 16.34608398 29.76388672 15.81201172 30.41699219 C14.97694092 31.41714355 14.97694092 31.41714355 14.125 32.4375 C13.25705811 33.4898584 13.25705811 33.4898584 12.37158203 34.56347656 C10.58975372 36.71641804 8.79724864 38.85992071 7 41 C6.46955078 41.63244629 5.93910156 42.26489258 5.39257812 42.91650391 C-0.7134916 50.17183707 -6.98415561 57.25602875 -13.4296875 64.2109375 C-15.75822138 66.73764447 -18.03871333 69.29916049 -20.3125 71.875 C-28.03345115 80.47080713 -36.20738185 88.84715167 -45.03515625 96.3125 C-47.4595773 98.39470655 -49.78350032 100.57502207 -52.125 102.75 C-57.88447064 107.99523219 -63.92612836 112.79497195 -70.10351562 117.53613281 C-72.0231476 119.01786728 -73.92641194 120.51879597 -75.828125 122.0234375 C-89.14627119 132.4808296 -103.18609239 142.04240161 -117.65234375 150.84375 C-121.01651066 152.60820604 -121.01651066 152.60820604 -122 155 C-122.0689472 156.37342831 -122.08467708 157.75002102 -122.0625 159.125 C-122.0315625 161.043125 -122.0315625 161.043125 -122 163 C-124.62214328 164.50519387 -127.24744208 166.00431319 -129.875 167.5 C-130.99455078 168.14388672 -130.99455078 168.14388672 -132.13671875 168.80078125 C-132.85214844 169.20683594 -133.56757813 169.61289062 -134.3046875 170.03125 C-134.96452637 170.40830078 -135.62436523 170.78535156 -136.30419922 171.17382812 C-138 172 -138 172 -140 172 C-140 171.34 -140 170.68 -140 170 C-147.86060042 168.40738086 -151.81436245 169.7609556 -158.6875 173.625 C-160.6409826 174.65648837 -162.59822761 175.68087346 -164.55859375 176.69921875 C-165.59999512 177.2411084 -166.64139648 177.78299805 -167.71435547 178.34130859 C-199.56366275 194.41978933 -250.90041082 219.56954736 -287 218 C-284.43543814 214.15315721 -281.72976001 213.70609356 -277.5 212.5 C-276.77603027 212.28351807 -276.05206055 212.06703613 -275.30615234 211.84399414 C-273.20715959 211.21822929 -271.10467698 210.60633498 -269 210 C-264.08159302 208.57694091 -259.23967594 207.15148036 -254.4921875 205.22265625 C-253.6161084 204.86824463 -252.7400293 204.51383301 -251.83740234 204.14868164 C-250.43288818 203.58008423 -250.43288818 203.58008423 -249 203 C-247.01057918 202.20792503 -245.02098887 201.41627566 -243.03125 200.625 C-186.08302479 177.81518636 -131.59041166 147.6904865 -86.16015625 105.9765625 C-84.11884584 104.10874502 -82.03811377 102.30052609 -79.9375 100.5 C-75.40375379 96.55362172 -71.21379882 92.28188533 -67 88 C-64.12807776 85.11334996 -61.23586465 82.24890181 -58.328125 79.3984375 C-51.51484092 72.69245578 -44.91896205 66.0392345 -39.01171875 58.51171875 C-36.90210691 55.87777621 -34.66693948 53.41371602 -32.375 50.9375 C-23.74066077 41.55743438 -23.74066077 41.55743438 -19 30 C-19.09893426 28.35384385 -19.20362293 26.70802844 -19.3125 25.0625 C-19.37435731 22.10660425 -19.37115983 20.54562718 -17.6953125 18.08203125 C-16.50113733 16.92235448 -15.26812788 15.80163883 -14.00390625 14.71875 C-11.89833161 12.91279904 -10.16885314 10.98819842 -8.375 8.875 C-5.70133367 5.77282281 -2.93948259 2.85040736 0 0 Z " fill="#FC9E00" transform="translate(316,276)"/>
<path d="M0 0 C0.82113281 0.39058594 1.64226562 0.78117187 2.48828125 1.18359375 C11.37665309 5.94473982 17.80435419 13.41306256 21 23 C23.56210831 33.96729815 22.39996725 44.091688 17 54 C9.69119611 64.18508222 1.2936073 69.76166814 -11 72 C-21.40603626 73.3127615 -30.61260398 69.64125775 -39.00390625 63.61328125 C-47.18382683 57.00211256 -52.05112408 47.11966681 -53.2734375 36.66015625 C-53.67808857 26.31042687 -50.51360805 17.47551057 -43.8125 9.5625 C-32.2093612 -2.33071727 -15.57794028 -7.46265627 0 0 Z " fill="#030200" transform="translate(95,398)"/>
<path d="M0 0 C3.83193552 2.10380774 7.29450407 4.53696521 10 8 C9.70614811 11.93337313 7.57063915 13.70306233 4.78125 16.30078125 C3.93175781 17.11353516 3.08226562 17.92628906 2.20703125 18.76367188 C0.40818179 20.45739377 -1.39648949 22.14495453 -3.20703125 23.82617188 C-8.52888848 28.59390965 -8.52888848 28.59390965 -11.15234375 34.984375 C-11.20109447 37.9052752 -11.20109447 37.9052752 -10.0625 39.9375 C-6.56931841 41.73701779 -3.71952259 42.07488187 0 41 C4.09775829 37.91532513 7.51520497 34.2380609 11 30.5 C11.97337098 29.4864633 12.94861605 28.47472289 13.92578125 27.46484375 C16.30287909 24.99360343 18.65932801 22.50568683 21 20 C22.10433586 20.94511484 23.20846118 21.89047569 24.3125 22.8359375 C25.23482422 23.62556885 25.23482422 23.62556885 26.17578125 24.43115234 C28.61670109 26.53036954 30.9218998 28.53225601 33 31 C32.76717292 34.92640402 30.54187534 36.74260561 27.78125 39.3359375 C26.93175781 40.15320313 26.08226562 40.97046875 25.20703125 41.8125 C23.40623941 43.51714566 21.60155927 45.21769332 19.79296875 46.9140625 C18.51873047 48.14382813 18.51873047 48.14382813 17.21875 49.3984375 C16.43435547 50.13755371 15.64996094 50.87666992 14.84179688 51.63818359 C12.61261411 54.49676181 12.13363171 56.39741063 12 60 C13.91666667 63.08333333 13.91666667 63.08333333 17 65 C20.70521215 64.88513403 22.54393831 64.36530314 25.45361328 62.03466797 C26.23462402 61.19564941 27.01563477 60.35663086 27.8203125 59.4921875 C29.11775391 58.13673828 29.11775391 58.13673828 30.44140625 56.75390625 C31.76978516 55.32884766 31.76978516 55.32884766 33.125 53.875 C34.88660757 51.98629231 36.65952783 50.1080522 38.4453125 48.2421875 C39.22406738 47.4054248 40.00282227 46.56866211 40.80517578 45.70654297 C43 44 43 44 45.16455078 44.13696289 C49.1198689 45.99677262 51.67612024 49.38856524 54 53 C55.01274002 55.9528768 54.9921094 58.0411796 54 61 C52.05445077 64.04889763 49.54513922 66.44632004 47 69 C45.51257377 70.60496411 44.04092094 72.22368057 42.56835938 73.84228516 C37.84043041 79.02799304 33.01967569 84.09440785 28 89 C27.40574219 88.67386719 26.81148437 88.34773438 26.19921875 88.01171875 C20.80395687 85.16724942 15.82901521 83.23736143 9.8359375 82.06640625 C1.59219836 78.96648781 -4.6208977 71.75176585 -10.72827148 65.64233398 C-12.18518721 64.18980582 -13.65740151 62.75408025 -15.13085938 61.31835938 C-22.04017505 54.49382193 -27.51347417 47.93630392 -29.5625 38.25 C-30.60493528 33.97841177 -31.82029459 31.17970541 -35 28 C-33.68729086 25.09778672 -32.28101018 23.03287708 -30.0234375 20.79296875 C-29.43868652 20.20942627 -28.85393555 19.62588379 -28.25146484 19.0246582 C-27.63223145 18.418396 -27.01299805 17.81213379 -26.375 17.1875 C-25.42874756 16.25200317 -25.42874756 16.25200317 -24.46337891 15.29760742 C-20.12228413 11.03178208 -15.73737463 6.82806813 -11 3 C-10.34 2.45601562 -9.68 1.91203125 -9 1.3515625 C-5.90586157 -0.73939824 -3.64570179 -0.43999849 0 0 Z " fill="#BABABA" transform="translate(215,243)"/>
<path d="M0 0 C3.71681612 0.65189333 5.63231199 2.72049685 8.18830872 5.31312561 C8.97944313 6.08629875 8.97944313 6.08629875 9.78656006 6.87509155 C11.52557081 8.58191306 13.24544701 10.306612 14.96443176 12.03358459 C16.16739361 13.22809829 17.37094943 14.42201407 18.57507324 15.61535645 C21.09595476 18.11983945 23.60705449 20.63366378 26.11213684 23.15394592 C29.32123184 26.38031871 32.55670874 29.57867722 35.80053425 32.77008152 C38.29298884 35.22943133 40.76898176 37.70485104 43.24051476 40.18520927 C44.4268184 41.3711532 45.61859543 42.55164842 46.81589699 43.72648811 C48.48989801 45.37322162 50.14000113 47.04077391 51.78596497 48.71546936 C52.28304962 49.19524231 52.78013428 49.67501526 53.2922821 50.16932678 C55.94316425 52.92009577 56.65254003 54.355531 57.03614807 58.21034241 C56.6570736 61.52468188 56.45794428 62.52710608 54.06599426 64.71327209 C53.51483948 65.2367926 52.96368469 65.76031311 52.39582825 66.29969788 C51.80358459 66.82934143 51.21134094 67.35898499 50.60115051 67.90467834 C49.4013489 69.03418986 48.20341893 70.16569289 47.00740051 71.29920959 C46.42861145 71.84013245 45.84982239 72.3810553 45.25349426 72.93836975 C42.67571614 75.41718526 40.39853156 78.1234767 38.12849426 80.88124084 C36.46630187 82.68084114 34.6349486 84.02016435 32.66365051 85.46717834 C32.20950775 84.87174225 31.75536499 84.27630615 31.28746033 83.66282654 C25.96667144 76.83417278 20.16072754 70.66921048 14.03083801 64.56874084 C13.02502361 63.56157463 12.01950587 62.55411208 11.01426697 61.54637146 C8.92487099 59.45405393 6.8319701 57.36532772 4.73640442 55.27919006 C2.06228716 52.61652513 -0.60266767 49.94489774 -3.26509285 47.27054787 C-5.33247642 45.19591543 -7.40462647 43.12609645 -9.47822189 41.05767441 C-10.4627967 40.07442466 -11.44591331 39.08971233 -12.42747879 38.1034584 C-13.79995555 36.72585979 -15.17960086 35.35541455 -16.55949402 33.98524475 C-17.33922577 33.20710419 -18.11895752 32.42896362 -18.9223175 31.62724304 C-21.59310985 29.23743036 -24.31548349 27.38789095 -27.33634949 25.46717834 C-23.05764547 20.08823616 -18.26444748 15.50925623 -13.18327332 10.90760803 C-12.64597595 10.42066467 -12.10867859 9.93372131 -11.55509949 9.43202209 C-11.02013855 8.95104065 -10.48517761 8.4700592 -9.93400574 7.97450256 C-8.28323674 6.41706861 -6.77651015 4.76779222 -5.24259949 3.09608459 C-2.33634949 0.46717834 -2.33634949 0.46717834 0 0 Z " fill="#FD8D00" transform="translate(249.3363494873047,204.53282165527344)"/>
<path d="M0 0 C3.1875 0.4375 3.1875 0.4375 6.125 2.3125 C10.47714803 8.90666369 6.59310794 19.17527138 5.125 26.5625 C4.93873047 27.51898438 4.75246094 28.47546875 4.56054688 29.4609375 C4.10690944 31.78728331 3.64917962 34.11273936 3.1875 36.4375 C3.91340332 36.28603516 4.63930664 36.13457031 5.38720703 35.97851562 C8.69439979 35.29204739 12.00339649 34.61469485 15.3125 33.9375 C16.45460938 33.69902344 17.59671875 33.46054688 18.7734375 33.21484375 C19.88203125 32.98925781 20.990625 32.76367188 22.1328125 32.53125 C23.14875488 32.32177734 24.16469727 32.11230469 25.21142578 31.89648438 C33.10693012 30.678802 33.10693012 30.678802 37.125 33.5 C39.1875 36.4375 39.1875 36.4375 39.1875 40.0625 C37.90168353 44.40213059 37.90168353 44.40213059 35.1875 46.4375 C32.18823242 47.32885742 32.18823242 47.32885742 28.54296875 48.04296875 C27.57185905 48.23636589 27.57185905 48.23636589 26.58113098 48.43367004 C25.21295274 48.70368694 23.84365954 48.96810667 22.47338867 49.22729492 C20.39026289 49.62210724 18.31139051 50.03508252 16.23242188 50.45117188 C10.5018554 51.57192331 5.0566666 52.61046829 -0.8125 52.4375 C-0.92352051 53.3332373 -1.03454102 54.22897461 -1.14892578 55.15185547 C-2.28227676 64.00022735 -3.64252823 72.77486532 -5.30712891 81.5390625 C-5.56384122 82.90467974 -5.8136851 84.27160356 -6.05712891 85.63964844 C-6.41692291 87.66116655 -6.79599474 89.67821095 -7.1796875 91.6953125 C-7.50622314 93.46092529 -7.50622314 93.46092529 -7.83935547 95.26220703 C-8.92269001 98.79704121 -10.24857246 100.7953856 -12.8125 103.4375 C-15.75 104.5 -15.75 104.5 -18.8125 104.4375 C-21.6875 103.0625 -21.6875 103.0625 -23.8125 100.4375 C-24.49825633 92.54706915 -22.81460078 84.96018824 -21.30395508 77.25146484 C-20.87216762 75.04804634 -20.45168003 72.84270033 -20.03320312 70.63671875 C-17.99175764 59.97527292 -17.99175764 59.97527292 -16.8125 56.4375 C-17.82562256 56.64955078 -18.83874512 56.86160156 -19.88256836 57.08007812 C-23.67712302 57.87181104 -27.47403376 58.65170444 -31.27172852 59.42822266 C-32.90845219 59.76456445 -34.54453874 60.10402344 -36.17993164 60.44677734 C-38.54408698 60.94168444 -40.91038171 61.42496829 -43.27734375 61.90625 C-43.99647446 62.05936646 -44.71560516 62.21248291 -45.45652771 62.37023926 C-50.49328791 63.37856949 -55.6856581 64.13354664 -60.8125 63.4375 C-63.4375 61.3125 -63.4375 61.3125 -64.8125 58.4375 C-64.875 55.375 -64.875 55.375 -63.8125 52.4375 C-60.34121005 49.12763851 -57.64442689 47.84727991 -52.9453125 47.05859375 C-51.81875244 46.86096436 -50.69219238 46.66333496 -49.53149414 46.4597168 C-48.34547607 46.26676025 -47.15945801 46.07380371 -45.9375 45.875 C-43.50115261 45.45398905 -41.06495343 45.03211956 -38.62890625 44.609375 C-37.45602051 44.41021484 -36.28313477 44.21105469 -35.07470703 44.00585938 C-29.86833998 43.09877791 -24.704662 42.01233195 -19.53515625 40.91796875 C-16.8125 40.4375 -16.8125 40.4375 -12.8125 40.4375 C-12.86019531 39.55320313 -12.90789062 38.66890625 -12.95703125 37.7578125 C-12.95256945 31.8474157 -11.62179941 26.09185625 -10.5 20.3125 C-10.17999023 18.56259766 -10.17999023 18.56259766 -9.85351562 16.77734375 C-9.63759766 15.65199219 -9.42167969 14.52664062 -9.19921875 13.3671875 C-9.00545654 12.34866699 -8.81169434 11.33014648 -8.61206055 10.28076172 C-7.26954777 5.5067453 -5.2280318 0.81324939 0 0 Z " fill="#040300" transform="translate(389.8125,82.5625)"/>
<path d="M0 0 C5.78712577 1.96815527 9.86802315 7.03318026 14.05401611 11.31970215 C15.11840666 12.38378244 16.18413395 13.44652712 17.25112915 14.50799561 C19.47425669 16.72836399 21.68287251 18.96194587 23.88165283 21.2064209 C26.70162032 24.08336774 29.55188383 26.92788074 32.41312599 29.76371384 C34.61372505 31.95041591 36.79935894 34.15158758 38.98054123 36.35764313 C40.02660284 37.4127356 41.07687143 38.46367423 42.13136673 39.51033783 C43.59952584 40.97268237 45.04682554 42.45291678 46.49005127 43.93981934 C47.31784088 44.77841492 48.14563049 45.6170105 48.99850464 46.48101807 C50.63995361 48.89782715 50.63995361 48.89782715 50.49942017 51.59906006 C49.46240411 54.37270887 48.33983006 55.40159123 46.01495361 57.21032715 C42.23632939 60.29575053 39.16508088 63.61935721 36.08526611 67.3939209 C35.60831299 67.89020996 35.13135986 68.38649902 34.63995361 68.89782715 C33.97995361 68.89782715 33.31995361 68.89782715 32.63995361 68.89782715 C32.63995361 69.55782715 32.63995361 70.21782715 32.63995361 70.89782715 C31.97995361 70.89782715 31.31995361 70.89782715 30.63995361 70.89782715 C30.63995361 71.55782715 30.63995361 72.21782715 30.63995361 72.89782715 C29.97995361 72.89782715 29.31995361 72.89782715 28.63995361 72.89782715 C28.63995361 73.55782715 28.63995361 74.21782715 28.63995361 74.89782715 C27.97995361 74.89782715 27.31995361 74.89782715 26.63995361 74.89782715 C26.37182861 75.51657715 26.10370361 76.13532715 25.82745361 76.77282715 C24.63995361 78.89782715 24.63995361 78.89782715 21.63995361 80.89782715 C17.07283904 80.69524552 15.00719852 78.75799197 11.86553955 75.59338379 C10.94819031 74.67896011 10.03084106 73.76453644 9.08569336 72.82240295 C8.09828258 71.81788062 7.11116798 70.81306709 6.12432861 69.8079834 C5.10334274 68.78207207 4.08154082 67.75697228 3.05895996 66.73265076 C0.92131639 64.58737647 -1.20970708 62.43581736 -3.33563232 60.27893066 C-6.06316707 57.51174678 -8.8014311 54.75550979 -11.54401016 52.00324345 C-14.15811368 49.37917698 -16.76722766 46.75017424 -19.37567139 44.1204834 C-19.87478279 43.61797625 -20.3738942 43.11546909 -20.88813019 42.59773445 C-22.29589119 41.17841809 -23.69965092 39.75513637 -25.10321045 38.33166504 C-25.90309387 37.52193741 -26.70297729 36.71220978 -27.52709961 35.87794495 C-30.44319672 32.72770847 -30.74290781 30.30185584 -30.72723389 26.00720215 C-30.08859926 22.33845003 -27.94462014 20.4824009 -25.36004639 17.89782715 C-21.21242473 19.52467455 -18.47067265 22.5504345 -15.42254639 25.6751709 C-14.8605957 26.24232315 -14.29864502 26.8094754 -13.71966553 27.39381409 C-11.92829622 29.20295467 -10.14376184 31.01864232 -8.36004639 32.83532715 C-6.57548954 34.64757207 -4.78947056 36.4583122 -3.00042725 38.26612854 C-1.88905127 39.38968384 -0.78035909 40.51590202 0.32525635 41.64512634 C4.83977315 46.59076494 4.83977315 46.59076494 10.71026611 49.29626465 C12.6911568 49.27366894 14.66814577 49.08864726 16.63995361 48.89782715 C19.04827455 45.28534574 19.36356216 44.15907747 18.63995361 39.89782715 C13.20173332 32.12776747 5.41916405 25.56425002 -1.29754639 18.89782715 C-2.47030648 17.73009341 -3.64283436 16.56212641 -4.81512451 15.3939209 C-7.66076327 12.5591948 -10.50952092 9.72763891 -13.36004639 6.89782715 C-7.04758235 -0.90969416 -7.04758235 -0.90969416 0 0 Z " fill="#414141" transform="translate(443.36004638671875,340.1021728515625)"/>
<path d="M0 0 C2.89961805 1.27026173 4.62928007 3.07728841 6.86268616 5.32058716 C7.32008179 5.77593842 7.77747742 6.23128967 8.24873352 6.70043945 C9.75541871 8.20412186 11.2510996 9.71825813 12.74671936 11.23294067 C13.7917746 12.28105422 14.83742222 13.32857742 15.88363647 14.37553406 C18.07282835 16.56932567 20.2570206 18.76793285 22.43739319 20.9704895 C25.23506431 23.79647754 28.04137226 26.61368403 30.85100079 29.4277792 C33.00901864 31.58994938 35.16419029 33.75493641 37.31832314 35.92097664 C38.35251441 36.96087203 39.38718003 38.00029589 40.42232323 39.0392437 C41.8660096 40.48978911 43.30585029 41.94415899 44.74549866 43.39871216 C45.56616318 44.22620468 46.3868277 45.0536972 47.23236084 45.90626526 C49.19514895 48.01586411 50.06982081 49.03515044 50.19984436 51.91262817 C50.14957092 52.67962036 50.09929749 53.44661255 50.04750061 54.23684692 C50.01527405 54.99610474 49.98304749 55.75536255 49.94984436 56.53762817 C48.67848633 60.1506503 46.08224284 61.5537911 43.11000061 63.92434692 C42.18139221 62.99050171 41.25278381 62.05665649 40.29603577 61.09451294 C36.8582939 57.63870499 33.4172714 54.18617977 29.97523499 50.73464966 C28.48442463 49.23880279 26.99451199 47.74206068 25.50550842 46.24441528 C23.36820172 44.09501331 21.22771381 41.94882507 19.08656311 39.80325317 C18.41879852 39.1303273 17.75103394 38.45740143 17.06303406 37.76408386 C16.44254181 37.14351608 15.82204956 36.5229483 15.18275452 35.88357544 C14.63648407 35.33508438 14.09021362 34.78659332 13.52738953 34.22148132 C11.33363518 32.21385012 10.19057574 31.92949002 7.17250061 31.73684692 C3.93568607 31.67741113 3.93568607 31.67741113 1.11000061 33.92434692 C0.84481929 38.10095265 0.79113639 40.96775427 2.11000061 44.92434692 C2.77000061 44.92434692 3.43000061 44.92434692 4.11000061 44.92434692 C5.62562561 46.49856567 5.62562561 46.49856567 7.36000061 48.61184692 C9.52897235 51.17069581 11.51724234 53.26371503 14.11000061 55.42434692 C17.19713935 57.99696254 19.63513872 60.73868699 22.23109436 63.78762817 C25.35167402 67.33639548 28.7306129 70.62395789 32.11000061 73.92434692 C30.52282888 77.26430831 29.46323637 79.159486 26.11000061 80.92434692 C22.15279089 81.58388188 19.6623985 81.98968193 16.29542542 79.67909241 C15.69218445 79.12572708 15.08894348 78.57236176 14.46742249 78.00222778 C13.77157043 77.36501801 13.07571838 76.72780823 12.35877991 76.07128906 C8.22525798 72.12495586 4.17030417 68.10600732 0.14125061 64.05325317 C-0.7796637 63.13092392 -1.700578 62.20859467 -2.6493988 61.25831604 C-5.07147493 58.83246215 -7.49053018 56.40361841 -9.90892029 53.97409058 C-12.38773776 51.48495577 -14.86946736 48.99872797 -17.35093689 46.51223755 C-22.20010863 41.65241235 -27.04608802 36.78941514 -31.88999939 31.92434692 C-30.6166935 29.14474018 -29.2917143 27.06691397 -27.15611267 24.88406372 C-26.60859344 24.3205571 -26.06107422 23.75705048 -25.4969635 23.1764679 C-24.90736847 22.58151016 -24.31777344 21.98655243 -23.71031189 21.37356567 C-23.10113922 20.75536453 -22.49196655 20.13716339 -21.86433411 19.50022888 C-20.57761266 18.19902851 -19.28808576 16.90059718 -17.99595642 15.60476685 C-16.01672013 13.61357806 -14.05690053 11.60449884 -12.09703064 9.5942688 C-10.84427643 8.33205663 -9.59040749 7.07094967 -8.33531189 5.81106567 C-7.74976532 5.20598679 -7.16421875 4.6009079 -6.56092834 3.97749329 C-2.4405276 -0.09768967 -2.4405276 -0.09768967 0 0 Z " fill="#414141" transform="translate(121.88999938964844,18.075653076171875)"/>
<path d="M0 0 C3.7284658 0.62141097 4.69297602 1.55029629 7 4.5 C7.45410156 7.34082031 7.45410156 7.34082031 7.390625 10.578125 C7.37773437 11.73828125 7.36484375 12.8984375 7.3515625 14.09375 C7.31804687 15.3003125 7.28453125 16.506875 7.25 17.75 C7.23195312 18.97203125 7.21390625 20.1940625 7.1953125 21.453125 C7.148181 24.46954078 7.08239413 27.48437491 7 30.5 C7.76666992 30.47905273 8.53333984 30.45810547 9.32324219 30.43652344 C12.7986946 30.35334842 16.27393763 30.30133425 19.75 30.25 C20.9565625 30.21648437 22.163125 30.18296875 23.40625 30.1484375 C25.14648438 30.12910156 25.14648438 30.12910156 26.921875 30.109375 C27.99018555 30.08842773 29.05849609 30.06748047 30.15917969 30.04589844 C33.70916054 30.61335842 34.88997 31.63010422 37 34.5 C36.94063802 37.8836327 36.80579632 40.35152607 34.82885742 43.16918945 C32.19869151 45.08309072 30.0280259 45.03350077 26.80078125 45.23046875 C25.59228516 45.31103516 24.38378906 45.39160156 23.13867188 45.47460938 C21.87603516 45.54486328 20.61339844 45.61511719 19.3125 45.6875 C18.03826172 45.76935547 16.76402344 45.85121094 15.45117188 45.93554688 C12.30133908 46.13609803 9.15126896 46.3237163 6 46.5 C5.96036133 47.59465576 5.92072266 48.68931152 5.87988281 49.81713867 C5.72738562 53.89015527 5.55001764 57.96177821 5.36523438 62.03344727 C5.28881231 63.7935834 5.21907862 65.5540235 5.15625 67.31469727 C5.06459584 69.85022374 4.94868711 72.38367225 4.828125 74.91796875 C4.79347137 76.09325386 4.79347137 76.09325386 4.75811768 77.2922821 C4.49446716 82.20439328 3.71562778 84.96181345 0 88.5 C-2.9375 89.5625 -2.9375 89.5625 -6 89.5 C-8.66796875 87.99609375 -8.66796875 87.99609375 -11 85.5 C-11.41655184 82.61522306 -11.52092428 80.36345478 -11.375 77.5 C-11.35501953 76.72414551 -11.33503906 75.94829102 -11.31445312 75.14892578 C-11.23929922 72.59724769 -11.12311935 70.04979237 -11 67.5 C-10.96036133 66.57670898 -10.92072266 65.65341797 -10.87988281 64.70214844 C-10.63285053 58.96507076 -10.33509858 53.23257933 -10 47.5 C-11.47533203 47.60828125 -11.47533203 47.60828125 -12.98046875 47.71875 C-17.65091002 48.04155739 -22.32330534 48.28765838 -27 48.5 C-27.92458008 48.5422168 -28.84916016 48.58443359 -29.80175781 48.62792969 C-32.63869593 48.74117491 -35.47400641 48.81365391 -38.3125 48.875 C-39.66347778 48.93204102 -39.66347778 48.93204102 -41.04174805 48.99023438 C-47.36206674 49.07184107 -47.36206674 49.07184107 -50.6015625 46.16796875 C-52 43.5 -52 43.5 -52.0625 40.4375 C-50.69671356 36.66150221 -49.39469443 35.63532279 -46 33.5 C-43.147978 32.85690199 -40.33420613 32.75786111 -37.41796875 32.671875 C-36.60378983 32.6331427 -35.7896109 32.5944104 -34.95075989 32.55450439 C-32.36342583 32.43543942 -29.775911 32.34236593 -27.1875 32.25 C-25.42765904 32.17359075 -23.6678909 32.09548435 -21.90820312 32.015625 C-17.60606384 31.82408423 -13.30357451 31.6558371 -9 31.5 C-8.96036133 30.70303711 -8.92072266 29.90607422 -8.87988281 29.08496094 C-8.68928269 25.47198293 -8.46997787 21.86130334 -8.25 18.25 C-8.188125 16.99574219 -8.12625 15.74148438 -8.0625 14.44921875 C-7.98515625 13.24394531 -7.9078125 12.03867187 -7.828125 10.796875 C-7.7652832 9.68666992 -7.70244141 8.57646484 -7.63769531 7.43261719 C-6.6406359 2.84736538 -4.62022479 0.77003747 0 0 Z " fill="#040300" transform="translate(143,331.5)"/>
<path d="M0 0 C9.27278865 5.87596208 17.6243806 14.50766552 21.171875 25.12890625 C23.20226443 36.06951704 22.04481376 46.48048382 17.64453125 56.67578125 C12.76420726 56.23743456 10.69178077 54.21010862 7.3034668 50.78881836 C6.79555099 50.28148666 6.28763519 49.77415497 5.764328 49.25144958 C4.09364109 47.57798366 2.43755666 45.89081481 0.78125 44.203125 C-0.37658116 43.03783083 -1.53530066 41.87341868 -2.69487 40.70985413 C-5.7401845 37.64928821 -8.77329445 34.57690009 -11.80401611 31.50189209 C-14.90047203 28.3644732 -18.00832322 25.23838765 -21.11523438 22.11132812 C-27.20652107 15.97717921 -33.28496081 9.83049373 -39.35546875 3.67578125 C-38.35546875 0.67578125 -38.35546875 0.67578125 -36.73828125 -0.4921875 C-25.63398406 -5.50641166 -10.91967065 -5.42165466 0 0 Z " fill="#FB8D00" transform="translate(317.35546875,176.32421875)"/>
<path d="M0 0 C6.47409059 3.85955401 11.12363492 8.55776238 13.25 15.9375 C14.18804185 22.98453936 13.14409166 28.94128806 9.25 34.9375 C4.1190096 40.88685089 -1.96119418 43.44862183 -9.625 44.4375 C-15.73029514 44.14906086 -21.40031391 41.33553355 -25.6484375 37 C-29.95927668 31.44848028 -32.31448126 26.51179714 -32.125 19.40625 C-31.03406331 12.22425016 -27.14259766 6.59564527 -21.59375 2.09375 C-14.84511326 -2.13844592 -7.51552304 -2.12939819 0 0 Z " fill="#414141" transform="translate(88.75,411.0625)"/>
<path d="M0 0 C2.94912527 1.91379406 3.34793129 4.9582598 4.2109375 8.19140625 C7.35246466 19.92453419 14.88762867 27.77904458 23.31054688 36.16699219 C24.95129244 37.80676689 26.56951172 39.46671064 28.1875 41.12890625 C37.68067354 50.73193615 47.37843031 57.40983488 60.8359375 60.19140625 C61.62109375 61.84375 61.62109375 61.84375 61.8359375 64.19140625 C59.95703125 66.8828125 59.95703125 66.8828125 57.2734375 69.75390625 C55.97212891 71.17896484 55.97212891 71.17896484 54.64453125 72.6328125 C50.86622822 76.07479926 47.01255492 78.61814831 41.7734375 78.62890625 C37.29427722 78.13122177 35.90665631 77.4108796 32.8359375 74.19140625 C32.48828125 71.203125 32.48828125 71.203125 32.7734375 67.87890625 C33.18599743 62.96886205 32.76607861 59.86031253 30.15795898 55.74291992 C27.91148922 53.10648126 24.99916543 51.86314572 21.8984375 50.50390625 C13.46256691 46.40422121 7.39321886 40.7924167 0.8359375 34.19140625 C-0.20030174 33.17682942 -1.23804369 32.16378493 -2.27734375 31.15234375 C-10.76418893 22.83188034 -10.76418893 22.83188034 -14.1640625 18.19140625 C-14.1640625 17.53140625 -14.1640625 16.87140625 -14.1640625 16.19140625 C-14.8240625 15.86140625 -15.4840625 15.53140625 -16.1640625 15.19140625 C-13.02746417 9.63107284 -6.71495256 0.5939218 0 0 Z " fill="#606060" transform="translate(169.1640625,280.80859375)"/>
<path d="M0 0 C3.95531812 1.85980973 6.51156946 5.25160235 8.83544922 8.86303711 C9.84818924 11.81591391 9.82755862 13.90421671 8.83544922 16.86303711 C6.88989998 19.91193474 4.38058844 22.30935715 1.83544922 24.86303711 C0.34802299 26.46800122 -1.12362984 28.08671768 -2.59619141 29.70532227 C-7.32412037 34.89103015 -12.14487509 39.95744496 -17.16455078 44.86303711 C-17.75880859 44.5369043 -18.35306641 44.21077148 -18.96533203 43.87475586 C-24.52059154 40.9459332 -29.79450977 38.95581649 -35.91455078 37.53881836 C-38.16455078 36.86303711 -38.16455078 36.86303711 -40.16455078 34.86303711 C-39.08173828 34.36803711 -39.08173828 34.36803711 -37.97705078 33.86303711 C-34.17925084 31.16237937 -32.45208839 27.84415519 -30.16455078 23.86303711 C-29.50455078 22.87303711 -28.84455078 21.88303711 -28.16455078 20.86303711 C-27.23271973 20.72913574 -26.30088867 20.59523438 -25.34082031 20.45727539 C-21.3371549 19.70824222 -20.09453504 18.30979346 -17.34423828 15.35522461 C-16.47927734 14.4515918 -15.61431641 13.54795898 -14.72314453 12.61694336 C-13.83755859 11.6669043 -12.95197266 10.71686523 -12.03955078 9.73803711 C-10.27794321 7.84932942 -8.50502295 5.97108931 -6.71923828 4.10522461 C-5.9404834 3.26846191 -5.16172852 2.43169922 -4.359375 1.56958008 C-2.16455078 -0.13696289 -2.16455078 -0.13696289 0 0 Z " fill="#5F5F5F" transform="translate(260.16455078125,287.136962890625)"/>
<path d="M0 0 C0.66 0 1.32 0 2 0 C3.11788515 1.3088187 4.16669159 2.67663428 5.1875 4.0625 C15.08614249 16.71978056 26.49362626 27.6954764 40.875 35 C45.94306828 37.71682868 48.05830626 39.5447652 50 45 C50.59995517 49.79164195 50.72434401 52.91348399 48 57 C47.37351563 56.36191406 46.74703125 55.72382813 46.1015625 55.06640625 C45.28429687 54.24011719 44.46703125 53.41382813 43.625 52.5625 C42.81289062 51.73878906 42.00078125 50.91507812 41.1640625 50.06640625 C37.47394155 46.542807 35.00710651 46.91215603 30 47 C27 47 27 47 25.46606445 45.80664062 C24.937146 45.26201172 24.40822754 44.71738281 23.86328125 44.15625 C23.28642578 43.56972656 22.70957031 42.98320312 22.11523438 42.37890625 C21.52033203 41.75886719 20.92542969 41.13882813 20.3125 40.5 C19.70599609 39.87996094 19.09949219 39.25992188 18.47460938 38.62109375 C16.97626257 37.08735293 15.48723507 35.54451802 14 34 C14.33 33.34 14.66 32.68 15 32 C15.55977767 28.50138956 15.71169196 26.05803463 13.68359375 23.04296875 C11.23107034 20.26124757 8.64624986 17.63990163 6.01171875 15.03125 C1.39955804 10.21856056 -0.10862313 6.70359872 0 0 Z " fill="#BABABA" transform="translate(153,297)"/>
<path d="M0 0 C2.90543872 1.31376917 4.96661059 2.72056492 7.20800781 4.98095703 C7.80832825 5.58142853 8.40864868 6.18190002 9.02716064 6.80056763 C9.66272888 7.44645844 10.29829712 8.09234924 10.953125 8.7578125 C11.61334656 9.42086395 12.27356812 10.08391541 12.95379639 10.76705933 C15.05727824 12.88171832 17.15369142 15.00323212 19.25 17.125 C20.67662261 18.56165557 22.10370072 19.99785898 23.53125 21.43359375 C27.02613661 24.95050804 30.51470062 28.47358547 34 32 C32.49053489 35.18086518 30.92058175 37.29869906 28.375 39.75 C27.74335938 40.36359375 27.11171875 40.9771875 26.4609375 41.609375 C25.73777344 42.29773438 25.73777344 42.29773438 25 43 C20.24914133 39.03627475 15.76386888 34.90205218 11.41015625 30.5078125 C10.82076767 29.91700897 10.23137909 29.32620544 9.62413025 28.71749878 C7.76786273 26.85569596 5.91512915 24.99042255 4.0625 23.125 C2.79385328 21.85132989 1.5249751 20.57789029 0.25585938 19.3046875 C-2.83210554 16.20577957 -5.91690929 13.10375699 -9 10 C-8.06409496 8.8944811 -7.12620142 7.79064547 -6.1875 6.6875 C-5.66542969 6.07261719 -5.14335937 5.45773438 -4.60546875 4.82421875 C-3.12827531 3.14575321 -1.59960869 1.56117966 0 0 Z " fill="#414141" transform="translate(225,144)"/>
<path d="M0 0 C6.53437307 5.48801222 12.62976484 11.34101311 18.69140625 17.34130859 C19.90619811 18.53937411 21.1263513 19.73202559 22.3515625 20.91943359 C24.13192833 22.64534675 25.89556013 24.38685921 27.65625 26.1328125 C28.20817017 26.66206329 28.76009033 27.19131409 29.32873535 27.73660278 C30.83789062 29.25439453 30.83789062 29.25439453 33 32 C32.89547277 35.65726073 31.02508848 37.30355271 28.4375 39.75 C27.47650391 40.67039062 27.47650391 40.67039062 26.49609375 41.609375 C26.00238281 42.06828125 25.50867188 42.5271875 25 43 C22.09456128 41.68623083 20.03338941 40.27943508 17.79199219 38.01904297 C17.19167175 37.41857147 16.59135132 36.81809998 15.97283936 36.19943237 C15.33727112 35.55354156 14.70170288 34.90765076 14.046875 34.2421875 C13.38665344 33.57913605 12.72643188 32.91608459 12.04620361 32.23294067 C9.94272176 30.11828168 7.84630858 27.99676788 5.75 25.875 C4.32337739 24.43834443 2.89629928 23.00214102 1.46875 21.56640625 C-2.02613661 18.04949196 -5.51470062 14.52641453 -9 11 C-7.49053489 7.81913482 -5.92058175 5.70130094 -3.375 3.25 C-2.74335938 2.63640625 -2.11171875 2.0228125 -1.4609375 1.390625 C-0.73777344 0.70226562 -0.73777344 0.70226562 0 0 Z " fill="#414141" transform="translate(333,251)"/>
<path d="M0 0 C2.1484375 1.44140625 2.1484375 1.44140625 4.375 3.5625 C5.65503906 4.77486328 5.65503906 4.77486328 6.9609375 6.01171875 C7.97565367 7.00608541 8.98849655 8.00236543 10 9 C10.93634277 9.91579834 10.93634277 9.91579834 11.89160156 10.85009766 C15.23762468 14.12907106 18.56856477 17.42328327 21.875 20.7421875 C22.42929687 21.2976123 22.98359375 21.85303711 23.5546875 22.42529297 C26.1905435 25.29712932 27.01690229 26.52673591 26.875 30.5 C26 34 26 34 24.3125 35.9375 C21.30065323 37.32132149 19.29577626 37.30782468 16 37 C13.71875 35.5234375 13.71875 35.5234375 11.5 33.375 C10.654375 32.56546875 9.80875 31.7559375 8.9375 30.921875 C7.9575183 29.94873675 6.97842668 28.97470171 6 28 C4.77110617 26.79659632 3.54192384 25.59348721 2.3125 24.390625 C-0.16519117 21.94899828 -2.63918804 19.50395511 -5.09375 17.0390625 C-5.60615234 16.52553223 -6.11855469 16.01200195 -6.64648438 15.48291016 C-8.83577727 13.08432339 -9.94645392 11.35187423 -10.4375 8.125 C-9.60770504 2.19789311 -5.8696648 -0.80321729 0 0 Z " fill="#0A0700" transform="translate(432,53)"/>
<path d="M0 0 C1.39412109 -0.04253906 1.39412109 -0.04253906 2.81640625 -0.0859375 C5.4375 0.375 5.4375 0.375 7.76171875 1.8515625 C10.22483093 5.56058457 9.87482397 8.78052477 9.6875 13.125 C9.66945312 13.91777344 9.65140625 14.71054687 9.6328125 15.52734375 C9.58583082 17.47708348 9.51409044 19.42619878 9.4375 21.375 C8.7775 21.705 8.1175 22.035 7.4375 22.375 C6.963125 21.570625 6.48875 20.76625 6 19.9375 C4.66849846 17.52746512 4.66849846 17.52746512 3.4375 16.375 C0.51614514 15.7663844 -0.75798518 15.57297085 -3.5625 16.375 C-7.99610944 19.58972324 -12.69954597 23.61318194 -13.875 29.1875 C-13.79571903 32.39512185 -13.79571903 32.39512185 -12.0625 34.8125 C-8.76522974 36.87329391 -6.37736176 36.6684509 -2.5625 36.375 C-5.23992403 39.83990168 -8.32644148 40.71768057 -12.5625 41.375 C-18.0736533 38.75064129 -20.567515 32.88767284 -22.5625 27.375 C-23.89189731 21.11087987 -22.14625589 16.18620408 -19.12109375 10.67578125 C-14.46054789 3.79592783 -8.36781645 0.11638131 0 0 Z " fill="#717171" transform="translate(79.5625,409.625)"/>
<path d="M0 0 C3.04742912 1.17208812 4.66421712 2.70868322 6.75 5.125 C8.54447816 7.0062341 9.48306096 7.9019091 12.05859375 8.390625 C14.04328478 8.37605846 16.02478743 8.1942832 18 8 C22.8966921 8 25.6130657 11.83437787 28.94018555 15.09277344 C32.90765913 19.26469305 32.90765913 19.26469305 33.31640625 22.51953125 C32.98423542 23.9898378 32.60855061 25.45107604 32.1875 26.8984375 C31.77647272 29.1352273 31.77647272 29.1352273 33.375 31.2265625 C35.18386695 33.23236254 37.07178981 35.1102685 39 37 C39.66 37.99 40.32 38.98 41 40 C39.68 41.32 38.36 42.64 37 44 C33.81740149 42.59490901 31.68651534 40.93078658 29.24121094 38.46826172 C28.52076599 37.74766571 27.80032104 37.0270697 27.05804443 36.28463745 C26.29123352 35.50750397 25.52442261 34.73037048 24.734375 33.9296875 C23.94097717 33.13345978 23.14757935 32.33723206 22.33013916 31.51687622 C19.79869297 28.97424052 17.27429197 26.42473652 14.75 23.875 C13.03431383 22.14928247 11.31817338 20.42401645 9.6015625 18.69921875 C5.39575752 14.47136968 1.19571493 10.23786131 -3 6 C-2 4 -1 2 0 0 Z " fill="#B7B7B7" transform="translate(172,96)"/>
<path d="M0 0 C3.46629835 1.48653506 5.69022036 3.45722351 8.328125 6.1328125 C9.12734375 6.93847656 9.9265625 7.74414062 10.75 8.57421875 C11.575 9.41597656 12.4 10.25773438 13.25 11.125 C14.09046875 11.97449219 14.9309375 12.82398438 15.796875 13.69921875 C17.86915683 15.79504923 19.93662393 17.89540713 22 20 C20.42200047 23.33142908 18.6900776 25.57949467 16.0625 28.1875 C15.02802734 29.22970703 15.02802734 29.22970703 13.97265625 30.29296875 C12 32 12 32 9 33 C1.74 25.74 -5.52 18.48 -13 11 C-9.82270675 7.82270675 -7.21605594 5.25915942 -3.6875 2.6875 C-2.99011719 2.17574219 -2.29273438 1.66398438 -1.57421875 1.13671875 C-1.05472656 0.76160156 -0.53523437 0.38648438 0 0 Z " fill="#F89C00" transform="translate(214,174)"/>
<path d="M0 0 C3.70044944 1.549832 6.04581087 3.80394671 8.86035156 6.63330078 C9.32910706 7.10176422 9.79786255 7.57022766 10.28082275 8.05288696 C11.82221432 9.59566695 13.35640873 11.14539964 14.890625 12.6953125 C15.96064255 13.76906192 17.03110381 14.84236933 18.10198975 15.91525269 C20.91431879 18.73520452 23.72058889 21.56111154 26.52563477 24.38830566 C29.39105523 27.2742137 32.26217168 30.15444257 35.1328125 33.03515625 C40.76079512 38.68456489 46.38238884 44.34027825 52 50 C50.63016497 53.16115776 50.0109362 53.9927092 47 56 C30.17 39.17 13.34 22.34 -4 5 C-2.68 3.35 -1.36 1.7 0 0 Z " fill="#B4B4B4" transform="translate(268,192)"/>
<path d="M0 0 C3.27196452 1.43258772 5.43203956 3.18825316 7.94238281 5.71533203 C9.08311249 6.8562883 9.08311249 6.8562883 10.24688721 8.02029419 C11.05744568 8.84117523 11.86800415 9.66205627 12.703125 10.5078125 C13.54091492 11.34843231 14.37870483 12.18905212 15.24188232 13.05514526 C17.91598431 15.74044001 20.58304724 18.43260655 23.25 21.125 C25.06204062 22.94707155 26.87453518 24.76869177 28.6875 26.58984375 C33.13028036 31.05467252 37.56730165 35.52516283 42 40 C41.04501103 42.46705484 40.52081332 43.72876115 38.13287354 44.97239685 C36 45 36 45 34.00042725 43.60169983 C33.29871399 42.88888351 32.59700073 42.1760672 31.87402344 41.44165039 C31.07349548 40.64074478 30.27296753 39.83983917 29.44818115 39.0146637 C28.59387512 38.13455124 27.73956909 37.25443878 26.859375 36.34765625 C25.97719299 35.45839951 25.09501099 34.56914276 24.18609619 33.65293884 C21.84248487 31.28603983 19.51029545 28.90892416 17.18286133 26.52618408 C14.8054797 24.09766182 12.41388672 21.68322644 10.0234375 19.26757812 C5.33571334 14.52462936 0.66253603 9.76770494 -4 5 C-2.68 3.35 -1.36 1.7 0 0 Z " fill="#B4B4B4" transform="translate(374,298)"/>
<path d="M0 0 C3.83193552 2.10380774 7.29450407 4.53696521 10 8 C9.62338575 11.31420539 8.41182688 12.94968264 6.05859375 15.234375 C5.47529297 15.80800781 4.89199219 16.38164062 4.29101562 16.97265625 C3.67935547 17.55917969 3.06769531 18.14570313 2.4375 18.75 C1.82197266 19.35199219 1.20644531 19.95398438 0.57226562 20.57421875 C-0.94514813 22.05634381 -2.47170596 23.5290967 -4 25 C-9 20 -14 15 -19 10 C-17.75160501 8.894019 -16.50120766 7.79029799 -15.25 6.6875 C-14.55390625 6.07261719 -13.8578125 5.45773438 -13.140625 4.82421875 C-8.51909196 0.88579552 -6.33665442 -0.76476864 0 0 Z " fill="#606060" transform="translate(215,243)"/>
<path d="M0 0 C9.83783784 8.43243243 9.83783784 8.43243243 12 11 C11.69729324 14.54586455 10.10708722 16.24855363 7.62109375 18.671875 C6.61079102 19.66767578 6.61079102 19.66767578 5.58007812 20.68359375 C4.87302734 21.36550781 4.16597656 22.04742187 3.4375 22.75 C2.72658203 23.44738281 2.01566406 24.14476562 1.28320312 24.86328125 C-0.47130714 26.5824658 -2.23243352 28.29425872 -4 30 C-4.30035156 29.38125 -4.60070312 28.7625 -4.91015625 28.125 C-6.07187169 25.85986309 -7.43417373 24.00425763 -9 22 C-11.08670561 19.32901682 -12.45286434 17.09427132 -14 14 C-9.38 9.38 -4.76 4.76 0 0 Z " fill="#5F5F5F" transform="translate(236,263)"/>
<path d="M0 0 C3.00339193 2.00226129 3.81463343 3.25853373 4.6875 6.75 C3.63501951 11.7253623 0.54510151 14.49949096 -3 18 C-3.825 18.845625 -4.65 19.69125 -5.5 20.5625 C-8 22 -8 22 -11.625 22 C-15 21 -15 21 -17 19.375 C-18.46298397 15.90041308 -17.84038576 13.64295664 -17 10 C-14.9609375 7.12890625 -14.9609375 7.12890625 -12.375 4.5625 C-11.53710938 3.69753906 -10.69921875 2.83257812 -9.8359375 1.94140625 C-6.28382658 -0.49027299 -4.22329754 -0.49246932 0 0 Z " fill="#020202" transform="translate(83,425)"/>
</svg>
