<?xml version="1.0" encoding="UTF-8"?>
<svg version="1.1" xmlns="http://www.w3.org/2000/svg" width="512" height="512">
<path d="M0 0 C8.58362858 4.82455753 13.68281221 13.65480564 18.25 22.0625 C18.80115479 23.06095947 19.35230957 24.05941895 19.92016602 25.08813477 C21.64924338 28.23835816 23.35731389 31.39929167 25.0625 34.5625 C25.86977539 36.04145752 25.86977539 36.04145752 26.69335938 37.55029297 C58.94054907 96.79124773 78.60423627 161.78765351 87.0625 228.5625 C87.19527344 229.60051758 87.32804688 230.63853516 87.46484375 231.70800781 C88.80940423 242.65711125 89.28139051 253.61374785 89.41195679 264.6385498 C89.43700169 266.64752769 89.47677458 268.65630471 89.5168457 270.66503906 C89.519021 271.8919043 89.52119629 273.11876953 89.5234375 274.3828125 C89.53165527 275.47867676 89.53987305 276.57454102 89.54833984 277.70361328 C88.94771064 281.23796903 87.90564548 282.43705421 85.0625 284.5625 C84.0725 284.5625 83.0825 284.5625 82.0625 284.5625 C81.91734323 287.66617497 81.82849147 290.76898027 81.75 293.875 C81.6871582 295.19661133 81.6871582 295.19661133 81.62304688 296.54492188 C81.57674279 298.98051685 81.57940328 301.17356652 82.0625 303.5625 C84.38684607 305.63379723 84.38684607 305.63379723 87.0625 306.5625 C90.64344301 313.72438602 87.5387694 325.4047956 86.5 333 C86.32364014 334.29276855 86.14728027 335.58553711 85.96557617 336.91748047 C79.39569092 383.74123305 66.81873429 429.08360958 51.1875 473.625 C50.85289764 474.58498398 50.85289764 474.58498398 50.51153564 475.56436157 C45.47476078 489.95210792 41.05508598 501.1721608 27.17578125 508.6171875 C22.99698739 510.48644464 19.27392193 510.69985004 14.70849609 510.73950195 C13.41970551 510.75233719 12.13091492 510.76517242 10.80307007 510.77839661 C9.39736316 510.7865673 7.99165185 510.7940104 6.5859375 510.80078125 C5.87393818 510.80485678 5.16193886 510.8089323 4.4283638 510.81313133 C0.65618433 510.83396498 -3.11595911 510.84827566 -6.88818359 510.85766602 C-10.76153056 510.86869629 -14.63429765 510.90306393 -18.50744057 510.94283772 C-21.50512673 510.969139 -24.50267785 510.97736994 -27.50046921 510.98094749 C-28.92686228 510.98578242 -30.3532506 510.99730688 -31.77952957 511.01598549 C-43.44219325 511.15916953 -52.50056662 509.7541248 -61.14990234 501.50292969 C-68.33479737 493.70375655 -71.61616423 484.32493981 -75.0625 474.5 C-75.33896362 473.72228241 -75.61542725 472.94456482 -75.90026855 472.14328003 C-100.54300894 402.72165666 -117.36288663 329.40256818 -113.1875 255.375 C-113.14459839 254.6072525 -113.10169678 253.839505 -113.05749512 253.04849243 C-111.23645249 221.35478338 -106.0564204 190.13524689 -98.25 159.375 C-97.82207153 157.6729541 -97.82207153 157.6729541 -97.38549805 155.93652344 C-96.97231323 154.3688623 -96.97231323 154.3688623 -96.55078125 152.76953125 C-96.31141846 151.8566333 -96.07205566 150.94373535 -95.82543945 150.00317383 C-94.83658715 147.28512145 -94.01112964 145.59275662 -91.9375 143.5625 C-89.9575 143.2325 -87.9775 142.9025 -85.9375 142.5625 C-83.9575 136.6225 -81.9775 130.6825 -79.9375 124.5625 C-81.2575 123.9025 -82.5775 123.2425 -83.9375 122.5625 C-86.33615883 115.73840859 -83.32433487 109.88235782 -80.8125 103.4375 C-80.36237549 102.25679932 -79.91225098 101.07609863 -79.44848633 99.85961914 C-68.78914606 72.35544209 -56.09868533 45.38902712 -41.1875 19.9375 C-40.30312256 18.39980957 -40.30312256 18.39980957 -39.40087891 16.83105469 C-30.62707192 2.21372188 -17.33711264 -6.6262263 0 0 Z " fill="#020101" transform="translate(228.9375,1.4375)"/>
<path d="M0 0 C6.13914183 1.78734509 9.25935697 6.91184567 12.2421875 12.16064453 C12.71011719 13.0164209 13.17804688 13.87219727 13.66015625 14.75390625 C14.16933594 15.66769043 14.67851562 16.58147461 15.203125 17.52294922 C16.87527827 20.54790687 18.52127153 23.5858039 20.16015625 26.62890625 C20.72863281 27.68078125 21.29710937 28.73265625 21.8828125 29.81640625 C38.12582421 60.04948397 52.12323534 91.75799025 62.16015625 124.62890625 C62.48113281 125.666521 62.48113281 125.666521 62.80859375 126.72509766 C82.62902688 191.35028797 82.62902688 191.35028797 80.16015625 213.62890625 C78.67578125 215.421875 78.67578125 215.421875 76.41015625 216.81640625 C75.49621094 217.39390625 74.58226562 217.97140625 73.640625 218.56640625 C72.48159463 219.25580264 71.3213095 219.94309147 70.16015625 220.62890625 C68.67656883 221.52388725 67.19353761 222.41979064 65.7109375 223.31640625 C62.2881943 225.37902155 58.85667591 227.4262915 55.421875 229.46875 C50.57642375 232.36257345 45.79583657 235.34812132 41.03515625 238.37890625 C32.07242711 244.08412044 23.02818753 249.65250314 13.96630859 255.19824219 C12.91008301 255.84567383 11.85385742 256.49310547 10.765625 257.16015625 C9.7761084 257.76214844 8.7865918 258.36414063 7.76708984 258.984375 C5.65513073 260.31666163 3.69381789 261.71261171 1.7109375 263.22265625 C0.44830078 263.91875 0.44830078 263.91875 -0.83984375 264.62890625 C-4.25107642 263.55646576 -7.16516928 261.93947038 -10.18359375 260.046875 C-11.00625732 259.53406982 -11.8289209 259.02126465 -12.67651367 258.49291992 C-13.5554126 257.93967041 -14.43431152 257.3864209 -15.33984375 256.81640625 C-17.24213193 255.62881723 -19.14447721 254.44131967 -21.046875 253.25390625 C-22.49827881 252.34511719 -22.49827881 252.34511719 -23.97900391 251.41796875 C-28.31977633 248.70341163 -32.67330852 246.00961959 -37.02734375 243.31640625 C-37.87216309 242.79312744 -38.71698242 242.26984863 -39.58740234 241.73071289 C-44.57116387 238.64510882 -49.56052757 235.56874204 -54.5546875 232.5 C-55.12863754 232.14723495 -55.70258759 231.79446991 -56.29393005 231.43101501 C-59.09390338 229.71021728 -61.89447453 227.99041452 -64.69604492 226.2722168 C-71.45242858 222.12196501 -78.16373475 217.9071064 -84.83984375 213.62890625 C-78.38823687 157.7256925 -78.38823687 157.7256925 -70.83984375 142.62890625 C-70.34199105 138.56066733 -70.34199105 138.56066733 -70.83984375 134.62890625 C-73.31484375 132.15390625 -73.31484375 132.15390625 -75.83984375 129.62890625 C-73.85984375 123.68890625 -71.87984375 117.74890625 -69.83984375 111.62890625 C-66.37484375 111.13390625 -66.37484375 111.13390625 -62.83984375 110.62890625 C-60.2331624 108.10158604 -59.16086195 105.25579547 -57.96484375 101.8671875 C-57.62509521 100.92552734 -57.28534668 99.98386719 -56.93530273 99.01367188 C-56.57380127 97.99982422 -56.2122998 96.98597656 -55.83984375 95.94140625 C-49.31316883 78.10899084 -41.73829794 60.67629229 -32.9765625 43.82421875 C-31.63581062 41.23486289 -30.31681591 38.63478352 -28.99609375 36.03515625 C-10.77284861 0.37605426 -10.77284861 0.37605426 0 0 Z " fill="#FC7F86" transform="translate(218.83984375,14.37109375)"/>
<path d="M0 0 C1.23962494 -0.00241196 2.47924988 -0.00482391 3.75643921 -0.00730896 C6.36695569 -0.00633275 8.97749345 0.0070064 11.58789062 0.03198242 C14.25830862 0.05497515 16.92466858 0.06624377 19.59472656 0.05249023 C23.45937627 0.0337044 27.32287093 0.04314557 31.1875 0.0625 C32.97361191 0.0550602 32.97361191 0.0550602 34.79580688 0.04747009 C41.13776246 0.13755225 45.17071443 0.3075199 49.9609375 4.62890625 C55.92561009 10.92494954 56.30367567 17.42428979 56.2734375 25.69140625 C56.28955078 26.57634766 56.30566406 27.46128906 56.32226562 28.37304688 C56.32872418 36.98230498 56.32872418 36.98230498 52.9609375 40.62890625 C50.2734375 41.44140625 50.2734375 41.44140625 47.9609375 41.62890625 C47.98373151 44.73470119 48.06101569 47.83681109 48.1484375 50.94140625 C48.15423828 51.82248047 48.16003906 52.70355469 48.16601562 53.61132812 C48.24942758 56.04881068 48.374408 58.2603841 48.9609375 60.62890625 C51.29455316 62.56284367 51.29455316 62.56284367 53.9609375 63.62890625 C57.25450346 68.55799033 56.28909369 74.69257695 56.2734375 80.37890625 C56.28955078 81.53390625 56.30566406 82.68890625 56.32226562 83.87890625 C56.32736428 92.81175403 55.67460694 98.92652164 49.52734375 105.62109375 C48.20553611 106.92846258 46.87056852 108.22264645 45.5234375 109.50390625 C44.85505859 110.16648437 44.18667969 110.8290625 43.49804688 111.51171875 C36.64425889 118.19569038 33.55731971 118.66559878 22.9609375 119.62890625 C22.9609375 202.12890625 22.9609375 284.62890625 22.9609375 369.62890625 C25.9309375 369.95890625 28.9009375 370.28890625 31.9609375 370.62890625 C35.5258828 372.82855335 37.43151346 374.76401248 38.9609375 378.62890625 C39.22836304 381.46127319 39.22836304 381.46127319 39.25146484 384.77099609 C39.26422455 386.01263519 39.27698425 387.25427429 39.29013062 388.53353882 C39.29318838 389.88563887 39.29541608 391.23774102 39.296875 392.58984375 C39.30330551 393.98222998 39.31003406 395.37461487 39.31704712 396.76699829 C39.32901146 399.68389009 39.33272884 402.60066353 39.33154297 405.51757812 C39.33133987 409.24564222 39.3586356 412.97294326 39.39308739 416.70082664 C39.41538363 419.576563 39.41937969 422.45211653 39.41832352 425.32793045 C39.42067563 426.70179498 39.42947729 428.07566484 39.44498825 429.44944382 C39.58203938 442.84205316 39.58203938 442.84205316 34.9609375 447.62890625 C30.41939934 450.59077896 28.66055916 450.62890625 22.9609375 450.62890625 C22.9609375 466.13890625 22.9609375 481.64890625 22.9609375 497.62890625 C27.2509375 497.62890625 31.5409375 497.62890625 35.9609375 497.62890625 C38.9609375 500.62890625 38.9609375 500.62890625 39.359375 502.78515625 C39.35164063 503.55859375 39.34390625 504.33203125 39.3359375 505.12890625 C39.34753906 506.2890625 39.34753906 506.2890625 39.359375 507.47265625 C38.86044471 510.17274956 38.07938762 510.92266544 35.9609375 512.62890625 C34.0705719 513.02331543 34.0705719 513.02331543 31.92016602 513.04882812 C31.11245255 513.06473999 30.30473907 513.08065186 29.47254944 513.0970459 C28.60375656 513.09724731 27.73496368 513.09744873 26.83984375 513.09765625 C25.94353745 513.10526978 25.04723114 513.1128833 24.12376404 513.12072754 C22.22828965 513.13153202 20.33275571 513.13438023 18.43725586 513.12988281 C15.5372382 513.12891088 12.63986956 513.17051812 9.74023438 513.21484375 C7.89844302 513.22005105 6.05664246 513.22273894 4.21484375 513.22265625 C3.3480751 513.23905151 2.48130646 513.25544678 1.58827209 513.27233887 C-4.39672054 513.20365564 -4.39672054 513.20365564 -7.62133789 510.31835938 C-9.55583021 506.64858713 -9.13425605 504.57160302 -8.0390625 500.62890625 C-7.0490625 499.63890625 -6.0590625 498.64890625 -5.0390625 497.62890625 C-1.0790625 497.62890625 2.8809375 497.62890625 6.9609375 497.62890625 C6.9609375 482.11890625 6.9609375 466.60890625 6.9609375 450.62890625 C4.3209375 450.29890625 1.6809375 449.96890625 -1.0390625 449.62890625 C-4.30451661 447.98987523 -6.54476208 445.62184093 -8.18595886 442.32505798 C-9.13519021 439.3251039 -9.2995036 436.88460312 -9.3137207 433.74047852 C-9.32325272 432.57899796 -9.33278473 431.4175174 -9.34260559 430.22084045 C-9.34169418 428.97491623 -9.34078278 427.728992 -9.33984375 426.4453125 C-9.34627144 424.51291969 -9.34627144 424.51291969 -9.35282898 422.54148865 C-9.36027456 419.81887691 -9.36001202 417.09639489 -9.35473633 414.3737793 C-9.34894314 410.89583524 -9.36587637 407.41842399 -9.389081 403.94056797 C-9.40741015 400.60879434 -9.40363207 397.27713621 -9.40234375 393.9453125 C-9.4115535 392.70141251 -9.42076324 391.45751251 -9.43025208 390.17591858 C-9.39112229 382.85959682 -9.07377695 377.83703295 -3.8515625 372.31640625 C-1.0390625 370.62890625 -1.0390625 370.62890625 6.9609375 369.62890625 C6.9609375 287.12890625 6.9609375 204.62890625 6.9609375 119.62890625 C3.6609375 119.29890625 0.3609375 118.96890625 -3.0390625 118.62890625 C-8.24240224 115.95674779 -12.19411966 111.8080384 -16.2890625 107.69140625 C-16.91296875 107.08361328 -17.536875 106.47582031 -18.1796875 105.84960938 C-18.7778125 105.25212891 -19.3759375 104.65464844 -19.9921875 104.0390625 C-20.53004883 103.50418213 -21.06791016 102.96930176 -21.62207031 102.41821289 C-25.1912021 97.91129234 -25.33641806 93.20722126 -25.32958984 87.66088867 C-25.33630707 86.87321609 -25.34302429 86.08554352 -25.34994507 85.27400208 C-25.36889817 82.67739502 -25.37284803 80.08104687 -25.375 77.484375 C-25.38143029 75.67222489 -25.38815882 73.86007581 -25.39517212 72.04792786 C-25.40713851 68.25092157 -25.41085365 64.45400623 -25.40966797 60.65698242 C-25.40946493 55.80485095 -25.43675431 50.95330617 -25.47121239 46.10131359 C-25.49351271 42.35823417 -25.49750453 38.61529518 -25.49644852 34.87215614 C-25.49880024 33.08407891 -25.50759956 31.29599755 -25.52311325 29.50798607 C-25.54283518 26.99994904 -25.53691139 24.49316713 -25.52490234 21.98510742 C-25.53614136 21.25496429 -25.54738037 20.52482117 -25.55895996 19.77255249 C-25.48380742 13.55776232 -23.56720073 8.41353656 -19.35684204 3.77601624 C-13.14798166 -0.14801769 -7.19289375 -0.0803619 0 0 Z " fill="#010000" transform="translate(341.0390625,-0.62890625)"/>
<path d="M0 0 C0.05945801 1.60439941 0.05945801 1.60439941 0.12011719 3.24121094 C0.2724468 7.21546442 0.44984047 11.1882736 0.63476562 15.16113281 C0.71125685 16.87959241 0.7809788 18.59836738 0.84375 20.31738281 C0.93525431 22.79085879 1.05118637 25.26217223 1.171875 27.734375 C1.19497742 28.50118591 1.21807983 29.26799683 1.24188232 30.05804443 C1.4343015 33.54645876 1.72560127 35.6387826 3.86425781 38.45410156 C6.01007174 40.17007309 6.01007174 40.17007309 9 41 C9.02712351 43.39591038 9.0468982 45.79150957 9.0625 48.1875 C9.07087891 48.86103516 9.07925781 49.53457031 9.08789062 50.22851562 C9.10606538 53.95434131 8.89299392 57.3788042 8 61 C7.05125 61.165 6.1025 61.33 5.125 61.5 C4.09375 61.995 3.0625 62.49 2 63 C-0.39958231 70.33489344 -0.96920042 78.05195746 -1.85546875 85.6875 C-1.97535156 86.66976562 -2.09523438 87.65203125 -2.21875 88.6640625 C-2.32123047 89.54529785 -2.42371094 90.4265332 -2.52929688 91.33447266 C-3.89200685 99.05131267 -3.89200685 99.05131267 -7.23291016 101.91186523 C-8.15894043 102.45528564 -9.0849707 102.99870605 -10.0390625 103.55859375 C-11.60333984 104.49638672 -11.60333984 104.49638672 -13.19921875 105.453125 C-14.32972656 106.10796875 -15.46023438 106.7628125 -16.625 107.4375 C-17.80715548 108.13996874 -18.98813002 108.84442831 -20.16796875 109.55078125 C-22.59428994 111.00226105 -25.02473491 112.44643915 -27.45800781 113.88623047 C-32.69645069 116.99811879 -37.84559178 120.25149599 -43 123.5 C-56.70996302 132.09417015 -70.50165567 140.55457732 -84.29101562 149.02050781 C-96.15675993 156.30704777 -108.0082633 163.61413474 -119.8125 171 C-120.80805908 171.62140869 -121.80361816 172.24281738 -122.8293457 172.88305664 C-126.99413681 175.48398364 -131.1534231 178.0907269 -135.28125 180.75 C-135.89250732 181.13929688 -136.50376465 181.52859375 -137.13354492 181.9296875 C-138.66255517 182.90441208 -140.18515715 183.88917063 -141.70703125 184.875 C-144 186 -144 186 -147 185 C-147.82788086 182.99731445 -147.82788086 182.99731445 -148.46484375 180.36328125 C-148.82557983 178.91985352 -148.82557983 178.91985352 -149.19360352 177.44726562 C-149.43908936 176.41279297 -149.6845752 175.37832031 -149.9375 174.3125 C-150.46477734 172.1832544 -150.99341712 170.0543457 -151.5234375 167.92578125 C-151.77706055 166.89533691 -152.03068359 165.86489258 -152.29199219 164.80322266 C-153.12474632 161.50609061 -154.07546334 158.25401111 -155.0625 155 C-158.86323023 141.8874807 -161.52307577 128.38945236 -163.8125 114.9375 C-163.93633057 114.21852539 -164.06016113 113.49955078 -164.18774414 112.75878906 C-165.4531325 104.96347537 -165.4531325 104.96347537 -165 101 C-163.515625 99.3046875 -163.515625 99.3046875 -161.25 97.875 C-159.86941406 96.98941406 -159.86941406 96.98941406 -158.4609375 96.0859375 C-157.30919592 95.38747525 -156.15535428 94.69246997 -155 94 C-154.32356445 93.59040039 -153.64712891 93.18080078 -152.95019531 92.75878906 C-149.73376141 90.81367291 -146.51165066 88.87853933 -143.28076172 86.95751953 C-136.58841402 82.97713537 -129.96947118 78.89027417 -123.375 74.75 C-113.78130054 68.7294206 -104.15202999 62.76977687 -94.50146484 56.84082031 C-87.82648012 52.73974485 -81.15852358 48.62774588 -74.5 44.5 C-67.84076488 40.37181302 -61.17215408 36.25928097 -54.49633789 32.15795898 C-44.66445598 26.11722404 -34.84790872 20.05328439 -25.0625 13.9375 C-24.11076904 13.34275879 -23.15903809 12.74801758 -22.1784668 12.13525391 C-21.26492432 11.56339355 -20.35138184 10.9915332 -19.41015625 10.40234375 C-18.52473145 9.8491748 -17.63930664 9.29600586 -16.72705078 8.72607422 C-14.79793543 7.50504955 -12.88069493 6.26516837 -10.97216797 5.01220703 C-9.99006348 4.37009277 -9.00795898 3.72797852 -7.99609375 3.06640625 C-7.10978271 2.47931885 -6.22347168 1.89223145 -5.31030273 1.28735352 C-3 0 -3 0 0 0 Z " fill="#9BF7D1" transform="translate(302,245)"/>
<path d="M0 0 C-1.25094173 10.16724965 -3.2252026 20.00645038 -5.6875 29.9375 C-5.86562225 30.66141937 -6.04374451 31.38533875 -6.2272644 32.13119507 C-9.37865428 44.90624431 -12.86802371 57.50337046 -17 70 C-17.39372803 71.19441711 -17.39372803 71.19441711 -17.79541016 72.41296387 C-19.69870056 78.18141826 -21.62022873 83.94351087 -23.55783081 89.70053101 C-24.21976534 91.66852 -24.87942905 93.63727445 -25.53665161 95.60684204 C-35.30710389 124.81546017 -35.30710389 124.81546017 -43 130 C-47.07345185 131.59155236 -50.51633259 132.25965338 -54.87841797 132.30639648 C-56.01334686 132.32238388 -57.14827576 132.33837128 -58.31759644 132.35484314 C-59.53021149 132.36020584 -60.74282654 132.36556854 -61.9921875 132.37109375 C-63.25209503 132.38012222 -64.51200256 132.3891507 -65.81008911 132.39845276 C-68.47135727 132.41294001 -71.13219661 132.422633 -73.79345703 132.42553711 C-77.1851606 132.43091851 -80.57567183 132.46860854 -83.96703911 132.51428127 C-87.22534969 132.55136764 -90.48369435 132.55257323 -93.7421875 132.55859375 C-94.95075409 132.57812607 -96.15932068 132.59765839 -97.4045105 132.61778259 C-106.18692266 132.57101116 -111.11053147 130.89070709 -117.30004883 124.69921875 C-119.49301593 121.21717878 -120.84623791 117.68573413 -122.19921875 113.8125 C-122.61999443 112.64231323 -122.61999443 112.64231323 -123.04927063 111.44848633 C-123.63776077 109.80615579 -124.22159945 108.16215187 -124.80102539 106.51660156 C-125.68585333 104.0046747 -126.58477886 101.49815553 -127.48632812 98.9921875 C-128.05812172 97.39092116 -128.62911266 95.78936793 -129.19921875 94.1875 C-129.46586838 93.44153564 -129.73251801 92.69557129 -130.00724792 91.92700195 C-131.27707393 88.31070381 -132.38113207 84.78667202 -133 81 C-121.387156 73.61255225 -109.70854269 66.33982666 -97.9777832 59.14111328 C-90.56594842 54.58920077 -83.1810101 49.99666549 -75.8125 45.375 C-67.13887141 39.93685705 -58.41689434 34.58514842 -49.66137695 29.2800293 C-42.56971211 24.97543918 -35.52767365 20.59566764 -28.5 16.1875 C-21.72891177 11.94535274 -14.95799976 7.70445588 -8.125 3.5625 C-7.51849609 3.19084717 -6.91199219 2.81919434 -6.28710938 2.4362793 C-2.23601035 0 -2.23601035 0 0 0 Z " fill="#FA7E85" transform="translate(294,365)"/>
<path d="M0 0 C7.07406051 2.21064391 10.30291809 8.71345058 13.625 14.7890625 C14.13417969 15.70284668 14.64335937 16.61663086 15.16796875 17.55810547 C16.84012202 20.58306312 18.48611528 23.62096015 20.125 26.6640625 C20.69347656 27.7159375 21.26195312 28.7678125 21.84765625 29.8515625 C38.09066796 60.08464022 52.08807909 91.7931465 62.125 124.6640625 C62.33898437 125.35580566 62.55296875 126.04754883 62.7734375 126.76025391 C70.73133184 152.70723664 77.33724544 179.63113399 80.125 206.6640625 C80.20395508 207.3770752 80.28291016 208.09008789 80.36425781 208.82470703 C80.484375 210.68359375 80.484375 210.68359375 80.125 213.6640625 C78.359375 215.6328125 78.359375 215.6328125 75.875 217.1640625 C74.52341797 218.01677734 74.52341797 218.01677734 73.14453125 218.88671875 C72.14808594 219.47324219 71.15164063 220.05976563 70.125 220.6640625 C69.03574219 221.32277344 67.94648438 221.98148438 66.82421875 222.66015625 C58.41725352 227.6640625 58.41725352 227.6640625 57.125 227.6640625 C57.00745361 226.766875 56.88990723 225.8696875 56.76879883 224.9453125 C53.74102471 202.01418024 50.58058883 179.16260347 45.125 156.6640625 C44.88587891 155.6534375 44.64675781 154.6428125 44.40039062 153.6015625 C41.05099828 139.54961314 37.01476519 125.79507701 32.4375 112.1015625 C32.20343445 111.40073547 31.9693689 110.69990845 31.72821045 109.97784424 C29.08949181 102.11263331 26.32842099 94.31977276 23.125 86.6640625 C22.8775 87.8190625 22.63 88.9740625 22.375 90.1640625 C20.14744762 98.81489948 16.49416509 104.45805741 9.125 109.6640625 C3.39404305 112.59321827 -3.93923146 112.74742736 -10.1171875 111.046875 C-16.88887522 108.06944032 -21.20299404 102.57658902 -24.8125 96.2890625 C-26.63539516 90.06977314 -26.96177954 84.32866882 -24.1875 78.3515625 C-22.18944794 74.88455928 -19.9562737 72.25513357 -16.875 69.6640625 C-16.06289062 68.96410156 -16.06289062 68.96410156 -15.234375 68.25 C-9.26268733 63.75868869 -3.11545118 63.66974336 4.125 64.6640625 C8.76622179 66.17447591 12.26122437 68.75415803 16.125 71.6640625 C13.41646235 63.72787142 10.1712822 56.19907314 6.5 48.6640625 C5.97728516 47.58406982 5.45457031 46.50407715 4.91601562 45.39135742 C1.57891894 38.5376687 -1.83844585 31.72951108 -5.375 24.9765625 C-5.77154785 24.21794922 -6.1680957 23.45933594 -6.57666016 22.67773438 C-8.30255724 19.42811883 -10.06702733 16.31942877 -12.1796875 13.3046875 C-13.875 10.6640625 -13.875 10.6640625 -13.5 8.1015625 C-9.81831049 2.57902824 -6.5540722 0.13654317 0 0 Z " fill="#FB636E" transform="translate(218.875,14.3359375)"/>
<path d="M0 0 C0.93767212 -0.00315216 1.87534424 -0.00630432 2.84143066 -0.009552 C3.86119995 -0.00752777 4.88096924 -0.00550354 5.93164062 -0.00341797 C7.49078186 -0.00485306 7.49078186 -0.00485306 9.0814209 -0.00631714 C11.28393616 -0.0069991 13.48645342 -0.00514374 15.68896484 -0.00097656 C19.07328782 0.00437146 22.45747806 -0.00092105 25.84179688 -0.00732422 C27.97591175 -0.00666344 30.11002655 -0.00538228 32.24414062 -0.00341797 C33.26390991 -0.0054422 34.2836792 -0.00746643 35.33435059 -0.009552 C36.74085876 -0.00482376 36.74085876 -0.00482376 38.17578125 0 C39.42035095 0.00119339 39.42035095 0.00119339 40.69006348 0.00241089 C42.58789062 0.12939453 42.58789062 0.12939453 43.58789062 1.12939453 C43.69627841 2.57052305 43.74362364 4.01636614 43.76367188 5.46142578 C43.79944336 6.78303711 43.79944336 6.78303711 43.8359375 8.13134766 C43.8786323 9.99309956 43.91003087 11.85514751 43.9296875 13.71728516 C44.03325812 19.06547982 44.03325812 19.06547982 46.44335938 23.70361328 C48.6196069 25.28546639 48.6196069 25.28546639 51.58789062 26.12939453 C51.58789062 32.72939453 51.58789062 39.32939453 51.58789062 46.12939453 C49.60789062 47.11939453 47.62789063 48.10939453 45.58789062 49.12939453 C44.26409427 51.77698725 44.56036515 53.66648023 44.65820312 56.62548828 C44.97618002 77.52414103 44.97618002 77.52414103 39.71289062 84.25439453 C33.55698861 89.02968527 26.69363091 89.24816001 19.08789062 89.50439453 C17.36143311 89.58197998 17.36143311 89.58197998 15.60009766 89.66113281 C8.05775276 89.50492084 3.63501921 87.49932475 -1.72095108 82.18833351 C-7.62672853 75.55935181 -6.80941675 67.86426384 -6.52148438 59.46533203 C-6.50346844 57.77955409 -6.49022394 56.09371909 -6.48150635 54.40786743 C-6.44545052 50.00394835 -6.34252067 45.60407511 -6.22570801 41.20166016 C-6.11956864 36.70021013 -6.08269293 32.19819319 -6.03710938 27.69580078 C-5.95799451 21.14477424 -5.86141458 14.5944888 -5.70019531 8.04492188 C-5.66923767 6.7301889 -5.63828003 5.41545593 -5.60638428 4.06088257 C-5.30510984 -0.48516219 -4.15180738 0.00398107 0 0 Z " fill="#DB8657" transform="translate(337.412109375,14.87060546875)"/>
<path d="M0 0 C-1.25094173 10.16724965 -3.2252026 20.00645038 -5.6875 29.9375 C-5.86562225 30.66141937 -6.04374451 31.38533875 -6.2272644 32.13119507 C-9.37865428 44.90624431 -12.86802371 57.50337046 -17 70 C-17.26248535 70.79627808 -17.5249707 71.59255615 -17.79541016 72.41296387 C-19.69870056 78.18141826 -21.62022873 83.94351087 -23.55783081 89.70053101 C-24.21976534 91.66852 -24.87942905 93.63727445 -25.53665161 95.60684204 C-35.18643251 124.4547149 -35.18643251 124.4547149 -43 130 C-47.98172803 132.2438945 -52.5241824 132.24289937 -57.875 132.125 C-58.65875 132.11597656 -59.4425 132.10695313 -60.25 132.09765625 C-62.16680055 132.07428063 -64.08344191 132.03841653 -66 132 C-65.68401855 131.53416504 -65.36803711 131.06833008 -65.04248047 130.58837891 C-61.64665407 125.39963778 -59.24783027 120.18970899 -57.125 114.375 C-56.8053125 113.55515625 -56.485625 112.7353125 -56.15625 111.890625 C-54.38106843 107.08991658 -53.75532642 104.08071675 -55 99 C-55.16470975 96.29714003 -55.2746428 93.6405043 -55.3125 90.9375 C-55.34150391 90.24333984 -55.37050781 89.54917969 -55.40039062 88.83398438 C-55.44499031 85.22140971 -55.08623496 83.14378783 -53.21484375 80.0234375 C-51 78 -51 78 -47.25 77.6875 C-46.1775 77.790625 -45.105 77.89375 -44 78 C-43.89042969 77.39414062 -43.78085938 76.78828125 -43.66796875 76.1640625 C-43.43013672 74.90722656 -43.43013672 74.90722656 -43.1875 73.625 C-43.03667969 72.81289063 -42.88585937 72.00078125 -42.73046875 71.1640625 C-41.93224498 67.70651567 -40.92042628 64.35414796 -39.88500977 60.96142578 C-38.30958715 55.68973575 -36.86768851 50.38060478 -35.41064453 45.07519531 C-34.87007601 43.10707255 -34.32774811 41.1394408 -33.78515625 39.171875 C-32.3852212 34.08794557 -32.3852212 34.08794557 -31 29 C-30.67890259 27.92987671 -30.67890259 27.92987671 -30.35131836 26.83813477 C-29.82802833 24.67798723 -29.82802833 24.67798723 -30.63671875 21.20703125 C-30.66162109 19.10009766 -30.66162109 19.10009766 -30 17 C-26.65256249 13.91606571 -22.79086971 11.86164206 -18.8125 9.6875 C-17.22985352 8.77774414 -17.22985352 8.77774414 -15.61523438 7.84960938 C-13.64414433 6.71918613 -11.66603496 5.60085291 -9.67895508 4.4987793 C-7.85459607 3.47811585 -6.05503571 2.41212212 -4.2800293 1.30786133 C-2 0 -2 0 0 0 Z " fill="#FB636E" transform="translate(294,365)"/>
<path d="M0 0 C3.61358939 0.81161503 6.18190567 2.17307251 9.33984375 4.140625 C10.9185022 5.11854004 10.9185022 5.11854004 12.52905273 6.11621094 C13.66526824 6.82736785 14.80141572 7.53863346 15.9375 8.25 C17.11175259 8.9799878 18.2863167 9.70947472 19.46118164 10.43847656 C21.84295139 11.91730162 24.22296004 13.39889871 26.6015625 14.8828125 C29.63519925 16.77446454 32.67547173 18.65513811 35.71875 20.53125 C47.19644761 27.60786028 58.61477614 34.77563317 70 42 C65.92109284 46.5284861 61.44341593 49.34377483 56.1875 52.375 C54.39069567 53.43150227 52.59517835 54.49019561 50.80078125 55.55078125 C49.8567041 56.10846191 48.91262695 56.66614258 47.93994141 57.24072266 C42.87182145 60.27351392 37.8753212 63.41961226 32.875 66.5625 C25.45524318 71.21668942 18.02888082 75.85837243 10.5625 80.4375 C9.42627197 81.13758179 9.42627197 81.13758179 8.26708984 81.85180664 C3.11880365 85 3.11880365 85 2 85 C-0.94306401 68.2000096 -1.28639592 51.64181897 -1.25 34.625 C-1.24895264 33.5442923 -1.24790527 32.46358459 -1.24682617 31.35012817 C-1.24039283 28.20466914 -1.22434967 25.05945417 -1.203125 21.9140625 C-1.19875427 20.97820816 -1.19438354 20.04235382 -1.18988037 19.07814026 C-1.12243222 12.67754662 -0.66597933 6.36541389 0 0 Z " fill="#FCDE75" transform="translate(132,245)"/>
<path d="M0 0 C0.03963867 1.06959961 0.07927734 2.13919922 0.12011719 3.24121094 C0.2724468 7.21546442 0.44984047 11.1882736 0.63476562 15.16113281 C0.71125685 16.87959241 0.7809788 18.59836738 0.84375 20.31738281 C0.93525431 22.79085879 1.05118637 25.26217223 1.171875 27.734375 C1.19497742 28.50118591 1.21807983 29.26799683 1.24188232 30.05804443 C1.4343015 33.54645876 1.72560127 35.6387826 3.86425781 38.45410156 C6.01007174 40.17007309 6.01007174 40.17007309 9 41 C9.02712351 43.39591038 9.0468982 45.79150957 9.0625 48.1875 C9.07087891 48.86103516 9.07925781 49.53457031 9.08789062 50.22851562 C9.10606538 53.95434131 8.89299392 57.3788042 8 61 C7.05125 61.165 6.1025 61.33 5.125 61.5 C4.09375 61.995 3.0625 62.49 2 63 C-0.39958231 70.33489344 -0.96920042 78.05195746 -1.85546875 85.6875 C-1.97535156 86.66976562 -2.09523438 87.65203125 -2.21875 88.6640625 C-2.32123047 89.54529785 -2.42371094 90.4265332 -2.52929688 91.33447266 C-3.89157302 99.04885592 -3.89157302 99.04885592 -7.3984375 102.05810547 C-8.87183594 102.95360107 -8.87183594 102.95360107 -10.375 103.8671875 C-11.97601563 104.85332031 -11.97601563 104.85332031 -13.609375 105.859375 C-14.72828125 106.52453125 -15.8471875 107.1896875 -17 107.875 C-18.11890625 108.56335938 -19.2378125 109.25171875 -20.390625 109.9609375 C-28.66908482 115 -28.66908482 115 -31 115 C-30.4068383 105.69965386 -29.3345535 96.53349102 -28 87.3125 C-27.64402252 84.82968604 -27.28982076 82.34661675 -26.9375 79.86328125 C-26.78152344 78.78344971 -26.62554687 77.70361816 -26.46484375 76.59106445 C-26.31144531 75.40601318 -26.15804688 74.22096191 -26 73 C-25.89950851 72.25440826 -25.79901703 71.50881653 -25.69548035 70.7406311 C-24.92439694 64.31457865 -25.18052405 58.23491968 -25.67578125 51.796875 C-27.72841655 17.2868394 -27.72841655 17.2868394 -22.89355469 10.34912109 C-16.95010713 4.40891896 -8.54972207 0 0 0 Z " fill="#6BF2C0" transform="translate(302,245)"/>
<path d="M0 0 C3.31248187 -0.02888146 6.62493167 -0.04675799 9.9375 -0.0625 C10.88302734 -0.07087891 11.82855469 -0.07925781 12.80273438 -0.08789062 C14.15141602 -0.09272461 14.15141602 -0.09272461 15.52734375 -0.09765625 C16.77632446 -0.10551147 16.77632446 -0.10551147 18.05053711 -0.11352539 C20 0 20 0 21 1 C21.10838779 2.44112852 21.15573301 3.8869716 21.17578125 5.33203125 C21.19962891 6.21310547 21.22347656 7.09417969 21.24804688 8.00195312 C21.29074167 9.86370502 21.32214025 11.72575298 21.34179688 13.58789062 C21.44536749 18.93608529 21.44536749 18.93608529 23.85546875 23.57421875 C26.03171628 25.15607185 26.03171628 25.15607185 29 26 C29 32.6 29 39.2 29 46 C27.02 46.99 25.04 47.98 23 49 C21.67620364 51.64759272 21.97247452 53.5370857 22.0703125 56.49609375 C22.37484788 77.40752314 22.37484788 77.40752314 16.5625 84.125 C9.24291347 89.92451366 0.8017238 88.95860358 -8 88 C-7.57847656 87.51789063 -7.15695312 87.03578125 -6.72265625 86.5390625 C-6.17480469 85.90742187 -5.62695312 85.27578125 -5.0625 84.625 C-4.51722656 83.99851562 -3.97195313 83.37203125 -3.41015625 82.7265625 C-0.5212365 79.18943638 -0.82911035 75.89737268 -0.79467773 71.52099609 C-0.78477814 70.75017197 -0.77487854 69.97934784 -0.76467896 69.18516541 C-0.7330317 66.6312876 -0.70829383 64.07739118 -0.68359375 61.5234375 C-0.663027 59.75509145 -0.64203061 57.98675035 -0.62062073 56.21841431 C-0.56537119 51.55940757 -0.51597464 46.90035625 -0.46777344 42.24127197 C-0.41757944 37.48893253 -0.36188242 32.73665798 -0.30664062 27.984375 C-0.19902381 18.65630541 -0.09758667 9.32817953 0 0 Z " fill="#C76D36" transform="translate(360,15)"/>
<path d="M0 0 C5.38676742 3.19554 10.38053276 8.61356704 12.625 14.5 C13.45465771 22.33351231 13.73386695 30.1210516 8.625 36.5 C2.80592507 42.72764828 -2.18250395 45.48610403 -10.75 45.875 C-17.24138011 45.71667366 -21.5515888 44.11889852 -26.31640625 39.69921875 C-32.08406199 33.49808575 -35.01274872 27.55175709 -34.7265625 18.9921875 C-33.80926359 12.48955741 -30.33720674 7.67276476 -25.375 3.5 C-24.83359375 3.03335938 -24.2921875 2.56671875 -23.734375 2.0859375 C-16.93323094 -3.02920866 -7.76365458 -3.36827816 0 0 Z " fill="#040202" transform="translate(227.375,80.5)"/>
<path d="M0 0 C5.61 0 11.22 0 17 0 C17 16.17 17 32.34 17 49 C11.39 49 5.78 49 0 49 C0 32.83 0 16.66 0 0 Z " fill="#C76C35" transform="translate(348,385)"/>
<path d="M0 0 C1.66516113 1.30006409 1.66516113 1.30006409 3 3 C3.32287667 6.0363547 3.46802723 8.86322678 3.46875 11.90234375 C3.47636353 12.77645401 3.48397705 13.65056427 3.49182129 14.55116272 C3.50262489 16.39955794 3.50547433 18.24801422 3.50097656 20.09643555 C3.50000462 22.92405074 3.54161208 25.74894894 3.5859375 28.57617188 C3.59114483 30.37239017 3.59383269 32.16861791 3.59375 33.96484375 C3.6183429 35.23218605 3.6183429 35.23218605 3.64343262 36.52513123 C3.59414293 40.71414109 3.57368932 42.37370657 0.65429688 45.56079102 C-2 47 -2 47 -5.0625 47.0625 C-8.82799917 45.70051094 -9.87488976 44.38401926 -12 41 C-12.39069705 38.13685407 -12.56225837 35.66928093 -12.53125 32.8125 C-12.5350769 32.03237549 -12.53890381 31.25225098 -12.54284668 30.44848633 C-12.54556005 28.80451156 -12.53823905 27.16049319 -12.52148438 25.51660156 C-12.50006386 23.00747977 -12.52130273 20.50122078 -12.546875 17.9921875 C-12.54423162 16.39061871 -12.53910642 14.7890517 -12.53125 13.1875 C-12.53934692 12.44153564 -12.54744385 11.69557129 -12.55578613 10.92700195 C-12.46767692 6.00583513 -11.51745985 3.44849005 -8 0 C-5.06317146 -1.46841427 -3.13175678 -0.76696084 0 0 Z " fill="#080404" transform="translate(221,433)"/>
<path d="M0 0 C3.30081857 0.96300273 4.29623516 2.68917852 6.03515625 5.59375 C6.42999392 8.4272909 6.59749173 10.77826429 6.53515625 13.59375 C6.550625 14.29242188 6.56609375 14.99109375 6.58203125 15.7109375 C6.55496632 19.29704072 6.1084895 21.4712593 4.2578125 24.5625 C2.03515625 26.59375 2.03515625 26.59375 0 27.1875 C-5.49574896 26.93336132 -5.49574896 26.93336132 -7.68603516 25.34765625 C-9.31806961 23.10929514 -9.35167592 21.78558087 -9.36328125 19.03125 C-9.36714844 18.15210938 -9.37101563 17.27296875 -9.375 16.3671875 C-9.36339844 15.45195312 -9.35179687 14.53671875 -9.33984375 13.59375 C-9.35724609 12.22089844 -9.35724609 12.22089844 -9.375 10.8203125 C-9.37113281 9.94117188 -9.36726562 9.06203125 -9.36328125 8.15625 C-9.35820557 6.95162109 -9.35820557 6.95162109 -9.35302734 5.72265625 C-8.39037456 0.44320201 -4.8412874 0.22387456 0 0 Z " fill="#070404" transform="translate(188.96484375,442.40625)"/>
<path d="M0 0 C3.9375 0.5625 3.9375 0.5625 5.66015625 2.03515625 C7.57907245 5.83191093 7.37279056 9.36895686 7.3125 13.5625 C7.32410156 14.36945313 7.33570313 15.17640625 7.34765625 16.0078125 C7.3303652 19.50060404 7.25152105 21.94118007 5.66015625 25.08984375 C3.28993994 27.11608309 1.01106805 27.09188216 -2.02734375 27.19140625 C-5.3081021 26.17758265 -6.32113138 24.46733249 -8.0625 21.5625 C-8.45733767 18.7289591 -8.62483548 16.37798571 -8.5625 13.5625 C-8.58570313 12.51449219 -8.58570313 12.51449219 -8.609375 11.4453125 C-8.58231769 7.86021856 -8.1371304 5.68699335 -6.28515625 2.59765625 C-3.92795827 0.43930801 -3.1292021 -0.10249795 0 0 Z " fill="#050202" transform="translate(247.0625,442.4375)"/>
<path d="M0 0 C2.9375 1.5 2.9375 1.5 5 4 C5.79190864 8.98902441 5.80380719 10.83082591 2.9375 15 C0 17 0 17 -3.5 17.6875 C-7 17 -7 17 -10 14.4375 C-12 11 -12 11 -12.0625 7.375 C-9.9608226 0.69908356 -6.9417779 -0.97428462 0 0 Z " fill="#D8EFF5" transform="translate(220,94)"/>
</svg>
