<?xml version="1.0" encoding="UTF-8"?>
<svg version="1.1" xmlns="http://www.w3.org/2000/svg" width="512" height="512">
<path d="M0 0 C1.10460571 -0.00700928 2.20921143 -0.01401855 3.34729004 -0.02124023 C6.99740765 -0.03884062 10.64674954 -0.02718943 14.296875 -0.01367188 C16.83366037 -0.01636618 19.37044473 -0.02024808 21.90722656 -0.02526855 C27.22341702 -0.03116642 32.53932964 -0.02297289 37.85546875 -0.00390625 C43.99556943 0.01786172 50.13513878 0.01080991 56.27522659 -0.01121187 C62.18967347 -0.03157272 68.10395571 -0.0293901 74.01843262 -0.01768494 C76.53186111 -0.01501544 79.04530315 -0.0182952 81.55871582 -0.02760315 C85.07075996 -0.03775483 88.58178204 -0.0222852 92.09375 0 C93.65397888 -0.01214539 93.65397888 -0.01214539 95.24572754 -0.02453613 C99.53362118 0.02590332 102.35394176 0.15754141 106.20092773 2.15637207 C108.60187481 5.22749488 108.62649148 6.94183923 108.53515625 10.81445312 C108.51904297 12.01972656 108.50292969 13.225 108.48632812 14.46679688 C108.44443359 15.72105469 108.40253906 16.9753125 108.359375 18.26757812 C108.32553711 20.17216797 108.32553711 20.17216797 108.29101562 22.11523438 C108.23208139 25.25053585 108.14984579 28.38346408 108.046875 31.51757812 C120.32200746 32.06488109 132.59090509 32.44576948 144.87716198 32.62897968 C150.58704726 32.71904725 156.28465588 32.86086818 161.98901367 33.13256836 C191.97795986 35.12354573 191.97795986 35.12354573 217.7120142 22.01142788 C223.30266766 16.55007325 228.24554164 10.5614981 232.85054016 4.2565155 C235.046875 1.51757812 235.046875 1.51757812 238.046875 0.51757812 C239.66157902 0.41567234 241.28008293 0.36919404 242.89794922 0.35644531 C244.37495804 0.342034 244.37495804 0.342034 245.88180542 0.32733154 C246.94432526 0.32308167 248.00684509 0.31883179 249.1015625 0.31445312 C250.74211105 0.30590302 250.74211105 0.30590302 252.415802 0.29718018 C254.73080477 0.28773026 257.04582099 0.28119623 259.36083984 0.27734375 C262.90095484 0.2676355 266.44048997 0.2366103 269.98046875 0.20507812 C272.22916322 0.19854827 274.47786184 0.19329773 276.7265625 0.18945312 C278.31426956 0.17093292 278.31426956 0.17093292 279.93405151 0.15203857 C289.59331777 0.18129093 289.59331777 0.18129093 293.046875 3.51757812 C293.376875 5.16757813 293.706875 6.81757812 294.046875 8.51757812 C299.656875 8.51757812 305.266875 8.51757812 311.046875 8.51757812 C311.376875 6.86757812 311.706875 5.21757813 312.046875 3.51757812 C313.8142347 1.40808383 315.19311518 0.63694344 317.92340088 0.25521851 C320.30663348 0.13515381 322.66856057 0.12828435 325.0546875 0.15429688 C325.93534882 0.15379837 326.81601013 0.15329987 327.72335815 0.15278625 C329.58773044 0.15512514 331.45210598 0.16484278 333.31640625 0.18139648 C336.14091982 0.2048214 338.96447751 0.20197659 341.7890625 0.1953125 C343.60677637 0.20089569 345.4244863 0.20800957 347.2421875 0.21679688 C348.07485138 0.21588547 348.90751526 0.21497406 349.76541138 0.21403503 C364.30245585 0.38570242 377.1216543 4.82277063 388.046875 14.51757812 C388.63855469 14.99324219 389.23023438 15.46890625 389.83984375 15.95898438 C398.48406434 23.53504041 405.9851286 37.60756745 407.515625 49.00976562 C407.59773576 57.89825582 406.44943043 64.59215388 400.40234375 71.35742188 C395.00938493 76.33647415 389.69776627 78.68650694 382.3125 78.58789062 C380.83185059 78.57266357 380.83185059 78.57266357 379.32128906 78.55712891 C378.1954541 78.53755127 378.1954541 78.53755127 377.046875 78.51757812 C379.50570288 84.482895 381.96589781 90.44764696 384.42709351 96.4119873 C385.29623881 98.51829055 386.16523783 100.62465416 387.03408813 102.7310791 C391.39474074 113.30105837 395.75826872 123.8693916 400.203125 134.40429688 C400.51071243 135.133871 400.81829987 135.86344513 401.13520813 136.61512756 C402.5474151 139.96253576 403.96415877 143.30792539 405.38745117 146.65063477 C405.87705322 147.80813232 406.36665527 148.96562988 406.87109375 150.15820312 C407.50664185 151.6514209 407.50664185 151.6514209 408.1550293 153.17480469 C409.046875 155.51757812 409.046875 155.51757812 409.046875 157.51757812 C409.88992188 157.72060547 409.88992188 157.72060547 410.75 157.92773438 C417.34604479 159.6172121 423.79344389 161.69518864 430.234375 163.89257812 C431.07709961 164.17238525 431.91982422 164.45219238 432.78808594 164.74047852 C442.10744524 167.97154316 450.17977514 172.4480362 455.046875 181.34570312 C457.91461399 187.68781819 458.1902104 193.53835165 458.17285156 200.359375 C458.17565376 201.67978539 458.17565376 201.67978539 458.17851257 203.02687073 C458.18250771 204.93332121 458.1845906 206.83977645 458.18497467 208.74623108 C458.18839815 212.79977215 458.20976566 216.85315395 458.23020554 220.9066391 C458.26820449 228.44966316 458.29948552 235.99251372 458.29736328 243.53564453 C458.29657697 248.78711748 458.31990048 254.03800245 458.3592453 259.2893219 C458.36971442 261.28916278 458.37122264 263.28907144 458.36359406 265.28892517 C458.35398808 268.08519366 458.37512204 270.87967431 458.40332031 273.67578125 C458.39312363 274.50086685 458.38292694 275.32595245 458.37242126 276.17604065 C458.45063512 280.50045022 458.62321355 282.01699073 461.52459717 285.44519043 C462.35694885 286.12907837 463.18930054 286.81296631 464.046875 287.51757812 C466.31653383 292.05689578 465.32207483 298.28427563 465.359375 303.26757812 C465.38837891 304.54375 465.41738281 305.81992187 465.44726562 307.13476562 C465.52639684 318.79748937 465.52639684 318.79748937 461.046875 323.51757812 C457.0813713 327.00241471 453.86776272 327.64299597 448.67675781 327.54833984 C447.57841614 327.53278046 446.48007446 327.51722107 445.34844971 327.50119019 C444.1609613 327.48339508 442.9734729 327.46559998 441.75 327.44726562 C439.23959485 327.43636377 436.72917419 327.42865163 434.21875 327.42382812 C430.25634253 327.4159701 426.29764666 327.39259315 422.3359375 327.31542969 C418.51402133 327.24581894 414.69741477 327.24648354 410.875 327.25976562 C409.10591278 327.2027095 409.10591278 327.2027095 407.30108643 327.14450073 C403.8845874 327.19358925 401.26382969 327.3540033 398.046875 328.51757812 C394.94522845 331.84875363 393.10733241 335.4955066 391.046875 339.51757812 C382.6336197 350.06282295 370.41832626 355.54464102 357.484375 358.26757812 C356.35 358.35007812 355.215625 358.43257813 354.046875 358.51757812 C352.90605469 358.61232422 352.90605469 358.61232422 351.7421875 358.70898438 C337.97723963 359.34209029 323.54018902 355.01576412 313.10546875 345.96679688 C307.85044929 341.02212003 303.41874217 335.91249862 300.046875 329.51757812 C300.046875 328.85757812 300.046875 328.19757813 300.046875 327.51757812 C299.12867981 327.52201935 298.21048462 327.52646057 297.26446533 327.53103638 C288.61262965 327.57110542 279.96082512 327.60155865 271.308918 327.62120247 C266.86085299 327.63164103 262.41286464 327.64580158 257.96484375 327.66845703 C253.67250566 327.69018279 249.38024131 327.70214621 245.08785248 327.70733261 C243.44998768 327.71102884 241.81212693 327.71824662 240.17429352 327.72903824 C237.88075528 327.74354967 235.58752205 327.74555622 233.29394531 327.74462891 C231.98822571 327.74907013 230.6825061 327.75351135 229.33721924 327.75808716 C224.3521077 327.39369843 224.3521077 327.39369843 222.046875 325.51757812 C221.386875 323.53757812 220.726875 321.55757813 220.046875 319.51757812 C214.436875 319.51757812 208.826875 319.51757812 203.046875 319.51757812 C202.716875 321.16757812 202.386875 322.81757813 202.046875 324.51757812 C199.64490979 327.24904918 198.17175813 327.50477209 194.52874756 327.87834167 C193.10218332 327.88701081 191.67545988 327.87912439 190.24902344 327.8581543 C189.46815369 327.85859238 188.68728394 327.85903046 187.88275146 327.85948181 C185.30699482 327.85739521 182.73189265 327.83407063 180.15625 327.81054688 C178.36835079 327.80495046 176.58044697 327.80068057 174.7925415 327.79768372 C170.09065004 327.78623855 165.38903732 327.7567742 160.68725586 327.72357178 C155.88789643 327.69286382 151.08849189 327.67917683 146.2890625 327.6640625 C136.87487764 327.63190419 127.46089952 327.58071178 118.046875 327.51757812 C117.74217285 328.30221436 117.4374707 329.08685059 117.12353516 329.89526367 C115.44365214 333.98678827 112.84795896 337.12613117 110.046875 340.51757812 C109.21542969 341.53078125 109.21542969 341.53078125 108.3671875 342.56445312 C99.16112787 352.7582874 85.67876124 357.45138614 72.28125 358.79492188 C55.1698532 359.42033842 41.19850432 352.92815024 28.8359375 341.68945312 C27.01990597 339.86864964 25.99804677 338.41235172 24.90585327 336.05863953 C23.54232702 333.13134387 22.23995555 330.89754538 20.046875 328.51757812 C15.84274035 327.09457564 11.82356489 327.28109059 7.421875 327.42773438 C6.20161621 327.42680283 4.98135742 327.42587128 3.72412109 327.4249115 C-0.17022526 327.42978317 -4.05962005 327.50189046 -7.953125 327.58007812 C-11.84564353 327.62120644 -15.7376553 327.64820567 -19.63037109 327.66026306 C-22.05013974 327.67169609 -24.46991104 327.70200594 -26.88916016 327.75343323 C-37.16787214 327.86993344 -37.16787214 327.86993344 -41.953125 324.51757812 C-47.93776611 317.88594879 -47.20086059 312.42010307 -47.265625 303.76757812 C-47.29462891 302.49140625 -47.32363281 301.21523438 -47.35351562 299.90039062 C-47.43334324 288.13502828 -47.43334324 288.13502828 -42.953125 283.51757812 C-39.953125 281.51757812 -39.953125 281.51757812 -36.953125 281.51757812 C-36.953125 214.52757812 -36.953125 147.53757812 -36.953125 78.51757812 C-38.933125 78.51757812 -40.913125 78.51757812 -42.953125 78.51757812 C-45.29272461 77.06640625 -45.29272461 77.06640625 -46.953125 74.51757812 C-47.53859352 71.58737439 -47.53756423 68.71724404 -47.51953125 65.73632812 C-47.52572983 64.88582886 -47.53192841 64.03532959 -47.53831482 63.15905762 C-47.54540804 61.36369978 -47.54224759 59.5682761 -47.52954102 57.77294922 C-47.51566975 55.02643866 -47.54975547 52.28333243 -47.58789062 49.53710938 C-47.58884181 47.79101479 -47.58698303 46.04491595 -47.58203125 44.29882812 C-47.59528946 43.47894409 -47.60854767 42.65906006 -47.62220764 41.81433105 C-47.55712054 37.82804046 -47.45625077 36.10741037 -44.79980469 32.99316406 C-41.50128376 31.28336471 -39.47731525 31.05404728 -35.77734375 31.12695312 C-34.62041016 31.13984375 -33.46347656 31.15273437 -32.27148438 31.16601562 C-31.07330078 31.19953125 -29.87511719 31.23304687 -28.640625 31.26757812 C-26.8143457 31.29464844 -26.8143457 31.29464844 -24.95117188 31.32226562 C-21.95102078 31.36932682 -18.95247611 31.43506503 -15.953125 31.51757812 C-15.97930908 30.72061523 -16.00549316 29.92365234 -16.0324707 29.10253906 C-16.13641445 25.49108599 -16.20144585 21.87994741 -16.265625 18.26757812 C-16.30751953 17.01332031 -16.34941406 15.7590625 -16.39257812 14.46679688 C-16.40869141 13.26152344 -16.42480469 12.05625 -16.44140625 10.81445312 C-16.46759033 9.70424805 -16.49377441 8.59404297 -16.52075195 7.45019531 C-15.953125 4.51757812 -15.953125 4.51757812 -14.10221863 2.36663818 C-9.45887442 -0.35980419 -5.29464537 -0.04121543 0 0 Z " fill="#020202" transform="translate(46.953125,76.482421875)"/>
<path d="M0 0 C94.38 0 188.76 0 286 0 C286 66.66 286 133.32 286 202 C280.72 202 275.44 202 270 202 C269.99635437 199.74130066 269.99270874 197.48260132 269.98895264 195.15545654 C269.95276208 173.90649931 269.89460716 152.65768385 269.81609726 131.40884018 C269.77626183 120.48365782 269.74389224 109.55854797 269.72900391 98.63330078 C269.71601071 89.11255718 269.68910588 79.59197281 269.64538693 70.07131886 C269.62271955 65.02862623 269.60709247 59.98613037 269.60811615 54.94338226 C269.60885965 50.19910265 269.59103404 45.45525889 269.55883217 40.711092 C269.55029822 38.96800536 269.54860682 37.22487003 269.55419731 35.48177147 C269.5608065 33.1048269 269.54299274 30.72928162 269.51898193 28.35247803 C269.52674235 27.65986775 269.53450277 26.96725748 269.54249835 26.25365901 C269.48402333 22.99237052 269.17152163 21.23537666 267.23084641 18.57221603 C264.79719511 16.8570708 263.72168679 16.49820135 260.78747559 16.49206543 C259.53839668 16.47514648 259.53839668 16.47514648 258.26408386 16.45788574 C256.90649712 16.47003113 256.90649712 16.47003113 255.52148438 16.48242188 C254.08184074 16.47190796 254.08184074 16.47190796 252.6131134 16.46118164 C249.4396982 16.44357241 246.26717432 16.45523511 243.09375 16.46875 C240.88944324 16.46605594 238.68513765 16.46217423 236.48083496 16.45715332 C231.86064339 16.45125429 227.2407611 16.45983453 222.62060547 16.47851562 C216.69524264 16.50130509 210.77060449 16.48818422 204.84526825 16.46422577 C200.29338103 16.44977893 195.74166593 16.45436873 191.18977356 16.46473694 C189.00486668 16.46740729 186.81994424 16.46412367 184.63505554 16.45481873 C181.58245389 16.44467176 178.53102948 16.46012895 175.47851562 16.48242188 C174.12092888 16.47027649 174.12092888 16.47027649 172.73591614 16.45788574 C171.90319687 16.46916504 171.0704776 16.48044434 170.21252441 16.49206543 C169.13075802 16.49432758 169.13075802 16.49432758 168.02713776 16.49663544 C164.97025472 17.25569909 163.84687957 18.4655538 162 21 C161.60343273 23.59188385 161.45199582 25.76226836 161.48101807 28.35247803 C161.47351681 29.0950187 161.46601556 29.83755938 161.458287 30.60260129 C161.43798007 33.09179623 161.44611799 35.58008289 161.45410156 38.06933594 C161.44536815 39.85316368 161.43488318 41.63698359 161.42277527 43.42079163 C161.39486619 48.26550367 161.39151167 53.10996071 161.39249516 57.95474148 C161.38937027 63.01702553 161.36376092 68.07919402 161.34051514 73.14141846 C161.29991906 82.72838604 161.27960594 92.31528555 161.26654124 101.90232587 C161.25068342 112.81641967 161.21227293 123.73039741 161.17194796 134.64442396 C161.08949963 157.09624371 161.03543834 179.54806032 161 202 C157.59819198 202.1583819 154.19733433 202.25466118 150.79296875 202.33984375 C149.83064331 202.38540405 148.86831787 202.43096436 147.87683105 202.47790527 C140.70518192 202.61269324 140.70518192 202.61269324 137.08496094 199.46728516 C135.3125 196.5625 135.3125 196.5625 133.66015625 193.24609375 C128.12877879 182.43062394 115.82558597 176.71169651 104.75 173.125 C89.37971037 169.42638564 74.96051205 172.56213646 61.4296875 180.4453125 C52.96030215 185.86462981 47.49100009 193.01799982 43 202 C28.81 202 14.62 202 0 202 C0 196.72 0 191.44 0 186 C2.85398437 185.96132813 2.85398437 185.96132813 5.765625 185.921875 C8.26043983 185.86560098 10.75523061 185.8082535 13.25 185.75 C14.50425781 185.73582031 15.75851563 185.72164062 17.05078125 185.70703125 C18.25605469 185.67480469 19.46132813 185.64257812 20.703125 185.609375 C21.81333008 185.58842773 22.92353516 185.56748047 24.06738281 185.54589844 C27.70357706 184.86903111 28.70417845 183.85309012 31 181 C31.607196 178.46487059 31.607196 178.46487059 31.53344727 175.66821289 C31.5492836 174.60353287 31.56511993 173.53885284 31.58143616 172.44190979 C31.57647629 171.29705612 31.57151642 170.15220245 31.56640625 168.97265625 C31.57260483 167.79158798 31.57880341 166.61051971 31.58518982 165.3936615 C31.59229277 162.89631983 31.58910581 160.39893086 31.57641602 157.90161133 C31.56256345 154.08000489 31.59660334 150.26085222 31.63476562 146.43945312 C31.63571692 144.01302023 31.63385745 141.58658428 31.62890625 139.16015625 C31.64216446 138.01732681 31.65542267 136.87449738 31.66908264 135.69703674 C31.65654953 134.62920456 31.64401642 133.56137238 31.63110352 132.46118164 C31.63014175 131.52504532 31.62917999 130.588909 31.62818909 129.62440491 C31.04368229 126.17189155 31.04368229 126.17189155 26 122 C13.13 121.505 13.13 121.505 0 121 C0 81.07 0 41.14 0 0 Z " fill="#FDFDEF" transform="translate(25,155)"/>
<path d="M0 0 C26.73 0 53.46 0 81 0 C87 14 87 14 87 16 C85.7509211 16.00879936 85.7509211 16.00879936 84.47660828 16.01777649 C76.63364765 16.07565109 68.79097341 16.14769735 60.94829082 16.23571491 C56.91614971 16.28046588 52.88411073 16.31971128 48.85180664 16.34643555 C44.96126837 16.37242182 41.07112217 16.41279023 37.18082619 16.46318626 C35.69570602 16.47988681 34.21051799 16.49138123 32.725317 16.49761391 C30.64678095 16.5072209 28.56925515 16.53523621 26.4909668 16.56762695 C25.30738083 16.57873001 24.12379486 16.58983307 22.90434265 16.60127258 C20.05960848 16.80080694 20.05960848 16.80080694 18.11857605 18.11283875 C16.43256915 20.95731847 16.61830512 23.33725966 16.61181641 26.62695312 C16.60393097 27.62987648 16.60393097 27.62987648 16.59588623 28.65306091 C16.58268475 30.86269507 16.59142419 33.07160854 16.6015625 35.28125 C16.59954179 36.81677387 16.59663038 38.3522968 16.59286499 39.88781738 C16.58844146 43.10580585 16.59487341 46.32354448 16.60888672 49.54150391 C16.62597889 53.66773616 16.61613782 57.79338304 16.59816933 61.91959381 C16.58733212 65.09031592 16.59077748 68.26089909 16.5985527 71.43162537 C16.6005549 72.95307993 16.59809474 74.47454707 16.59111404 75.99598694 C16.58350028 78.12201378 16.59510118 80.24709083 16.61181641 82.37304688 C16.61420319 83.58311401 16.61658997 84.79318115 16.61904907 86.03991699 C16.74312177 88.95020785 16.74312177 88.95020785 18.26795483 90.664711 C20.39833594 92.30708991 21.42806406 92.36040829 24.09367371 92.32470703 C24.9266246 92.32134842 25.7595755 92.31798981 26.61776733 92.31452942 C27.52918488 92.29581284 28.44060242 92.27709625 29.37963867 92.2578125 C30.34304672 92.25033493 31.30645477 92.24285736 32.29905701 92.2351532 C34.39925409 92.21812204 36.49940753 92.19485374 38.59947777 92.16616821 C41.95658719 92.12452091 45.31289305 92.10837664 48.67024231 92.1003418 C58.21974255 92.07653102 67.76842037 92.03757465 77.31713867 91.90771484 C141.62960725 91.07982731 141.62960725 91.07982731 161 108 C162.98022069 110.96440223 163.22874316 113.22273243 163.125 116.75 C163.10695313 117.54921875 163.08890625 118.3484375 163.0703125 119.171875 C163.04710937 119.77515625 163.02390625 120.3784375 163 121 C162.23333008 121.01458252 161.46666016 121.02916504 160.67675781 121.04418945 C157.20066507 121.1186922 153.72553032 121.21534646 150.25 121.3125 C149.0434375 121.33505859 147.836875 121.35761719 146.59375 121.38085938 C145.43359375 121.41630859 144.2734375 121.45175781 143.078125 121.48828125 C142.00981445 121.51446533 140.94150391 121.54064941 139.84082031 121.56762695 C136.57273374 122.06502995 135.34560526 122.69930241 133 125 C132.40006789 127.57251109 132.40006789 127.57251109 132.49829102 130.52539062 C132.48891006 131.65666382 132.47952911 132.78793701 132.46986389 133.95349121 C132.48109787 135.17540161 132.49233185 136.39731201 132.50390625 137.65625 C132.50245102 138.9100647 132.50099579 140.16387939 132.49949646 141.45568848 C132.50115805 144.10919747 132.51066987 146.76127854 132.53344727 149.41455078 C132.56183316 152.81444802 132.55909539 156.21344726 132.54635715 159.61341095 C132.53772767 162.85691522 132.55284618 166.10027388 132.56640625 169.34375 C132.56347061 170.5656604 132.56053497 171.7875708 132.55751038 173.04650879 C132.57653664 174.74341858 132.57653664 174.74341858 132.59594727 176.47460938 C132.60405174 177.96994202 132.60405174 177.96994202 132.61231995 179.4954834 C132.80604508 182.03368961 132.80604508 182.03368961 134.34906006 183.8183136 C136.88382579 185.6326123 139.11776412 185.43938413 142.19921875 185.51171875 C143.40771484 185.54716797 144.61621094 185.58261719 145.86132812 185.61914062 C147.7552832 185.65297852 147.7552832 185.65297852 149.6875 185.6875 C150.96173828 185.72166016 152.23597656 185.75582031 153.54882812 185.79101562 C156.69890643 185.87360195 159.84943999 185.93847391 163 186 C163 191.28 163 196.56 163 202 C156.70146347 202.24767385 150.4057714 202.42886045 144.10351562 202.54931641 C141.96141184 202.59953209 139.81964961 202.66772347 137.67871094 202.75439453 C119.8181787 203.45919734 119.8181787 203.45919734 115.31054688 199.84155273 C113.75511447 197.23420931 112.85268186 194.90089116 112 192 C104.43009357 181.27596589 91.2097492 174.65187688 78.45703125 172.28515625 C62.21007748 170.39957974 48.32506465 174.02649608 35.41015625 184 C30.59094057 188.05828689 27.77531547 191.31015591 25.1875 197.0625 C23.805625 198.691875 22.42375 200.32125 21 202 C14.07 202 7.14 202 0 202 C0 135.34 0 68.68 0 0 Z " fill="#FDFDF0" transform="translate(326,155)"/>
<path d="M0 0 C26.07 0 52.14 0 79 0 C79 56.43 79 112.86 79 171 C52.93 171 26.86 171 0 171 C0 114.57 0 58.14 0 0 Z " fill="#F1E9D6" transform="translate(201,186)"/>
<path d="M0 0 C5.94 0 11.88 0 18 0 C18.66 1.65 19.32 3.3 20 5 C23.08563461 7.05708974 23.70834489 7.24778176 27.18920898 7.23950195 C28.03116318 7.24323318 28.87311737 7.24696442 29.74058533 7.25080872 C30.64990311 7.24667465 31.55922089 7.24254059 32.49609375 7.23828125 C34.43685582 7.25371773 36.37761114 7.27002256 38.31835938 7.28710938 C41.36595604 7.30346674 44.41305702 7.31255724 47.46069336 7.30541992 C63.26939635 7.29122319 74.8868306 8.0338494 86.8125 19.5390625 C90.21614524 23.36816339 92.6528574 27.46708086 95 32 C95.4125 32.71414062 95.825 33.42828125 96.25 34.1640625 C98.69101593 38.55450087 99.7594273 41.87386576 99 47 C97.31289794 50.31171886 96.12532837 52.41070523 92.79899675 54.15258777 C89.38583256 55.18594269 86.47218759 55.24824868 82.90355206 55.24609566 C82.19710775 55.24840335 81.49066345 55.25071103 80.76281175 55.25308865 C78.3896874 55.25839298 76.01683306 55.24940104 73.64372253 55.24050903 C71.92761446 55.24138101 70.21150664 55.24313185 68.49540025 55.24568737 C63.77500988 55.25016641 59.05471 55.24214954 54.33433115 55.23213124 C49.24575528 55.22350708 44.15718464 55.22641617 39.06860352 55.22793579 C30.25073726 55.2289853 21.43290056 55.22270183 12.61504173 55.21146011 C-0.13415227 55.19521698 -12.88333195 55.18999832 -25.63253518 55.18748413 C-46.31647362 55.18310516 -67.00039629 55.16979059 -87.68432617 55.15087891 C-107.77872641 55.13252533 -127.87312237 55.11836627 -147.9675293 55.10986328 C-149.20581884 55.10933783 -150.44410839 55.10881239 -151.71992186 55.10827102 C-157.93195824 55.10566097 -164.14399464 55.10313355 -170.35603106 55.10064721 C-221.9040317 55.07990843 -273.45201484 55.04452891 -325 55 C-325 49.72 -325 44.44 -325 39 C-323.7550174 39.00129882 -322.51003479 39.00259764 -321.22732544 39.00393581 C-291.66420156 39.03321666 -262.10131378 39.02641711 -232.53823096 38.97527504 C-228.89837184 38.96900981 -225.25851228 38.96304862 -221.61865234 38.95727539 C-220.89403144 38.95612095 -220.16941053 38.95496651 -219.42283142 38.95377708 C-207.69467723 38.93581699 -195.96665999 38.94247914 -184.23850822 38.95826416 C-172.20148597 38.97391594 -160.16469749 38.96305327 -148.12771606 38.92765242 C-141.367811 38.90853018 -134.60835232 38.90160278 -127.84844971 38.92530632 C-121.48544525 38.94641631 -115.12333801 38.93481609 -108.76041222 38.89815521 C-106.42557268 38.89046326 -104.09065847 38.89470996 -101.75586891 38.91181374 C-98.56526371 38.9333959 -95.37770764 38.91188355 -92.18725586 38.87974548 C-91.26505816 38.89624443 -90.34286045 38.91274337 -89.39271736 38.92974228 C-83.17361513 38.80411363 -80.06138718 37.11597338 -75.61544323 32.78256136 C-73.47188301 30.41724913 -71.60504097 27.9555724 -69.8046875 25.3203125 C-63.2238735 16.74442245 -56.72443301 8.65466552 -45.49560547 6.89160156 C-34.35769137 5.73515595 -23.03311077 6.08988753 -11.87889099 6.90530396 C-7.01056503 7.25715124 -7.01056503 7.25715124 -2.4597168 5.76855469 C-0.65526541 3.84080255 -0.65526541 3.84080255 0 0 Z " fill="#C5E671" transform="translate(340,85)"/>
<path d="M0 0 C26.73 0 53.46 0 81 0 C87 14 87 14 87 16 C85.7509211 16.00879936 85.7509211 16.00879936 84.47660828 16.01777649 C76.63364765 16.07565109 68.79097341 16.14769735 60.94829082 16.23571491 C56.91614971 16.28046588 52.88411073 16.31971128 48.85180664 16.34643555 C44.96126837 16.37242182 41.07112217 16.41279023 37.18082619 16.46318626 C35.69570602 16.47988681 34.21051799 16.49138123 32.725317 16.49761391 C30.64678095 16.5072209 28.56925515 16.53523621 26.4909668 16.56762695 C25.30738083 16.57873001 24.12379486 16.58983307 22.90434265 16.60127258 C20.05960848 16.80080694 20.05960848 16.80080694 18.11857605 18.11283875 C16.43256915 20.95731847 16.61830512 23.33725966 16.61181641 26.62695312 C16.60393097 27.62987648 16.60393097 27.62987648 16.59588623 28.65306091 C16.58268475 30.86269507 16.59142419 33.07160854 16.6015625 35.28125 C16.59954179 36.81677387 16.59663038 38.3522968 16.59286499 39.88781738 C16.58844146 43.10580585 16.59487341 46.32354448 16.60888672 49.54150391 C16.62597889 53.66773616 16.61613782 57.79338304 16.59816933 61.91959381 C16.58733212 65.09031592 16.59077748 68.26089909 16.5985527 71.43162537 C16.6005549 72.95307993 16.59809474 74.47454707 16.59111404 75.99598694 C16.58350028 78.12201378 16.59510118 80.24709083 16.61181641 82.37304688 C16.61420319 83.58311401 16.61658997 84.79318115 16.61904907 86.03991699 C16.75743366 88.97421375 16.75743366 88.97421375 18.33676147 90.85168457 C20.11414864 92.19291995 20.11414864 92.19291995 23 93 C23 98.28 23 103.56 23 109 C24.81886719 108.95359375 26.63773437 108.9071875 28.51171875 108.859375 C30.90362941 108.82185483 33.29555783 108.78545494 35.6875 108.75 C36.88568359 108.71648437 38.08386719 108.68296875 39.31835938 108.6484375 C41.05375977 108.62910156 41.05375977 108.62910156 42.82421875 108.609375 C43.88729248 108.58842773 44.95036621 108.56748047 46.0456543 108.54589844 C49.74046543 109.1138142 51.38319087 110.37577277 54 113 C54.625 115.9375 54.625 115.9375 54 119 C51.827365 121.57285724 50.02006162 123.48996919 47 125 C45.18658158 125.08471364 43.37005839 125.10721083 41.5546875 125.09765625 C39.94013672 125.09282227 39.94013672 125.09282227 38.29296875 125.08789062 C37.16503906 125.07951172 36.03710938 125.07113281 34.875 125.0625 C33.17150391 125.05573242 33.17150391 125.05573242 31.43359375 125.04882812 C28.62234362 125.03701615 25.8111977 125.02054507 23 125 C23.01918991 125.89091843 23.03837982 126.78183685 23.05815125 127.69975281 C23.23636719 136.10086932 23.39976908 144.50211578 23.54658794 152.90384197 C23.62258813 157.22313386 23.7042878 161.54216023 23.79907227 165.86108398 C23.89035516 170.03005699 23.96658875 174.1990599 24.03244972 178.36850929 C24.06019467 179.95819147 24.09333689 181.54778902 24.13199425 183.13724327 C24.18526903 185.36584348 24.21924184 187.59397416 24.2487793 189.82299805 C24.27320602 191.09096725 24.29763275 192.35893646 24.32279968 193.66532898 C24 197 24 197 21 202 C14.07 202 7.14 202 0 202 C0 135.34 0 68.68 0 0 Z " fill="#F2EAD7" transform="translate(326,155)"/>
<path d="M0 0 C1.1645874 -0.0071553 2.3291748 -0.01431061 3.52905273 -0.02168274 C7.38434903 -0.03861196 11.2384895 -0.0191405 15.09375 0.00219727 C17.76889607 0.00136896 20.44400171 -0.00103335 23.11914062 -0.00511169 C28.72800036 -0.00963201 34.33652653 0.00623286 39.9453125 0.03417969 C46.42794355 0.06623176 52.90997303 0.06621595 59.39264679 0.04896492 C65.63122595 0.03309562 71.86958476 0.03983583 78.1081543 0.05690193 C80.76195786 0.06209244 83.41577876 0.06159147 86.06958008 0.05535698 C89.77593494 0.04991875 93.48126215 0.07023765 97.1875 0.09765625 C98.28892334 0.09113037 99.39034668 0.08460449 100.52514648 0.07788086 C101.53456299 0.09060532 102.54397949 0.10332977 103.58398438 0.11643982 C104.46002319 0.11924674 105.33606201 0.12205366 106.23864746 0.12494564 C109.3968013 0.80369504 110.60679731 2.1345668 112.59375 4.63110352 C113.1084137 7.70471191 113.1084137 7.70471191 113.12719727 11.35571289 C113.13581284 12.02286819 113.14442841 12.6900235 113.15330505 13.37739563 C113.17595982 15.57694583 113.16922869 17.77522152 113.16015625 19.97485352 C113.16539185 21.50655496 113.1716681 23.03825316 113.17893982 24.56994629 C113.18934281 27.77782377 113.18478406 30.98525762 113.17016602 34.19311523 C113.15297101 38.30272056 113.17648078 42.41092869 113.21165562 46.52037811 C113.23362198 49.68260958 113.2321903 52.84450624 113.2238903 56.00679016 C113.22307048 57.52185093 113.22994002 59.0369362 113.24466133 60.55192566 C113.26209715 62.67098766 113.24757957 64.78753315 113.22485352 66.90649414 C113.22389175 68.11132446 113.22292999 69.31615479 113.22193909 70.55749512 C112.59375 73.63110352 112.59375 73.63110352 110.28562927 76.01805115 C106.7467945 78.13862389 103.63682074 78.2249899 99.625 78.19750977 C98.86707153 78.20370834 98.10914307 78.20990692 97.32824707 78.21629333 C95.73137695 78.22337341 94.13443273 78.22024909 92.53759766 78.20751953 C90.10050192 78.19364196 87.66724115 78.22775615 85.23046875 78.26586914 C83.67447823 78.26682036 82.11848293 78.26496137 80.5625 78.26000977 C79.83840942 78.27326797 79.11431885 78.28652618 78.36828613 78.30018616 C74.47261548 78.22882669 72.7167271 77.7260939 69.59960938 75.31835938 C67.59375 72.63110352 67.59375 72.63110352 67.53125 69.00610352 C68.71585832 65.24323004 69.25766532 64.52757204 72.59375 62.63110352 C75.34277344 62.29052734 75.34277344 62.29052734 78.453125 62.33813477 C79.45827148 62.34562744 80.46341797 62.35312012 81.49902344 62.36083984 C82.7677832 62.38815186 84.03654297 62.41546387 85.34375 62.44360352 C89.38625 62.50547852 93.42875 62.56735352 97.59375 62.63110352 C97.59375 47.12110352 97.59375 31.61110352 97.59375 15.63110352 C65.25375 15.63110352 32.91375 15.63110352 -0.40625 15.63110352 C-0.40625 31.14110352 -0.40625 46.65110352 -0.40625 62.63110352 C14.17839926 62.47299114 14.17839926 62.47299114 28.76245117 62.27075195 C30.59553089 62.25906572 32.42862101 62.24887374 34.26171875 62.24047852 C35.20776978 62.22001465 36.1538208 62.19955078 37.12854004 62.1784668 C41.42688921 62.17619103 43.92360863 62.24160524 47.70043945 64.43676758 C49.59375 66.63110352 49.59375 66.63110352 50.21875 70.13110352 C49.59375 73.63110352 49.59375 73.63110352 47.82617188 75.81445312 C42.80425403 78.63681647 37.91785452 78.22171142 32.25 78.19750977 C31.04815063 78.20370834 29.84630127 78.20990692 28.60803223 78.21629333 C26.06958831 78.22339035 23.53109784 78.22021968 20.99267578 78.20751953 C17.10752822 78.19365269 13.22478799 78.22773321 9.33984375 78.26586914 C6.87239524 78.26682032 4.40494372 78.26496161 1.9375 78.26000977 C0.77593384 78.27326797 -0.38563232 78.28652618 -1.58239746 78.30018616 C-2.66702271 78.28765305 -3.75164795 78.27511993 -4.86914062 78.26220703 C-5.82002563 78.26124527 -6.77091064 78.26028351 -7.75061035 78.2592926 C-11.56788273 77.35632037 -13.0494519 75.72082164 -15.40625 72.63110352 C-16.03443909 69.51989746 -16.03443909 69.51989746 -16.03735352 65.99243164 C-16.04450882 65.34624374 -16.05166412 64.70005585 -16.05903625 64.0342865 C-16.07587212 61.90957784 -16.05655543 59.78699489 -16.03515625 57.66235352 C-16.03598544 56.17931952 -16.03844673 54.69628562 -16.04246521 53.21325684 C-16.04531966 50.10958088 -16.03065809 47.00662799 -16.00317383 43.90307617 C-15.96909036 39.93158902 -15.97511188 35.96139431 -15.9938364 31.98984528 C-16.00442248 28.92878513 -15.99545424 25.86802395 -15.98045158 22.80699158 C-15.97528103 21.34302153 -15.9757379 19.87902012 -15.98199654 18.41505432 C-15.98746877 16.36594902 -15.96701504 14.31867209 -15.93969727 12.26977539 C-15.93349869 11.10571167 -15.92730011 9.94164795 -15.9209137 8.74230957 C-14.35675297 -0.71323655 -8.06041351 -0.08556561 0 0 Z " fill="#020202" transform="translate(57.40625,170.368896484375)"/>
<path d="M0 0 C9.51661329 6.69823166 15.49288187 15.59418303 18.71875 26.6796875 C20.09738055 38.53591019 17.4714386 48.83513428 10.53125 58.5546875 C4.21772693 66.00491862 -4.29051608 71.93636341 -14.17089844 72.85546875 C-26.24031772 73.64028933 -35.7695708 72.1852706 -45.40625 64.35546875 C-53.6436086 56.9933295 -58.82153515 48.68898424 -59.7265625 37.4140625 C-60.23853616 25.61646533 -57.7794409 16.86420716 -50.1953125 7.71484375 C-36.9622976 -6.35536189 -16.92850575 -9.79766257 0 0 Z " fill="#5B4952" transform="translate(416.28125,346.3203125)"/>
<path d="M0 0 C4.67089525 3.94965407 8.03145176 8.56436667 11.125 13.8125 C11.66833984 14.71355469 11.66833984 14.71355469 12.22265625 15.6328125 C16.4187556 24.33727906 15.22611795 36.87597386 12.1875 45.75 C7.70631439 55.82008002 0.15873779 63.27123641 -9.875 67.8125 C-19.67894315 71.19317005 -32.17714135 71.73875802 -41.671875 67.13671875 C-53.41547874 60.07806331 -60.37014189 51.17570368 -63.875 37.8125 C-65.23434478 27.03230491 -63.39106559 17.49934765 -57.125 8.5625 C-42.35541743 -9.54693792 -19.5571162 -14.01205949 0 0 Z " fill="#5B4952" transform="translate(140.875,349.1875)"/>
<path d="M0 0 C32.34 0 64.68 0 98 0 C98 15.51 98 31.02 98 47 C85.75 47.25 85.75 47.25 81.90527344 47.29785156 C80.39755371 47.34377441 80.39755371 47.34377441 78.859375 47.390625 C77.31975098 47.4220459 77.31975098 47.4220459 75.74902344 47.45410156 C72.33976864 48.13110811 71.16360992 49.33814946 69 52 C68.505 52.99 68.505 52.99 68 54 C62.39 54 56.78 54 51 54 C50.505 54.99 50.505 54.99 50 56 C49.731875 55.05125 49.46375 54.1025 49.1875 53.125 C48.25013412 49.74732727 48.25013412 49.74732727 45 48 C42.88191719 47.6739632 42.88191719 47.6739632 40.52856445 47.68115234 C39.61530396 47.66109131 38.70204346 47.64103027 37.7611084 47.62036133 C36.80482544 47.60900146 35.84854248 47.5976416 34.86328125 47.5859375 C33.98168335 47.56829346 33.10008545 47.55064941 32.19177246 47.5324707 C28.89886711 47.46940935 25.60565614 47.42321873 22.3125 47.375 C11.2678125 47.189375 11.2678125 47.189375 0 47 C0 31.49 0 15.98 0 0 Z " fill="#D4E9FB" transform="translate(57,186)"/>
<path d="M0 0 C20.79 0 41.58 0 63 0 C65.76375 6.64125 68.5275 13.2825 71.375 20.125 C72.24431152 22.21086426 73.11362305 24.29672852 74.00927734 26.44580078 C74.70166371 28.11223559 75.39389417 29.7787352 76.0859375 31.4453125 C76.44276611 32.29988037 76.79959473 33.15444824 77.16723633 34.03491211 C77.51214111 34.86659912 77.8570459 35.69828613 78.21240234 36.55517578 C78.50996429 37.27021271 78.80752625 37.98524963 79.11410522 38.72195435 C80.17324131 41.44548362 81.07591229 44.22773687 82 47 C54.94 47 27.88 47 0 47 C0 31.49 0 15.98 0 0 Z " fill="#D4E9FB" transform="translate(357,186)"/>
<path d="M0 0 C56.76 0 113.52 0 172 0 C172 5.28 172 10.56 172 16 C169.93073242 16.01458252 167.86146484 16.02916504 165.72949219 16.04418945 C158.89211098 16.0945298 152.05495765 16.16112376 145.21780014 16.23571491 C141.07246596 16.28043982 136.92723055 16.31969109 132.78173828 16.34643555 C128.78097651 16.37244764 124.78059434 16.41283473 120.78006744 16.46318626 C119.25390597 16.47986925 117.72767881 16.49137463 116.2014389 16.49761391 C114.06324991 16.50723983 111.92603519 16.53527858 109.78808594 16.56762695 C108.5711908 16.57873001 107.35429565 16.58983307 106.1005249 16.60127258 C102.72899493 17.03485124 101.32817752 17.55140624 99 20 C98.67 21.32 98.34 22.64 98 24 C92.06 24 86.12 24 80 24 C79.01 21.525 79.01 21.525 78 19 C74.43773967 16.62515978 71.8888028 16.69402283 67.7746582 16.68115234 C67.04270233 16.67110672 66.31074646 16.6610611 65.55661011 16.65071106 C63.13800845 16.61982815 60.71951775 16.60282996 58.30078125 16.5859375 C56.62354067 16.56722994 54.94630954 16.54765683 53.26908875 16.5272522 C48.85506762 16.47588141 44.44101595 16.43628223 40.02685547 16.39910889 C35.5223838 16.3591002 31.01803967 16.30799358 26.51367188 16.2578125 C17.67586185 16.16099458 8.83799939 16.07763427 0 16 C0 10.72 0 5.44 0 0 Z " fill="#725C66" transform="translate(170,372)"/>
<path d="M0 0 C7.92 0 15.84 0 24 0 C24 4.95 24 9.9 24 15 C61.62 15 99.24 15 138 15 C138 15.33 138 15.66 138 16 C137.3997787 16.00146656 136.7995574 16.00293312 136.18114758 16.00444412 C121.58420538 16.04147717 106.98746623 16.10044512 92.39071941 16.18390274 C85.33184611 16.22373184 78.27308492 16.25610452 71.21411133 16.27099609 C64.4058784 16.28537955 57.59800533 16.32044611 50.78992653 16.36830902 C48.18835272 16.38318311 45.58672934 16.39104444 42.98511314 16.39188385 C39.34996579 16.39423707 35.71579125 16.42118542 32.08081055 16.45410156 C30.99755997 16.4490712 29.91430939 16.44404083 28.79823303 16.43885803 C27.31536301 16.45972725 27.31536301 16.45972725 25.80253601 16.48101807 C24.51248673 16.48654882 24.51248673 16.48654882 23.19637585 16.49219131 C20.84470427 16.82544735 20.84470427 16.82544735 19.2240715 18.84508133 C17.53085115 21.82591385 17.61174245 24.12266201 17.59594727 27.54101562 C17.58565239 28.51248787 17.58565239 28.51248787 17.57514954 29.50358582 C17.5568925 31.63803208 17.5607166 33.77174264 17.56640625 35.90625 C17.56184427 37.39310953 17.55653865 38.87996694 17.55052185 40.36682129 C17.54159325 43.48047461 17.54401128 46.5938714 17.55395508 49.70751953 C17.56545182 53.69587239 17.54522234 57.68334079 17.51603794 61.67157745 C17.49768552 64.74112563 17.49796627 67.81046139 17.50367546 70.88005066 C17.50382876 72.35045107 17.49777744 73.8208658 17.48538399 75.29121399 C17.47049037 77.34770107 17.48113526 79.40254833 17.49829102 81.45898438 C17.49845718 82.62828491 17.49862335 83.79758545 17.49879456 85.00231934 C18.1035528 88.61934326 19.16220842 89.75853989 22 92 C22.66 92.33 23.32 92.66 24 93 C24 102.24 24 111.48 24 121 C16.08 121 8.16 121 0 121 C0 81.07 0 41.14 0 0 Z " fill="#F2EBD8" transform="translate(25,155)"/>
<path d="M0 0 C6.39237684 3.66564869 11.34430806 9.28292419 13.6875 16.3125 C14.67941131 24.03523806 13.08390007 29.90568582 8.6875 36.3125 C4.19307168 41.3713449 -0.24463939 43.82837145 -7.00390625 44.6328125 C-14.87947641 45.09548967 -20.35790949 43.58083451 -26.3125 38.3125 C-30.88503385 33.23698743 -32.68473487 28.50425965 -32.9375 21.6875 C-32.53656714 14.10541419 -30.58188161 9.15444022 -25 4 C-17.52500987 -1.81212156 -8.85350209 -4.10936135 0 0 Z " fill="#020102" transform="translate(405.3125,358.6875)"/>
<path d="M0 0 C6.32800181 3.51224 10.4696736 8.03461147 12.75 14.9375 C13.51919921 21.6205425 13.11150299 28.01420643 9.75 33.9375 C7.5625 36.625 7.5625 36.625 4.75 38.9375 C4.20730469 39.40414062 3.66460937 39.87078125 3.10546875 40.3515625 C-2.87500431 44.85895062 -8.99907836 44.89944955 -16.25 43.9375 C-22.54466087 42.19751244 -26.63588391 38.25171431 -30.25 32.9375 C-33.4170954 27.34229813 -34.13896214 22.23925383 -33.25 15.9375 C-30.68602497 8.02501791 -25.23841249 3.1913163 -18.25 -1.0625 C-11.94199068 -3.16516977 -6.03533846 -2.78483847 0 0 Z " fill="#020202" transform="translate(126.25,359.0625)"/>
<path d="M0 0 C31.02 0 62.04 0 94 0 C94 5.28 94 10.56 94 16 C62.98 16 31.96 16 0 16 C0 10.72 0 5.44 0 0 Z " fill="#755E68" transform="translate(46,93)"/>
<path d="M0 0 C7.26 0 14.52 0 22 0 C22 15.51 22 31.02 22 47 C14.74 47 7.48 47 0 47 C0 31.49 0 15.98 0 0 Z " fill="#B2D8F6" transform="translate(357,186)"/>
<path d="M0 0 C19.14 0 38.28 0 58 0 C63 12 63 12 63 15 C42.21 15 21.42 15 0 15 C0 10.05 0 5.1 0 0 Z " fill="#FEFEF0" transform="translate(349,155)"/>
<path d="M0 0 C15.84 0 31.68 0 48 0 C48 5.28 48 10.56 48 16 C32.49 16 16.98 16 1 16 C0.67 10.72 0.34 5.44 0 0 Z " fill="#725C66" transform="translate(449,372)"/>
<path d="M0 0 C15.84 0 31.68 0 48 0 C47.67 5.28 47.34 10.56 47 16 C31.49 16 15.98 16 0 16 C0 10.72 0 5.44 0 0 Z " fill="#725C66" transform="translate(15,372)"/>
<path d="M0 0 C5.61 0 11.22 0 17 0 C17 11.55 17 23.1 17 35 C11.39 35 5.78 35 0 35 C0 23.45 0 11.9 0 0 Z " fill="#F4D779" transform="translate(25,291)"/>
<path d="M0 0 C5.28 0 10.56 0 16 0 C16 11.55 16 23.1 16 35 C10.72 35 5.44 35 0 35 C0 23.45 0 11.9 0 0 Z " fill="#FBDD7C" transform="translate(473,291)"/>
<path d="M0 0 C1.27294922 -0.00515625 2.54589844 -0.0103125 3.85742188 -0.015625 C4.51782471 -0.00724609 5.17822754 0.00113281 5.85864258 0.00976562 C7.86988473 0.03115406 9.87754149 0.00997255 11.88867188 -0.015625 C13.16291016 -0.01046875 14.43714844 -0.0053125 15.75 0 C17.49494751 0.00676758 17.49494751 0.00676758 19.27514648 0.01367188 C23.07813458 0.6353339 24.75590495 1.80834273 27.44140625 4.53125 C28.06640625 7.46875 28.06640625 7.46875 27.44140625 10.53125 C24.86523568 13.75272357 23.37216864 15.34572908 19.27514648 16.16235352 C18.11184814 16.16162842 16.9485498 16.16090332 15.75 16.16015625 C13.83864258 16.16305664 13.83864258 16.16305664 11.88867188 16.16601562 C11.23036377 16.15352783 10.57205566 16.14104004 9.89379883 16.12817383 C7.88025632 16.09377307 5.87108768 16.10754607 3.85742188 16.12695312 C-5.87538823 16.05303305 -5.87538823 16.05303305 -8.93725586 13.71459961 C-11.30333995 10.52834904 -11.11063288 8.39552391 -10.55859375 4.53125 C-7.46607772 0.36257006 -5.06103052 0.01964767 0 0 Z " fill="#030302" transform="translate(352.55859375,263.46875)"/>
<path d="M0 0 C-1.409014 1.63918881 -2.8184859 3.27798576 -4.22998047 4.91503906 C-5.39042493 6.2819626 -6.53350855 7.66385886 -7.65673828 9.06152344 C-18.91385338 22.95494241 -18.91385338 22.95494241 -27.71484375 24.2578125 C-32.82999119 24.62627833 -37.89784392 24.49414114 -43 24 C-41.60348009 22.37216797 -40.20618477 20.74499666 -38.80566406 19.12060547 C-37.59892936 17.70339378 -36.40810547 16.27248343 -35.23339844 14.82861328 C-24.47491024 1.74837577 -16.97934831 -2.68649461 0 0 Z " fill="#AFD82D" transform="translate(309,93)"/>
<path d="M0 0 C7.59 0 15.18 0 23 0 C23 4.95 23 9.9 23 15 C46.1 15 69.2 15 93 15 C93 10.05 93 5.1 93 0 C93.33 0 93.66 0 94 0 C94 5.28 94 10.56 94 16 C62.98 16 31.96 16 0 16 C0 10.72 0 5.44 0 0 Z " fill="#64505A" transform="translate(46,93)"/>
<path d="M0 0 C8.25 0 16.5 0 25 0 C24.67 5.28 24.34 10.56 24 16 C16.08 16 8.16 16 0 16 C0 10.72 0 5.44 0 0 Z " fill="#F0E8D6" transform="translate(25,341)"/>
<path d="M0 0 C7.26 0 14.52 0 22 0 C22 4.95 22 9.9 22 15 C14.74 15 7.48 15 0 15 C0 10.05 0 5.1 0 0 Z " fill="#B3DD2D" transform="translate(15,124)"/>
<path d="M0 0 C4.10238116 1.34259747 5.44380003 2.30374172 7.4375 6.125 C7.4375 9.90410616 7.27039714 12.13193033 4.8125 15.0625 C1.46067947 16.56199866 -0.93230218 16.57877473 -4.5625 16.125 C-7 14.5625 -7 14.5625 -8.5625 12.125 C-9.28718526 7.69636786 -9.05704049 5.84433162 -6.5 2.125 C-3.5625 0.125 -3.5625 0.125 0 0 Z " fill="#F4F4E7" transform="translate(396.5625,371.875)"/>
<path d="M0 0 C3.62336332 2.6571331 4.85568506 4.08600539 5.5625 8.5625 C5 12 5 12 3.4375 14.4375 C0.01685857 16.63021887 -2.00951279 16.63007693 -6 16 C-9 13.9375 -9 13.9375 -11 11 C-11.1526226 6.6502558 -10.71471806 4.7742779 -7.75 1.5625 C-4.68825146 -0.17712985 -3.43375729 -0.77259539 0 0 Z " fill="#F5F5E8" transform="translate(119,372)"/>
</svg>
