<?xml version="1.0" encoding="UTF-8"?>
<svg version="1.1" xmlns="http://www.w3.org/2000/svg" width="512" height="512">
<path d="M0 0 C0.825 -0.00386719 1.65 -0.00773438 2.5 -0.01171875 C9.01757676 1.811166 11.82935093 8.46604585 14.95898438 13.94726562 C15.87647461 15.58211914 15.87647461 15.58211914 16.8125 17.25 C17.80911939 19.00172369 18.80574513 20.75344379 19.80270386 22.50497437 C20.84346531 24.33652815 21.88045976 26.17016874 22.91650391 28.00439453 C24.93751637 31.58070328 26.97217715 35.14907586 29.01171875 38.71484375 C29.34053543 39.28973038 29.66935211 39.864617 30.00813293 40.45692444 C30.67231881 41.61802674 31.33654913 42.77910362 32.00082397 43.94015503 C33.00708716 45.69989392 34.01215223 47.46031176 35.0168457 49.22094727 C39.48864322 57.05621977 43.9863078 64.87627684 48.5 72.6875 C53.66831052 81.63304468 58.81416326 90.59113416 63.9375 99.5625 C64.26860779 100.14221558 64.59971558 100.72193115 64.94085693 101.31921387 C68.31521064 107.22766638 71.68690462 113.13763089 75.05583191 119.04917908 C76.74476211 122.01240498 78.43465122 124.97508312 80.125 127.9375 C80.45746735 128.52026703 80.78993469 129.10303406 81.13247681 129.70346069 C85.74769243 137.78959693 90.4161144 145.84305079 95.125 153.875 C100.45362814 162.96545581 105.6291316 172.13325529 110.75488281 181.33935547 C115.27510627 189.43924336 119.91960665 197.46008416 124.61157227 205.46142578 C129.10551337 213.13236563 133.53472079 220.83900302 137.9375 228.5625 C143.10054477 237.61839546 148.28365668 246.6621472 153.5 255.6875 C157.33609559 262.32582834 161.1657842 268.96762564 164.96875 275.625 C165.30096054 276.2064679 165.63317108 276.78793579 165.97544861 277.38702393 C167.64879399 280.31720724 169.31951182 283.24885354 170.98657227 286.18261719 C174.02721605 291.52756932 177.08647061 296.85818714 180.23129272 302.1427002 C181.2941271 303.92881353 182.35177195 305.71790591 183.40820312 307.5078125 C184.72499605 309.7333066 186.05252056 311.95249896 187.39257812 314.1640625 C190.70374584 319.78257609 192.96261935 324.10102988 193 330.6875 C191.28695462 334.97011344 189.05484149 336.64917281 185 338.6875 C181.81538391 339.235672 181.81538391 339.235672 178.1496582 339.48364258 C177.47239307 339.53308329 176.79512794 339.58252399 176.09733963 339.63346291 C173.83250507 339.79555841 171.56687842 339.93875701 169.30078125 340.08203125 C167.66926907 340.19484534 166.0378363 340.30881294 164.40647888 340.42384338 C159.96907876 340.73336682 155.53072747 341.0264678 151.09202576 341.31664276 C146.43668421 341.62374212 141.78237864 341.94582001 137.12792969 342.26611328 C128.20353436 342.87771434 119.27823773 343.47497246 110.35249138 344.0664978 C102.97151764 344.55580945 95.59088681 345.05003205 88.21044922 345.54736328 C87.14997596 345.618809 86.0895027 345.69025473 84.99689388 345.76386547 C82.86001194 345.90783146 80.72313012 346.05179908 78.5862484 346.19576836 C56.05879081 347.71265241 33.5298196 349.20615245 11 350.6875 C11 357.9475 11 365.2075 11 372.6875 C13.99055954 372.3943692 16.98111908 372.1012384 20.06230164 371.79922485 C31.69838078 370.68052043 43.34653108 369.77323006 55.00317383 368.89990234 C57.21987661 368.73228997 59.43656629 368.56450417 61.65324402 368.39656067 C67.60261389 367.94637959 73.55217728 367.49880907 79.50179505 367.05191755 C84.48524104 366.67736915 89.46859119 366.30155405 94.45194358 365.92576277 C106.87052531 364.98932607 119.28929953 364.0554669 131.70816507 363.12280281 C142.4748671 362.31413401 153.24131338 361.50211432 164.00764553 360.68853705 C175.10489931 359.84998262 186.20232305 359.01370557 197.29992121 358.17971957 C203.51396592 357.71270947 209.72794153 357.24482429 215.94175148 356.77470016 C221.77182703 356.33370866 227.60211298 355.89561139 233.43257332 355.45973778 C235.56917296 355.29952535 237.70569657 355.13829529 239.84213638 354.9759655 C242.76103798 354.75434663 245.68019362 354.53643 248.59944153 354.31942749 C249.4411686 354.25464561 250.28289567 354.18986373 251.15012962 354.12311876 C266.35627503 353.00733783 266.35627503 353.00733783 272 357.6875 C273.81927531 361.32605061 273.69548045 364.78880371 273 368.6875 C270.93278499 373.37628831 268.26135795 377.65843085 265.5625 382 C264.78599096 383.28140011 264.01128292 384.56389314 263.23828125 385.84741211 C261.63628562 388.49964055 260.02289796 391.14437478 258.39892578 393.78320312 C256.14055799 397.45295152 253.90815254 401.13781093 251.68359375 404.828125 C248.89654882 409.44645429 246.09682164 414.0567759 243.28515625 418.66015625 C240.32067119 423.5137731 237.37196838 428.37662777 234.43359375 433.24609375 C233.2994809 435.12313616 232.16515238 437.00004808 231.03076172 438.87692261 C229.97975029 440.61752826 228.93122884 442.35963666 227.8828125 444.10180664 C209.30330189 474.80884545 187.58620092 497.23729453 152.390625 507.86328125 C143.62201222 509.99482191 135.29716751 510.98194432 126.27560425 510.95492554 C124.58278216 510.96172221 124.58278216 510.96172221 122.85576165 510.96865618 C119.10155251 510.98124293 115.34748952 510.9796835 111.59326172 510.97802734 C108.89018727 510.98401621 106.18712396 510.99076679 103.48405457 510.99838257 C96.91921486 511.01493316 90.35441109 511.02048943 83.78955226 511.02160732 C78.44765945 511.02256072 73.1057784 511.02668549 67.76388931 511.03300858 C52.58649388 511.0506055 37.40912662 511.05984998 22.23172091 511.05834763 C21.00665285 511.05822776 21.00665285 511.05822776 19.75683594 511.05810547 C18.53025519 511.05798283 18.53025519 511.05798283 17.27889504 511.05785771 C4.03788404 511.05704546 -9.20301302 511.07617181 -22.44399108 511.1043822 C-36.07124903 511.1331842 -49.69845156 511.14691846 -63.32574069 511.14519465 C-70.96372156 511.14453322 -78.60158301 511.1499162 -86.23953629 511.17155075 C-92.74446176 511.18985928 -99.2492137 511.19403134 -105.75415392 511.1805319 C-109.06581877 511.17405013 -112.3768832 511.17592865 -115.68855858 511.1912384 C-146.46575789 511.3242248 -174.81856652 503.99838553 -198 482.6875 C-198.5165918 482.21860352 -199.03318359 481.74970703 -199.56542969 481.26660156 C-216.05761074 466.14469074 -225.59102081 448.03785559 -232.57958984 426.95068359 C-233.37807058 424.55328072 -234.20193961 422.16559126 -235.02734375 419.77734375 C-240.76783884 402.83899234 -240.76783884 402.83899234 -239 396.6875 C-237.04763404 393.74193866 -235.85015957 391.97806473 -232.45626163 390.81810951 C-231.47336879 390.70496595 -230.49047594 390.5918224 -229.47779846 390.47525024 C-227.73696834 390.26783644 -227.73696834 390.26783644 -225.96096992 390.05623245 C-224.65384985 389.93455074 -223.34672977 389.81286903 -222 389.6875 C-220.94857099 389.5884975 -220.94857099 389.5884975 -219.87590098 389.48749495 C-214.0407495 388.94983498 -208.19907607 388.51411166 -202.35522461 388.08349609 C-200.40232701 387.93584227 -198.44946225 387.78775367 -196.49662781 387.63926697 C-191.22851216 387.2400444 -185.95994001 386.84718927 -180.69123912 386.45577574 C-175.15798296 386.0438585 -169.62511131 385.62683343 -164.09217834 385.21060181 C-154.804803 384.5127587 -145.51712141 383.81911078 -136.22924805 383.12792969 C-125.51389034 382.33046236 -114.79906371 381.52614018 -104.08449167 380.71819055 C-93.74621037 379.93879352 -83.40755515 379.16446598 -73.06872749 378.39235306 C-68.68255556 378.06468981 -64.29652353 377.73523766 -59.91059685 377.40430832 C-54.74061855 377.01443654 -49.57032656 376.62901696 -44.39976692 376.24693489 C-42.50992577 376.10657855 -40.62019493 375.96472696 -38.73059082 375.82121468 C-29.12848902 375.09290104 -19.63863601 374.51797525 -10 374.6875 C-10 367.0975 -10 359.5075 -10 351.6875 C-13.77405273 351.97737793 -17.54810547 352.26725586 -21.43652344 352.56591797 C-36.8730787 353.72327874 -52.3225777 354.62984599 -67.7771883 355.50572062 C-71.6068913 355.72315994 -75.43646053 355.94293412 -79.26605225 356.162323 C-85.66620931 356.52861008 -92.0664693 356.89305298 -98.46679688 357.25634766 C-105.84674283 357.67527252 -113.22650595 358.09731194 -120.60618424 358.52092373 C-127.76459155 358.9317549 -134.92312562 359.34033624 -142.08171844 359.74792099 C-145.10709652 359.920219 -148.13242758 360.09331091 -151.15772247 360.26706314 C-154.70703527 360.47081612 -158.25645494 360.67259656 -161.80596542 360.87287521 C-163.71885324 360.98127213 -165.63163042 361.09161591 -167.54440308 361.20202637 C-184.48236905 362.15205897 -184.48236905 362.15205897 -190 358.6875 C-192.72604216 354.59843676 -192.74147102 351.49036181 -192 346.6875 C-190.68528919 343.41332979 -188.86594805 340.57082066 -186.9375 337.625 C-186.40237793 336.77139893 -185.86725586 335.91779785 -185.31591797 335.03833008 C-184.16134505 333.2005162 -182.99795262 331.36821907 -181.82666016 329.54101562 C-179.35245246 325.67593415 -176.92905155 321.77993346 -174.50219727 317.88500977 C-172.60340892 314.84037958 -170.69631066 311.80105475 -168.7890625 308.76171875 C-165.14216648 302.93394541 -161.56245611 297.06716455 -158 291.1875 C-152.65719238 282.37307076 -147.22603518 273.61798981 -141.75048828 264.88549805 C-136.40119807 256.34776568 -131.1143605 247.77260922 -125.84033203 239.18823242 C-121.73946669 232.5134622 -117.62752649 225.8458148 -113.5 219.1875 C-108.65090785 211.36382452 -103.82155447 203.5281747 -99 195.6875 C-91.50360465 183.49794197 -83.97555314 171.32825813 -76.43652344 159.16503906 C-74.85319044 156.61022733 -73.27021895 154.05519219 -71.6875 151.5 C-71.15729248 150.6440625 -70.62708496 149.788125 -70.08081055 148.90625 C-66.4267326 143.00313196 -62.78751434 137.091008 -59.15307617 131.17578125 C-52.65501435 120.59990599 -46.11254138 110.05403713 -39.51757812 99.53833008 C-34.60728045 91.69419449 -29.78114003 83.80100736 -25.00537109 75.87426758 C-24.48023926 75.00568115 -23.95510742 74.13709473 -23.4140625 73.2421875 C-22.88490234 72.34338867 -22.35574219 71.44458984 -21.81054688 70.51855469 C-20 67.6875 -20 67.6875 -17.61132812 64.73925781 C-9.08797559 53.94011181 -9.91111905 42.95661692 -10.25 29.6875 C-10.30933774 26.49049854 -10.35517482 23.29493067 -10.37176514 20.09741211 C-10.38403708 18.12262287 -10.42149335 16.14777613 -10.48809814 14.17407227 C-10.53487325 9.72172329 -10.47438725 6.65425899 -7.63183594 3.08666992 C-4.79180061 0.49770636 -3.77274297 -0.11200331 0 0 Z " fill="#010101" transform="translate(239,1.3125)"/>
<path d="M0 0 C-0.28230469 0.69738281 -0.56460937 1.39476562 -0.85546875 2.11328125 C-1.62966049 4.06593549 -2.33944224 6.0451601 -2.98828125 8.04296875 C-4.56979916 11.79849062 -6.0397814 14.17472014 -9 17 C-14.43589134 19.09253857 -20.65546089 18.71802832 -26.39501953 18.859375 C-33.02051051 19.11782568 -39.61745564 19.76854571 -46.22085571 20.35250854 C-49.33528091 20.62453992 -52.45089599 20.88059117 -55.5668335 21.1346283 C-57.73421185 21.31191948 -59.90116975 21.49377387 -62.06811523 21.67626953 C-64.51709986 21.87790589 -66.96706144 22.06838017 -69.41821289 22.24169922 C-70.39781982 22.31533691 -71.37742676 22.38897461 -72.38671875 22.46484375 C-73.21389404 22.52148193 -74.04106934 22.57812012 -74.89331055 22.63647461 C-77.31622032 22.91727386 -77.31622032 22.91727386 -80.1875 25 C-82.65622198 29.08616052 -83.02466433 32.34559254 -82 37 C-80.38894779 39.84241028 -80.38894779 39.84241028 -77 41 C-66.59998086 41.88991942 -55.86970046 40.37755701 -45.5 39.5 C-42.91137454 39.28452224 -40.32264353 39.07044349 -37.73376465 38.85803223 C-36.13536992 38.72652327 -34.53713332 38.59307357 -32.93908691 38.45739746 C-29.60706601 38.18011649 -26.34678195 38 -23 38 C-24.52131364 42.17016037 -26.58071881 45.90272475 -28.8515625 49.69921875 C-29.22928802 50.33430862 -29.60701355 50.9693985 -29.9961853 51.62373352 C-30.79613812 52.96540052 -31.59806982 54.30588938 -32.40185547 55.64526367 C-33.60804751 57.65919509 -34.80232223 59.67986035 -35.99609375 61.70117188 C-46.43778709 79.23416045 -59.01013505 94.03310096 -77 104 C-77.59151855 104.32871094 -78.18303711 104.65742188 -78.79248047 104.99609375 C-97.25628055 114.98791384 -115.86448948 115.58709507 -136.42285156 115.50170898 C-139.0431548 115.5054994 -141.66345602 115.51100536 -144.28375244 115.51808167 C-150.61875623 115.53190533 -156.95355862 115.52454026 -163.28855255 115.50940608 C-170.68473462 115.49241882 -178.08086829 115.49577196 -185.47706386 115.49950016 C-198.6816897 115.50535839 -211.88621973 115.49128544 -225.09082031 115.46655273 C-237.87080471 115.44261846 -250.65066126 115.43555869 -263.43066406 115.44604492 C-277.39179428 115.45747997 -291.35286559 115.45935382 -305.31399512 115.44494683 C-306.8052748 115.44342118 -308.29655448 115.44190082 -309.78783417 115.44038582 C-310.52133597 115.439628 -311.25483777 115.43887019 -312.01056691 115.43808941 C-317.15286912 115.43336807 -322.29514481 115.43518252 -327.43744659 115.43945122 C-334.3684302 115.44492068 -341.29923505 115.43403661 -348.23018646 115.41249657 C-350.76570544 115.40695658 -353.3012414 115.40643759 -355.83676147 115.41144943 C-384.44386653 115.46088428 -410.22666166 109.64933658 -431.1484375 88.9296875 C-432.10249853 87.95658333 -433.05321911 86.98018882 -434 86 C-434.81726563 85.15695312 -435.63453125 84.31390625 -436.4765625 83.4453125 C-440.14846161 79.47966147 -442.61847423 75.87345339 -445 71 C-416.80454302 68.52034901 -388.59534771 66.22469722 -360.37771225 64.01386261 C-357.83268505 63.81408447 -355.28774561 63.61322201 -352.74282837 63.41204834 C-320.44504395 60.86129207 -320.44504395 60.86129207 -304.94458008 60.18188477 C-299.43148161 59.92767555 -293.93691097 59.52051245 -288.4375 59.0625 C-287.38796143 58.97750244 -286.33842285 58.89250488 -285.25708008 58.80493164 C-278.88835845 58.2774742 -272.53810853 57.64794553 -266.1875 56.9375 C-260.08201176 56.25619539 -254.01282019 55.81198944 -247.875 55.5625 C-234.49419436 55.007055 -221.17339898 53.64024681 -207.84619141 52.36425781 C-204.42316857 52.04007665 -200.99931039 51.73104735 -197.57421875 51.4296875 C-195.77861578 51.26595423 -193.98304011 51.10192114 -192.1875 50.9375 C-191.39472656 50.87054932 -190.60195313 50.80359863 -189.78515625 50.73461914 C-186.15206419 50.38913357 -183.07396866 50.0620887 -180 48 C-177.6979051 44.77706714 -177.52489346 41.88003676 -178 38 C-180.15090451 34.66238955 -181.20412799 33.26529067 -185 32 C-186.96955473 31.91715385 -186.96955473 31.91715385 -189.13208008 32.04199219 C-190.39093269 32.09688812 -190.39093269 32.09688812 -191.67521667 32.15289307 C-192.59321548 32.2004071 -193.51121429 32.24792114 -194.45703125 32.296875 C-195.91590508 32.36838776 -195.91590508 32.36838776 -197.4042511 32.44134521 C-208.58289402 33.02721421 -219.73117681 33.97128002 -230.8833313 34.92520142 C-237.63224736 35.50142149 -244.3824737 36.06183529 -251.1328125 36.62109375 C-251.83332544 36.6792243 -252.53383839 36.73735485 -253.25557899 36.79724693 C-268.51774776 38.06187193 -283.78889354 39.19505897 -299.0625 40.3125 C-319.65073575 41.81927438 -340.23166004 43.40415513 -360.80859375 45.05859375 C-361.92834154 45.14856943 -363.04808933 45.23854511 -364.20176888 45.33124733 C-375.44710361 46.23521538 -386.69212605 47.14293464 -397.93654728 48.05819798 C-402.16401026 48.4018459 -406.39163754 48.74344354 -410.61929512 49.08468819 C-412.58323766 49.24375101 -414.54710242 49.4037779 -416.51087761 49.56489372 C-429.00017647 50.58944888 -441.4823241 51.41185952 -454 52 C-455.87311188 47.70050832 -457.50691099 43.61620045 -458.6875 39.0625 C-459.06455078 37.62583984 -459.06455078 37.62583984 -459.44921875 36.16015625 C-459.63097656 35.44730469 -459.81273437 34.73445313 -460 34 C-458.79730469 33.93268677 -458.79730469 33.93268677 -457.5703125 33.86401367 C-454.40856598 33.6841042 -451.24718882 33.4986998 -448.0859375 33.31030273 C-446.12001394 33.19456543 -444.15376429 33.0844059 -442.1875 32.97460938 C-432.72654309 32.41943517 -423.30729501 31.56556494 -413.875 30.6484375 C-393.00016392 28.62847371 -372.08321331 27.16838663 -351.16601562 25.66564941 C-346.94961391 25.36180708 -342.73348627 25.05425485 -338.51735592 24.74667358 C-318.4224057 23.28163844 -298.32842812 21.82265467 -278.21350098 20.65684509 C-269.93360438 20.16675244 -261.69065052 19.44826554 -253.4375 18.625 C-238.22552523 17.13339912 -222.99436026 15.98295718 -207.75 14.875 C-206.5737204 14.78873352 -205.3974408 14.70246704 -204.18551636 14.61358643 C-191.95281214 13.71903917 -179.72646937 12.89876469 -167.47406006 12.33029175 C-161.95725017 12.06806349 -156.48645349 11.64341136 -151 11 C-143.50120778 10.18465513 -136.03472323 9.71240239 -128.5 9.39453125 C-122.63884132 9.1289475 -116.83269509 8.62883744 -111 8 C-104.3332928 7.28124563 -97.69935535 6.78297931 -91 6.5 C-84.53058645 6.22405345 -78.12475332 5.76221585 -71.6875 5.0625 C-62.36797333 4.05488199 -53.03383837 3.44884182 -43.67904663 2.87728882 C-33.84201068 2.27479491 -24.02854294 1.54597084 -14.2175293 0.609375 C-9.45085843 0.16408472 -4.78775123 -0.09107135 0 0 Z " fill="#FDC844" transform="translate(483,377)"/>
<path d="M0 0 C2.79468541 2.79468541 4.21951185 4.93105817 6.08203125 8.35546875 C6.97426392 9.98246704 6.97426392 9.98246704 7.88452148 11.64233398 C8.19815643 12.21925995 8.51179138 12.79618591 8.83493042 13.39059448 C10.51039761 16.4703305 12.20428824 19.5398869 13.8984375 22.609375 C14.24347824 23.23500839 14.58851898 23.86064178 14.9440155 24.50523376 C18.18629698 30.36830033 21.54311785 36.16123253 24.9375 41.9375 C29.97081795 50.51117242 34.94902963 59.11427278 39.875 67.75 C40.20812195 68.33383453 40.5412439 68.91766907 40.88446045 69.51919556 C42.57816928 72.48796371 44.2710615 75.4571963 45.96337891 78.42675781 C49.32652051 84.32801689 52.69378067 90.2269235 56.0625 96.125 C56.39393005 96.70536011 56.72536011 97.28572021 57.0668335 97.88366699 C62.4692909 107.34199473 67.90595541 116.78028384 73.35571289 126.21142578 C78.26708329 134.71605799 83.14305806 143.24056478 88.01025391 151.77050781 C92.81717909 160.19367328 97.6477315 168.60284964 102.5 177 C107.668311 185.94554553 112.81401281 194.90371959 117.9375 203.875 C118.26827545 204.4540509 118.5990509 205.03310181 118.93984985 205.62969971 C122.32441536 211.55503265 125.70595395 217.48207455 129.08128357 223.41267395 C130.44563474 225.80946658 131.81100811 228.2056755 133.17678833 230.60165405 C133.8467427 231.77712367 134.51640357 232.95276063 135.1857605 234.12857056 C138.70065415 240.30014423 142.24903971 246.44748568 145.89453125 252.54296875 C146.50337158 253.56148926 147.11221191 254.58000977 147.73950195 255.62939453 C148.88415668 257.53646454 150.03472522 259.44000175 151.19213867 261.33935547 C151.69592041 262.17740723 152.19970215 263.01545898 152.71875 263.87890625 C153.16154297 264.6066626 153.60433594 265.33441895 154.06054688 266.08422852 C155 268 155 268 155 271 C116.30351127 274.09304215 116.30351127 274.09304215 105.4375 274.5 C95.07571762 274.89477634 84.7551711 275.79118239 74.42297363 276.63861084 C60.72691307 277.75755225 47.02919323 278.6409177 33.30615234 279.35327148 C25.30234028 279.75167462 25.30234028 279.75167462 17.33203125 280.5546875 C11.58307534 281.14565321 5.77925034 281 0 281 C0 188.27 0 95.54 0 0 Z " fill="#B6EAFD" transform="translate(249,50)"/>
<path d="M0 0 C0.33 0 0.66 0 1 0 C1 78.87 1 157.74 1 239 C-23.75 240.32 -48.5 241.64 -74 243 C-88.355 243.99 -88.355 243.99 -103 245 C-109.26157559 245.35172512 -115.51965197 245.7026577 -121.78320312 246.00537109 C-124.32442577 246.12860933 -126.86532697 246.25746226 -129.40625 246.38671875 C-131.06769248 246.46907052 -132.72915024 246.55111457 -134.390625 246.6328125 C-135.12815002 246.67028595 -135.86567505 246.7077594 -136.62554932 246.74636841 C-141.75528198 246.99021314 -146.86442583 247.0297476 -152 247 C-147.95987036 239.38220978 -143.61673933 232.03061741 -139 224.75 C-133.93398701 216.7054517 -128.92388096 208.63233175 -124 200.5 C-118.65749349 191.68539113 -113.22603212 182.93048494 -107.75048828 174.19799805 C-101.72757035 164.58512245 -95.78614201 154.92298996 -89.84765625 145.2578125 C-86.34699045 139.56083857 -82.83364257 133.87183652 -79.3125 128.1875 C-78.78551514 127.33671875 -78.25853027 126.4859375 -77.71557617 125.609375 C-75.62300315 122.23182077 -73.52975327 118.85468626 -71.43652344 115.47753906 C-64.25055548 103.882508 -57.08773138 92.27352403 -49.94213867 80.65356445 C-45.28644766 73.08464695 -40.6148835 65.52575966 -35.93359375 57.97265625 C-31.60824375 50.99045735 -27.30238938 43.9963659 -23 37 C-17.884087 28.68186792 -12.76248665 20.36732853 -7.625 12.0625 C-7.08359375 11.18658203 -6.5421875 10.31066406 -5.984375 9.40820312 C-5.48679688 8.60447266 -4.98921875 7.80074219 -4.4765625 6.97265625 C-3.8280835 5.92476929 -3.8280835 5.92476929 -3.16650391 4.85571289 C-2.1381437 3.21976355 -1.07185748 1.60778621 0 0 Z " fill="#63BADE" transform="translate(228,94)"/>
<path d="M0 0 C-0.28230469 0.69738281 -0.56460937 1.39476562 -0.85546875 2.11328125 C-1.62966049 4.06593549 -2.33944224 6.0451601 -2.98828125 8.04296875 C-4.56979916 11.79849062 -6.0397814 14.17472014 -9 17 C-14.43589134 19.09253857 -20.65546089 18.71802832 -26.39501953 18.859375 C-33.02051051 19.11782568 -39.61745564 19.76854571 -46.22085571 20.35250854 C-49.33528492 20.62454027 -52.45090197 20.88060915 -55.56684875 21.13458252 C-57.73416099 21.31191415 -59.90101653 21.49417473 -62.06787109 21.67700195 C-64.51751732 21.87822398 -66.96829925 22.06655761 -69.42041016 22.23510742 C-70.40058105 22.30705322 -71.38075195 22.37899902 -72.390625 22.453125 C-73.21852539 22.50758789 -74.04642578 22.56205078 -74.89941406 22.61816406 C-77.33399678 22.90964448 -77.33399678 22.90964448 -80.125 25.1875 C-82.17325392 28.25988088 -82.51090154 30.39165118 -83 34 C-87.03402433 34.29071263 -91.06843917 34.57521245 -95.10327148 34.85449219 C-96.46959627 34.94988045 -97.83581315 35.04683004 -99.2019043 35.14550781 C-108.1513348 35.79063042 -117.02721808 36.13788076 -126 36 C-126.11085938 36.93070312 -126.22171875 37.86140625 -126.3359375 38.8203125 C-127 42 -127 42 -129.625 44.875 C-133.57779902 47.36379938 -135.41586264 47.75013157 -140 47 C-142.875 45.3125 -142.875 45.3125 -145 43 C-145.6328125 40.35546875 -145.6328125 40.35546875 -146 38 C-147.14855469 38.144375 -148.29710937 38.28875 -149.48046875 38.4375 C-171.1400873 41.07538056 -171.1400873 41.07538056 -177 40 C-179.5625 37.125 -179.5625 37.125 -181 34 C-183.8224508 32.15726178 -185.90011983 31.76948149 -189.22973633 31.94433594 C-190.48375496 32.00406586 -190.48375496 32.00406586 -191.7631073 32.06500244 C-193.12753716 32.14884186 -193.12753716 32.14884186 -194.51953125 32.234375 C-195.48760208 32.28656189 -196.45567291 32.33874878 -197.45307922 32.39251709 C-208.61176221 33.02945813 -219.74799553 33.97271864 -230.8833313 34.92520142 C-237.63224736 35.50142149 -244.3824737 36.06183529 -251.1328125 36.62109375 C-251.83332544 36.6792243 -252.53383839 36.73735485 -253.25557899 36.79724693 C-268.51774776 38.06187193 -283.78889354 39.19505897 -299.0625 40.3125 C-319.65073575 41.81927438 -340.23166004 43.40415513 -360.80859375 45.05859375 C-361.92834154 45.14856943 -363.04808933 45.23854511 -364.20176888 45.33124733 C-375.44710361 46.23521538 -386.69212605 47.14293464 -397.93654728 48.05819798 C-402.16401026 48.4018459 -406.39163754 48.74344354 -410.61929512 49.08468819 C-412.58323766 49.24375101 -414.54710242 49.4037779 -416.51087761 49.56489372 C-429.00017647 50.58944888 -441.4823241 51.41185952 -454 52 C-455.87311188 47.70050832 -457.50691099 43.61620045 -458.6875 39.0625 C-459.06455078 37.62583984 -459.06455078 37.62583984 -459.44921875 36.16015625 C-459.63097656 35.44730469 -459.81273437 34.73445313 -460 34 C-458.79730469 33.93268677 -458.79730469 33.93268677 -457.5703125 33.86401367 C-454.40856598 33.6841042 -451.24718882 33.4986998 -448.0859375 33.31030273 C-446.12001394 33.19456543 -444.15376429 33.0844059 -442.1875 32.97460938 C-432.72654309 32.41943517 -423.30729501 31.56556494 -413.875 30.6484375 C-393.00016392 28.62847371 -372.08321331 27.16838663 -351.16601562 25.66564941 C-346.94961391 25.36180708 -342.73348627 25.05425485 -338.51735592 24.74667358 C-318.4224057 23.28163844 -298.32842812 21.82265467 -278.21350098 20.65684509 C-269.93360438 20.16675244 -261.69065052 19.44826554 -253.4375 18.625 C-238.22552523 17.13339912 -222.99436026 15.98295718 -207.75 14.875 C-206.5737204 14.78873352 -205.3974408 14.70246704 -204.18551636 14.61358643 C-191.95281214 13.71903917 -179.72646937 12.89876469 -167.47406006 12.33029175 C-161.95725017 12.06806349 -156.48645349 11.64341136 -151 11 C-143.50120778 10.18465513 -136.03472323 9.71240239 -128.5 9.39453125 C-122.63884132 9.1289475 -116.83269509 8.62883744 -111 8 C-104.3332928 7.28124563 -97.69935535 6.78297931 -91 6.5 C-84.53058645 6.22405345 -78.12475332 5.76221585 -71.6875 5.0625 C-62.36797333 4.05488199 -53.03383837 3.44884182 -43.67904663 2.87728882 C-33.84201068 2.27479491 -24.02854294 1.54597084 -14.2175293 0.609375 C-9.45085843 0.16408472 -4.78775123 -0.09107135 0 0 Z " fill="#FB6969" transform="translate(483,377)"/>
<path d="M0 0 C3.02848464 2.06194699 4.6491022 3.53260921 5.515625 7.15625 C5.84907564 11.70330418 5.43421338 13.48106205 2.4375 17.0625 C-1.54335936 19.30625709 -3.50588566 19.73540053 -8 19 C-10.75329021 17.20437595 -12.52627461 15.94745078 -14 13 C-14.70153846 5.86769231 -14.70153846 5.86769231 -11.625 2.0625 C-7.32198817 -1.31843787 -5.37649402 -1.27577824 0 0 Z " fill="#050201" transform="translate(351,405)"/>
</svg>
