<?xml version="1.0" encoding="UTF-8"?>
<svg version="1.1" xmlns="http://www.w3.org/2000/svg" width="512" height="512">
<path d="M0 0 C2.52059621 0.01866538 5.04122885 0.03289331 7.56187439 0.0428772 C13.50167082 0.07706316 19.43980425 0.15574182 25.37874836 0.25637209 C32.14519051 0.36851154 38.91172602 0.42321844 45.67886746 0.47332644 C59.58771968 0.57759125 73.49492949 0.7532512 87.40234375 0.9765625 C87.40234375 3.6165625 87.40234375 6.2565625 87.40234375 8.9765625 C92.35234375 8.9765625 97.30234375 8.9765625 102.40234375 8.9765625 C102.40234375 6.3365625 102.40234375 3.6965625 102.40234375 0.9765625 C108.34234375 0.9765625 114.28234375 0.9765625 120.40234375 0.9765625 C120.40234375 3.6165625 120.40234375 6.2565625 120.40234375 8.9765625 C125.35234375 8.9765625 130.30234375 8.9765625 135.40234375 8.9765625 C135.40234375 6.3365625 135.40234375 3.6965625 135.40234375 0.9765625 C141.81894292 0.56616445 148.23210707 0.28888822 154.65893555 0.09765625 C156.83730372 0.01786372 159.01483334 -0.09083521 161.19018555 -0.23046875 C180.1945483 -1.41851441 180.1945483 -1.41851441 187.03076172 4.328125 C190.30517194 7.58590057 193.12219375 11.10404696 195.82333374 14.84472656 C200.06476843 20.57112654 205.07088905 25.7472233 209.90234375 30.9765625 C225.40234375 47.81790865 225.40234375 47.81790865 225.40234375 50.9765625 C223.40234375 52.6015625 223.40234375 52.6015625 221.40234375 53.9765625 C221.97888785 57.37669436 223.01232036 58.90326735 225.52734375 61.2265625 C228.09097423 63.68054687 230.51542692 66.16913205 232.83984375 68.8515625 C233.70996094 69.84349609 233.70996094 69.84349609 234.59765625 70.85546875 C235.85613574 72.33459075 237.07774352 73.84553919 238.26953125 75.37890625 C242.48611453 80.60306665 245.54087006 82.8564471 252.08203125 84.38671875 C258.45405099 86.00654195 262.65952567 90.85787983 266.40234375 95.9765625 C267.72907419 98.37731282 268.40126413 100.13348457 268.40478516 102.88305664 C268.53052289 110.40636445 272.27278121 113.98001608 277.46484375 119.0390625 C278.22345703 119.80927734 278.98207031 120.57949219 279.76367188 121.37304688 C281.62634284 123.25914767 283.50516184 125.12528787 285.40234375 126.9765625 C285.97984375 126.2959375 286.55734375 125.6153125 287.15234375 124.9140625 C288.26609375 123.955 288.26609375 123.955 289.40234375 122.9765625 C294.03468435 123.47721626 296.29720567 126.72817954 299.21484375 130.0390625 C299.75036865 130.63323975 300.28589355 131.22741699 300.83764648 131.83959961 C304.12006674 135.49198209 307.3610542 139.18163227 310.5703125 142.8984375 C312.46317174 145.04556141 314.40133358 147.14721493 316.34765625 149.24584961 C335.04648409 169.42947166 335.04648409 169.42947166 334.84375 182.41796875 C334.18011631 187.76814831 332.19801589 191.20575285 328.40234375 194.9765625 C325.21086457 197.44760229 322.54208782 198.9765625 318.40234375 198.9765625 C318.40234375 302.5965625 318.40234375 406.2165625 318.40234375 512.9765625 C160.00234375 512.9765625 1.60234375 512.9765625 -161.59765625 512.9765625 C-161.63890625 463.3940625 -161.68015625 413.8115625 -161.72265625 362.7265625 C-161.74086426 347.06928711 -161.75907227 331.41201172 -161.77783203 315.28027344 C-161.78686523 296.16455078 -161.78686523 296.16455078 -161.7885437 287.21636963 C-161.79040739 280.96521498 -161.79773793 274.71409616 -161.80880737 268.46295166 C-161.82156306 261.24884596 -161.82732228 254.03477457 -161.82454615 246.82065751 C-161.82334441 243.1325327 -161.82521295 239.44448453 -161.83608651 235.75637388 C-161.84768222 231.79912219 -161.84362673 227.84197137 -161.83816528 223.88470459 C-161.84399061 222.74492283 -161.84981594 221.60514107 -161.85581779 220.43082047 C-161.82869609 213.10020801 -161.01857425 206.16717735 -159.59765625 198.9765625 C-160.60828125 198.9146875 -161.61890625 198.8528125 -162.66015625 198.7890625 C-168.63746761 197.9057756 -172.27176957 194.57442593 -176.03515625 190.0390625 C-178.78554644 184.58611499 -178.62522687 177.85477705 -177.59765625 171.9765625 C-174.79434932 165.96230391 -170.34150747 161.21069777 -165.78515625 156.4765625 C-165.18767578 155.84492188 -164.59019531 155.21328125 -163.97460938 154.5625 C-162.52162575 153.0281493 -161.06049865 151.5015168 -159.59765625 149.9765625 C-160.4160498 149.58476807 -160.4160498 149.58476807 -161.25097656 149.18505859 C-161.96866211 148.83523926 -162.68634766 148.48541992 -163.42578125 148.125 C-164.4916748 147.60945557 -164.4916748 147.60945557 -165.57910156 147.08349609 C-171.32353012 143.93337042 -175.55070511 138.11741593 -177.59765625 131.9765625 C-178.41229518 123.02717192 -178.20720573 115.3121272 -172.59765625 107.9765625 C-166.73560549 102.30361015 -160.97817359 99.69189345 -152.78515625 99.6015625 C-145.47036272 99.73900121 -140.86893254 100.74430739 -135.6328125 105.91796875 C-133.02909238 108.80921624 -130.75670543 111.73798873 -128.59765625 114.9765625 C-126.24117401 112.47873677 -123.88791609 109.97789435 -121.53515625 107.4765625 C-120.87837891 106.78046875 -120.22160156 106.084375 -119.54492188 105.3671875 C-115.68454061 101.2595897 -111.91618196 97.09059339 -108.22094727 92.83398438 C-105.89303425 90.17031131 -103.49832385 87.57493214 -101.09765625 84.9765625 C-98.05796629 81.67703473 -95.03607566 78.36704643 -92.09765625 74.9765625 C-88.69088275 71.04567 -85.1676284 67.22459677 -81.64453125 63.3984375 C-79.09210482 60.62162193 -76.56782337 57.82675533 -74.09765625 54.9765625 C-70.69088275 51.04567 -67.1676284 47.22459677 -63.64453125 43.3984375 C-61.09210482 40.62162193 -58.56782337 37.82675533 -56.09765625 34.9765625 C-53.1592156 31.58605406 -50.13649323 28.27689268 -47.09765625 24.9765625 C-44.01949704 21.6328122 -40.95682204 18.2798832 -37.97265625 14.8515625 C-37.18162758 13.99309219 -37.18162758 13.99309219 -36.37461853 13.11727905 C-34.51398948 11.01154924 -34.51398948 11.01154924 -33.19923401 8.44497681 C-25.74138584 -3.09265804 -12.19132628 -0.26467284 0 0 Z " fill="#010100" transform="translate(177.59765625,-0.9765625)"/>
<path d="M0 0 C49.17 0 98.34 0 149 0 C149 98.34 149 196.68 149 298 C99.83 298 50.66 298 0 298 C0 199.66 0 101.32 0 0 Z " fill="#E4E7EB" transform="translate(297,198)"/>
<path d="M0 0 C5.94 0 11.88 0 18 0 C18 2.64 18 5.28 18 8 C22.95 8 27.9 8 33 8 C33 5.36 33 2.72 33 0 C39.41659917 -0.41039805 45.82976332 -0.68767428 52.2565918 -0.87890625 C54.43495997 -0.95869878 56.61248959 -1.06739771 58.7878418 -1.20703125 C77.79220455 -2.39507691 77.79220455 -2.39507691 84.62841797 3.3515625 C87.90282819 6.60933807 90.71985 10.12748446 93.42098999 13.86816406 C97.66242468 19.59456404 102.6685453 24.7706608 107.5 30 C123 46.84134615 123 46.84134615 123 50 C121 51.625 121 51.625 119 53 C119.5765441 56.40013186 120.60997661 57.92670485 123.125 60.25 C125.68863048 62.70398437 128.11308317 65.19256955 130.4375 67.875 C131.30761719 68.86693359 131.30761719 68.86693359 132.1953125 69.87890625 C133.45379199 71.35802825 134.67539977 72.86897669 135.8671875 74.40234375 C140.08377078 79.62650415 143.13852631 81.8798846 149.6796875 83.41015625 C156.05170724 85.02997945 160.25718192 89.88131733 164 95 C165.3312977 97.40901489 165.9924025 99.17603533 166.01782227 101.93286133 C166.15380514 108.12315717 168.14699036 110.98198417 172.46875 115.28320312 C173.53609375 116.28770508 173.53609375 116.28770508 174.625 117.3125 C176.04467529 118.6723861 177.4541459 120.04303219 178.8515625 121.42578125 C179.47885254 122.01786377 180.10614258 122.60994629 180.75244141 123.2199707 C182 125 182 125 181.79443359 127.11401367 C180.88236318 129.27926995 179.76129744 130.46843701 178 132 C179.29823475 135.81562395 180.74966858 138.07090879 183.6875 140.8125 C186.98868837 143.98945009 190.03348696 147.26318393 193.01953125 150.734375 C195.46606139 153.53316688 197.98092745 156.26674667 200.5 159 C212.00350805 171.50526207 212.00350805 171.50526207 215 176 C214.45945946 180.54054054 214.45945946 180.54054054 213 182 C210.67232986 182.0976134 208.37437981 182.12997765 206.04624939 182.12025452 C205.31035554 182.12110894 204.57446169 182.12196337 203.81626803 182.12284368 C201.33183354 182.12450067 198.84746545 182.11897356 196.36303711 182.11352539 C194.58951316 182.11324354 192.81598909 182.11340121 191.04246521 182.1139679 C186.21208983 182.11425595 181.38173906 182.1083579 176.55136943 182.10139394 C171.50914683 182.09516176 166.46692373 182.09455671 161.42469788 182.09336853 C151.86949773 182.09025481 142.31430897 182.08204088 132.75911385 182.07201904 C121.88384567 182.06085916 111.00857695 182.05534777 100.13330448 182.05032361 C77.75553 182.0398583 55.37776564 182.02225807 33 182 C32.92978638 180.88286621 32.92978638 180.88286621 32.8581543 179.74316406 C32.78508057 178.76057617 32.71200684 177.77798828 32.63671875 176.765625 C32.56928467 175.79399414 32.50185059 174.82236328 32.43237305 173.82128906 C30.89812597 163.81013197 20.24505374 155.66651287 13.56054688 148.65332031 C11.2198436 146.17346384 8.99332182 143.60363219 6.76953125 141.01953125 C4.3911558 138.30513807 1.94491095 135.65427613 -0.5 133 C-4.10020455 129.09025645 -7.64417782 125.14133329 -11.125 121.125 C-13.54550075 118.38176582 -16.02200642 115.69115432 -18.5 113 C-22.10012756 109.09018405 -25.64417605 105.14133532 -29.125 101.125 C-31.54550075 98.38176582 -34.02200642 95.69115432 -36.5 93 C-40.10012756 89.09018405 -43.64417605 85.14133532 -47.125 81.125 C-49.54550075 78.38176582 -52.02200642 75.69115432 -54.5 73 C-58.10012756 69.09018405 -61.64417605 65.14133532 -65.125 61.125 C-67.54550075 58.38176582 -70.02200642 55.69115432 -72.5 53 C-76.10012756 49.09018405 -79.64417605 45.14133532 -83.125 41.125 C-85.54550839 38.38175716 -88.02240697 35.69153095 -90.5 33 C-97.36184348 25.52735515 -97.36184348 25.52735515 -100.1875 22.375 C-101.01314453 21.45847656 -101.01314453 21.45847656 -101.85546875 20.5234375 C-103 19 -103 19 -103 17 C-74.29 17 -45.58 17 -16 17 C-16 14.03 -16 11.06 -16 8 C-10.72 8 -5.44 8 0 8 C0 5.36 0 2.72 0 0 Z " fill="#FC806C" transform="translate(280,0)"/>
<path d="M0 0 C4 4.22222222 4 4.22222222 4 7 C4.84884766 7.41572266 4.84884766 7.41572266 5.71484375 7.83984375 C8.82693388 9.41982797 11.84496021 11.15472444 14.87890625 12.87890625 C19.29517261 15.21310228 23.30284249 15.13895736 28.16821289 15.12597656 C29.41761658 15.12877876 29.41761658 15.12877876 30.69226074 15.13163757 C32.50269829 15.13564248 34.3131409 15.13771649 36.12358284 15.13809967 C39.98135908 15.14151908 43.83896738 15.16289186 47.69668484 15.18333054 C54.87780841 15.22130548 62.05875477 15.25262174 69.23999023 15.25048828 C74.2363205 15.24969827 79.23203836 15.27319175 84.22820854 15.3123703 C86.12622762 15.32279137 88.02431772 15.3243832 89.92234993 15.31671906 C110.86442577 15.24063027 110.86442577 15.24063027 119.11952209 22.98956299 C126.97183296 31.13324696 127.45102503 38.68971999 127.3984375 49.60546875 C127.40274277 51.57885979 127.40274277 51.57885979 127.40713501 53.59211731 C127.41154303 56.37182237 127.40518216 59.15123709 127.39111328 61.9309082 C127.37410559 65.45980087 127.3838179 68.98800457 127.40183067 72.51687145 C127.41278201 75.26161179 127.4091695 78.00619468 127.4014473 80.75094032 C127.39852363 82.67382385 127.40750107 84.59671396 127.4168396 86.51957703 C127.32991652 97.52932401 125.36513026 107.46089291 120.25 117.25 C119.89639404 117.93328369 119.54278809 118.61656738 119.1784668 119.32055664 C111.77808438 133.20685394 98.93561928 142.25449827 84 147 C78.20172925 148.27587347 72.40404719 148.19732959 66.49609375 148.23828125 C65.38122086 148.246353 64.26634796 148.25442474 63.11769104 148.26274109 C60.76003558 148.27654577 58.40236044 148.28728402 56.04467773 148.29516602 C53.65236485 148.30666207 51.26007713 148.32707585 48.86791992 148.35668945 C23.27606856 148.67316209 23.27606856 148.67316209 13 144 C12.01999023 143.55495117 11.03998047 143.10990234 10.03027344 142.65136719 C-4.31298881 135.75668394 -13.89033859 123.71978903 -19.4375 109 C-21.46278873 103.04219997 -22.15541291 97.52886606 -22.19287109 91.24731445 C-22.20104858 90.4823616 -22.20922607 89.71740875 -22.21765137 88.92927551 C-22.24238481 86.40728514 -22.25899155 83.88535066 -22.2734375 81.36328125 C-22.27876118 80.49774313 -22.28408485 79.63220501 -22.28956985 78.74043846 C-22.31625085 74.15777855 -22.33564065 69.57514539 -22.35009766 64.99243164 C-22.36342335 61.21451535 -22.39125779 57.43714091 -22.43212891 53.65942383 C-22.48163495 49.08241798 -22.50624033 44.50590247 -22.51332474 39.92864037 C-22.52000621 38.19242174 -22.53514665 36.45621273 -22.55921555 34.72014809 C-22.69418564 24.39487326 -22.72116013 15.08534489 -15.22592163 7.11299133 C-10.76070637 2.95092116 -6.22254866 0 0 0 Z " fill="#EDCEB2" transform="translate(88,215)"/>
<path d="M0 0 C0.85445709 -0.00832352 1.70891418 -0.01664703 2.58926392 -0.02522278 C5.41193224 -0.04929597 8.23436881 -0.05809545 11.05712891 -0.06469727 C13.03187119 -0.07367179 15.00661281 -0.08279378 16.98135376 -0.09205627 C21.12560676 -0.1085459 25.26977904 -0.11624526 29.4140625 -0.11914062 C34.68709055 -0.12449754 39.95934271 -0.16206588 45.23215294 -0.20788479 C49.31607719 -0.23786044 53.39982014 -0.24486874 57.48384476 -0.24586678 C59.42524358 -0.2500353 61.36664466 -0.26233175 63.30793381 -0.28338432 C80.93426687 -0.45917946 94.96225633 1.96486227 108.40869141 14.30639648 C119.82550694 26.17796987 122.7303327 40.60738954 122.60400391 56.43139648 C122.60026701 57.78759552 122.59742324 59.14379728 122.59542847 60.5 C122.58784521 64.04440963 122.56824336 67.58865157 122.54602051 71.13299561 C122.52544675 74.75978325 122.51640226 78.38659837 122.50634766 82.01342773 C122.48499162 89.11115198 122.45092098 96.2087632 122.40869141 103.30639648 C121.74047363 103.09781006 121.07225586 102.88922363 120.38378906 102.67431641 C119.49739746 102.40208252 118.61100586 102.12984863 117.69775391 101.84936523 C116.82328613 101.57890381 115.94881836 101.30844238 115.04785156 101.02978516 C111.49976244 100.05726082 108.0679153 99.64521351 104.40869141 99.30639648 C104.20115234 98.62834961 103.99361328 97.95030273 103.77978516 97.25170898 C100.3262965 86.8189943 95.17738694 77.87106412 85.40869141 72.30639648 C78.27638525 69.00558218 72.1416076 67.15914919 64.26879883 67.14868164 C63.43919144 67.14360092 62.60958405 67.1385202 61.75483704 67.13328552 C59.95258325 67.1225837 58.15031619 67.11396278 56.34804344 67.10716629 C53.49386535 67.09537514 50.63983842 67.07592134 47.78572083 67.05404663 C39.6704309 66.99244021 31.55515629 66.93840104 23.43969727 66.9050293 C18.47591784 66.88406776 13.51241381 66.84875182 8.54879189 66.8042717 C6.65863604 66.7901226 4.76843147 66.78139172 2.87822533 66.77821732 C0.23078028 66.77330088 -2.41593585 66.75012396 -5.06323242 66.72290039 C-5.84111115 66.72590652 -6.61898987 66.72891266 -7.42044067 66.73200989 C-13.08540747 66.64563348 -17.21863698 65.450257 -21.45458984 61.62280273 C-21.93283203 61.04401367 -22.41107422 60.46522461 -22.90380859 59.86889648 C-23.39494141 59.29268555 -23.88607422 58.71647461 -24.39208984 58.12280273 C-28.06963064 52.55258623 -26.89000921 44.87807541 -26.94140625 38.45483398 C-26.95789188 36.94979306 -26.98508387 35.44482802 -27.0234375 33.94018555 C-27.28969761 23.41480783 -26.59423176 15.21894204 -19.52880859 6.86889648 C-18.56974609 6.09545898 -18.56974609 6.09545898 -17.59130859 5.30639648 C-16.95193359 4.77014648 -16.31255859 4.23389648 -15.65380859 3.68139648 C-10.60677656 0.31670846 -5.94031553 0.00493531 0 0 Z " fill="#646C77" transform="translate(125.59130859375,148.693603515625)"/>
<path d="M0 0 C3.10412761 1.35428461 4.91475724 2.77134253 7.0625 5.375 C10.12490654 8.99720129 13.28157918 12.5165199 16.5 16 C20.10084708 19.909145 23.64419135 23.85868233 27.125 27.875 C29.54550075 30.61823418 32.02200642 33.30884568 34.5 36 C38.10012756 39.90981595 41.64417605 43.85866468 45.125 47.875 C47.54550075 50.61823418 50.02200642 53.30884568 52.5 56 C56.10012756 59.90981595 59.64417605 63.85866468 63.125 67.875 C65.54550075 70.61823418 68.02200642 73.30884568 70.5 76 C74.10012756 79.90981595 77.64417605 83.85866468 81.125 87.875 C83.54550075 90.61823418 86.02200642 93.30884568 88.5 96 C92.10012756 99.90981595 95.64417605 103.85866468 99.125 107.875 C101.54550075 110.61823418 104.02200642 113.30884568 106.5 116 C110.10012756 119.90981595 113.64417605 123.85866468 117.125 127.875 C119.54550308 130.61823682 122.02213026 133.3087292 124.5 136 C128.23886932 140.06393319 131.96370335 144.13552993 135.55859375 148.328125 C136.83776557 149.81182565 138.16572308 151.25315231 139.5 152.6875 C141 155 141 155 140.8125 157.75 C140 160 140 160 139 161 C125.49751852 162.52650432 125.49751852 162.52650432 120.76953125 159.63671875 C118.99736338 157.52324448 117.53082183 155.29447318 116 153 C114.18974496 150.96990889 112.36547819 148.97715181 110.5 147 C106.89466259 143.09507521 103.35570555 139.14119871 99.875 135.125 C97.45449925 132.38176582 94.97799358 129.69115432 92.5 127 C88.89987244 123.09018405 85.35582395 119.14133532 81.875 115.125 C79.45449925 112.38176582 76.97799358 109.69115432 74.5 107 C70.89987244 103.09018405 67.35582395 99.14133532 63.875 95.125 C61.45449925 92.38176582 58.97799358 89.69115432 56.5 87 C52.89987244 83.09018405 49.35582395 79.14133532 45.875 75.125 C43.45449925 72.38176582 40.97799358 69.69115432 38.5 67 C34.89987244 63.09018405 31.35582395 59.14133532 27.875 55.125 C25.45449759 52.38176393 22.97790515 49.69123749 20.5 47 C14.1778898 40.12990937 8.06324572 33.09843402 2 26 C-2.25582033 27.60482008 -4.85886167 30.82163155 -7.8125 34.125 C-8.3480249 34.71466553 -8.8835498 35.30433105 -9.43530273 35.91186523 C-12.72080613 39.53980558 -15.95875451 43.20780167 -19.16015625 46.91015625 C-21.56670156 49.64370559 -24.03303196 52.32114006 -26.5 55 C-29.53890177 58.30026876 -32.561561 61.60949347 -35.5 65 C-38.9067735 68.9308925 -42.43002785 72.75196573 -45.953125 76.578125 C-48.50555143 79.35494057 -51.02983288 82.14980717 -53.5 85 C-56.9067735 88.9308925 -60.43002785 92.75196573 -63.953125 96.578125 C-66.50555143 99.35494057 -69.02983288 102.14980717 -71.5 105 C-74.90234104 108.92577812 -78.42012358 112.74274517 -81.93994141 116.56274414 C-84.62792626 119.48549765 -87.27591872 122.43550437 -89.875 125.4375 C-90.69871094 126.37529297 -90.69871094 126.37529297 -91.5390625 127.33203125 C-92.78534486 128.75492581 -94.01901497 130.1888508 -95.25 131.625 C-97.84026857 133.86205013 -100.10643228 135.18513345 -103.125 136.75 C-112.07892947 141.49173147 -118.99756695 147.22105567 -124.6875 155.5625 C-128.36396924 160.76642319 -128.36396924 160.76642319 -131.265625 161.83203125 C-133.4375 161.875 -133.4375 161.875 -137 161 C-139 159 -139 159 -139.0625 156.3125 C-137.77629319 152.30256112 -135.97620719 150.64818643 -132.9453125 147.83203125 C-131.07943205 146.07480649 -129.41708052 144.25742727 -127.75 142.3125 C-124.73283281 138.81285787 -121.63120277 135.39742911 -118.5 132 C-115.46095466 128.69986653 -112.43843541 125.3905024 -109.5 122 C-106.0932265 118.0691075 -102.56997215 114.24803427 -99.046875 110.421875 C-96.49444857 107.64505943 -93.97016712 104.85019283 -91.5 102 C-88.0932265 98.0691075 -84.56997215 94.24803427 -81.046875 90.421875 C-78.49444857 87.64505943 -75.97016712 84.85019283 -73.5 82 C-70.0932265 78.0691075 -66.56997215 74.24803427 -63.046875 70.421875 C-60.49444857 67.64505943 -57.97016712 64.85019283 -55.5 62 C-52.0932265 58.0691075 -48.56997215 54.24803427 -45.046875 50.421875 C-42.49444857 47.64505943 -39.97016712 44.85019283 -37.5 42 C-34.0932265 38.0691075 -30.56997215 34.24803427 -27.046875 30.421875 C-23.93634504 27.03789185 -20.89171668 23.60686128 -17.8828125 20.1328125 C-14.97261181 16.83619512 -11.98493632 13.61017889 -8.99414062 10.38671875 C-5.8773934 7.01212741 -2.91569333 3.54725146 0 0 Z " fill="#FA7F6C" transform="translate(156,21)"/>
<path d="M0 0 C5.61 0 11.22 0 17 0 C17 98.34 17 196.68 17 298 C11.39 298 5.78 298 0 298 C0 199.66 0 101.32 0 0 Z " fill="#C5CAD2" transform="translate(462,198)"/>
<path d="M0 0 C5.61 0 11.22 0 17 0 C17 98.34 17 196.68 17 298 C11.39 298 5.78 298 0 298 C0 199.66 0 101.32 0 0 Z " fill="#C5CAD2" transform="translate(264,198)"/>
<path d="M0 0 C3.00874098 1.33803458 4.98385643 2.77584376 7.20703125 5.1953125 C8.08137817 6.1392688 8.08137817 6.1392688 8.97338867 7.10229492 C9.58029541 7.7697876 10.18720215 8.43728027 10.8125 9.125 C11.44196533 9.80860596 12.07143066 10.49221191 12.7199707 11.1965332 C16.28081369 15.07525084 19.79583252 18.9893345 23.23046875 22.98046875 C25.6088442 25.69486193 28.05508905 28.34572387 30.5 31 C34.09715083 34.90642728 37.64143825 38.84892853 41.11328125 42.8671875 C42.63125508 44.58315791 44.16952565 46.26888196 45.73046875 47.9453125 C46.21773438 48.46996094 46.705 48.99460938 47.20703125 49.53515625 C48.16564261 50.56458851 49.12767408 51.5908509 50.09375 52.61328125 C53.14449684 55.8926143 55.61316181 59.23248492 58 63 C56.75395996 62.83991455 55.50791992 62.6798291 54.22412109 62.51489258 C45.64783948 61.6642817 37.02388042 61.79354928 28.4140625 61.76171875 C27.01053591 61.75560546 27.01053591 61.75560546 25.57865524 61.74936867 C20.63056417 61.72861463 15.68249999 61.71426438 10.734375 61.70483398 C5.65526261 61.69376041 0.5765871 61.65931858 -4.50237083 61.61966228 C-8.43859618 61.593399 -12.37471848 61.58513382 -16.31102371 61.58155251 C-18.18232822 61.57671582 -20.05362905 61.56518635 -21.92484665 61.54651451 C-36.72637247 61.40793001 -48.63469365 62.50173764 -60 73 C-60.92508468 73.97121752 -61.84315235 74.94923259 -62.75 75.9375 C-65 78 -65 78 -67.8125 78.3125 C-68.534375 78.209375 -69.25625 78.10625 -70 78 C-63.47166025 70.35706566 -56.85685249 62.81804444 -50.0480957 55.4230957 C-47.49518312 52.64594376 -44.97054421 49.85062793 -42.5 47 C-39.0932265 43.0691075 -35.56997215 39.24803427 -32.046875 35.421875 C-29.49444857 32.64505943 -26.97016712 29.85019283 -24.5 27 C-21.0990102 23.07578101 -17.58241218 19.2605505 -14.06445312 15.44165039 C-10.79461922 11.88553595 -7.58777957 8.28329375 -4.4375 4.62109375 C-3.01449184 3.0163427 -1.53215479 1.5002349 0 0 Z " fill="#FA6D50" transform="translate(156,71)"/>
<path d="M0 0 C5.16901516 2.56328831 8.34169208 5.90764934 11 11 C12.60100345 19.61008613 13.85770693 32.38862888 9.79296875 40.37011719 C7.39268221 43.44180171 4.68450697 45.67861031 1.52734375 47.93359375 C0.27630859 48.95646484 0.27630859 48.95646484 -1 50 C-1.18254227 52.94919859 -0.06414719 53.92568148 1.84765625 56.140625 C2.57855469 56.83671875 3.30945313 57.5328125 4.0625 58.25 C4.79597656 58.95640625 5.52945313 59.6628125 6.28515625 60.390625 C6.85105469 60.92171875 7.41695312 61.4528125 8 62 C11.62809719 60.47238013 13.94346298 58.29392861 16.6875 55.5 C17.47511719 54.7059375 18.26273438 53.911875 19.07421875 53.09375 C21.04025802 51.14976968 21.04025802 51.14976968 22 49 C29.26 49 36.52 49 44 49 C44 59.89 44 70.78 44 82 C37.452562 82.06905501 30.90639937 82.12873504 24.35888672 82.16479492 C22.13390815 82.17983512 19.90895899 82.20027246 17.68408203 82.22631836 C14.47681394 82.26291135 11.26993955 82.2797745 8.0625 82.29296875 C7.07572266 82.30845261 6.08894531 82.32393646 5.07226562 82.33988953 C-1.79097019 82.3415433 -7.38987097 81.5063126 -13.171875 77.4921875 C-13.69265625 76.95851563 -14.2134375 76.42484375 -14.75 75.875 C-15.28109375 75.35679687 -15.8121875 74.83859375 -16.359375 74.3046875 C-21.59852691 66.94492648 -22.59993533 60.09381294 -22.53125 51.2109375 C-22.5350769 50.10827545 -22.53890381 49.0056134 -22.54284668 47.86953735 C-22.5455549 45.55168742 -22.5382706 43.23380635 -22.52148438 40.91601562 C-22.50001949 37.37821198 -22.52134592 33.84242953 -22.546875 30.3046875 C-22.54423233 28.04426638 -22.53910862 25.78384651 -22.53125 23.5234375 C-22.53934692 22.47223724 -22.54744385 21.42103699 -22.55578613 20.33798218 C-22.46379064 13.10391814 -21.27094314 8.7869698 -16.46484375 3.22265625 C-11.36537442 -0.6508537 -6.24119882 -1.27152114 0 0 Z " fill="#F9D56E" transform="translate(88,380)"/>
<path d="M0 0 C1.32 0.33 2.64 0.66 4 1 C6.24920161 1.52427042 8.49926963 2.04483201 10.75 2.5625 C12.50570312 2.96662109 12.50570312 2.96662109 14.296875 3.37890625 C15.18890625 3.58386719 16.0809375 3.78882813 17 4 C17.00054477 4.84445805 17.00108953 5.68891609 17.00165081 6.55896378 C17.01664286 27.14255172 17.05918763 47.72592367 17.13209057 68.30939102 C17.16668775 78.26357708 17.19208917 88.2176254 17.19555664 98.171875 C17.19860388 106.85185264 17.21919622 115.53158467 17.26052457 124.2114675 C17.28178747 128.80398339 17.29448985 133.39615067 17.28615379 137.98871613 C17.27857094 142.31944434 17.29460676 146.64946871 17.32806015 150.98006821 C17.33624274 152.56176302 17.33610376 154.1435285 17.32659721 155.72521591 C17.27374135 165.49349411 18.55726788 173.12249297 23 182 C23.33 182.99 23.66 183.98 24 185 C16.08 185 8.16 185 0 185 C0 123.95 0 62.9 0 0 Z " fill="#C6CBD3" transform="translate(33,310)"/>
<path d="M0 0 C0 10.89 0 21.78 0 33 C-5.94 35.475 -5.94 35.475 -12 38 C-15.30086449 40.35089887 -15.30086449 40.35089887 -18.4765625 42.86328125 C-20 44 -20 44 -22 44 C-22.268125 44.55945313 -22.53625 45.11890625 -22.8125 45.6953125 C-24.53547501 49.03924427 -26.56522418 52.18153257 -28.5625 55.3671875 C-31.80665534 61.30892852 -32.37119002 66.74421439 -32.625 73.375 C-32.66367187 74.20644531 -32.70234375 75.03789062 -32.7421875 75.89453125 C-32.83574246 77.92935156 -32.91892713 79.96464416 -33 82 C-33.72445312 82.12117188 -34.44890625 82.24234375 -35.1953125 82.3671875 C-36.16210938 82.53476563 -37.12890625 82.70234375 -38.125 82.875 C-39.07632813 83.03742188 -40.02765625 83.19984375 -41.0078125 83.3671875 C-44.10781574 84.02280176 -47.00395675 84.97704963 -50 86 C-50.0997571 80.09591456 -50.17188395 74.19233243 -50.21972656 68.28759766 C-50.2396956 66.28392986 -50.26688063 64.28031922 -50.30175781 62.27685547 C-50.66408418 40.9102562 -50.66408418 40.9102562 -46 31 C-45.62174072 30.18031738 -45.24348145 29.36063477 -44.85375977 28.51611328 C-38.34194145 15.12604374 -26.50949574 6.70518917 -13.25 0.84765625 C-10 0 -10 0 0 0 Z " fill="#636B75" transform="translate(83,166)"/>
<path d="M0 0 C0 26.07 0 52.14 0 79 C-3.97996468 77.40801413 -7.83935088 75.71227468 -11.71875 73.90234375 C-15.78208735 72.29509901 -19.27805483 71.9517911 -23.6171875 72.11328125 C-24.47183594 72.14357422 -25.32648438 72.17386719 -26.20703125 72.20507812 C-27.97877315 72.27641473 -29.74983751 72.36741964 -31.51953125 72.47851562 C-36.33784416 72.61255892 -39.17561713 72.36196933 -42.88671875 69.12890625 C-43.39936279 68.60240479 -43.91200684 68.07590332 -44.44018555 67.53344727 C-46.95396677 65.06215913 -49.90095726 63.64439002 -53 62 C-51.73217291 58.19651872 -50.30111615 57.63365921 -47 55.4375 C-32.19321589 44.88311702 -22.00024241 28.22511076 -18.4765625 10.34375 C-18.24552968 8.57041697 -18.10710654 6.78510907 -18 5 C-16.66195312 4.70996094 -16.66195312 4.70996094 -15.296875 4.4140625 C-14.12640625 4.15367187 -12.9559375 3.89328125 -11.75 3.625 C-10.58984375 3.36976563 -9.4296875 3.11453125 -8.234375 2.8515625 C-5.73502335 2.19352064 -2.49766488 0 0 0 Z " fill="#E2E5E8" transform="translate(248,309)"/>
<path d="M0 0 C4.37470619 4.23920644 7.57492392 8.35649078 8.30078125 14.578125 C8.33932752 23.36667497 7.07602312 30.8607459 0.84765625 37.42578125 C-5.40913699 42.756622 -11.84543028 44.87676562 -20.0390625 44.4765625 C-26.94830823 43.36452031 -32.17383623 40.51742626 -36.5 35 C-41.38883988 27.95097506 -41.65458232 21.39527806 -41 13 C-39.66220358 6.79442332 -35.29716983 1.25955117 -30.11328125 -2.29296875 C-19.97210411 -7.81184118 -9.01682752 -7.26562548 0 0 Z " fill="#020101" transform="translate(438,88)"/>
<path d="M0 0 C7.17036419 3.68725134 10.785959 7.95547966 14.125 15.25 C16.05674718 21.58319644 15.87445011 27.32251922 13.125 33.375 C9.5317614 39.92857722 4.34862844 45.00890315 -2.875 47.25 C-10.37826136 48.04821929 -17.99756806 48.61396921 -24.234375 43.80078125 C-30.43256972 37.94201148 -34.88727628 32.24983046 -35.3125 23.375 C-35.0799341 16.09900968 -32.02229163 9.39729163 -26.875 4.25 C-18.5343921 -1.70516021 -9.87338366 -4.22435039 0 0 Z " fill="#040202" transform="translate(298.875,67.75)"/>
<path d="M0 0 C5.80153274 4.04520935 10.00982876 9.60453524 12 16.39453125 C13.17276483 25.19026751 10.62499772 31.37982885 5.875 38.64453125 C0.37312307 43.90719614 -5.34103062 46.66467553 -13 47.01953125 C-20.01497945 46.67689729 -25.85383472 44.57395409 -30.84765625 39.52734375 C-35.31163354 33.88979012 -38.63417904 27.88972104 -38.27734375 20.49609375 C-37.11707909 11.70422918 -33.20194857 5.45319442 -26.22265625 0.0078125 C-18.48810554 -4.65254046 -7.8632831 -4.09064176 0 0 Z " fill="#030202" transform="translate(368,118.60546875)"/>
<path d="M0 0 C6.41813917 -0.39976431 12.82885302 -0.68764719 19.2565918 -0.87890625 C21.43495997 -0.95869878 23.61248959 -1.06739771 25.7878418 -1.20703125 C44.79220455 -2.39507691 44.79220455 -2.39507691 51.62841797 3.3515625 C54.90282819 6.60933807 57.71985 10.12748446 60.42098999 13.86816406 C64.66242468 19.59456404 69.6685453 24.7706608 74.5 30 C90 46.84134615 90 46.84134615 90 50 C87.953125 51.91015625 87.953125 51.91015625 85.25 54.0625 C84.36828125 54.77535156 83.4865625 55.48820312 82.578125 56.22265625 C80.24798332 57.8290418 78.75649249 58.5813738 76 59 C65.37628074 47.47336066 65.37628074 47.47336066 61.5 43 C58.10036141 39.07734009 54.58494558 35.26384828 51.06884766 31.44604492 C47.736051 27.82074526 44.46460348 24.14929062 41.2421875 20.42578125 C40.51888012 19.59556994 39.7785963 18.7785963 39 18 C36.19023482 17.83982834 33.40226404 17.74049466 30.58984375 17.68359375 C29.74780899 17.66281265 28.90577423 17.64203156 28.03822327 17.62062073 C25.33806821 17.55503188 22.63781283 17.49619724 19.9375 17.4375 C18.11131759 17.39432363 16.28514546 17.35070964 14.45898438 17.30664062 C9.97275774 17.1985142 5.48645926 17.09951089 1 17 C0.67 11.39 0.34 5.78 0 0 Z " fill="#030101" transform="translate(313,0)"/>
<path d="M0 0 C0.70817871 0.00572021 1.41635742 0.01144043 2.14599609 0.01733398 C9.29858636 0.26201485 12.85436048 2.33462244 17.82421875 7.14453125 C24.77826534 14.6037144 25.55959027 21.46691279 25.41796875 31.33984375 C25.41372391 32.46193741 25.40947906 33.58403107 25.40510559 34.74012756 C25.38838097 38.30616767 25.35073922 41.87163215 25.3125 45.4375 C25.29744517 47.86262202 25.28375817 50.28775294 25.27148438 52.71289062 C25.23849778 58.6421218 25.18836008 64.57101976 25.125 70.5 C19.375 68.625 19.375 68.625 17.125 67.5 C14.920636 67.27049681 12.71107827 67.08924067 10.5 66.9375 C8.71722656 66.81181641 8.71722656 66.81181641 6.8984375 66.68359375 C5.98320312 66.62300781 5.06796875 66.56242187 4.125 66.5 C4.3415625 65.95214844 4.558125 65.40429688 4.78125 64.83984375 C8.22436442 55.03653186 9.06650975 44.68415754 4.6875 35.0625 C-0.58253705 25.89238869 -7.77594477 20.45949135 -17.875 17.5 C-19.53714809 17.14482031 -21.20298038 16.8053511 -22.875 16.5 C-21.58964627 10.64449969 -18.47766675 7.12767437 -13.875 3.5 C-9.28172394 0.69299796 -5.30448751 -0.04956879 0 0 Z " fill="#CE9C69" transform="translate(189.875,396.5)"/>
<path d="M0 0 C7.86705289 -0.02319672 15.73409773 -0.04095244 23.60117626 -0.05181217 C27.25439349 -0.05702497 30.90758728 -0.06409347 34.56079102 -0.07543945 C38.08803347 -0.08632536 41.61525341 -0.09228892 45.14251137 -0.09487724 C47.13938261 -0.09761703 49.13624483 -0.10542001 51.13310242 -0.11329651 C52.35399063 -0.11337204 53.57487885 -0.11344757 54.83276367 -0.11352539 C55.90531906 -0.115746 56.97787445 -0.11796661 58.08293152 -0.12025452 C60.83345618 -0.00686568 63.3236979 0.37614944 66 1 C64.63906883 3.72186234 63.12573704 4.00344243 60.375 5.25 C49.95526358 10.41546593 44.95689095 17.66306888 40 28 C39.505 30.475 39.505 30.475 39 33 C27.78 33 16.56 33 5 33 C4.75 22.6875 4.75 22.6875 4.70214844 19.51049805 C4.6715332 18.64465088 4.64091797 17.77880371 4.609375 16.88671875 C4.58842773 16.02264404 4.56748047 15.15856934 4.54589844 14.26831055 C3.71298908 9.28165688 1.82434945 4.70055344 0 0 Z " fill="#FAD56F" transform="translate(111,380)"/>
<path d="M0 0 C4.03578473 1.56223925 7.97226323 3.31510197 11.9140625 5.09765625 C15.88825689 6.81683023 19.00056381 7.14700957 23.30737305 7.20532227 C24.60849533 7.22526749 25.90961761 7.24521271 27.25016785 7.26576233 C28.6706836 7.28274546 30.0912006 7.29962431 31.51171875 7.31640625 C32.96475306 7.33698137 34.41778146 7.35797799 35.87080383 7.37937927 C39.6929953 7.43454234 43.51524026 7.48397698 47.33752441 7.53222656 C51.23873652 7.58248372 55.13987105 7.63814778 59.04101562 7.69335938 C66.69394652 7.80087044 74.34694252 7.90183127 82 8 C82 13.28 82 18.56 82 24 C73.92398073 24.06797409 65.84818661 24.12292972 57.7719574 24.15543652 C54.02120268 24.17104388 50.27065508 24.19219093 46.52001953 24.22631836 C42.89548731 24.25908923 39.2711534 24.27689003 35.64648438 24.28463173 C34.26868573 24.29014364 32.89089704 24.30090661 31.51318359 24.31719017 C23.06193955 24.41303887 16.02663109 24.40834518 8.828125 19.52734375 C3.38109928 14.03986982 0 7.84228002 0 0 Z " fill="#FAD66F" transform="translate(66,471)"/>
<path d="M0 0 C5.28 0 10.56 0 16 0 C16.71927674 8.91903155 14.04180834 15.20984608 8.6875 22.3125 C2.48168153 28.51831847 -5.67306033 33.04509823 -14.58007812 33.34057617 C-16.23054498 33.34010882 -17.88106769 33.32361813 -19.53125 33.29296875 C-20.40777222 33.28872391 -21.28429443 33.28447906 -22.18737793 33.28010559 C-24.95857823 33.2634513 -27.72902336 33.22582509 -30.5 33.1875 C-32.39061442 33.17243599 -34.28124036 33.1587506 -36.171875 33.14648438 C-40.78176768 33.11615613 -45.39004893 33.05741175 -50 33 C-50 27.39 -50 21.78 -50 16 C-47.32648438 15.96261719 -44.65296875 15.92523438 -41.8984375 15.88671875 C-39.29695656 15.84045104 -36.69561652 15.78923653 -34.09423828 15.73754883 C-32.29224271 15.70438227 -30.49014533 15.67632475 -28.68798828 15.65356445 C-26.09103177 15.61986568 -23.49500134 15.56754351 -20.8984375 15.51171875 C-19.69808365 15.50213387 -19.69808365 15.50213387 -18.47348022 15.49235535 C-12.45667892 15.33571721 -8.14274354 14.14274354 -3.75 9.75 C-1.49782812 6.49870605 -1.49782812 6.49870605 0 0 Z " fill="#070605" transform="translate(165,314)"/>
<path d="M0 0 C5.94 0 11.88 0 18 0 C18 22.11 18 44.22 18 67 C12.06 67 6.12 67 0 67 C0 44.89 0 22.78 0 0 Z " fill="#000000" transform="translate(412,0)"/>
<path d="M0 0 C5.1909787 4.04939417 10.02664249 9.04640176 11.8828125 15.46875 C12.02038225 18.12384615 12.07310323 20.6363975 12.0078125 23.28125 C11.9665625 25.653125 11.9253125 28.025 11.8828125 30.46875 C6.2728125 30.46875 0.6628125 30.46875 -5.1171875 30.46875 C-5.3125 25.53710938 -5.3125 25.53710938 -5.5078125 20.60546875 C-5.83477366 17.4214866 -5.83477366 17.4214866 -7.94140625 15.546875 C-11.29787245 13.88370683 -13.57838211 14.50362126 -17.1171875 15.46875 C-20.11570618 18.51630988 -20.55513475 21.02626385 -20.8046875 25.21875 C-20.9078125 26.95125 -21.0109375 28.68375 -21.1171875 30.46875 C-26.3971875 30.46875 -31.6771875 30.46875 -37.1171875 30.46875 C-37.98036514 13.49292302 -37.98036514 13.49292302 -33.03515625 6.52734375 C-24.71591457 -2.4018627 -11.16506942 -6.54020803 0 0 Z " fill="#050403" transform="translate(120.1171875,250.53125)"/>
<path d="M0 0 C5.1909787 4.04939417 10.02664249 9.04640176 11.8828125 15.46875 C12.02038225 18.12384615 12.07310323 20.6363975 12.0078125 23.28125 C11.9665625 25.653125 11.9253125 28.025 11.8828125 30.46875 C6.6028125 30.46875 1.3228125 30.46875 -4.1171875 30.46875 C-4.1790625 28.756875 -4.2409375 27.045 -4.3046875 25.28125 C-4.67910586 21.30626061 -5.00749536 19.63651446 -7.2421875 16.21875 C-10.07247118 14.16423889 -10.07247118 14.16423889 -13.7421875 14.40625 C-17.51339135 15.59348084 -18.18850102 16.14869439 -20.1171875 19.46875 C-20.68948618 22.27758637 -20.68948618 22.27758637 -20.8046875 25.21875 C-20.9078125 26.95125 -21.0109375 28.68375 -21.1171875 30.46875 C-26.3971875 30.46875 -31.6771875 30.46875 -37.1171875 30.46875 C-37.63432756 12.54122796 -37.63432756 12.54122796 -31.7421875 5.71875 C-30.8759375 4.97625 -30.0096875 4.23375 -29.1171875 3.46875 C-27.910625 2.3859375 -27.910625 2.3859375 -26.6796875 1.28125 C-19.20862472 -4.00316026 -7.99608568 -4.68389956 0 0 Z " fill="#030202" transform="translate(186.1171875,250.53125)"/>
<path d="M0 0 C7.98893585 0.35506382 12.69417515 2.32100598 18.1875 8.3125 C24.23616978 15.19431989 24.41858227 22.08288644 24.29296875 30.83984375 C24.28872391 31.96193741 24.28447906 33.08403107 24.28010559 34.24012756 C24.26338097 37.80616767 24.22573922 41.37163215 24.1875 44.9375 C24.17244517 47.36262202 24.15875817 49.78775294 24.14648438 52.21289062 C24.11349778 58.1421218 24.06336008 64.07101976 24 70 C18.25 68.125 18.25 68.125 16 67 C14.46331135 66.77532169 12.92031946 66.59203195 11.375 66.4375 C10.14910156 66.31181641 10.14910156 66.31181641 8.8984375 66.18359375 C8.27195313 66.12300781 7.64546875 66.06242187 7 66 C6.99413376 65.40833038 6.98826752 64.81666077 6.98222351 64.20706177 C6.91793513 58.00915635 6.83342701 51.81175328 6.73754883 45.61425781 C6.70444072 43.30605726 6.67636556 40.9977785 6.65356445 38.68945312 C6.61975817 35.35773611 6.56742933 32.02672682 6.51171875 28.6953125 C6.50532883 27.67511017 6.4989389 26.65490784 6.49235535 25.60379028 C6.31752354 16.94563531 4.8053981 9.32251139 0 2 C0 1.34 0 0.68 0 0 Z " fill="#CC9B68" transform="translate(224,397)"/>
<path d="M0 0 C3.50625 -0.0825 7.0125 -0.165 10.625 -0.25 C11.71893066 -0.28641602 12.81286133 -0.32283203 13.93994141 -0.36035156 C19.80629206 -0.42707579 23.44731857 -0.09885401 28 4 C31.10104944 7.4976953 32.82071062 10.88442162 33.5625 15.5 C32.64241645 21.22496433 30.65188783 25.42869206 26.4375 29.4375 C22.88553082 31.71440332 20.23860447 32.12265821 16.11328125 32.09765625 C15.26805908 32.09515869 14.42283691 32.09266113 13.55200195 32.09008789 C12.48296631 32.08098389 11.41393066 32.07187988 10.3125 32.0625 C5.2078125 32.0315625 5.2078125 32.0315625 0 32 C0 21.44 0 10.88 0 0 Z " fill="#EECEB2" transform="translate(149,430)"/>
<path d="M0 0 C5.94 0 11.88 0 18 0 C18 16.5 18 33 18 50 C12.06 50 6.12 50 0 50 C0 33.5 0 17 0 0 Z " fill="#000000" transform="translate(16,33)"/>
<path d="M0 0 C5.94 0 11.88 0 18 0 C18 16.5 18 33 18 50 C12.06 50 6.12 50 0 50 C0 33.5 0 17 0 0 Z " fill="#000000" transform="translate(49,0)"/>
<path d="M0 0 C5.94 0 11.88 0 18 0 C17.67 16.17 17.34 32.34 17 49 C11.72 49 6.44 49 1 49 C0.67 32.83 0.34 16.66 0 0 Z " fill="#000000" transform="translate(280,0)"/>
<path d="M0 0 C5.28 0 10.56 0 16 0 C16 16.17 16 32.34 16 49 C10.72 49 5.44 49 0 49 C0 32.83 0 16.66 0 0 Z " fill="#000000" transform="translate(347,50)"/>
<path d="M0 0 C1.14984375 -0.01546875 2.2996875 -0.0309375 3.484375 -0.046875 C10.19686733 -0.01594186 14.59293212 0.40937093 20 4.5 C23.84101524 9.03042823 24 10.26131024 24 16.5 C8.16 16.5 -7.68 16.5 -24 16.5 C-24 10.26131024 -23.84101524 9.03042823 -20 4.5 C-13.65241722 -0.30216028 -7.76733908 -0.10449335 0 0 Z " fill="#CC9C74" transform="translate(190,478.5)"/>
<path d="M0 0 C0 10.89 0 21.78 0 33 C-6.24601419 33 -7.42788179 32.77696721 -12 29 C-16.13650633 23.52192405 -17.87558851 18.89050085 -17 12 C-14.75524109 6.48163436 -12.11885488 3.95221445 -7.09765625 0.84765625 C-5 0 -5 0 0 0 Z " fill="#E3C5AA" transform="translate(50,264)"/>
<path d="M0 0 C6.6355741 1.10592902 9.8480164 2.61536952 14.3125 7.5625 C17.22383696 11.76776449 17.77462744 16.0049886 17 21 C14.5313059 27.12191856 10.99690233 30.429899 5 33 C3.35 33 1.7 33 0 33 C0 22.11 0 11.22 0 0 Z " fill="#E6C7AC" transform="translate(231,264)"/>
<path d="M0 0 C4.10703441 0.85563217 5.55401113 2.24378009 8 5.625 C8.63127485 9.62307408 8.67917484 11.63235985 6.375 15 C3.41546447 17.02494536 1.5948199 17.625 -2 17.625 C-4.74716387 15.85460551 -6.53145922 14.56208156 -8 11.625 C-8.54035146 7.57236402 -8.34199395 6.08769769 -5.875 2.75 C-3 0.625 -3 0.625 0 0 Z " fill="#64CDEA" transform="translate(355,131.375)"/>
<path d="M0 0 C4.10703441 0.85563217 5.55401113 2.24378009 8 5.625 C8.63127485 9.62307408 8.67917484 11.63235985 6.375 15 C3.41546447 17.02494536 1.5948199 17.625 -2 17.625 C-4.74716387 15.85460551 -6.53145922 14.56208156 -8 11.625 C-8.54035146 7.57236402 -8.34199395 6.08769769 -5.875 2.75 C-3 0.625 -3 0.625 0 0 Z " fill="#64CDEA" transform="translate(421,98.375)"/>
<path d="M0 0 C2.5 1.5625 2.5 1.5625 4 4 C4.5625 7.4375 4.5625 7.4375 4 11 C1.55401113 14.38121991 0.10703441 15.76936783 -4 16.625 C-8.10703441 15.76936783 -9.55401113 14.38121991 -12 11 C-12.62491523 7.04220351 -12.61006839 4.99136114 -10.5 1.5625 C-6.97873756 -0.63828902 -4.04560357 -0.80414661 0 0 Z " fill="#66D1EE" transform="translate(293,83)"/>
<path d="M0 0 C3 2 3 2 5 5 C5.32035831 7.88884515 4.96503736 10.26474073 4 13 C1.65798844 15.88247576 0.20016837 15.97497895 -3.5 16.4375 C-7 16 -7 16 -9.4375 14.5 C-11.63828902 10.97873756 -11.80414661 8.04560357 -11 4 C-8.16650967 -0.53358453 -5.10426635 -0.80593679 0 0 Z " fill="#66D0EE" transform="translate(28,116)"/>
<path d="M0 0 C6.99387206 0.99912458 10.5214407 1.86049156 14.875 7.375 C16 10 16 10 16 16 C10.72 16 5.44 16 0 16 C0 10.72 0 5.44 0 0 Z " fill="#C89872" transform="translate(231,479)"/>
<path d="M0 0 C4.15358254 3.43469325 7.78875342 6.63270466 11 11 C7.37 12.32 3.74 13.64 0 15 C0 10.05 0 5.1 0 0 Z " fill="#DCDFE3" transform="translate(66,353)"/>
</svg>
