<?xml version="1.0" encoding="UTF-8"?>
<svg version="1.1" xmlns="http://www.w3.org/2000/svg" width="512" height="512">
<path d="M0 0 C1.14081407 0.76870304 2.26851917 1.55764984 3.375 2.375 C4.24125 2.91125 5.1075 3.4475 6 4 C8.42060624 3.28404122 8.42060624 3.28404122 11 2 C11.90878906 1.58621094 12.81757813 1.17242187 13.75390625 0.74609375 C15.62943903 -0.12776367 17.50443795 -1.00276781 19.37890625 -1.87890625 C29.82761596 -6.3480265 45.03943163 -5.47600694 55.39453125 -1.328125 C65.52444752 3.83555046 73.8133399 10.83414621 79 21 C79.5787085 20.83991455 80.15741699 20.6798291 80.75366211 20.51489258 C92.04803204 17.92606243 104.62945616 19.40382888 114.41796875 25.5078125 C123.1904189 31.82632768 129.89471069 40.24526908 132 51 C133.11676175 64.9501636 133.11676175 64.9501636 131.41577148 71.11865234 C130.76314941 73.0961275 130.76314941 73.0961275 132.109375 75.04296875 C132.65078125 75.75066406 133.1921875 76.45835938 133.75 77.1875 C140.62710024 87.10331895 141.1394813 97.19881774 140 109 C138.05407622 119.20692096 131.84003568 127.60445238 123.375 133.5 C120.04403725 135.54360626 116.80791187 137.02361234 113 138 C113.30744141 138.80050781 113.30744141 138.80050781 113.62109375 139.6171875 C117.82174245 151.23429252 118.07107754 162.65213663 113 174.125 C107.95795924 183.30713287 99.93096991 190.57060032 90 194 C88.44690735 194.36782238 86.88994666 194.7195335 85.33032227 195.05859375 C84.51950699 195.23575928 83.70869171 195.4129248 82.87330627 195.59545898 C82.2551152 195.72895752 81.63692413 195.86245605 81 196 C81.49177734 197.0837793 81.98355469 198.16755859 82.49023438 199.28417969 C91.39964923 218.92425368 100.28673515 238.57302708 109.02215576 258.29119873 C112.91849783 267.08554557 116.83386636 275.87080519 120.78515625 284.640625 C121.18918167 285.53735931 121.59320709 286.43409363 122.00947571 287.35800171 C124.32859927 292.50318965 126.65071983 297.64701099 128.97712708 302.78890991 C129.68034622 304.35140132 130.37849301 305.91618635 131.07133484 307.48330688 C132.58115844 310.89685903 134.11261977 314.26540873 135.85449219 317.56738281 C141.44838683 328.78463088 140 333.58983708 140 348 C117.56 348 95.12 348 72 348 C73.485 352.455 73.485 352.455 75 357 C79.23460616 374.3045863 75.16090227 391.24601501 68 407 C91.1 430.1 114.2 453.2 138 477 C136.07859132 480.84281736 134.4073184 482.80431927 131.375 485.75 C130.55773437 486.54921875 129.74046875 487.3484375 128.8984375 488.171875 C128.27195312 488.77515625 127.64546875 489.3784375 127 490 C124.19612942 488.72113231 122.14751465 487.39618952 119.97540283 485.21591187 C119.40615585 484.64941422 118.83690887 484.08291656 118.25041199 483.49925232 C117.63829361 482.87994339 117.02617523 482.26063446 116.39550781 481.62255859 C115.74143448 480.96877731 115.08736115 480.31499603 114.41346741 479.6414032 C112.25524486 477.48178862 110.10419064 475.3151788 107.953125 473.1484375 C106.45712191 471.64870384 104.96067631 470.14941147 103.46380615 468.65054321 C99.52699775 464.70610188 95.59623266 460.75569106 91.66668701 456.80401611 C87.65511502 452.77197847 83.63786906 448.74560286 79.62109375 444.71875 C71.74182555 436.81803787 63.86892875 428.9110091 56 421 C52.03520428 422.47930193 49.22411767 424.23647057 46 427 C58.18562393 444.1093862 70.50830016 461.1126013 83 478 C81.26450191 481.83342952 79.39620593 483.40252938 75.875 485.75 C74.96492188 486.36359375 74.05484375 486.9771875 73.1171875 487.609375 C72.41851562 488.06828125 71.71984375 488.5271875 71 489 C67.72597788 487.61366659 66.07186752 486.15493288 64.00390625 483.28125 C63.4519458 482.52295898 62.89998535 481.76466797 62.33129883 480.98339844 C61.74759521 480.16387695 61.1638916 479.34435547 60.5625 478.5 C59.94850342 477.65211914 59.33450684 476.80423828 58.7019043 475.93066406 C56.79369494 473.29247843 54.89659191 470.64654501 53 468 C51.86027163 466.42122733 50.71968322 464.84307507 49.578125 463.265625 C47.95417354 461.02144438 46.33150508 458.77643175 44.71435547 456.52734375 C42.08289082 452.86815364 39.4335352 449.22481142 36.7421875 445.609375 C36.22744873 444.91618164 35.71270996 444.22298828 35.18237305 443.50878906 C34.20872946 442.20042071 33.23121331 440.89492249 32.24926758 439.59277344 C29 435.22136444 29 435.22136444 29 433 C27.865625 433.2165625 26.73125 433.433125 25.5625 433.65625 C24.0417357 433.93787302 22.52089838 434.21910196 21 434.5 C20.25621094 434.64308594 19.51242187 434.78617187 18.74609375 434.93359375 C18.00488281 435.06894531 17.26367188 435.20429688 16.5 435.34375 C15.49453125 435.53227539 15.49453125 435.53227539 14.46875 435.72460938 C10.99947776 436.11160889 7.49079053 436 4 436 C4 454.48 4 472.96 4 492 C-1.28 492.33 -6.56 492.66 -12 493 C-13 492 -13 492 -13.12025452 489.75376892 C-13.11803391 488.76115555 -13.11581329 487.76854218 -13.11352539 486.74584961 C-13.11344986 485.62476303 -13.11337433 484.50367645 -13.11329651 483.34861755 C-13.10813522 482.1288472 -13.10297394 480.90907684 -13.09765625 479.65234375 C-13.09553383 477.7899984 -13.09553383 477.7899984 -13.09336853 475.89002991 C-13.08870591 472.58394509 -13.07971497 469.27792854 -13.06866455 465.97186279 C-13.05844827 462.6003885 -13.05387045 459.22890717 -13.04882812 455.85742188 C-13.03777395 449.23826225 -13.02101736 442.61913507 -13 436 C-14.2080127 435.91020874 -14.2080127 435.91020874 -15.44042969 435.81860352 C-16.50680664 435.73537842 -17.57318359 435.65215332 -18.671875 435.56640625 C-19.7247168 435.48592041 -20.77755859 435.40543457 -21.86230469 435.32250977 C-26.02695218 434.89444415 -29.94143366 434.01464158 -34 433 C-34.40943848 434.0974353 -34.40943848 434.0974353 -34.82714844 435.21704102 C-35.94520076 437.86997158 -37.20865644 440.11177555 -38.765625 442.52734375 C-39.31935791 443.39157959 -39.87309082 444.25581543 -40.44360352 445.14624023 C-41.03971436 446.06735596 -41.6358252 446.98847168 -42.25 447.9375 C-43.51451719 449.90612523 -44.7788341 451.87487911 -46.04296875 453.84375 C-46.69442871 454.85566406 -47.34588867 455.86757813 -48.01708984 456.91015625 C-49.97711224 459.96433544 -51.92287037 463.02707973 -53.86328125 466.09375 C-54.48364258 467.07351807 -55.10400391 468.05328613 -55.74316406 469.06274414 C-56.92719112 470.93364036 -58.11018845 472.8051888 -59.29199219 474.67749023 C-62.39146127 479.56296186 -65.58660893 484.32804015 -69 489 C-70.77178053 488.043419 -72.54239076 487.08467012 -74.3125 486.125 C-75.29863281 485.59132813 -76.28476562 485.05765625 -77.30078125 484.5078125 C-80 483 -80 483 -83 481 C-82.3858783 478.04887201 -81.4628105 475.83034288 -79.8828125 473.26953125 C-79.44630371 472.55764648 -79.00979492 471.84576172 -78.56005859 471.11230469 C-78.08648926 470.35336914 -77.61291992 469.59443359 -77.125 468.8125 C-76.63467285 468.01875977 -76.1443457 467.22501953 -75.63916016 466.40722656 C-72.27495136 460.98454721 -68.84443094 455.60584922 -65.375 450.25 C-64.92560059 449.55608154 -64.47620117 448.86216309 -64.01318359 448.1472168 C-61.79021733 444.72507166 -59.54724933 441.31827369 -57.2734375 437.9296875 C-56.84756348 437.28741211 -56.42168945 436.64513672 -55.98291016 435.98339844 C-55.18132621 434.77514952 -54.37150956 433.5723083 -53.55224609 432.37597656 C-52.35001154 430.60667362 -52.35001154 430.60667362 -51 428 C-52.16269784 423.42725418 -52.16269784 423.42725418 -62 419 C-85.43 442.43 -108.86 465.86 -133 490 C-136.84281736 488.07859132 -138.80431927 486.4073184 -141.75 483.375 C-142.94882812 482.14910156 -142.94882812 482.14910156 -144.171875 480.8984375 C-144.77515625 480.27195312 -145.3784375 479.64546875 -146 479 C-144.70701105 476.15625973 -143.34960102 474.10105702 -141.13998413 471.8994751 C-140.55665817 471.31339981 -139.97333221 470.72732452 -139.37232971 470.12348938 C-138.4153141 469.1772596 -138.4153141 469.1772596 -137.43896484 468.21191406 C-136.76567642 467.53833359 -136.092388 466.86475311 -135.3986969 466.17076111 C-133.17415197 463.94760846 -130.94260871 461.73162207 -128.7109375 459.515625 C-127.16636338 457.97478135 -125.62223049 456.43349528 -124.07852173 454.89178467 C-120.01571302 450.83660963 -115.94693378 446.78747676 -111.87689209 442.73956299 C-107.72420894 438.60734389 -103.57718656 434.46945243 -99.4296875 430.33203125 C-91.29199602 422.21578501 -83.14798731 414.10590917 -75 406 C-76.66692061 401.75913195 -78.63274351 397.80831776 -80.78125 393.79296875 C-83.81266807 386.845969 -84.36399089 380.29318899 -84.375 372.8125 C-84.39949219 371.95591797 -84.42398437 371.09933594 -84.44921875 370.21679688 C-84.48548917 362.06199772 -82.6045986 357.46494546 -80 349 C-216.62 348.505 -216.62 348.505 -356 348 C-356 324.90800049 -356 324.90800049 -351.27734375 315.578125 C-350.93815918 314.89556641 -350.59897461 314.21300781 -350.24951172 313.50976562 C-349.89904785 312.80529297 -349.54858398 312.10082031 -349.1875 311.375 C-348.46217341 309.84302031 -347.74093475 308.30909962 -347.0234375 306.7734375 C-345.49916155 303.52126618 -343.95637024 300.2788736 -342.39990234 297.04199219 C-338.69850998 289.3108141 -335.21170714 281.48190618 -331.69885254 273.66381836 C-330.09389911 270.09765467 -328.47849894 266.53626317 -326.86343384 262.97467041 C-322.1736033 252.62918661 -317.53973525 242.25970464 -312.9375 231.875 C-307.26955152 219.08582403 -301.55852533 206.31679774 -295.8125 193.5625 C-295.43121948 192.71615997 -295.04993896 191.86981995 -294.65710449 190.99783325 C-293.15517492 187.66415254 -291.65317719 184.33050256 -290.15100098 180.99693298 C-285.78201301 171.29978037 -281.43292481 161.59375078 -277.0859375 151.88671875 C-274.94962838 147.11653842 -272.80837632 142.34861559 -270.6640625 137.58203125 C-265.01644205 125.02150331 -259.4052054 112.44894528 -253.98168945 99.78955078 C-253.41067505 98.46286377 -253.41067505 98.46286377 -252.828125 97.109375 C-252.3316748 95.94873535 -252.3316748 95.94873535 -251.82519531 94.76464844 C-251 93 -251 93 -250 92 C-248.26678538 91.89153389 -246.52915544 91.85313173 -244.79258728 91.84178162 C-243.09928032 91.82709839 -243.09928032 91.82709839 -241.37176514 91.81211853 C-240.12236145 91.80636307 -238.87295776 91.8006076 -237.58569336 91.79467773 C-236.27856888 91.78477814 -234.9714444 91.77487854 -233.62471008 91.76467896 C-230.02986239 91.73756592 -226.43500149 91.71659113 -222.84010768 91.69667697 C-219.0871111 91.67485674 -215.33415554 91.64744873 -211.58119202 91.62062073 C-204.4697215 91.57064008 -197.35822827 91.52572126 -190.24671322 91.48259836 C-182.1525002 91.4332718 -174.05832833 91.37833674 -165.96415508 91.32291877 C-149.30947462 91.20901629 -132.65475649 91.10219535 -116 91 C-115.73735352 90.23448822 -115.47470703 89.46897644 -115.20410156 88.68026733 C-114.8531543 87.68153595 -114.50220703 86.68280457 -114.140625 85.65380859 C-113.62290527 84.16522842 -113.62290527 84.16522842 -113.09472656 82.64657593 C-112 80 -112 80 -109.75 77.5390625 C-106.3601828 72.62080094 -107.86809755 66.00975151 -108.15625 60.25390625 C-108.47510643 49.69178711 -105.82902549 41.20379565 -98.97265625 33.06640625 C-91.51593736 25.25530864 -83.34662314 20.1746122 -72.3671875 19.7265625 C-59.96277534 19.51861233 -59.96277534 19.51861233 -57 21 C-56.88914062 20.43023437 -56.77828125 19.86046875 -56.6640625 19.2734375 C-54.28359147 11.12382492 -47.6639112 4.65994317 -40.47265625 0.55859375 C-28.11392657 -5.81132419 -12.52698988 -6.64242524 0 0 Z " fill="#010101" transform="translate(364,12)"/>
<path d="M0 0 C84.15 0 168.3 0 255 0 C263.10756338 17.37335011 263.10756338 17.37335011 265.76171875 23.171875 C266.07427612 23.85396027 266.3868335 24.53604553 266.7088623 25.23880005 C267.70263537 27.40879238 268.69525937 29.57930655 269.6875 31.75 C270.03382477 32.50734436 270.38014954 33.26468872 270.73696899 34.04498291 C276.26142884 46.13170406 281.70066191 58.25332885 287.078125 70.40625 C290.17556238 77.40587168 293.30385545 84.39152922 296.4375 91.375 C296.70766937 91.97721375 296.97783875 92.57942749 297.25619507 93.19989014 C298.62350494 96.24763194 299.99110136 99.295245 301.35888672 102.34277344 C304.07468343 108.39424407 306.78707458 114.44724177 309.5 120.5 C310.58331931 122.91667295 311.66665265 125.33333962 312.75 127.75 C319.25 142.25 325.75 156.75 332.25 171.25 C332.78729736 172.44842529 333.32459473 173.64685059 333.87817383 174.8815918 C334.95141469 177.27606761 336.02417593 179.67075845 337.09643555 182.06567383 C339.64571379 187.75796168 342.20003457 193.44776564 344.77114868 199.13021851 C345.99269935 201.83075885 347.21154663 204.53251528 348.43017578 207.234375 C349.01491931 208.52877131 349.60100402 209.82256264 350.18847656 211.11572266 C351.00007946 212.90246037 351.8068046 214.69141136 352.61328125 216.48046875 C353.07516846 217.50035889 353.53705566 218.52024902 354.01293945 219.57104492 C355 222 355 222 355 224 C347.53547702 224.49007116 340.0726374 224.86131946 332.59562397 225.08805561 C329.12066063 225.19702513 325.65679432 225.34404024 322.18823242 225.58422852 C299.88072453 227.08873994 299.88072453 227.08873994 293.51620483 222.02310181 C289.33732481 217.10493076 286.7155828 211.6264684 284.23968506 205.70922852 C282.23003302 201.31730125 279.47247429 197.49013436 276.6875 193.5625 C259.49158418 168.15032919 259.49158418 168.15032919 259.8125 156.0625 C259.82603516 155.37865234 259.83957031 154.69480469 259.85351562 153.99023438 C259.88841972 152.3264725 259.94220804 150.66312416 260 149 C238.40703704 156.77246699 217.25281971 166.5657089 205 187 C204.34 187.99 203.68 188.98 203 190 C198.01668872 188.3601244 193.06976488 186.6266201 188.125 184.875 C187.34125 184.59785156 186.5575 184.32070313 185.75 184.03515625 C183.83316356 183.35725068 181.9165581 182.67869207 180 182 C180.04640625 182.89460937 180.0928125 183.78921875 180.140625 184.7109375 C180.56230694 198.83728264 175.95106482 206.63246201 168 218 C167.43496765 219.03492584 166.8699353 220.06985168 166.28778076 221.13613892 C164 224 164 224 160.97540283 224.7215271 C159.79403748 224.70820343 158.61267212 224.69487976 157.39550781 224.68115234 C156.41439781 224.68246658 156.41439781 224.68246658 155.41346741 224.68380737 C153.25879017 224.67963816 151.10725564 224.6330315 148.953125 224.5859375 C147.45670269 224.57474265 145.96025834 224.56620382 144.46380615 224.56021118 C140.53081221 224.53733458 136.59915418 224.47842456 132.66668701 224.4119873 C128.6516731 224.35053767 124.63644266 224.32319064 120.62109375 224.29296875 C112.7467837 224.22867745 104.87355816 224.1263153 97 224 C87.51965926 202.58551258 78.13481284 181.13288225 68.86021423 159.62844849 C65.68613954 152.26944539 62.50050835 144.91547522 59.3125 137.5625 C58.52528564 135.74637207 58.52528564 135.74637207 57.72216797 133.89355469 C56.67371641 131.47475001 55.62521413 129.05596732 54.57666016 126.63720703 C52.15574633 121.05238601 49.73564169 115.46721442 47.31552124 109.88204956 C45.96038504 106.75468344 44.6051896 103.62734298 43.25 100.5 C42.70833305 99.25000012 42.16666638 98.00000012 41.625 96.75 C41.356875 96.13125 41.08875 95.5125 40.8125 94.875 C25.375 59.25 25.375 59.25 24.56268311 57.37541199 C24.02041636 56.12403424 23.47813933 54.87266096 22.93585205 53.62129211 C21.59078259 50.51740788 20.2458857 47.41344911 18.90136719 44.30932617 C16.3555828 38.43232384 13.80792338 32.556152 11.25463867 26.68240356 C10.04403972 23.89718861 8.83436105 21.1115744 7.62475586 18.32592773 C7.04595305 16.99369588 6.46669568 15.66166141 5.88696289 14.32983398 C5.08496212 12.48731139 4.28462909 10.64406314 3.484375 8.80078125 C3.02772461 7.75059814 2.57107422 6.70041504 2.10058594 5.6184082 C1 3 1 3 0 0 Z " fill="#68D5F3" transform="translate(132,120)"/>
<path d="M0 0 C6.15777101 3.1217968 10.15297495 7.95682168 14.4921875 13.19921875 C15.47870617 14.21252073 16.47361653 15.21814119 17.4921875 16.19921875 C18.23082031 15.39097656 18.96945312 14.58273438 19.73046875 13.75 C27.31438634 5.66821845 34.39020322 -0.84206558 46.0546875 -1.30078125 C55.27366037 -0.80245839 63.52690885 2.02075862 70.4921875 8.19921875 C77.27460385 16.15949748 80.05026847 23.28229025 79.87109375 33.74609375 C79.03493127 41.36637859 75.74078696 49.06667087 70.4140625 54.66796875 C63.57723856 60.11519433 56.16185956 62.91022968 47.4921875 63.19921875 C47.4921875 68.47921875 47.4921875 73.75921875 47.4921875 79.19921875 C62.61075414 76.37176404 75.62801821 72.97991266 85.4921875 60.19921875 C92.09338392 49.29399177 94.56067088 39.51997774 95.1484375 26.82421875 C95.31859375 25.52484375 95.31859375 25.52484375 95.4921875 24.19921875 C100.38519493 21.75271503 107.07089121 22.83090467 112.1796875 24.26171875 C118.45329092 26.63371722 122.58266165 31.24991249 125.9296875 36.94921875 C128.60246925 42.98040886 128.62332549 49.11500858 126.36328125 55.27734375 C125.4800524 57.19981338 124.55681576 59.10464681 123.5859375 60.984375 C122.34459406 63.08639769 122.34459406 63.08639769 122.4921875 65.19921875 C123.69957796 66.30990075 124.95953581 67.36387424 126.2421875 68.38671875 C130.13885459 71.68336807 132.25569304 74.63677005 134.4921875 79.19921875 C134.8221875 79.85921875 135.1521875 80.51921875 135.4921875 81.19921875 C136.47454396 89.28260907 135.14761462 95.49822517 130.4921875 102.19921875 C125.90546685 107.47617406 120.08305734 110.7676621 113.08203125 111.42578125 C109.95828638 111.15251247 107.93798399 110.17031021 105.1796875 108.69921875 C104.29667969 108.23515625 103.41367187 107.77109375 102.50390625 107.29296875 C101.84003906 106.93203125 101.17617188 106.57109375 100.4921875 106.19921875 C100.29882812 106.86308594 100.10546875 107.52695313 99.90625 108.2109375 C97.31995551 116.98129256 97.31995551 116.98129256 95.4921875 121.19921875 C96.7296875 121.41578125 96.7296875 121.41578125 97.9921875 121.63671875 C104.17373687 124.396339 108.3469835 129.52707607 110.9921875 135.69921875 C112.26064427 144.57841614 111.62917138 150.55226553 106.4921875 158.19921875 C102.22672374 163.23733476 96.96533907 166.00126538 90.4921875 167.19921875 C88.15925747 167.24259968 85.82496431 167.25017747 83.4921875 167.19921875 C83.04903198 166.20015503 83.04903198 166.20015503 82.59692383 165.1809082 C75.43592612 149.04153316 68.23985862 132.91842704 61.00953674 116.80996704 C58.94283339 112.20508131 56.87915632 107.59884527 54.81640625 102.9921875 C53.91627176 100.9823916 53.01610691 98.9726093 52.11593628 96.96282959 C51.53696301 95.66996251 50.95812425 94.37703519 50.37942505 93.08404541 C49.57886282 91.29543812 48.77772679 89.50708769 47.9765625 87.71875 C47.51991211 86.69885986 47.06326172 85.67896973 46.59277344 84.62817383 C45.9184105 83.13987816 45.22291171 81.66066718 44.4921875 80.19921875 C1.2621875 79.86921875 -41.9678125 79.53921875 -86.5078125 79.19921875 C-84.24312965 72.4051702 -84.24312965 72.4051702 -80.1953125 68.94921875 C-79.43605469 68.2840625 -78.67679687 67.61890625 -77.89453125 66.93359375 C-73.15282647 63.48790321 -70.54261196 63.19921875 -64.5078125 63.19921875 C-64.5078125 57.91921875 -64.5078125 52.63921875 -64.5078125 47.19921875 C-66.0340625 47.50859375 -67.5603125 47.81796875 -69.1328125 48.13671875 C-72.91505276 48.8942413 -76.69708798 49.5975254 -80.5078125 50.19921875 C-81.05711897 43.60754111 -80.50449314 38.60961888 -76.5078125 33.19921875 C-71.79072008 28.22691051 -67.1831368 23.79524519 -60.1484375 22.8984375 C-52.26118484 22.8597745 -45.63022263 23.85588761 -39.6953125 29.38671875 C-34.5291154 35.08154997 -32.5078125 39.45720827 -32.5078125 47.19921875 C-27.2278125 47.19921875 -21.9478125 47.19921875 -16.5078125 47.19921875 C-18.66595016 35.49984088 -21.4030779 26.96109399 -29.5078125 18.19921875 C-30.1678125 17.86921875 -30.8278125 17.53921875 -31.5078125 17.19921875 C-30.65329836 10.81810667 -26.71638327 6.7927517 -21.81640625 2.83203125 C-15.35997173 -1.60171075 -7.46621689 -2.38407237 0 0 Z " fill="#B2DB7E" transform="translate(352.5078125,24.80078125)"/>
<path d="M0 0 C16.93471997 -0.82030398 30.34856616 0.90510741 44 12 C44.83273438 12.62648438 45.66546875 13.25296875 46.5234375 13.8984375 C55.72130296 21.70356624 63.11938982 35.34050337 64.22119141 47.42626953 C64.69673136 58.40011278 64.89777472 68.93235196 60 79 C59.54109375 79.96164063 59.0821875 80.92328125 58.609375 81.9140625 C50.87991674 97.00684678 38.70556702 105.53970206 22.83984375 111.109375 C10.75584347 113.91217466 -3.79719896 113.45001132 -15 108 C-15.96164063 107.54109375 -16.92328125 107.0821875 -17.9140625 106.609375 C-33.02551856 98.87035438 -41.55300888 86.67701289 -47.125 70.79296875 C-48.20100833 66.12866478 -48.2191934 61.82651236 -48.125 57.0625 C-48.11597656 56.18787109 -48.10695313 55.31324219 -48.09765625 54.41210938 C-48.0742957 52.27461936 -48.03843247 50.13727214 -48 48 C-45.43635517 47.89154969 -42.87733721 47.81250256 -40.3125 47.75 C-39.59126953 47.71648438 -38.87003906 47.68296875 -38.12695312 47.6484375 C-33.01213016 47.55501608 -30.86989591 48.43995947 -27 52 C-21.04652897 54.9814831 -14.03652239 55.12162935 -7.65234375 53.34765625 C-1.84133886 50.73886215 2.37907756 46.35286696 5.140625 40.640625 C7.17697575 34.38347451 7.03280626 27.30996277 4.125 21.375 C2.21885084 18.07110344 2.21885084 18.07110344 0 16 C-0.14507695 13.25514407 -0.18652423 10.61519457 -0.125 7.875 C-0.11597656 7.12089844 -0.10695312 6.36679688 -0.09765625 5.58984375 C-0.0740687 3.72642746 -0.03819719 1.86317407 0 0 Z " fill="#010100" transform="translate(56,8)"/>
<path d="M0 0 C1.29051993 2.27156267 2.43522506 4.5233227 3.5625 6.875 C7.6905579 15.09351475 12.6511523 22.65746404 17.8125 30.25 C48.84729177 76.13921483 48.84729177 76.13921483 44.375 102.6875 C41.16010739 114.52009086 34.76241314 123.87025471 24.125 130 C20.34868421 132 20.34868421 132 18 132 C18.144375 131.41734375 18.28875 130.8346875 18.4375 130.234375 C21.10730407 118.44274036 21.06730762 108.72074039 15 98 C11.90473034 93.46065472 8.49427259 89.23112848 5 85 C3.93634854 83.69364503 2.87388897 82.38631887 1.8125 81.078125 C0.15998458 79.04237861 -1.49370449 77.00770226 -3.15307617 74.97753906 C-8.23518309 68.75220398 -13.14354323 62.40219132 -18 56 C-21.95064986 57.31688329 -23.46268039 59.85372101 -25.875 63.0625 C-26.85664213 64.3422446 -27.83977668 65.6208455 -28.82421875 66.8984375 C-29.34032715 67.5697168 -29.85643555 68.24099609 -30.38818359 68.93261719 C-33.09266906 72.40150282 -35.89582301 75.78874211 -38.6875 79.1875 C-50.80039079 94.03515868 -59.65876449 105.38277714 -57.7734375 125.40625 C-57.55295626 126.94331925 -57.28401977 128.47339376 -57 130 C-67.57815743 125.6903803 -75.44185097 117.4318614 -80 107 C-80.31710937 106.30519531 -80.63421875 105.61039062 -80.9609375 104.89453125 C-84.79770238 95.2322197 -83.95908391 84.47134689 -80 75 C-76.40278598 66.89323508 -71.15913393 60.0181881 -65.90991211 52.93603516 C-60.82992487 45.98663018 -56.77052078 38.72330239 -53 31 C-45.11749634 36.17221816 -45.11749634 36.17221816 -43 40 C-42.67292178 43.73502221 -42.8186489 47.23696467 -43 51 C-37.72 51 -32.44 51 -27 51 C-27.04985212 41.37116638 -27.04985212 41.37116638 -30.1875 32.5 C-32 29 -32 29 -31.6875 26.0625 C-26.96357271 17.48944678 -11.136321 -3.712107 0 0 Z " fill="#FC806C" transform="translate(379,293)"/>
<path d="M0 0 C0.66 0 1.32 0 2 0 C2.4021875 1.34964844 2.4021875 1.34964844 2.8125 2.7265625 C14.12157292 40.12434289 30.4408926 75.44701265 55.8671875 105.41015625 C58.69660004 108.84587148 61.32951368 112.43935157 64 116 C22.42 116 -19.16 116 -62 116 C-58.52266794 111.36355726 -55.27818806 107.102872 -51.5 102.8125 C-39.75619786 89.00621547 -30.2803869 73.07598192 -22 57 C-21.62037109 56.26668457 -21.24074219 55.53336914 -20.84960938 54.77783203 C-11.95172509 37.37238803 -5.34132678 18.78802358 0 0 Z " fill="#3AADD8" transform="translate(119,228)"/>
<path d="M0 0 C0.33 0 0.66 0 1 0 C1.23038888 15.13654936 1.20203638 30.00461096 -1 45 C-1.12890625 45.89783203 -1.2578125 46.79566406 -1.390625 47.72070312 C-3.31680809 60.76702656 -6.16277163 73.24738377 -10.27392578 85.77636719 C-10.94335748 87.8265299 -11.58397075 89.8830249 -12.21484375 91.9453125 C-22.16526613 123.50523803 -39.36604881 151.99693188 -60.52050781 177.23242188 C-62.74313389 179.88783653 -64.93335557 182.56895925 -67.125 185.25 C-67.80820313 186.08015625 -68.49140625 186.9103125 -69.1953125 187.765625 C-71.03336658 189.93252265 -71.03336658 189.93252265 -72.35546875 192.28125 C-74 194 -74 194 -76.91796875 194.390625 C-77.99691406 194.34421875 -79.07585937 194.2978125 -80.1875 194.25 C-81.27417969 194.21390625 -82.36085938 194.1778125 -83.48046875 194.140625 C-84.31191406 194.09421875 -85.14335938 194.0478125 -86 194 C-84.69430757 189.90426903 -83.1878108 186.00636554 -81.41796875 182.08984375 C-80.90492187 180.9503125 -80.391875 179.81078125 -79.86328125 178.63671875 C-79.30471065 177.40363534 -78.74611624 176.17056273 -78.1875 174.9375 C-77.60385892 173.64336791 -77.02053131 172.34909441 -76.4375 171.0546875 C-75.2269607 168.36777809 -74.0150798 165.68147995 -72.80224609 162.99560547 C-70.02219634 156.83606996 -67.26216014 150.66757458 -64.5 144.5 C-63.41676028 142.08329137 -62.33342665 139.66662483 -61.25 137.25 C-60.71375 136.05375 -60.1775 134.8575 -59.625 133.625 C-28.75 64.75 -28.75 64.75 -27.12329102 61.12133789 C-26.0455046 58.71694535 -24.96786664 56.31248626 -23.89038086 53.90795898 C-21.39086011 48.33047534 -18.89004184 42.75359498 -16.38357544 37.17922974 C-15.22157724 34.5946958 -14.06046619 32.00976374 -12.89941406 29.42480469 C-12.09655854 27.63828721 -11.29244763 25.85233406 -10.48828125 24.06640625 C-6.90234933 16.08123825 -3.42487938 8.05527372 0 0 Z " fill="#67D3F0" transform="translate(111,150)"/>
<path d="M0 0 C2.47425569 3.0426353 4.03675832 6.05101453 5.57421875 9.65234375 C6.06857422 10.8021875 6.56292969 11.95203125 7.07226562 13.13671875 C7.61071167 14.40363114 8.14912199 15.6705587 8.6875 16.9375 C9.25789368 18.26847353 9.8288713 19.59919694 10.40039062 20.9296875 C11.62647022 23.78532343 12.84993122 26.64206198 14.07177734 29.49951172 C17.02078915 36.39005443 20.00241199 43.26651044 22.98040771 50.14456177 C24.3546147 53.31922257 25.72739468 56.49449957 27.10015869 59.66978455 C35.32248006 78.68835747 43.56595591 97.69773483 51.81637573 116.70413208 C55.79326306 125.86577131 59.7690344 135.02789432 63.743927 144.19039917 C66.02936224 149.45848439 68.31519982 154.7263935 70.60253906 159.99365234 C72.53287356 164.43891602 74.46154853 168.88489544 76.38876343 173.33151245 C77.08426632 174.93540911 77.78040628 176.53902967 78.47720337 178.1423645 C79.42267392 180.31814692 80.36593381 182.49487374 81.30859375 184.671875 C81.83251709 185.8794043 82.35644043 187.08693359 82.89624023 188.33105469 C84 191 84 191 84 192 C80.26612524 192.7957438 78.58566636 193.07726116 75 192 C71.30076665 188.65928266 68.38697962 184.86275572 65.41162109 180.87744141 C64.04409267 179.0586428 62.63708454 177.28161646 61.20703125 175.51171875 C46.61129875 157.40191338 33.74962062 138.16450492 24 117 C23.63664551 116.21286621 23.27329102 115.42573242 22.89892578 114.61474609 C6.08525617 77.76807312 -0.35596391 40.31702052 0 0 Z " fill="#67D2F0" transform="translate(128,152)"/>
<path d="M0 0 C8.45845757 2.11461439 15.04213288 7.99111047 20 15 C26.02880373 25.21326948 28.05330602 35.91015054 25.08984375 47.5859375 C20.74088703 59.58402388 13.70461853 68.48135124 2.1875 74.140625 C-7.75043584 78.04481408 -18.39348914 78.83907028 -28.4375 74.875 C-38.38487531 70.12162334 -46.66219455 63.36253524 -51 53 C-51 52.34 -51 51.68 -51 51 C-49.700625 51.165 -48.40125 51.33 -47.0625 51.5 C-45.37592077 51.67573998 -43.68835986 51.84228185 -42 52 C-40.93845703 52.10248047 -40.93845703 52.10248047 -39.85546875 52.20703125 C-28.38976507 52.78138004 -17.72002033 47.98189453 -9.29296875 40.48046875 C-1.88826781 32.77583056 1.20699936 21.88160309 1.1015625 11.42578125 C0.94079784 7.58597923 0.48404728 3.81187234 0 0 Z " fill="#F8D46E" transform="translate(78,27)"/>
<path d="M0 0 C0.66 0 1.32 0 2 0 C3.74941628 2.02579975 5.38324705 4.05916916 7 6.1875 C7.48331787 6.81519287 7.96663574 7.44288574 8.46459961 8.08959961 C9.4746196 9.40205032 10.48230944 10.71629718 11.48779297 12.03222656 C12.93617027 13.91694097 14.40330203 15.78499793 15.87890625 17.6484375 C16.77355269 18.78636778 17.66808871 19.92438489 18.5625 21.0625 C19.36816406 22.08472656 20.17382812 23.10695313 21.00390625 24.16015625 C25.06119301 29.93246051 25.94496502 35.07360745 25 42 C22.84929806 49.10984475 19.39695138 53.13972041 13.0859375 56.94140625 C6.82202053 60.12028546 -0.17986973 59.7074254 -7 59 C-13.5964189 56.6993185 -17.79985278 52.89492754 -21.16015625 46.83203125 C-22.64671365 43.58926185 -23.20711604 40.84563584 -23.3125 37.3125 C-23.34988281 36.50425781 -23.38726562 35.69601562 -23.42578125 34.86328125 C-22.26370135 27.04856043 -17.05500271 21.25068809 -12.0625 15.4375 C-10.84285032 14.00056384 -9.62536963 12.56178362 -8.41015625 11.12109375 C-7.83023926 10.43515137 -7.25032227 9.74920898 -6.65283203 9.04248047 C-5.06095759 7.07532809 -3.61414106 5.05893665 -2.18359375 2.97265625 C-1.46300781 1.99167969 -0.74242187 1.01070313 0 0 Z " fill="#F8D46E" transform="translate(359,373)"/>
<path d="M0 0 C16.17 0 32.34 0 49 0 C54.11432401 11.28053027 59.22823247 22.56098549 64.32130432 33.85107422 C66.50734354 38.69620299 68.69780821 43.53922793 70.89726257 48.37828064 C72.18951157 51.22776065 73.46920272 54.08285833 74.75 56.9375 C75.20866455 57.94031006 75.6673291 58.94312012 76.13989258 59.97631836 C76.54232178 60.88003174 76.94475098 61.78374512 77.359375 62.71484375 C77.70452148 63.47917725 78.04966797 64.24351074 78.40527344 65.03100586 C79 67 79 67 78 70 C75.6015625 71.38671875 75.6015625 71.38671875 72.625 72.6875 C71.64789063 73.12449219 70.67078125 73.56148438 69.6640625 74.01171875 C67 75 67 75 64 75 C59.03613281 63.92675781 54.07226562 52.85351562 49.10839844 41.78027344 C48.79562958 41.08255829 48.48286072 40.38484314 48.16061401 39.66598511 C44.77374268 32.11065674 41.38687134 24.55532837 38 17 C25.46 16.67 12.92 16.34 0 16 C0 10.72 0 5.44 0 0 Z " fill="#010202" transform="translate(328,136)"/>
<path d="M0 0 C1.00460531 2.12282669 2.00355602 4.24833021 3 6.375 C3.556875 7.55835938 4.11375 8.74171875 4.6875 9.9609375 C6 13 6 13 6 15 C-0.93 17.97 -0.93 17.97 -8 21 C-10.2802512 17.95966506 -11.71293873 15.75349671 -13.1875 12.375 C-13.53167969 11.59898437 -13.87585938 10.82296875 -14.23046875 10.0234375 C-15 8 -15 8 -15 6 C-12.87717331 4.99539469 -10.75166979 3.99644398 -8.625 3 C-7.44164062 2.443125 -6.25828125 1.88625 -5.0390625 1.3125 C-2 0 -2 0 0 0 Z " fill="#030708" transform="translate(225,253)"/>
<path d="M0 0 C5.28 0 10.56 0 16 0 C16 5.28 16 10.56 16 16 C10.72 16 5.44 16 0 16 C0 10.72 0 5.44 0 0 Z " fill="#000000" transform="translate(296,136)"/>
<path d="M0 0 C5.28 0 10.56 0 16 0 C16 5.28 16 10.56 16 16 C10.72 16 5.44 16 0 16 C0 10.72 0 5.44 0 0 Z " fill="#000000" transform="translate(264,136)"/>
<path d="M0 0 C0.86846831 1.74294678 1.71930627 3.49468663 2.5625 5.25 C3.03816406 6.22453125 3.51382813 7.1990625 4.00390625 8.203125 C5 11 5 11 4.98828125 13.18359375 C3.48325903 15.9497413 1.47028171 16.57655742 -1.375 17.8125 C-2.35210937 18.25207031 -3.32921875 18.69164062 -4.3359375 19.14453125 C-7 20 -7 20 -10 19 C-11.38671875 16.6015625 -11.38671875 16.6015625 -12.6875 13.625 C-13.12449219 12.64789063 -13.56148437 11.67078125 -14.01171875 10.6640625 C-15 8 -15 8 -15 5 C-13.06532058 4.16013916 -11.12714871 3.32831973 -9.1875 2.5 C-8.10855469 2.0359375 -7.02960938 1.571875 -5.91796875 1.09375 C-3 0 -3 0 0 0 Z " fill="#020606" transform="translate(238,283)"/>
<path d="M0 0 C2.475 6.435 2.475 6.435 5 13 C2.87717331 14.00460531 0.75166979 15.00355602 -1.375 16 C-2.55835938 16.556875 -3.74171875 17.11375 -4.9609375 17.6875 C-8 19 -8 19 -10 19 C-10.86604534 17.23494565 -11.71748642 15.46271926 -12.5625 13.6875 C-13.03816406 12.70136719 -13.51382813 11.71523438 -14.00390625 10.69921875 C-15 8 -15 8 -14 5 C-11.6015625 3.61328125 -11.6015625 3.61328125 -8.625 2.3125 C-7.64789063 1.87550781 -6.67078125 1.43851562 -5.6640625 0.98828125 C-3 0 -3 0 0 0 Z " fill="#030607" transform="translate(251,312)"/>
</svg>
