<?xml version="1.0" encoding="UTF-8"?>
<svg version="1.1" xmlns="http://www.w3.org/2000/svg" width="512" height="512">
<path d="M0 0 C1.88181725 -0.01496269 1.88181725 -0.01496269 3.801651 -0.03022766 C5.18440234 -0.03112338 6.56715384 -0.03178699 7.9499054 -0.03224182 C9.41223573 -0.03986698 10.87456207 -0.04829509 12.33688354 -0.0574646 C16.30408231 -0.07938555 20.271204 -0.08820563 24.23845649 -0.09329104 C26.72022711 -0.09693845 29.20197766 -0.10318061 31.68374062 -0.11029243 C40.35124724 -0.13478175 49.01869408 -0.14783702 57.68623352 -0.15138245 C65.74959338 -0.15501396 73.81257174 -0.1848829 81.87581509 -0.22678703 C88.81021058 -0.26155361 95.74448006 -0.27693201 102.67896205 -0.27762848 C106.81532634 -0.27841934 110.95130212 -0.28706903 115.08757591 -0.31562614 C118.98247428 -0.34191541 122.87666512 -0.34395234 126.77161217 -0.3279705 C128.19454499 -0.32616439 129.61751951 -0.33277064 131.04036331 -0.34878922 C139.60417108 -0.43925919 146.67694253 0.10436581 153.7714386 5.27415466 C160.34360732 12.23422435 162.07793926 18.34912927 161.9667511 27.73118591 C161.96250626 29.08563057 161.96250626 29.08563057 161.95817566 30.46743774 C161.94701467 33.34064701 161.92191757 36.21354021 161.8964386 39.08665466 C161.88640352 41.03912411 161.87727859 42.99159846 161.86909485 44.94407654 C161.84708868 49.72089032 161.81258691 54.49746897 161.7714386 59.27415466 C162.40646301 59.25844421 163.04148743 59.24273376 163.695755 59.22654724 C166.5958909 59.16386876 169.49588384 59.1250605 172.3964386 59.08665466 C173.89497375 59.04894958 173.89497375 59.04894958 175.42378235 59.01048279 C185.38039236 58.91157607 185.38039236 58.91157607 189.7714386 62.27415466 C190.1014386 63.92415466 190.4314386 65.57415466 190.7714386 67.27415466 C197.3714386 67.27415466 203.9714386 67.27415466 210.7714386 67.27415466 C211.4314386 65.62415466 212.0914386 63.97415466 212.7714386 62.27415466 C217.08375894 58.49952113 221.65904806 58.8373956 227.09565735 58.87571716 C227.99709976 58.87284698 228.89854218 58.86997681 229.82730103 58.86701965 C231.73275888 58.86498183 233.63823778 58.87049198 235.5436554 58.88304138 C238.43192026 58.89900533 241.31876576 58.88323184 244.20698547 58.86399841 C246.06571248 58.86598272 247.92443861 58.86983027 249.78315735 58.87571716 C250.63455795 58.86964447 251.48595856 58.86357178 252.36315918 58.85731506 C259.96558805 58.94456527 268.35159879 60.13495694 274.1464386 65.46165466 C274.75229797 65.99145935 275.35815735 66.52126404 275.9823761 67.06712341 C281.33217889 73.66677096 282.33749466 79.41082504 282.0214386 87.77415466 C282.00339172 88.69196716 281.98534485 89.60977966 281.9667511 90.55540466 C281.92006962 92.79611558 281.85462382 95.03455265 281.7714386 97.27415466 C282.71503235 97.37212341 283.6586261 97.47009216 284.6308136 97.57102966 C302.43398559 99.64449146 317.80028616 105.83601569 331.7714386 117.27415466 C332.53762512 117.89532166 332.53762512 117.89532166 333.31929016 118.52903748 C342.49204132 126.14191228 342.49204132 126.14191228 343.14253235 131.10618591 C342.9807101 132.94274 342.79896679 134.77766682 342.59565735 136.61009216 C342.90534243 141.30354169 345.82955973 143.73850269 349.2011261 146.75071716 C352.76655109 148.86396298 354.70134568 148.26698322 358.58784485 147.39134216 C361.55843971 147.23191847 362.52916376 148.11489094 364.7714386 150.02415466 C366.14298174 151.40386175 367.47401292 152.82453097 368.7714386 154.27415466 C369.5036261 155.07466248 370.2358136 155.87517029 370.9901886 156.69993591 C378.98974136 165.94599432 384.80946 176.15292363 389.1464386 187.52415466 C389.38515686 188.14894714 389.62387512 188.77373962 389.86982727 189.41746521 C393.37546918 199.14070853 394.06953697 208.56041368 394.06196594 218.84275818 C394.06796365 220.17937083 394.07477201 221.51598005 394.08232117 222.85258484 C394.09985414 226.45374066 394.1046709 230.05480122 394.10595274 233.65599561 C394.10738122 235.91114539 394.11166373 238.16627147 394.11694717 240.42141533 C394.13539966 248.30325211 394.14362309 256.1850216 394.14204407 264.06687927 C394.14084135 271.39243979 394.16198143 278.71770633 394.19353139 286.04319245 C394.219736 292.35432451 394.23040974 298.6653607 394.22913325 304.9765467 C394.2286252 308.73660186 394.23422217 312.49639483 394.25548935 316.25639534 C394.27494494 319.79180138 394.27494705 323.32669685 394.26045609 326.86212158 C394.25739079 328.76519261 394.27398969 330.66826411 394.29133606 332.57125854 C394.22734142 341.348972 392.61122602 349.18428646 386.47901917 355.8709259 C378.08740939 362.76685129 369.44140911 364.13029844 358.9120636 363.86009216 C357.64167236 363.85160248 356.37128113 363.84311279 355.06239319 363.83436584 C351.72744902 363.80670605 348.39509975 363.75307183 345.06086731 363.68614197 C341.64169923 363.62413156 338.22226007 363.59722734 334.8026886 363.56712341 C328.12490548 363.50135557 321.44832135 363.40124464 314.7714386 363.27415466 C314.55777649 365.15965027 314.55777649 365.15965027 314.33979797 367.08323669 C313.05371567 378.43247661 305.15167965 388.08041458 296.5448761 395.08665466 C284.61152039 403.5201216 272.06460554 405.42450384 257.7714386 404.27415466 C244.93925625 401.76786905 233.62276131 394.48723574 226.04878235 383.85618591 C221.99106808 377.42565594 218.7714386 370.97225719 218.7714386 363.27415466 C174.8814386 363.27415466 130.9914386 363.27415466 85.7714386 363.27415466 C85.1114386 366.57415466 84.4514386 369.87415466 83.7714386 373.27415466 C78.47092419 386.52544069 68.71723508 395.8912613 55.77534485 401.59446716 C44.16234309 405.74093221 30.19393672 406.3315907 18.7714386 401.27415466 C17.88198547 400.88356873 16.99253235 400.49298279 16.0761261 400.09056091 C3.56798134 393.94101342 -4.49211539 384.22333735 -9.2285614 371.27415466 C-9.66542235 368.61471923 -9.93076626 365.95448401 -10.2285614 363.27415466 C-11.06048508 363.28303711 -11.89240875 363.29191956 -12.74954224 363.30107117 C-20.61981846 363.38148113 -28.48995515 363.44225256 -36.36054897 363.48140335 C-40.40616938 363.50220847 -44.45144812 363.53039492 -48.49687195 363.57591248 C-52.40671166 363.61962524 -56.31622438 363.64334489 -60.22628975 363.65366364 C-61.71213485 363.66100973 -63.19796364 363.67535426 -64.68366814 363.69707489 C-74.94657174 363.84104153 -83.5348699 363.13893922 -91.4785614 356.02415466 C-92.08184265 355.50337341 -92.6851239 354.98259216 -93.3066864 354.44602966 C-99.62649178 347.30413578 -102.12325643 339.28293631 -104.6660614 330.21165466 C-104.95395538 329.20213745 -104.95395538 329.20213745 -105.24766541 328.17222595 C-109.5419047 313.04766581 -112.70131119 297.79147099 -115.2285614 282.27415466 C-115.49539734 280.70987732 -115.49539734 280.70987732 -115.7676239 279.11399841 C-123.45868933 232.2961636 -125.07073347 156.55400103 -96.6426239 116.01243591 C-88.36134738 105.80663738 -77.14242879 99.65488262 -64.2285614 98.27415466 C-64.24950867 97.67989685 -64.27045593 97.08563904 -64.29203796 96.47337341 C-64.37597994 93.74047761 -64.42746422 91.00785409 -64.4785614 88.27415466 C-64.51207703 87.33958435 -64.54559265 86.40501404 -64.5801239 85.44212341 C-64.68523737 77.92651019 -63.27741169 72.69220166 -58.2285614 67.03196716 C-57.5685614 66.49313904 -56.9085614 65.95431091 -56.2285614 65.39915466 C-55.5685614 64.84485779 -54.9085614 64.29056091 -54.2285614 63.71946716 C-47.64956875 58.965117 -40.68368826 59.1304811 -32.8535614 59.21165466 C-31.60639343 59.21842224 -31.60639343 59.21842224 -30.33403015 59.22532654 C-28.29884243 59.23702302 -26.26369217 59.25495532 -24.2285614 59.27415466 C-24.25474548 58.08451111 -24.28092957 56.89486755 -24.3079071 55.66917419 C-24.3990613 51.21510454 -24.45604561 46.7611157 -24.5032196 42.30638123 C-24.52821627 40.38599234 -24.56222552 38.46569716 -24.60575867 36.54563904 C-25.07369418 15.36192296 -25.07369418 15.36192296 -19.2285614 8.27415466 C-13.4318841 2.87312907 -8.03119536 0.03431076 0 0 Z " fill="#020202" transform="translate(118.22856140136719,53.72584533691406)"/>
<path d="M0 0 C1.55867958 -0.00384491 1.55867958 -0.00384491 3.14884764 -0.0077675 C6.62360633 -0.01270082 10.09792856 0.00378056 13.57264709 0.02018738 C16.06625864 0.02103375 18.55987094 0.02055832 21.05348206 0.01885986 C26.41839119 0.01817716 31.783165 0.02667496 37.14803886 0.04357338 C44.90465282 0.06798942 52.6612139 0.0757713 60.41786212 0.07953735 C73.0035041 0.08609776 85.58908762 0.10604775 98.17469788 0.13444519 C110.39800225 0.16199641 122.62129064 0.18319037 134.84461975 0.19596863 C135.60617203 0.19677262 136.36772432 0.19757661 137.15235394 0.19840497 C143.10849114 0.2046435 149.06462869 0.21051418 155.02076638 0.21626866 C184.19835123 0.2445525 213.37578972 0.30491141 242.55335999 0.36076355 C242.55335999 37.32076355 242.55335999 74.28076355 242.55335999 112.36076355 C203.67835999 112.73576355 203.67835999 112.73576355 191.39369202 112.83879089 C187.76658636 112.87869 187.76658636 112.87869 184.13951111 112.92121887 C182.52130133 112.93892914 180.90304588 112.95272342 179.28477478 112.9634552 C176.83650886 112.98044584 174.38867454 113.0097766 171.94056702 113.04191589 C171.21703096 113.04408804 170.49349491 113.04626019 169.74803352 113.04849815 C165.7021189 113.0062335 165.7021189 113.0062335 162.55335999 115.36076355 C162.23573538 117.27082661 162.23573538 117.27082661 162.30335999 119.36076355 C162.29820374 120.06201355 162.29304749 120.76326355 162.28773499 121.48576355 C162.39630484 123.60433045 162.39630484 123.60433045 164.55335999 125.36076355 C167.05079271 125.57798233 169.44035394 125.67210525 171.94056702 125.67961121 C172.71395857 125.68976446 173.48735012 125.69991772 174.28417778 125.71037865 C176.79317112 125.74106898 179.30205065 125.75818647 181.81117249 125.77482605 C183.35797614 125.79175483 184.90477035 125.80957081 186.45155334 125.82829285 C192.19371372 125.89154937 197.93605314 125.93760477 203.67835999 125.98576355 C222.92148499 126.17138855 222.92148499 126.17138855 242.55335999 126.36076355 C242.55335999 162.33076355 242.55335999 198.30076355 242.55335999 235.36076355 C208.56335999 235.36076355 174.57335999 235.36076355 139.55335999 235.36076355 C137.57335999 228.92576355 137.57335999 228.92576355 135.55335999 222.36076355 C128.14971598 208.86000095 118.78967396 201.7487323 104.55335999 196.36076355 C89.48088354 193.28474795 76.4148351 196.20176527 63.55335999 204.36076355 C53.18174413 211.28867883 47.43888495 223.53507021 44.55335999 235.36076355 C36.18209395 235.45359401 27.8110443 235.52459406 19.43939018 235.56801224 C15.55173896 235.58885475 11.66444083 235.61711036 7.7769928 235.66252136 C4.02277804 235.70609974 0.26890213 235.72992574 -3.48554611 235.74027252 C-4.91525987 235.74764253 -6.34495585 235.76203469 -7.77452469 235.78368378 C-9.78239483 235.81287115 -11.79060858 235.81439875 -13.7986908 235.81486511 C-15.51078232 235.82818878 -15.51078232 235.82818878 -17.25746155 235.84178162 C-22.18178025 235.09905546 -25.25733633 232.58566259 -28.66539001 229.0756073 C-30.78473248 225.84546911 -31.90222418 222.60293022 -32.94664001 218.92326355 C-33.1560321 218.2166156 -33.36542419 217.50996765 -33.5811615 216.78190613 C-34.00867146 215.33278863 -34.43114591 213.8821758 -34.84849548 212.43009949 C-35.38583948 210.57110857 -35.94789173 208.7193019 -36.51304626 206.86857605 C-42.14922842 188.0813022 -45.59699055 168.47866845 -47.63414001 148.98576355 C-47.71809021 148.20209412 -47.80204041 147.41842468 -47.88853455 146.61100769 C-48.32706245 142.07939485 -48.48399164 137.6074122 -48.46739197 133.05363464 C-48.4643959 131.98422638 -48.46139984 130.91481812 -48.45831299 129.81300354 C-48.45446091 129.00376434 -48.45060883 128.19452515 -48.44664001 127.36076355 C-47.50719418 127.3574534 -46.56774834 127.35414326 -45.59983444 127.3507328 C-22.75756149 127.269795 0.08464393 127.17749682 22.92682266 127.07323647 C33.97305665 127.0230812 45.0192831 126.97663862 56.06556702 126.93888855 C65.6917437 126.90598225 75.31786243 126.86615858 84.94397521 126.81797349 C90.04250962 126.79269497 95.14100553 126.77091767 100.23958588 126.75741959 C105.03628046 126.74461154 109.83284309 126.72257069 114.6294651 126.69338036 C116.39190814 126.68429475 118.15437244 126.67861206 119.91683769 126.67654991 C122.31969388 126.67323431 124.72217434 126.65777611 127.12495422 126.63923645 C128.17554248 126.64213855 128.17554248 126.64213855 129.24735475 126.64509928 C132.81801026 126.60379831 135.57360979 126.43596334 138.55335999 124.36076355 C139.28791426 122.51379025 139.28791426 122.51379025 139.36585999 120.42326355 C139.4341803 119.73361511 139.50250061 119.04396667 139.57289124 118.3334198 C139.65211517 116.14566273 139.65211517 116.14566273 138.55335999 113.36076355 C76.84335999 113.03076355 15.13335999 112.70076355 -48.44664001 112.36076355 C-47.44664001 86.36076355 -47.44664001 86.36076355 -46.44664001 80.36076355 C-45.25586853 80.34618103 -44.06509705 80.33159851 -42.83824158 80.3165741 C-38.41736425 80.2585712 -33.9969952 80.1813384 -29.57652283 80.09831238 C-27.66384637 80.06507241 -25.75107204 80.03703755 -23.83824158 80.014328 C-21.08749207 79.98076486 -18.33763869 79.92844866 -15.58726501 79.8724823 C-14.30580597 79.86289742 -14.30580597 79.86289742 -12.99845886 79.8531189 C-9.48652562 79.7662815 -7.05620095 79.67543037 -3.9026947 78.04753113 C-2.10856447 76.28427049 -2.10856447 76.28427049 -2.00914001 72.86076355 C-2.13541 69.4781939 -2.13541 69.4781939 -3.72894287 67.66903687 C-6.76502444 65.35662428 -10.59488952 65.87708843 -14.27085876 65.8490448 C-15.56296013 65.822118 -15.56296013 65.822118 -16.88116455 65.79464722 C-19.63210659 65.74047057 -22.38287442 65.70662532 -25.13414001 65.67326355 C-26.99939867 65.64009692 -28.86463432 65.60560788 -30.72984314 65.56974792 C-35.3019832 65.48473999 -39.87407093 65.41796412 -44.44664001 65.36076355 C-43.96677971 59.79185838 -43.1474882 54.69008787 -41.44664001 49.36076355 C-40.40733337 49.34618103 -39.36802673 49.33159851 -38.29722595 49.3165741 C-34.43538787 49.25853174 -30.57412926 49.18129975 -26.7127533 49.09831238 C-25.04260169 49.06509085 -23.37233855 49.03705021 -21.70201111 49.014328 C-19.29869638 48.98073021 -16.89640103 48.92841409 -14.49351501 48.8724823 C-13.74857788 48.86609238 -13.00364075 48.85970245 -12.23612976 48.8531189 C-8.07577465 48.73554624 -5.39425732 48.43035447 -2.44664001 45.36076355 C-1.72155573 42.47755438 -2.11025925 40.38819043 -2.44664001 37.36076355 C-6.0026737 34.99007443 -8.62657347 35.01611247 -12.73960876 34.94670105 C-13.79865166 34.91765182 -13.79865166 34.91765182 -14.87908936 34.88801575 C-17.13065063 34.82831131 -19.38226329 34.78187215 -21.63414001 34.73576355 C-23.1621569 34.69757526 -24.69015247 34.65852303 -26.21812439 34.61857605 C-29.96078936 34.52261759 -33.70355511 34.43855344 -37.44664001 34.36076355 C-35.68783444 24.42047962 -32.86077134 14.23700374 -24.44273376 7.83732605 C-16.16075846 2.09179327 -10.0168759 -0.09079968 0 0 Z " fill="#F9CC59" transform="translate(63.44664001464844,166.6392364501953)"/>
<path d="M0 0 C3.24931927 -0.17455021 6.49743448 -0.28091753 9.75 -0.375 C10.67039063 -0.42527344 11.59078125 -0.47554688 12.5390625 -0.52734375 C13.87324219 -0.55634766 13.87324219 -0.55634766 15.234375 -0.5859375 C16.05131836 -0.6173584 16.86826172 -0.6487793 17.70996094 -0.68115234 C20 0 20 0 21.66723633 2.9942627 C23.7409711 6.32749113 23.7409711 6.32749113 27.44219971 6.75949097 C28.83245064 6.79456411 30.22376686 6.79667008 31.61425781 6.77294922 C32.38789043 6.78358461 33.16152306 6.79422001 33.95859909 6.80517769 C36.45746172 6.83278178 38.9541919 6.81954149 41.453125 6.8046875 C42.99790577 6.81574338 44.54266977 6.82948095 46.08740234 6.84594727 C51.80812089 6.88813211 57.52912694 6.87842622 63.25 6.875 C82.43125 6.936875 82.43125 6.936875 102 7 C102 42.97 102 78.94 102 116 C68.01 116 34.02 116 -1 116 C-2.32 111.71 -3.64 107.42 -5 103 C-12.40364401 89.4992374 -21.76368602 82.38796875 -36 77 C-51.07247644 73.9239844 -64.13852489 76.84100172 -77 85 C-87.37161585 91.92791528 -93.11447504 104.17430666 -96 116 C-104.37126603 116.09283046 -112.74231569 116.16383051 -121.1139698 116.20724869 C-125.00162103 116.2280912 -128.88891915 116.25634681 -132.77636719 116.30175781 C-136.53058195 116.34533619 -140.28445786 116.36916219 -144.0389061 116.37950897 C-145.46861986 116.38687898 -146.89831583 116.40127114 -148.32788467 116.42292023 C-150.33575481 116.4521076 -152.34396857 116.4536352 -154.35205078 116.45410156 C-155.49344513 116.46298401 -156.63483948 116.47186646 -157.81082153 116.48101807 C-162.73514023 115.73829191 -165.81069632 113.22489904 -169.21875 109.71484375 C-171.33809247 106.48470556 -172.45558417 103.24216667 -173.5 99.5625 C-173.70939209 98.85585205 -173.91878418 98.1492041 -174.13452148 97.42114258 C-174.56203144 95.97202508 -174.9845059 94.52141225 -175.40185547 93.06933594 C-175.93919947 91.21034502 -176.50125171 89.35853835 -177.06640625 87.5078125 C-182.7025884 68.72053865 -186.15035053 49.1179049 -188.1875 29.625 C-188.2714502 28.84133057 -188.35540039 28.05766113 -188.44189453 27.25024414 C-188.88042243 22.7186313 -189.03735162 18.24664865 -189.02075195 13.69287109 C-189.01775589 12.62346283 -189.01475983 11.55405457 -189.01167297 10.45223999 C-189.00782089 9.64300079 -189.00396881 8.8337616 -189 8 C-188.06055416 7.99668985 -187.12110832 7.99337971 -186.15319443 7.98996925 C-163.31092147 7.90903145 -140.46871606 7.81673327 -117.62653732 7.71247292 C-106.58030334 7.66231765 -95.53407689 7.61587507 -84.48779297 7.578125 C-74.86161629 7.5452187 -65.23549755 7.50539503 -55.60938478 7.45720994 C-50.51085036 7.43193142 -45.41235445 7.41015412 -40.31377411 7.39665604 C-35.51707952 7.38384799 -30.7205169 7.36180714 -25.92389488 7.33261681 C-24.16145184 7.3235312 -22.39898755 7.31784851 -20.63652229 7.31578636 C-18.2336661 7.31247076 -15.83118564 7.29701256 -13.42840576 7.2784729 C-12.72801359 7.28040763 -12.02762142 7.28234237 -11.30600524 7.28433573 C-7.735803 7.24304001 -4.96096113 7.1037955 -2 5 C-0.71745356 2.46229997 -0.71745356 2.46229997 0 0 Z " fill="#E9F5FD" transform="translate(204,286)"/>
<path d="M0 0 C13.695 -0.103125 27.39 -0.20625 41.5 -0.3125 C45.79193359 -0.35802002 50.08386719 -0.40354004 54.50585938 -0.45043945 C59.82910156 -0.47302246 59.82910156 -0.47302246 62.33703613 -0.47721863 C64.05389933 -0.48479548 65.77073938 -0.50216555 67.48742676 -0.52787781 C88.3454443 -0.82411583 106.66395365 4.33245146 122.04394531 19.18017578 C122.50510742 19.63118652 122.96626953 20.08219727 123.44140625 20.546875 C126.50977 23.55618039 126.50977 23.55618039 130 26 C132.01860566 25.7341516 132.01860566 25.7341516 134.0625 25 C136.40625 24.59765625 136.40625 24.59765625 139 25 C143.16569991 28.25847919 146.56810683 31.990779 150 36 C149.50693359 36.90298828 149.50693359 36.90298828 149.00390625 37.82421875 C147.5091376 41.06385353 147.87267627 42.61802882 149 46 C150.55510836 47.78882407 152.24853772 49.36214766 153.9765625 50.984375 C160.00569752 56.99023151 164.35982111 64.23985713 168.25 71.75 C168.56702881 72.34417725 168.88405762 72.93835449 169.21069336 73.55053711 C176.84693381 88.91724309 176.50210378 104.16427433 176.25 120.9375 C176.22989474 123.27797943 176.21165113 125.61847562 176.1953125 127.95898438 C176.15165917 133.63969451 176.08506967 139.31976687 176 145 C175.29362648 144.3936824 175.29362648 144.3936824 174.57298279 143.77511597 C173.95004837 143.24072906 173.32711395 142.70634216 172.68530273 142.15576172 C172.07001205 141.62779999 171.45472137 141.09983826 170.82078552 140.55587769 C143.5301885 117.23581587 113.64688738 111.58531505 78.515625 111.48828125 C76.49071239 111.47276214 74.46580924 111.45595613 72.44091797 111.43786621 C65.04404902 111.38059019 57.64700577 111.34794561 50.25 111.3125 C33.6675 111.209375 17.085 111.10625 0 111 C0 74.37 0 37.74 0 0 Z " fill="#030302" transform="translate(321,167)"/>
<path d="M0 0 C27.01105482 -0.08021762 27.01105482 -0.08021762 38.56445312 -0.09765625 C46.43402824 -0.10959101 54.30355661 -0.12367877 62.1730957 -0.15087891 C68.52084553 -0.17268074 74.86854519 -0.18458412 81.21632957 -0.18975449 C83.63270036 -0.19343707 86.04906855 -0.20062813 88.46541786 -0.21146011 C91.86152611 -0.22607251 95.2574296 -0.22797386 98.65356445 -0.22705078 C99.64259766 -0.23424133 100.63163086 -0.24143188 101.65063477 -0.24884033 C123.47176518 -0.18506352 145.02447134 9.236408 161 24 C169 32.26143791 169 32.26143791 169 34 C168.26475098 33.99887207 167.52950195 33.99774414 166.77197266 33.99658203 C163.38875484 34.00880733 160.0077238 34.06661426 156.625 34.125 C154.89056641 34.12113281 154.89056641 34.12113281 153.12109375 34.1171875 C144.97441902 34.30129314 139.38739185 35.82564399 133 41 C130.73346562 43.28828662 130.73346562 43.28828662 129.4375 45.6875 C128.98246094 46.43386719 128.52742187 47.18023437 128.05859375 47.94921875 C125.03647899 53.80386911 124.88432896 60.4978936 126.87109375 66.734375 C130.16813264 73.86895096 134.26255968 78.14694576 141.26171875 81.6171875 C147.72085404 83.94080529 154.7162889 83.5767748 161.5 83.6875 C162.90888486 83.72072842 164.31774045 83.75522305 165.7265625 83.79101562 C169.15096131 83.87310738 172.57511644 83.94238811 176 84 C176.0814222 86.22855574 176.13938079 88.45797655 176.1875 90.6875 C176.22230469 91.92886719 176.25710938 93.17023438 176.29296875 94.44921875 C175.8746282 99.51950626 174.20361471 101.94316757 170.4375 105.25 C166.89435765 107.79379451 165.13575238 108.12357152 160.81591797 108.11352539 C159.73494843 108.11344986 158.65397888 108.11337433 157.54025269 108.11329651 C155.78396042 108.10555458 155.78396042 108.10555458 153.9921875 108.09765625 C152.79643097 108.0962413 151.60067444 108.09482635 150.36868286 108.09336853 C146.53743013 108.08775663 142.70623516 108.07520208 138.875 108.0625 C136.28255293 108.05748653 133.69010494 108.05292336 131.09765625 108.04882812 C124.73175102 108.03778333 118.36587963 108.02103359 112 108 C111.7958548 107.38180893 111.59170959 106.76361786 111.38137817 106.12669373 C111.11259857 105.31587845 110.84381897 104.50506317 110.56689453 103.66967773 C110.30087433 102.86586166 110.03485413 102.06204559 109.76077271 101.23387146 C105.59192619 88.99280762 97.44726747 79.11671411 86 73 C74.47878044 67.64409673 62.0306373 65.77176672 49.6875 69.625 C34.41863073 75.48660619 25.53330387 84.65798533 18.8984375 99.45703125 C17.73617954 102.512503 17.73617954 102.512503 17 108 C11.39 108 5.78 108 0 108 C0 72.36 0 36.72 0 0 Z " fill="#E9F5FE" transform="translate(321,294)"/>
<path d="M0 0 C13.695 -0.103125 27.39 -0.20625 41.5 -0.3125 C45.79193359 -0.35802002 50.08386719 -0.40354004 54.50585938 -0.45043945 C59.82910156 -0.47302246 59.82910156 -0.47302246 62.33703613 -0.47721863 C64.05389933 -0.48479548 65.77073938 -0.50216555 67.48742676 -0.52787781 C88.3454443 -0.82411583 106.66395365 4.33245146 122.04394531 19.18017578 C122.50510742 19.63118652 122.96626953 20.08219727 123.44140625 20.546875 C126.50977 23.55618039 126.50977 23.55618039 130 26 C132.01860566 25.7341516 132.01860566 25.7341516 134.0625 25 C136.40625 24.59765625 136.40625 24.59765625 139 25 C143.16569991 28.25847919 146.56810683 31.990779 150 36 C149.50693359 36.90298828 149.50693359 36.90298828 149.00390625 37.82421875 C147.5091376 41.06385353 147.87267627 42.61802882 149 46 C150.55510836 47.78882407 152.24853772 49.36214766 153.9765625 50.984375 C160.00569752 56.99023151 164.35982111 64.23985713 168.25 71.75 C168.56702881 72.34417725 168.88405762 72.93835449 169.21069336 73.55053711 C176.84693381 88.91724309 176.50210378 104.16427433 176.25 120.9375 C176.22989474 123.27797943 176.21165113 125.61847562 176.1953125 127.95898438 C176.15165917 133.63969451 176.08506967 139.31976687 176 145 C175.29362648 144.3936824 175.29362648 144.3936824 174.57298279 143.77511597 C173.95004837 143.24072906 173.32711395 142.70634216 172.68530273 142.15576172 C172.07001205 141.62779999 171.45472137 141.09983826 170.82078552 140.55587769 C143.5301885 117.23581587 113.64688738 111.58531505 78.515625 111.48828125 C76.49071239 111.47276214 74.46580924 111.45595613 72.44091797 111.43786621 C65.04404902 111.38059019 57.64700577 111.34794561 50.25 111.3125 C33.6675 111.209375 17.085 111.10625 0 111 C0 74.37 0 37.74 0 0 Z M18.35882568 21.95069885 C15.8600062 25.71927175 15.86684944 29.20862705 15.82299805 33.65136719 C15.81016281 34.78644714 15.79732758 35.9215271 15.78410339 37.09100342 C15.77671646 38.31394104 15.76932953 39.53687866 15.76171875 40.796875 C15.753647 42.05961243 15.74557526 43.32234985 15.73725891 44.62335205 C15.7234282 47.29646462 15.71240906 49.96945432 15.70483398 52.64257812 C15.69378928 56.04981968 15.65940126 59.45640464 15.61966228 62.86341476 C15.58707038 66.13283562 15.58270682 69.40231648 15.57421875 72.671875 C15.55671066 73.8867157 15.53920258 75.1015564 15.52116394 76.35321045 C15.54080008 84.05638941 16.15230766 90.10266002 21.81640625 95.83984375 C22.39261719 96.20207031 22.96882813 96.56429687 23.5625 96.9375 C24.14128906 97.31777344 24.72007812 97.69804687 25.31640625 98.08984375 C29.42461928 100.31075706 33.39062347 100.16752778 37.92456055 100.19287109 C38.73144821 100.20104858 39.53833588 100.20922607 40.36967468 100.21765137 C43.04201521 100.24247746 45.71430264 100.25901602 48.38671875 100.2734375 C49.75771697 100.28142302 49.75771697 100.28142302 51.15641212 100.28956985 C55.99611192 100.31629188 60.83578602 100.33566809 65.67553711 100.35009766 C69.67479374 100.36342662 73.67353891 100.3912612 77.67260742 100.43212891 C82.50664852 100.48152698 87.34022634 100.50622772 92.17450905 100.51332474 C94.01285674 100.52002482 95.8511946 100.53521444 97.68939781 100.55921555 C100.26962999 100.59097767 102.84808896 100.59088758 105.4284668 100.58349609 C106.18045349 100.59990143 106.93244019 100.61630676 107.70721436 100.63320923 C113.54742642 100.56511526 117.43863101 98.59562746 122 95 C128.60756317 87.88416274 127.29058752 79.36635142 127.35009766 70.2331543 C127.36658873 68.38178883 127.39378742 66.53048522 127.43212891 64.67944336 C127.70850103 51.25136298 127.19676293 42.50559802 117.8203125 32.2265625 C116.26813927 30.67962426 114.70279461 29.1457971 113.125 27.625 C112.34769531 26.84511719 111.57039063 26.06523437 110.76953125 25.26171875 C103.33861681 17.95569363 97.29899908 13.94119222 86.70605469 13.79125977 C84.79321686 13.76232384 84.79321686 13.76232384 82.84173584 13.73280334 C81.45179262 13.71799459 80.06183803 13.70422142 78.671875 13.69140625 C77.96841194 13.68483442 77.26494888 13.6782626 76.54016876 13.67149162 C72.81569936 13.63895407 69.09125787 13.61449075 65.36669922 13.5949707 C62.29563503 13.57717379 59.22549189 13.54237446 56.15478516 13.49243164 C52.43475993 13.4320141 48.71558673 13.40146684 44.9950943 13.39179802 C43.5837333 13.38327867 42.17239292 13.36454754 40.76131439 13.3350544 C30.72571286 13.13660613 24.90076654 14.1749517 18.35882568 21.95069885 Z " fill="#FCCF5A" transform="translate(321,167)"/>
<path d="M0 0 C0.68969879 -0.0065712 1.37939758 -0.0131424 2.08999634 -0.01991272 C4.37819527 -0.03966047 6.66632836 -0.05131469 8.95458984 -0.0612793 C9.73711498 -0.06535482 10.51964012 -0.06943035 11.32587814 -0.07362938 C15.47180671 -0.09450153 19.61770211 -0.10879536 23.76367188 -0.11816406 C28.0340839 -0.12920003 32.30397075 -0.16356349 36.57419777 -0.20333576 C39.86690191 -0.22956754 43.15948253 -0.23786193 46.45228195 -0.24144554 C48.02546083 -0.24629864 49.59863466 -0.25787609 51.17171097 -0.27648354 C66.45400147 -0.4459411 66.45400147 -0.4459411 73.29052734 4.17700195 C75.13037109 5.9934082 75.13037109 5.9934082 76.22802734 7.73950195 C76.60830078 8.31829102 76.98857422 8.89708008 77.38037109 9.4934082 C79.23636705 12.92660243 79.42917049 15.79734963 79.4675293 19.62304688 C79.48678215 21.29574898 79.48678215 21.29574898 79.50642395 23.00224304 C79.51381088 24.20846817 79.52119781 25.4146933 79.52880859 26.6574707 C79.53688034 27.89942703 79.54495209 29.14138336 79.55326843 30.42097473 C79.56711042 33.05298593 79.57812578 35.68487186 79.58569336 38.31689453 C79.5945394 41.00657909 79.61538005 43.69574467 79.6472168 46.38525391 C79.68991904 50.2678179 79.70606829 54.14970092 79.71630859 58.0324707 C79.73381668 59.22857468 79.75132477 60.42467865 79.7693634 61.6570282 C79.75013455 69.09005721 79.22560688 75.05974242 73.8429718 80.6915741 C68.75670578 85.14873708 65.17225337 86.42447664 58.46166992 86.49926758 C57.44372345 86.51416229 57.44372345 86.51416229 56.4052124 86.52935791 C54.1651194 86.55851018 51.92530996 86.5721917 49.68505859 86.58325195 C48.12049865 86.5947656 46.55593871 86.60628092 44.99137878 86.61779785 C41.71046643 86.63879417 38.42965169 86.65049379 35.14868164 86.6574707 C30.96328541 86.66841398 26.7791992 86.71641738 22.59421253 86.77341461 C19.36063494 86.810844 16.12736676 86.82108789 12.89359093 86.82414246 C11.35190383 86.8301608 9.81021991 86.84610019 8.26874733 86.87251282 C-6.66814195 87.11010684 -6.66814195 87.11010684 -13.01399231 81.90074158 C-19.73218981 75.07056908 -19.29913004 68.58921691 -19.24072266 59.3605957 C-19.24342172 58.01733622 -19.24730758 56.67407865 -19.25231934 55.33082581 C-19.25819308 52.52586122 -19.24971998 49.72140864 -19.23095703 46.91650391 C-19.20814537 43.33303642 -19.22131618 39.75076603 -19.24524689 36.16734219 C-19.25974442 33.39707011 -19.25508145 30.627079 -19.24473572 27.85679817 C-19.24079599 25.89707276 -19.25287562 23.93733612 -19.26525879 21.97764587 C-19.18261391 14.12377534 -18.65092741 10.14674465 -13.07666016 4.5324707 C-8.24544338 0.75096857 -6.13149073 0.04826837 0 0 Z " fill="#040403" transform="translate(99.70947265625,180.822998046875)"/>
<path d="M0 0 C0.68969879 -0.0065712 1.37939758 -0.0131424 2.08999634 -0.01991272 C4.37819527 -0.03966047 6.66632836 -0.05131469 8.95458984 -0.0612793 C9.73711498 -0.06535482 10.51964012 -0.06943035 11.32587814 -0.07362938 C15.47180671 -0.09450153 19.61770211 -0.10879536 23.76367188 -0.11816406 C28.0340839 -0.12920003 32.30397075 -0.16356349 36.57419777 -0.20333576 C39.86690191 -0.22956754 43.15948253 -0.23786193 46.45228195 -0.24144554 C48.02546083 -0.24629864 49.59863466 -0.25787609 51.17171097 -0.27648354 C66.51751739 -0.4466454 66.51751739 -0.4466454 73.29052734 4.17700195 C77.65488246 8.77105997 79.53271243 12.50402736 79.58105469 18.82836914 C79.59381439 19.9634491 79.6065741 21.09852905 79.61972046 22.26800537 C79.62194611 23.49094299 79.62417175 24.71388062 79.62646484 25.97387695 C79.63645004 27.86798309 79.63645004 27.86798309 79.64663696 29.800354 C79.65676545 32.47357261 79.66231899 35.14638461 79.66113281 37.81958008 C79.66093015 41.22687142 79.68817943 44.63332368 79.72267723 48.04041672 C79.75041946 51.30987104 79.7490991 54.57932102 79.75146484 57.84887695 C79.76583588 59.06371765 79.78020691 60.27855835 79.79501343 61.5302124 C79.75494805 69.00309465 79.25636627 75.02913028 73.84310913 80.69085693 C68.77952934 85.13008614 65.21991824 86.42544583 58.53759766 86.4675293 C57.5318721 86.47760513 57.5318721 86.47760513 56.50582886 86.48788452 C54.29336084 86.50685151 52.08119657 86.51078846 49.86865234 86.51293945 C48.32411577 86.51936996 46.77958042 86.52609851 45.23504639 86.53311157 C41.99700093 86.54508227 38.75906212 86.54879278 35.52099609 86.54760742 C31.38735602 86.54740462 27.25440648 86.57466642 23.12092972 86.60915184 C19.92943227 86.63147979 16.7380992 86.63544312 13.54653168 86.63438797 C12.02360411 86.63673662 10.5006715 86.64551844 8.97782135 86.6610527 C-7.43044977 86.81271324 -7.43044977 86.81271324 -12.70947266 82.17700195 C-18.31877234 76.53246719 -19.40412688 71.12910809 -19.46620178 63.34140015 C-19.44464523 62.11925812 -19.42308868 60.89711609 -19.40087891 59.63793945 C-19.39950424 58.35770905 -19.39812958 57.07747864 -19.39671326 55.75845337 C-19.39205011 53.06347897 -19.3674301 50.36971803 -19.3269043 47.67504883 C-19.27583268 44.23755205 -19.26446601 40.80137826 -19.26673985 37.36354637 C-19.26572395 34.05900324 -19.23919062 30.75488562 -19.21337891 27.45043945 C-19.21004044 26.22424896 -19.20670197 24.99805847 -19.20326233 23.73471069 C-19.08487337 16.6111276 -18.90354829 10.74810656 -13.95556641 5.21606445 C-13.35873047 4.74942383 -12.76189453 4.2827832 -12.14697266 3.80200195 C-11.54755859 3.31989258 -10.94814453 2.8377832 -10.33056641 2.34106445 C-6.85339885 -0.15579322 -4.25294771 0.03348009 0 0 Z " fill="#030302" transform="translate(210.70947265625,180.822998046875)"/>
<path d="M0 0 C6.93 0 13.86 0 21 0 C21.66 1.65 22.32 3.3 23 5 C25.41561295 7.41561295 25.97876674 7.25004482 29.27856445 7.25537109 C30.16320877 7.26233002 31.04785309 7.26928894 31.95930481 7.27645874 C32.91761703 7.27546173 33.87592926 7.27446472 34.86328125 7.2734375 C36.88477112 7.2937307 38.90625545 7.31458156 40.92773438 7.3359375 C44.12073424 7.3585289 47.31351572 7.37500186 50.5065918 7.38085938 C53.58422546 7.39038397 56.66086932 7.42416801 59.73828125 7.4609375 C61.16664055 7.45336929 61.16664055 7.45336929 62.62385559 7.44564819 C66.93318385 7.50957351 69.34870439 7.59623907 73.07885742 9.90869141 C79.07670393 16.43779971 76 18.72193597 76 31 C-28.28 31 -132.56 31 -240 31 C-240 14 -240 14 -236 9 C-232.63632765 7.31816383 -228.83061654 7.84975723 -225.13064575 7.84851074 C-224.20070923 7.84427833 -223.2707727 7.84004592 -222.31265628 7.83568525 C-219.17734874 7.82260503 -216.04206666 7.81662206 -212.90673828 7.81054688 C-210.6666549 7.8026087 -208.42657306 7.79422109 -206.18649292 7.78541565 C-201.35304335 7.76732668 -196.51959727 7.75232245 -191.68613052 7.73963928 C-184.04812676 7.71946168 -176.41016157 7.69180302 -168.77218628 7.66296387 C-158.06704498 7.6232471 -147.36189881 7.58629032 -136.65673828 7.55224609 C-135.97705836 7.55008329 -135.29737843 7.54792049 -134.59710215 7.54569215 C-129.7730684 7.53036549 -124.94903424 7.51516972 -120.125 7.5 C-114.618001 7.4826793 -109.11100221 7.46529332 -103.60400391 7.44775391 C-102.92575597 7.44559504 -102.24750804 7.44343617 -101.54870714 7.44121188 C-90.24396731 7.40510883 -78.9392443 7.36511396 -67.63452709 7.32245111 C-60.03712436 7.29406456 -52.43972619 7.27048157 -44.84229684 7.25052643 C-40.11997594 7.23715609 -35.39767629 7.21974247 -30.67537308 7.20121574 C-28.48075395 7.19344807 -26.28612806 7.18738359 -24.09149933 7.18312263 C-21.10207037 7.17709072 -18.11272441 7.1650494 -15.12332153 7.15148926 C-14.24920093 7.15119327 -13.37508032 7.15089728 -12.47447121 7.15059233 C-11.67352622 7.14573458 -10.87258124 7.14087684 -10.04736519 7.13587189 C-9.35735833 7.13375592 -8.66735148 7.13163995 -7.95643532 7.12945986 C-7.31081167 7.0867381 -6.66518801 7.04401635 -6 7 C-4.94665964 6.93392146 -4.94665964 6.93392146 -3.87203968 6.86650801 C-3.25426658 6.58056036 -2.63649349 6.29461272 -2 6 C-1.34 4.02 -0.68 2.04 0 0 Z " fill="#98E5FB" transform="translate(309,121)"/>
<path d="M0 0 C1.1553273 -0.01929062 2.3106546 -0.03858124 3.50099182 -0.05845642 C8.81428601 -0.11605017 14.12741062 -0.1658333 19.44091797 -0.19628906 C22.24151948 -0.21403901 25.04110192 -0.24874539 27.84130859 -0.29882812 C31.87605742 -0.37090741 35.90971484 -0.39330204 39.94506836 -0.41235352 C41.191194 -0.44018417 42.43731964 -0.46801483 43.72120667 -0.49668884 C51.54908921 -0.47824257 56.01789631 0.63587553 61.59741211 6.20874023 C62.38697548 6.93374725 62.38697548 6.93374725 63.19248962 7.67340088 C64.65696257 9.04161056 66.06625006 10.46816914 67.47241211 11.89624023 C68.39795898 12.82823242 69.32350586 13.76022461 70.27709961 14.72045898 C74.47840171 19.22589575 74.88482622 22.20311931 74.82788086 28.12280273 C74.82742264 28.89304779 74.82696442 29.66329285 74.82649231 30.45687866 C74.8234742 32.08251489 74.81560108 33.70814833 74.80322266 35.33374023 C74.78493043 37.83123937 74.78271326 40.32836851 74.78295898 42.82592773 C74.77804504 44.40405596 74.77221725 45.98218166 74.76538086 47.56030273 C74.76426804 48.31131256 74.76315521 49.06232239 74.76200867 49.83609009 C74.71347346 55.09267888 74.71347346 55.09267888 73.59741211 56.20874023 C71.1742322 56.31435054 68.77940997 56.35552406 66.35546875 56.35400391 C65.21890083 56.35904182 65.21890083 56.35904182 64.05937195 56.36418152 C61.54208764 56.37371946 59.02486964 56.37563605 56.50756836 56.37670898 C54.76500928 56.37991959 53.02245047 56.38328351 51.27989197 56.38679504 C47.62213516 56.39279344 43.96440201 56.39463422 40.30664062 56.39404297 C35.61092282 56.39394131 30.91535608 56.4075946 26.21967411 56.42481518 C22.61925047 56.43591319 19.0188636 56.43796286 15.41842461 56.43743324 C13.68680742 56.43861665 11.95518938 56.44305846 10.22358894 56.45076561 C7.80520052 56.46052134 5.38714332 56.45770514 2.96875 56.45166016 C2.24815399 56.45727966 1.52755798 56.46289917 0.78512573 56.46868896 C-4.17427219 56.43705594 -4.17427219 56.43705594 -6.40258789 54.20874023 C-6.64982605 51.96287537 -6.64982605 51.96287537 -6.64550781 49.13232422 C-6.64858444 48.07460312 -6.65166107 47.01688202 -6.65483093 45.92710876 C-6.64764542 44.78125809 -6.6404599 43.63540741 -6.63305664 42.45483398 C-6.63236931 40.69805077 -6.63236931 40.69805077 -6.63166809 38.90577698 C-6.62864305 36.4267577 -6.62074928 33.94774036 -6.60839844 31.46875 C-6.5901476 27.65870487 -6.58788865 23.84890262 -6.58813477 20.03881836 C-6.5832196 17.63582145 -6.57739128 15.2328262 -6.57055664 12.82983398 C-6.56944382 11.68195908 -6.56833099 10.53408417 -6.56718445 9.35142517 C-6.5608046 8.29685623 -6.55442474 7.24228729 -6.54785156 6.15576172 C-6.54403976 5.22247543 -6.54022797 4.28918915 -6.53630066 3.32762146 C-6.27111177 -0.87469798 -3.63127137 0.05642349 0 0 Z " fill="#E9F5FE" transform="translate(358.402587890625,195.791259765625)"/>
<path d="M0 0 C1.94222694 -0.00956978 1.94222694 -0.00956978 3.9236908 -0.01933289 C5.34829674 -0.02086144 6.77290319 -0.02197547 8.19750977 -0.02270508 C9.64860569 -0.02591595 11.09970128 -0.02927989 12.55079651 -0.03279114 C15.59653474 -0.03878879 18.64224456 -0.04063039 21.68798828 -0.04003906 C25.59677458 -0.03993741 29.50537933 -0.05358942 33.41412258 -0.07081127 C36.41234682 -0.08191304 39.41052692 -0.08395883 42.40876961 -0.08342934 C43.85011483 -0.08461222 45.29146109 -0.08905118 46.73278618 -0.0967617 C48.74631297 -0.10652419 50.75989269 -0.10242903 52.7734375 -0.09765625 C54.49432838 -0.09979378 54.49432838 -0.09979378 56.24998474 -0.10197449 C58.95141602 0.14526367 58.95141602 0.14526367 60.95141602 2.14526367 C61.2053833 4.34643555 61.2053833 4.34643555 61.21020508 7.11401367 C61.2165094 8.14848633 61.22281372 9.18295898 61.22930908 10.2487793 C61.22526062 11.36961914 61.22121216 12.49045898 61.21704102 13.64526367 C61.21895447 14.79188477 61.22086792 15.93850586 61.22283936 17.11987305 C61.22420223 19.54760965 61.22049869 21.97535351 61.2121582 24.40307617 C61.20146039 28.1298044 61.21205033 31.85605053 61.22485352 35.58276367 C61.22353194 37.93693141 61.22096959 40.29109884 61.21704102 42.64526367 C61.22108948 43.76610352 61.22513794 44.88694336 61.22930908 46.04174805 C61.2198526 47.59345703 61.2198526 47.59345703 61.21020508 49.17651367 C61.20861389 50.08981445 61.20702271 51.00311523 61.2053833 51.9440918 C60.95141602 54.14526367 60.95141602 54.14526367 58.95141602 56.14526367 C56.24998474 56.39250183 56.24998474 56.39250183 52.7734375 56.38818359 C51.47546738 56.39126022 50.17749725 56.39433685 48.8401947 56.39750671 C47.41763126 56.39060948 45.99506957 56.38334255 44.57250977 56.37573242 C43.12044821 56.37454074 41.66838587 56.37408743 40.21632385 56.37434387 C37.17232441 56.37277871 34.12844253 56.3644859 31.08447266 56.35107422 C27.17453825 56.33406919 23.26473294 56.33026028 19.35476589 56.3310194 C16.35658018 56.33074805 13.35842293 56.32527271 10.36024666 56.31801796 C8.91808348 56.31482685 7.47591706 56.31286286 6.03375053 56.31212425 C4.02248863 56.30996624 2.01123865 56.30043716 0 56.29052734 C-1.71969749 56.28480965 -1.71969749 56.28480965 -3.47413635 56.27897644 C-6.04858398 56.14526367 -6.04858398 56.14526367 -7.04858398 55.14526367 C-7.14733568 53.46271133 -7.17657303 51.77602339 -7.17797852 50.09057617 C-7.18113068 49.01275879 -7.18428284 47.93494141 -7.18753052 46.82446289 C-7.18550629 45.65157715 -7.18348206 44.47869141 -7.18139648 43.27026367 C-7.18235321 42.07546387 -7.18330994 40.88066406 -7.18429565 39.6496582 C-7.18497769 37.11759387 -7.18312176 34.5855278 -7.17895508 32.0534668 C-7.17360719 28.16215107 -7.17889931 24.27095078 -7.18530273 20.37963867 C-7.18464196 17.92651342 -7.1833608 15.47338823 -7.18139648 13.02026367 C-7.18342072 11.84737793 -7.18544495 10.67449219 -7.18753052 9.46606445 C-7.18437836 8.38824707 -7.1812262 7.31042969 -7.17797852 6.19995117 C-7.17718292 5.24588379 -7.17638733 4.29181641 -7.17556763 3.30883789 C-6.91387302 -1.14997035 -3.78954876 0.0125996 0 0 Z " fill="#E9F5FE" transform="translate(103.048583984375,195.854736328125)"/>
<path d="M0 0 C1.75539345 0.00333092 1.75539345 0.00333092 3.54624939 0.00672913 C4.51207191 0.00651009 4.51207191 0.00651009 5.49740601 0.00628662 C7.63473327 0.00698567 9.77197438 0.01477761 11.9092865 0.02259827 C13.3875931 0.02446248 14.86590032 0.02588637 16.34420776 0.02688599 C20.24211827 0.03071093 24.13999174 0.040541 28.03788757 0.05158997 C32.01259358 0.0618046 35.98730554 0.06638372 39.96202087 0.07142639 C47.76607425 0.0821633 55.57009707 0.09923942 63.37413025 0.12025452 C64.61989682 2.61178765 64.50775995 4.30152252 64.51939392 7.08900452 C64.52577377 8.12347717 64.53215363 9.15794983 64.53872681 10.22377014 C64.53983963 11.34460999 64.54095245 12.46544983 64.542099 13.62025452 C64.5470916 15.34018616 64.5470916 15.34018616 64.55218506 17.09486389 C64.55725453 19.52259418 64.55959338 21.95033144 64.55943298 24.37806702 C64.56162114 28.10474533 64.5797815 31.83112856 64.59873962 35.55775452 C64.60167312 37.91192017 64.60365821 40.26608723 64.604599 42.62025452 C64.61178452 43.74109436 64.61897003 44.8619342 64.62637329 46.01673889 C64.62329666 47.05121155 64.62022003 48.0856842 64.61705017 49.15150452 C64.61847519 50.0648053 64.61990021 50.97810608 64.62136841 51.91908264 C64.37413025 54.12025452 64.37413025 54.12025452 62.37413025 56.12025452 C59.71739197 56.3742218 59.71739197 56.3742218 56.30381775 56.37904358 C54.39173523 56.38850006 54.39173523 56.38850006 52.44102478 56.39814758 C51.0437252 56.39456791 49.64642688 56.39046597 48.24913025 56.38587952 C46.82188348 56.38722623 45.39463716 56.38916681 43.96739197 56.39167786 C40.9746718 56.39462886 37.98207094 56.39033234 34.98936462 56.3809967 C31.14896652 56.36960207 27.30884793 56.37616169 23.46846008 56.38814163 C20.52083725 56.39536094 17.57328094 56.393072 14.62565613 56.38788605 C13.20943672 56.38654974 11.79321131 56.38819661 10.3769989 56.39284515 C8.39948132 56.39791126 6.42194263 56.38882359 4.44444275 56.37904358 C2.75472351 56.3766568 2.75472351 56.3766568 1.03086853 56.3742218 C-1.62586975 56.12025452 -1.62586975 56.12025452 -3.62586975 54.12025452 C-3.87310791 51.87438965 -3.87310791 51.87438965 -3.86878967 49.0438385 C-3.8718663 47.9861174 -3.87494293 46.9283963 -3.87811279 45.83862305 C-3.87092728 44.69277237 -3.86374176 43.54692169 -3.8563385 42.36634827 C-3.85565117 40.60956505 -3.85565117 40.60956505 -3.85494995 38.81729126 C-3.85192491 36.33827198 -3.84403114 33.85925464 -3.8316803 31.38026428 C-3.81342946 27.57021915 -3.81117051 23.7604169 -3.81141663 19.95033264 C-3.80650146 17.54733573 -3.80067314 15.14434048 -3.7938385 12.74134827 C-3.79272568 11.59347336 -3.79161285 10.44559845 -3.79046631 9.26293945 C-3.78408646 8.20837051 -3.7777066 7.15380157 -3.77113342 6.067276 C-3.76732162 5.13398972 -3.76350983 4.20070343 -3.75958252 3.23913574 C-3.55963688 0.07069449 -3.20078829 0.14658353 0 0 Z " fill="#E9F5FE" transform="translate(210.62586975097656,195.87974548339844)"/>
<path d="M0 0 C8.40007793 4.88731807 14.47228612 12.57744216 17 22 C18.28598024 33.18125979 16.21791555 43.00020462 9.1875 51.9375 C2.23801676 59.20528018 -6.94067651 62.96221521 -16.9375 63.4375 C-26.68654928 63.04082507 -33.8884232 59.13502073 -40.83203125 52.4453125 C-49.06004686 43.1647039 -49.63347743 33.94912319 -49 22 C-47.80393067 13.1412008 -41.72497399 6.66356679 -34.84375 1.328125 C-23.99398333 -5.76595321 -11.37156982 -6.25240952 0 0 Z " fill="#789CAC" transform="translate(172,380)"/>
<path d="M0 0 C6.01501063 4.81450954 11.05503419 10.91703017 12.87890625 18.50390625 C13.92667405 28.94917901 13.40412255 38.15021654 7.1484375 46.93359375 C0.29412425 55.27916477 -7.82367347 59.46144598 -18.421875 60.79296875 C-27.4362429 61.33929408 -35.64039718 57.87188403 -42.55859375 52.19140625 C-49.96623922 45.1071715 -53.37836119 37.13435671 -53.62109375 26.87890625 C-53.63994938 17.26142472 -50.34770319 9.73528986 -43.87109375 2.56640625 C-31.30128669 -8.85815172 -13.8731795 -9.38891946 0 0 Z " fill="#789CAC" transform="translate(405.12109375,382.49609375)"/>
<path d="M0 0 C1.28117706 0.00007553 2.56235413 0.00015106 3.88235474 0.00022888 C5.28599079 0.00533591 6.68962645 0.01055191 8.09326172 0.01586914 C9.52529857 0.01773394 10.95733606 0.01915755 12.38937378 0.02015686 C16.16068276 0.0239772 19.93195329 0.03380337 23.70324707 0.04486084 C28.2270071 0.05688262 32.75077997 0.0614795 37.27455139 0.06731415 C44.14904408 0.07701538 51.0234524 0.09617529 57.89794922 0.11352539 C57.89794922 14.96352539 57.89794922 29.81352539 57.89794922 45.11352539 C34.46794922 45.11352539 11.03794922 45.11352539 -13.10205078 45.11352539 C-13.20517578 38.78165039 -13.30830078 32.44977539 -13.41455078 25.92602539 C-13.4600708 23.93547119 -13.50559082 21.94491699 -13.55249023 19.89404297 C-13.56710039 18.30706465 -13.57983981 16.72006753 -13.59033203 15.13305664 C-13.61591187 14.3165564 -13.6414917 13.50005615 -13.66784668 12.65881348 C-13.67119107 8.27966561 -13.5322862 6.65030444 -10.6965332 3.11230469 C-6.80148626 0.11157548 -4.88387303 -0.00957622 0 0 Z " fill="#D68777" transform="translate(122.10205078125,68.886474609375)"/>
<path d="M0 0 C15.77167514 -0.12032643 15.77167514 -0.12032643 22.50585938 -0.14648438 C27.09702992 -0.16440274 31.6880206 -0.18557715 36.27905273 -0.22631836 C39.98137696 -0.25896667 43.68350825 -0.27686447 47.38596535 -0.28463173 C48.79694467 -0.29016547 50.20791369 -0.30097164 51.61881065 -0.31719017 C53.59822627 -0.33903449 55.57783693 -0.340226 57.55737305 -0.34057617 C58.68322311 -0.34723801 59.80907318 -0.35389984 60.96903992 -0.36076355 C64.95952873 0.11420902 67.78559462 1.46500619 70.30029297 4.64355469 C71.38446809 8.29479623 71.24356066 11.93065076 71.1953125 15.703125 C71.19329834 16.4461084 71.19128418 17.1890918 71.18920898 17.95458984 C71.17877533 20.71978971 71.15085273 23.4849013 71.125 26.25 C71.08375 32.4375 71.0425 38.625 71 45 C47.57 45 24.14 45 0 45 C0 30.15 0 15.3 0 0 Z " fill="#D68777" transform="translate(194,69)"/>
<path d="M0 0 C17.01944187 1.13462946 31.40172057 8.77833448 43.44140625 20.546875 C46.50977 23.55618039 46.50977 23.55618039 50 26 C52.01860566 25.7341516 52.01860566 25.7341516 54.0625 25 C56.40625 24.59765625 56.40625 24.59765625 59 25 C63.16569991 28.25847919 66.56810683 31.990779 70 36 C69.67128906 36.60199219 69.34257812 37.20398438 69.00390625 37.82421875 C67.5091376 41.06385353 67.87267627 42.61802882 69 46 C70.55510836 47.78882407 72.24853772 49.36214766 73.9765625 50.984375 C80.00569752 56.99023151 84.35982111 64.23985713 88.25 71.75 C88.72554321 72.64126587 88.72554321 72.64126587 89.21069336 73.55053711 C96.84693381 88.91724309 96.50210378 104.16427433 96.25 120.9375 C96.22989474 123.27797943 96.21165113 125.61847562 96.1953125 127.95898438 C96.15165917 133.63969451 96.08506967 139.31976687 96 145 C95.53479446 144.59823547 95.06958893 144.19647095 94.59028625 143.78253174 C93.97179306 143.25004822 93.35329987 142.7175647 92.71606445 142.16894531 C92.10648392 141.64343079 91.49690338 141.11791626 90.86885071 140.57647705 C88.05128376 138.19970634 85.12707858 135.97269186 82.1875 133.75 C76.25697674 129.25697674 76.25697674 129.25697674 74 127 C73.82055664 124.671875 73.82055664 124.671875 73.91015625 121.75 C73.93255371 120.67532471 73.95495117 119.60064941 73.97802734 118.4934082 C74.00590332 117.3405835 74.0337793 116.18775879 74.0625 115 C74.34309598 88.38893299 68.05699524 65.93975461 49.35546875 46.203125 C47.29409205 43.77230179 47.29409205 43.77230179 45 44 C44.01953125 42.55859375 44.01953125 42.55859375 42.8125 40.4375 C39.59648782 35.41348098 35.64930604 31.36984219 31.4375 27.1875 C30.78821533 26.54159912 30.13893066 25.89569824 29.4699707 25.23022461 C26.11519234 21.93972224 22.68662989 18.91970324 19 16 C18.443125 15.236875 17.88625 14.47375 17.3125 13.6875 C14.40959123 10.31384927 11.08903094 8.13196259 7.41796875 5.6484375 C4.83641487 3.8884767 2.39992489 1.99993741 0 0 Z " fill="#FCC143" transform="translate(401,167)"/>
<path d="M0 0 C4.38170654 3.30038411 7.7589627 8.31141697 9.8203125 13.37109375 C10.73649142 20.82836403 10.22638475 27.17370032 5.8203125 33.37109375 C1.43458117 38.73143204 -3.43433444 41.86547109 -10.3046875 42.79296875 C-17.61099106 43.09739806 -22.6952745 42.34329506 -28.1796875 37.37109375 C-33.6661068 32.09333022 -36.15006587 27.298657 -36.6171875 19.62109375 C-36.44544564 12.91305872 -34.0411322 7.26845616 -29.3125 2.48046875 C-20.51802829 -4.56879651 -9.90570422 -5.47420496 0 0 Z " fill="#020303" transform="translate(398.1796875,389.62890625)"/>
<path d="M0 0 C5.1381724 3.1050031 8.92198398 7.78958224 12 12.875 C13.62771923 20.47102305 12.90823408 26.41108535 9.12109375 33.234375 C5.62373523 38.31825455 1.43309962 41.58642697 -4.4375 43.5 C-13.35383569 44.43536492 -19.20514815 43.3215679 -26.625 38.375 C-30.98820348 34.44460759 -33.06407475 29.48740201 -33.78515625 23.71875 C-34.0175008 16.36453986 -32.46415 11.3710875 -28.1875 5.3125 C-20.64454303 -2.40188781 -10.20981733 -4.46679508 0 0 Z " fill="#020303" transform="translate(166.4375,388.5)"/>
<path d="M0 0 C5.94 0 11.88 0 18 0 C19.24576657 2.49153314 19.1336297 4.181268 19.14526367 6.96875 C19.15164352 8.00322266 19.15802338 9.03769531 19.16459656 10.10351562 C19.16570938 11.22435547 19.1668222 12.34519531 19.16796875 13.5 C19.17296135 15.21993164 19.17296135 15.21993164 19.17805481 16.97460938 C19.18312428 19.40233966 19.18546313 21.83007693 19.18530273 24.2578125 C19.18749089 27.98449082 19.20565125 31.71087404 19.22460938 35.4375 C19.22754287 37.79166565 19.22952796 40.14583271 19.23046875 42.5 C19.23765427 43.62083984 19.24483978 44.74167969 19.25224304 45.89648438 C19.24916641 46.93095703 19.24608978 47.96542969 19.24291992 49.03125 C19.24434494 49.94455078 19.24576996 50.85785156 19.24723816 51.79882812 C19 54 19 54 17 56 C14.32980347 56.24050903 14.32980347 56.24050903 10.89794922 56.22705078 C9.61677216 56.22689972 8.33559509 56.22674866 7.01559448 56.22659302 C5.61195726 56.21637895 4.2083216 56.20594695 2.8046875 56.1953125 C1.37265215 56.19158291 -0.05938575 56.18873569 -1.49142456 56.18673706 C-5.26278717 56.17909627 -9.03399604 56.15944408 -12.80529785 56.1373291 C-16.65272949 56.11688019 -20.50018594 56.1077374 -24.34765625 56.09765625 C-31.89850764 56.0761985 -39.44923229 56.04205732 -47 56 C-47 55.67 -47 55.34 -47 55 C-31.49 55 -15.98 55 0 55 C0 36.85 0 18.7 0 0 Z " fill="#C7EDFB" transform="translate(256,196)"/>
<path d="M0 0 C5.61 0 11.22 0 17 0 C19.54273722 2.54273722 19.2526488 3.44439439 19.25878906 6.96875 C19.26509338 8.00322266 19.27139771 9.03769531 19.27789307 10.10351562 C19.2738446 11.22435547 19.26979614 12.34519531 19.265625 13.5 C19.26753845 14.64662109 19.2694519 15.79324219 19.27142334 16.97460938 C19.27278622 19.40234598 19.26908267 21.83008984 19.26074219 24.2578125 C19.25004438 27.98454073 19.26063431 31.71078686 19.2734375 35.4375 C19.27211592 37.79166774 19.26955357 40.14583517 19.265625 42.5 C19.26967346 43.62083984 19.27372192 44.74167969 19.27789307 45.89648438 C19.26843658 47.44819336 19.26843658 47.44819336 19.25878906 49.03125 C19.25719788 49.94455078 19.25560669 50.85785156 19.25396729 51.79882812 C19 54 19 54 17 56 C14.2918396 56.24050903 14.2918396 56.24050903 10.80615234 56.22705078 C9.50495453 56.22689972 8.20375671 56.22674866 6.86312866 56.22659302 C5.43739673 56.21637893 4.01166635 56.20594692 2.5859375 56.1953125 C1.13148187 56.19158295 -0.32297627 56.1887357 -1.7774353 56.18673706 C-5.60798056 56.179096 -9.43837446 56.15944357 -13.26885986 56.1373291 C-17.17661491 56.11688078 -21.08439439 56.10773752 -24.9921875 56.09765625 C-32.66152738 56.07619802 -40.33074249 56.04205651 -48 56 C-48 55.67 -48 55.34 -48 55 C-32.16 55 -16.32 55 0 55 C0 36.85 0 18.7 0 0 Z " fill="#C5EAF9" transform="translate(145,196)"/>
<path d="M0 0 C21.12 0 42.24 0 64 0 C64 14.85 64 29.7 64 45 C40.57 45 17.14 45 -7 45 C-7 32.13 -7 19.26 -7 6 C-6.67 6 -6.34 6 -6 6 C-6 18.54 -6 31.08 -6 44 C10.17 44 26.34 44 43 44 C43 29.81 43 15.62 43 1 C28.81 1 14.62 1 0 1 C0 0.67 0 0.34 0 0 Z " fill="#C16B58" transform="translate(116,69)"/>
<path d="M0 0 C13.61549485 -1.03263585 13.61549485 -1.03263585 18.1875 2.3125 C19.49726487 3.50009591 20.76310574 4.73668664 22 6 C23.41345703 7.35738281 23.41345703 7.35738281 24.85546875 8.7421875 C34.89569761 18.48106368 34.89569761 18.48106368 35.24291992 23.53759766 C35.24935676 24.99641097 35.24450153 26.45530248 35.23046875 27.9140625 C35.23001053 28.68430756 35.22955231 29.45455261 35.2290802 30.24813843 C35.22606209 31.87377466 35.21818897 33.4994081 35.20581055 35.125 C35.18751832 37.62249914 35.18530115 40.11962827 35.18554688 42.6171875 C35.18063293 44.19531573 35.17480514 45.77344143 35.16796875 47.3515625 C35.16685593 48.10257233 35.1657431 48.85358215 35.16459656 49.62734985 C35.11606135 54.88393865 35.11606135 54.88393865 34 56 C31.56603981 56.09498646 29.16057048 56.12558417 26.72631836 56.11352539 C25.58493156 56.11374443 25.58493156 56.11374443 24.42048645 56.1139679 C21.89357702 56.11326862 19.36674038 56.10547555 16.83984375 56.09765625 C15.0924941 56.09579212 13.34514393 56.0943682 11.59779358 56.09336853 C6.98968066 56.08954293 2.38159905 56.07971229 -2.22650146 56.06866455 C-6.92508521 56.05845134 -11.62367399 56.0538711 -16.32226562 56.04882812 C-25.54819087 56.03809005 -34.77409284 56.02101313 -44 56 C-44 55.67 -44 55.34 -44 55 C-24.2 55 -4.4 55 16 55 C15.938125 49.225 15.87625 43.45 15.8125 37.5 C15.80581299 35.69337891 15.79912598 33.88675781 15.79223633 32.02539062 C15.77888072 20.55762562 15.77888072 20.55762562 10 11 C9.11699219 10.03191406 8.23398437 9.06382812 7.32421875 8.06640625 C6.45410156 7.24011719 5.58398438 6.41382813 4.6875 5.5625 C3.1115694 4.05558825 1.54480413 2.53880489 0 1 C0 0.67 0 0.34 0 0 Z " fill="#C6EBF9" transform="translate(398,196)"/>
<path d="M0 0 C15.77167514 -0.12032643 15.77167514 -0.12032643 22.50585938 -0.14648438 C27.09702992 -0.16440274 31.6880206 -0.18557715 36.27905273 -0.22631836 C39.98137696 -0.25896667 43.68350825 -0.27686447 47.38596535 -0.28463173 C48.79694467 -0.29016547 50.20791369 -0.30097164 51.61881065 -0.31719017 C53.59822627 -0.33903449 55.57783693 -0.340226 57.55737305 -0.34057617 C58.68322311 -0.34723801 59.80907318 -0.35389984 60.96903992 -0.36076355 C64.95952873 0.11420902 67.78559462 1.46500619 70.30029297 4.64355469 C71.38453314 8.29501531 71.24335628 11.93058639 71.1953125 15.703125 C71.1924826 16.54091492 71.18965271 17.37870483 71.18673706 18.24188232 C71.17556349 20.91140163 71.15046421 23.5805825 71.125 26.25 C71.11496654 28.06249515 71.10584133 29.87499556 71.09765625 31.6875 C71.07733695 36.12523454 71.03818341 40.56223948 71 45 C64.4 45 57.8 45 51 45 C50.93941406 42.32648438 50.87882812 39.65296875 50.81640625 36.8984375 C50.75452304 34.29701168 50.69117431 31.69562536 50.62768555 29.09423828 C50.58448689 27.29219102 50.54280176 25.4901068 50.50268555 23.68798828 C50.44461624 21.09135825 50.3810292 18.4949117 50.31640625 15.8984375 C50.29969376 15.0982016 50.28298126 14.2979657 50.26576233 13.47348022 C50.2358445 12.33297714 50.2358445 12.33297714 50.20532227 11.16943359 C50.18200584 10.17682022 50.18200584 10.17682022 50.15821838 9.16415405 C49.95780437 6.42283666 49.45187258 3.71123551 49 1 C33.16 1 17.32 1 1 1 C1 15.52 1 30.04 1 45 C0.67 45 0.34 45 0 45 C0 30.15 0 15.3 0 0 Z " fill="#C06A56" transform="translate(194,69)"/>
<path d="M0 0 C11.40471435 -0.6435262 20.06372743 0.93176188 29.11328125 8.1640625 C36.18027002 15.04084246 40.24381775 22.71302613 40.4375 32.625 C40.28806785 42.05914955 37.24378998 50.64962422 30.65234375 57.54296875 C22.04128725 65.13616987 12.31517411 67.65002064 1 67 C1 66.67 1 66.34 1 66 C2.010625 65.835 3.02125 65.67 4.0625 65.5 C9.19449836 64.09655555 11.88371678 60.07295376 15 56 C14.34 55.67 13.68 55.34 13 55 C13.51949219 54.78085937 14.03898438 54.56171875 14.57421875 54.3359375 C20.96372327 51.43054358 24.35625576 47.94740346 27.8125 41.75 C29.76714875 35.57742498 30.10588706 29.76537255 27.4375 23.75 C24.19911139 18.0770781 19.28148587 13.90348057 13 12 C13.66 11.67 14.32 11.34 15 11 C13.85459775 9.68712379 12.70866567 8.37470979 11.5625 7.0625 C10.60537109 5.96615234 10.60537109 5.96615234 9.62890625 4.84765625 C6.6544661 1.4737709 4.51965482 1.5752288 0 1 C0 0.67 0 0.34 0 0 Z " fill="#638892" transform="translate(149,376)"/>
<path d="M0 0 C10.08046603 -0.48776449 19.00094424 1.59742938 27 8 C33.99167535 14.5341424 38.03711571 21.14825241 38.47094727 30.83178711 C38.62538589 42.02534308 35.97947006 49.86165574 28.20703125 58.0234375 C19.57691648 65.75235445 10.22920643 67.41419204 -1 67 C-1 66.67 -1 66.34 -1 66 C0.093125 65.690625 1.18625 65.38125 2.3125 65.0625 C6.94950741 64.12886777 6.94950741 64.12886777 10.0625 61.125 C10.371875 60.42375 10.68125 59.7225 11 59 C11.66 58.01 12.32 57.02 13 56 C12.34 55.67 11.68 55.34 11 55 C11.66386719 54.731875 12.32773437 54.46375 13.01171875 54.1875 C19.51119138 51.30306251 23.06311477 48.52944715 26 42 C27.94024225 36.17927325 28.10296983 29.8952958 25.90625 24.12890625 C22.77071102 18.51662505 19.79785898 15.67593492 14 13 C12 11 12 11 11.1875 9.1875 C9.55581162 6.18175824 7.58671118 4.22577473 5 2 C2.32209104 1.12761142 2.32209104 1.12761142 0 1 C0 0.67 0 0.34 0 0 Z " fill="#648994" transform="translate(380,376)"/>
<path d="M0 0 C2.39706123 -0.10854617 4.78915838 -0.18753157 7.1875 -0.25 C7.86103516 -0.28351563 8.53457031 -0.31703125 9.22851562 -0.3515625 C12.89041975 -0.42301429 14.82150622 -0.11534178 17.92578125 1.890625 C24.19239555 8.26345311 21 10.76072756 21 23 C-83.28 23 -187.56 23 -295 23 C-295 22.67 -295 22.34 -295 22 C-196.66 22 -98.32 22 3 22 C3.00138793 6.73925271 3.00138793 6.73925271 0 0 Z " fill="#62BCD4" transform="translate(364,129)"/>
<path d="M0 0 C0.65880661 0.00707474 1.31761322 0.01414948 1.99638367 0.0214386 C4.08601909 0.04927146 6.17290351 0.11197306 8.26171875 0.17578125 C9.68420589 0.2008792 11.10673534 0.22368977 12.52929688 0.24414062 C16.00449785 0.29479953 19.47380688 0.39262771 22.94921875 0.48828125 C22.94921875 7.08828125 22.94921875 13.68828125 22.94921875 20.48828125 C18.40691463 20.59628848 13.86718336 20.67561967 9.32421875 20.73828125 C7.39642578 20.78855469 7.39642578 20.78855469 5.4296875 20.83984375 C-6.37691918 20.96219201 -6.37691918 20.96219201 -11.05078125 16.48828125 C-13.15935578 13.8296438 -13.05101739 12.50126918 -12.98828125 9.05078125 C-11.09854079 1.86976751 -7.12236726 -0.15153973 0 0 Z " fill="#F7BD42" transform="translate(474.05078125,342.51171875)"/>
<path d="M0 0 C0.66914429 -0.0038269 1.33828857 -0.00765381 2.02770996 -0.01159668 C3.43629469 -0.01430723 4.84493048 -0.00700592 6.25341797 0.00976562 C8.40056339 0.03119325 10.54436397 0.00994088 12.69140625 -0.015625 C14.0651115 -0.01298156 15.43881467 -0.00785625 16.8125 0 C18.67358398 0.00676758 18.67358398 0.00676758 20.57226562 0.01367188 C24.49137409 0.62208649 26.14306971 1.73248137 28.90625 4.53125 C29.96875 7.46875 29.96875 7.46875 29.90625 10.53125 C28.3828125 13.18334961 28.3828125 13.18334961 25.90625 15.53125 C23.1351144 16.02926067 20.98427893 16.21176101 18.21875 16.16015625 C17.47923096 16.16256821 16.73971191 16.16498016 15.9777832 16.16746521 C14.41775132 16.16648782 12.85768429 16.15311956 11.29785156 16.12817383 C8.91351203 16.09385453 6.53287873 16.10751742 4.1484375 16.12695312 C2.6301926 16.12005438 1.11195724 16.11038172 -0.40625 16.09765625 C-1.11676514 16.10261612 -1.82728027 16.10757599 -2.55932617 16.11268616 C-5.93037707 16.03270762 -7.80282613 15.74738064 -10.5390625 13.71459961 C-12.83518529 10.49000381 -12.71313833 8.38522182 -12.09375 4.53125 C-8.26684702 0.53283316 -5.43188699 0.01975232 0 0 Z " fill="#070708" transform="translate(349.09375,309.46875)"/>
<path d="M0 0 C6.93 0 13.86 0 21 0 C21.40620529 14.48798873 21.40620529 14.48798873 18 19 C13.73075866 22.74860215 11.45089971 24.12663 5.81591797 24.11352539 C4.73494843 24.11344986 3.65397888 24.11337433 2.54025269 24.11329651 C0.78396042 24.10555458 0.78396042 24.10555458 -1.0078125 24.09765625 C-2.20356903 24.0962413 -3.39932556 24.09482635 -4.63131714 24.09336853 C-8.46256987 24.08775663 -12.29376484 24.07520208 -16.125 24.0625 C-18.71744707 24.05748653 -21.30989506 24.05292336 -23.90234375 24.04882812 C-30.26824898 24.03778333 -36.63412037 24.02103359 -43 24 C-43 23.67 -43 23.34 -43 23 C-30.13 23 -17.26 23 -4 23 C-1.84748717 16.5424615 -0.62243001 12.82205818 -0.3125 6.4375 C-0.209375 4.313125 -0.10625 2.18875 0 0 Z " fill="#C8ECFB" transform="translate(476,378)"/>
<path d="M0 0 C0 6.27 0 12.54 0 19 C-9 19 -9 19 -12 16.9375 C-14.42072913 13.38205409 -15.0755042 11.30373949 -15 7 C-10.80676657 -0.80808984 -9.51024418 0 0 0 Z " fill="#FACC58" transform="translate(476,343)"/>
<path d="M0 0 C3.31469389 1.22499557 4.84046741 2.16720362 6.875 5.0625 C7.51156938 8.80234509 7.13084708 10.57212644 5.375 13.9375 C2.34584317 16.51228331 0.66849229 16.80795844 -3.21875 16.546875 C-5.125 16.0625 -5.125 16.0625 -7.625 13.9375 C-9.41452585 10.50757546 -9.91735586 8.86580813 -9.125 5.0625 C-6.16174116 1.74647225 -4.52716343 0.09054327 0 0 Z " fill="#E3EFF8" transform="translate(386.125,400.9375)"/>
<path d="M0 0 C1.91015625 0.4453125 1.91015625 0.4453125 4.47265625 2.5078125 C6.35626596 6.35692799 6.11780025 8.36951401 4.91015625 12.4453125 C2.54522199 15.26504181 1.08208975 15.42382081 -2.58984375 15.8828125 C-6.08984375 15.4453125 -6.08984375 15.4453125 -8.52734375 13.8828125 C-10.69380403 10.50313446 -10.65272377 8.38547263 -10.08984375 4.4453125 C-7.53315462 0.29069266 -4.61630624 -0.25885829 0 0 Z " fill="#E3EEF7" transform="translate(158.08984375,401.5546875)"/>
<path d="M0 0 C6.35004004 3.87197564 11.63890442 8.27780883 15 15 C7.74 15 0.48 15 -7 15 C-7 14.67 -7 14.34 -7 14 C-4.36 14 -1.72 14 1 14 C0.67 9.38 0.34 4.76 0 0 Z " fill="#BBDEEC" transform="translate(475,313)"/>
</svg>
