<?xml version="1.0" encoding="UTF-8"?>
<svg version="1.1" xmlns="http://www.w3.org/2000/svg" width="512" height="512">
<path d="M0 0 C8.81501547 6.40921168 14.18029771 13.69142277 19.3125 23.25 C19.89644531 24.31089844 20.48039063 25.37179688 21.08203125 26.46484375 C22.504597 29.05344701 23.91428295 31.64818952 25.3125 34.25 C27.83722025 33.24348276 30.35696067 32.23134422 32.86328125 31.1796875 C44.22649541 26.84012905 56.14768397 26.51012881 67.56640625 30.92578125 C79.88402948 36.86557396 86.99375528 45.95987138 93.375 57.75 C94.49835791 59.7821586 95.6234179 61.81337704 96.75 63.84375 C97.61818359 65.41382812 97.61818359 65.41382812 98.50390625 67.015625 C101.55388952 72.47002273 104.71417913 77.85931064 107.875 83.25 C109.02223769 85.20827342 110.16937885 87.1666034 111.31640625 89.125 C111.83219238 90.00542969 112.34797852 90.88585937 112.87939453 91.79296875 C114.7112743 94.93369073 116.51663196 98.08856971 118.3125 101.25 C120.83872868 96.47823472 122.87180027 91.77616009 124.6875 86.6875 C126.96064584 80.65841781 129.53346346 75.43866044 135.26171875 72.12109375 C140.51225027 69.89086798 145.96763164 69.77692726 151.3671875 71.41796875 C156.06537718 73.42743542 159.28252138 76.14471313 161.54956055 80.77856445 C162.11864136 82.21268677 162.11864136 82.21268677 162.69921875 83.67578125 C163.1279126 84.743125 163.55660645 85.81046875 163.99829102 86.91015625 C164.43197998 88.01230469 164.86566895 89.11445313 165.3125 90.25 C166.14784846 92.34007927 166.98378543 94.42992343 167.8203125 96.51953125 C168.24417236 97.58171875 168.66803223 98.64390625 169.10473633 99.73828125 C176.1955745 117.42446051 184.06681613 134.58420043 193.3125 151.25 C195.23535922 148.36571118 196.41558471 145.55866982 197.67285156 142.34545898 C201.14813543 133.55655519 205.28051256 125.3397908 210.0625 117.1875 C210.89454956 115.75120239 210.89454956 115.75120239 211.7434082 114.28588867 C212.54331177 112.95134644 212.54331177 112.95134644 213.359375 111.58984375 C214.06852051 110.40442993 214.06852051 110.40442993 214.79199219 109.19506836 C216.48560889 107.02855515 217.74462524 106.18636966 220.3125 105.25 C221.15554688 105.29511719 221.99859375 105.34023437 222.8671875 105.38671875 C225.44267505 105.52363928 225.44267505 105.52363928 227.0078125 103.45703125 C227.47960937 102.66683594 227.95140625 101.87664062 228.4375 101.0625 C228.93507813 100.23878906 229.43265625 99.41507812 229.9453125 98.56640625 C230.39648438 97.80199219 230.84765625 97.03757812 231.3125 96.25 C231.9725 95.3425 232.6325 94.435 233.3125 93.5 C234.61524186 91.25597794 234.61524186 91.25597794 233.5 88.875 C233.108125 88.00875 232.71625 87.1425 232.3125 86.25 C231.07384683 78.77812441 235.09964862 73.57927552 238.875 67.375 C239.78862305 65.81845703 239.78862305 65.81845703 240.72070312 64.23046875 C250.3295429 48.10388687 260.96507444 35.91229848 279.75 30.875 C294.60474437 28.23597032 308.78867538 30.88850533 321.3125 39.25 C329.82046524 45.47721553 335.08615246 53.27801003 340.3125 62.25 C341.11083252 63.61439209 341.11083252 63.61439209 341.92529297 65.00634766 C345.42407301 71.00217427 348.88664664 77.0182328 352.33248901 83.0446167 C355.24222903 88.13240094 358.17152732 93.20871715 361.10522461 98.28271484 C362.98333659 101.53365626 364.85508541 104.7882045 366.7265625 108.04296875 C369.02828772 112.04093035 371.35599866 116.02145345 373.7109375 119.98828125 C379.68223004 130.10376834 385.00573999 139.94408262 388.3125 151.25 C388.6213916 152.26320312 388.6213916 152.26320312 388.93652344 153.296875 C395.05199871 174.16484751 394.70566517 198.49303387 388.3125 219.25 C387.99901611 220.27988037 387.99901611 220.27988037 387.67919922 221.33056641 C383.00967918 236.11563099 375.49458911 249.56494139 365.3125 261.25 C364.78527344 261.9203125 364.25804687 262.590625 363.71484375 263.28125 C353.59737801 275.81000364 338.29723089 284.91251842 323.3125 290.25 C337.7269171 302.12536382 355.05132794 310.94053042 371.19140625 320.20703125 C371.76956085 320.53926697 372.34771545 320.87150269 372.94338989 321.21380615 C375.75743568 322.83039507 378.57360979 324.44303467 381.39355469 326.04931641 C397.11944556 335.05694556 397.11944556 335.05694556 400.3125 338.25 C400.515625 340.2109375 400.515625 340.2109375 400.5625 342.625 C400.58828125 343.41648437 400.6140625 344.20796875 400.640625 345.0234375 C400.237139 347.76137819 399.46667654 348.57222789 397.3125 350.25 C392.17897963 352.24636903 391.02200119 350.69692908 385.3125 348.25 C378.3825 344.29 371.4525 340.33 364.3125 336.25 C364.3125 357.04 364.3125 377.83 364.3125 399.25 C373.8825 399.25 383.4525 399.25 393.3125 399.25 C398.3125 401.25 398.3125 401.25 400.3125 403.25 C400.6484375 405.30859375 400.6484375 405.30859375 400.6875 407.6875 C400.71585938 408.46996094 400.74421875 409.25242187 400.7734375 410.05859375 C400.3125 412.25 400.3125 412.25 398.80570221 413.86319309 C395.26186431 415.83440058 391.91031252 415.66371155 387.96032715 415.63031673 C387.10596982 415.63497665 386.25161249 415.63963657 385.37136555 415.6444377 C382.48895977 415.65645347 379.60701966 415.64696698 376.72460938 415.63768005 C374.64510561 415.64185008 372.56560411 415.64732577 370.48610687 415.65399987 C364.75642853 415.66851647 359.02689326 415.66419041 353.29720688 415.65683305 C347.12398662 415.65211904 340.9507981 415.66459548 334.77758789 415.67485046 C323.37813257 415.69108158 311.97873514 415.69347665 300.57927489 415.68854547 C290.04918195 415.68399247 279.51910606 415.68458226 268.98901367 415.69038582 C267.57781649 415.69114268 266.1666193 415.69189866 264.75542212 415.69265376 C262.62901563 415.69379893 260.50260915 415.6949488 258.37620267 415.69611301 C238.60110157 415.70682156 218.82600617 415.71153955 199.05090332 415.70364285 C198.30510669 415.70334567 197.55931005 415.7030485 196.79091352 415.70274232 C190.73408194 415.70029325 184.67725042 415.69768173 178.62041891 415.69505819 C154.98910646 415.68495362 131.35786504 415.69331368 107.7265625 415.71655273 C81.19062585 415.74260584 54.65473197 415.75547859 28.11878204 415.74836498 C25.29118348 415.74764889 22.46358491 415.74697451 19.63598633 415.74632454 C18.93973418 415.74615473 18.24348203 415.74598492 17.52613133 415.74580997 C7.00137281 415.74350391 -3.52334607 415.75149849 -14.0480957 415.76461601 C-26.01246794 415.77950101 -37.97674378 415.78002984 -49.94112206 415.7625451 C-56.04991152 415.75399749 -62.15852301 415.75197689 -68.26730347 415.76719666 C-73.85328038 415.78094205 -79.43892512 415.77641242 -85.02488232 415.75695742 C-87.05173741 415.75316573 -89.07861847 415.75620941 -91.10545063 415.76656907 C-93.84915015 415.77960176 -96.59167963 415.76827922 -99.33532715 415.75057125 C-100.13226581 415.76022176 -100.92920446 415.76987227 -101.75029278 415.77981523 C-105.32197493 415.73209942 -107.29974237 415.54639637 -110.17850494 413.34591156 C-112.72017568 409.81566998 -112.16181416 407.51882746 -111.6875 403.25 C-109.67581664 400.13189078 -108.46963002 400.1955325 -104.6875 399.25 C-94.7875 399.25 -84.8875 399.25 -74.6875 399.25 C-75.0175 378.46 -75.3475 357.67 -75.6875 336.25 C-83.6075 340.87 -91.5275 345.49 -99.6875 350.25 C-104.61286686 351.23507337 -105.53017847 351.38484079 -109.6875 349.25 C-112.21543912 346.72206088 -112.03863422 344.87785835 -112.24609375 341.41796875 C-111.16819564 337.23451802 -107.46143729 334.75914725 -103.97802734 332.4675293 C-103.0030127 331.92523682 -102.02799805 331.38294434 -101.0234375 330.82421875 C-99.36030518 329.88884277 -99.36030518 329.88884277 -97.66357422 328.93457031 C-97.07735291 328.60960571 -96.49113159 328.28464111 -95.887146 327.9498291 C-92.73737751 326.20231078 -89.60455123 324.42476174 -86.46875 322.65234375 C-85.82332245 322.28851593 -85.1778949 321.92468811 -84.51290894 321.54983521 C-77.81946808 317.77277223 -71.18203757 313.90486912 -64.5625 310 C-63.53560059 309.40018311 -62.50870117 308.80036621 -61.45068359 308.18237305 C-59.35685743 306.94447915 -57.28893577 305.66191096 -55.24658203 304.34082031 C-52.56975908 302.65898045 -49.88178519 301.51275616 -46.93701172 300.37011719 C-41.43453339 297.94975148 -36.94301835 295.44869337 -33.6875 290.25 C-30.71492246 279.37554129 -31.60525148 267.67378643 -31.98797607 256.51312256 C-32.11260923 252.31019864 -32.13371116 248.10681846 -32.1640625 243.90234375 C-32.23840846 235.68103262 -32.42614184 227.46748435 -32.6875 219.25 C-34.12730225 219.05417076 -34.12730225 219.05417076 -35.59619141 218.85438538 C-36.85608887 218.67951096 -38.11598633 218.50463654 -39.4140625 218.32446289 C-40.66268066 218.15266006 -41.91129883 217.98085724 -43.19775391 217.80384827 C-61.90761558 214.83445617 -79.34814465 202.72068208 -91.15234375 188.22265625 C-108.38696654 164.38879328 -114.67800316 137.79550806 -111.3828125 108.54541016 C-110.58695161 103.61899067 -109.26733756 98.97954524 -107.6875 94.25 C-107.30980469 93.07824219 -106.93210937 91.90648437 -106.54296875 90.69921875 C-102.12232289 78.47900436 -95.21903294 67.43006924 -88.6875 56.25 C-87.52029717 54.23729 -86.35362852 52.22427013 -85.1875 50.2109375 C-82.86286741 46.20342016 -80.52438635 42.20444825 -78.17578125 38.2109375 C-75.82674202 34.21382967 -73.51592896 30.19783814 -71.23046875 26.1640625 C-70.66650391 25.18058838 -70.10253906 24.19711426 -69.52148438 23.18383789 C-68.46595572 21.3430798 -67.4207055 19.4963668 -66.38867188 17.64233398 C-61.23151753 8.71918994 -54.80110645 1.61180232 -45.375 -2.75 C-44.20324219 -3.306875 -43.03148438 -3.86375 -41.82421875 -4.4375 C-28.28281434 -10.10364182 -12.15960252 -7.53031222 0 0 Z M-16.6875 219.25 C-16.6875 238.72 -16.6875 258.19 -16.6875 278.25 C-9.23624801 273.35201661 -9.23624801 273.35201661 -2.625 267.8125 C-1.78839844 267.04035156 -0.95179687 266.26820313 -0.08984375 265.47265625 C0.70292969 264.73917969 1.49570313 264.00570312 2.3125 263.25 C3.64098096 262.07781092 4.97400798 260.91074459 6.3125 259.75 C7.64633601 258.58390807 8.97963325 257.41719969 10.3125 256.25 C11.15167969 255.51652344 11.99085937 254.78304687 12.85546875 254.02734375 C13.72816406 253.25519531 14.60085937 252.48304688 15.5 251.6875 C16.29792969 250.98496094 17.09585938 250.28242188 17.91796875 249.55859375 C20.63285608 246.94114121 22.94385468 244.18240815 25.3125 241.25 C23.75402344 240.50556641 23.75402344 240.50556641 22.1640625 239.74609375 C-4.36353282 226.89793437 -4.36353282 226.89793437 -8.6875 218.25 C-11.73136724 218.16773332 -13.75925348 218.27391783 -16.6875 219.25 Z " fill="#010101" transform="translate(111.6875,51.75)"/>
<path d="M0 0 C5.23487155 3.70917085 8.51583487 7.78866175 11.5625 13.375 C12.42401412 14.89479496 13.286022 16.4143101 14.1484375 17.93359375 C14.60573242 18.74940918 15.06302734 19.56522461 15.53417969 20.40576172 C17.62788756 24.11124803 19.78327172 27.77961311 21.93701172 31.45043945 C23.71112308 34.47781079 25.47330774 37.51190033 27.234375 40.546875 C29.5270438 44.49143482 31.84244594 48.42072355 34.18632507 52.33494568 C35.60305737 54.70515265 37.0083021 57.08205789 38.41201782 59.45999146 C39.41978575 61.15765889 40.4425609 62.84638889 41.46557617 64.53491211 C42.07377197 65.5688208 42.68196777 66.60272949 43.30859375 67.66796875 C43.85314209 68.57828857 44.39769043 69.4886084 44.95874023 70.42651367 C46.5396147 74.33366437 45.5642093 76.66725483 43.97192383 80.4284668 C43.55450928 81.26031494 43.13709473 82.09216309 42.70703125 82.94921875 C42.24103516 83.88056641 41.77503906 84.81191406 41.29492188 85.77148438 C40.80572266 86.73376953 40.31652344 87.69605469 39.8125 88.6875 C39.34263672 89.63044922 38.87277344 90.57339844 38.38867188 91.54492188 C35.55942453 97.16095855 32.52854958 102.56366979 29.16918945 107.88061523 C27.55758359 110.80196635 27.22649349 112.75127266 28 116 C29.41666667 118.58333333 29.41666667 118.58333333 32 120 C35.46507309 120.1964818 35.46507309 120.1964818 39 119 C40.8694655 116.5990811 42.06799407 114.68357679 43.375 112 C43.75164795 111.27651367 44.1282959 110.55302734 44.51635742 109.80761719 C45.30578819 108.28878717 46.08553864 106.76488989 46.85595703 105.23632812 C47.91032509 103.17529283 49.01383235 101.15607676 50.15234375 99.140625 C58.38225834 84.42421615 64.78336381 68.65404772 71 53 C71.33 53 71.66 53 72 53 C72.21104248 70.58605693 72.36933748 88.17171392 72.46630955 105.75875092 C72.51254962 113.9263514 72.57549166 122.09316124 72.67895508 130.26025391 C72.76918097 137.38586487 72.82684548 144.51090282 72.84679645 151.63706923 C72.858444 155.40426127 72.88544821 159.16981531 72.95157051 162.93647766 C73.22960373 179.41395171 73.12506579 192.39369363 63 206 C61.52244868 208.55386968 60.16778386 211.1628383 58.82421875 213.7890625 C58.14271857 215.08149084 57.45994768 216.37325068 56.77539062 217.6640625 C56.43483643 218.31020508 56.09428223 218.95634766 55.7434082 219.62207031 C53.90045033 223.11793769 52.05011821 226.60989484 50.19921875 230.1015625 C49.83440399 230.78986145 49.46958923 231.4781604 49.09371948 232.18731689 C46.1064016 237.81579331 43.06726011 243.4146797 40 249 C35.12932672 257.87529873 30.36621175 266.80513956 25.625 275.75 C19.85049644 286.64399835 14.04640177 297.52081571 8.19042969 308.37133789 C5.09608991 314.10551953 2.00992122 319.84389608 -1.0625 325.58984375 C-1.57271194 326.54375504 -1.57271194 326.54375504 -2.0932312 327.51693726 C-3.73935427 330.59493266 -5.38438202 333.67350626 -7.02783203 336.75292969 C-7.61935059 337.85926758 -8.21086914 338.96560547 -8.8203125 340.10546875 C-9.33867676 341.07637451 -9.85704102 342.04728027 -10.39111328 343.04760742 C-12.21327833 346.39137707 -14.11068879 349.69370539 -16 353 C-30.52 353 -45.04 353 -60 353 C-60.29411561 337.54413758 -60.53329942 322.08967222 -60.67355824 306.6317625 C-60.74043235 299.45327358 -60.83149494 292.27665375 -60.98071289 285.09936523 C-61.11080076 278.83920628 -61.1942729 272.58040114 -61.22315043 266.31892806 C-61.24002094 263.00620867 -61.28621693 259.69823612 -61.37449074 256.38654137 C-61.93187433 234.60217132 -61.93187433 234.60217132 -57.20834351 229.03359985 C-54.10311148 226.11606504 -50.68343218 224.11596602 -47 222 C-45.1700771 220.46104059 -43.37166072 218.88284727 -41.625 217.25 C-40.66464844 216.36183594 -39.70429688 215.47367188 -38.71484375 214.55859375 C-33.45323545 209.56486022 -28.32438257 204.43382422 -23.1875 199.3125 C-22.68736389 198.81504272 -22.18722778 198.31758545 -21.67193604 197.80505371 C-15.89414095 192.05072344 -10.27894312 186.21877808 -5 180 C-4.14277344 179.02417969 -3.28554687 178.04835938 -2.40234375 177.04296875 C3.17500378 170.58173096 8.47778211 163.93418258 13.625 157.125 C14.24125244 156.32860107 14.85750488 155.53220215 15.49243164 154.71166992 C18.92076001 150.10758371 20.98526721 146.81945165 21 141 C19.66666667 138.33333333 19.66666667 138.33333333 17 137 C13.62612689 136.71060508 13.62612689 136.71060508 10 138 C7.35910231 140.48066176 5.37018023 143.34192249 3.3125 146.3125 C2.20693909 147.8520674 1.09893468 149.38988358 -0.01171875 150.92578125 C-0.49084717 151.61067627 -0.96997559 152.29557129 -1.46362305 153.0012207 C-3.14954667 155.19455564 -5.03083749 157.06072708 -7 159 C-7.00546844 157.62270721 -7.00546844 157.62270721 -7.01104736 156.21759033 C-7.04890993 147.56552653 -7.1057428 138.91384035 -7.18390274 130.262043 C-7.22341651 125.81400321 -7.2555857 121.36616254 -7.27099609 116.91796875 C-7.28613722 112.62537475 -7.32053683 108.33332803 -7.36830902 104.04097748 C-7.38314922 102.40317287 -7.39104253 100.76529014 -7.39188385 99.12741852 C-7.39424746 96.83337521 -7.42127478 94.54085187 -7.45410156 92.24707031 C-7.46298401 90.94135071 -7.47186646 89.6356311 -7.48101807 88.29034424 C-8.08363868 84.46973096 -8.90472543 83.25334587 -12 81 C-16.10777749 80.49700684 -17.50875983 80.67250655 -21 83 C-21.30001405 86.03302256 -21.40606252 88.86431838 -21.38476562 91.90014648 C-21.3901384 92.82220886 -21.39551117 93.74427124 -21.40104675 94.6942749 C-21.41084671 96.70062091 -21.41376224 98.70700941 -21.41069031 100.713377 C-21.40622899 103.88603464 -21.42016457 107.05812951 -21.43908691 110.23072815 C-21.47594783 116.96630945 -21.48959253 123.70183266 -21.5 130.4375 C-21.51205826 138.23711658 -21.53351082 146.03646071 -21.58000183 153.83595467 C-21.59362109 156.96646291 -21.58939198 160.09663109 -21.58459473 163.22715759 C-21.59393229 165.14159586 -21.60410034 167.05603032 -21.61523438 168.97045898 C-21.60908615 169.84485123 -21.60293793 170.71924347 -21.59660339 171.62013245 C-21.65716739 177.53116382 -21.65716739 177.53116382 -23.277565 179.74711704 C-25.89208206 181.64889207 -28.2767427 181.10082985 -31.34375 180.6328125 C-47.66566386 176.74435655 -61.71680378 165.56966731 -70.71826172 151.5871582 C-81.95263304 133.13746567 -86.3113996 111.22014054 -81.76708984 89.96069336 C-78.80917493 78.04057036 -73.08497031 67.5844795 -67 57 C-66.58588867 56.27635254 -66.17177734 55.55270508 -65.74511719 54.80712891 C-63.77580253 51.38465712 -61.77207602 47.98451569 -59.7421875 44.59765625 C-57.63483744 41.08041492 -55.56518341 37.54280537 -53.5078125 33.99609375 C-52.89655518 32.94268799 -52.28529785 31.88928223 -51.65551758 30.80395508 C-50.46390375 28.74858302 -49.27354978 26.6924798 -48.0847168 24.63549805 C-45.22600681 19.71544468 -42.32028868 14.82758878 -39.3203125 9.9921875 C-38.77777832 9.11675293 -38.23524414 8.24131836 -37.67626953 7.33935547 C-28.63861263 -5.27334893 -13.10364381 -6.9024828 0 0 Z " fill="#FDCF5A" transform="translate(177,99)"/>
<path d="M0 0 C2.09719123 2.72997233 3.66307549 5.20110935 4.98046875 8.38671875 C5.51305298 9.65745239 5.51305298 9.65745239 6.05639648 10.95385742 C6.42966064 11.85595947 6.8029248 12.75806152 7.1875 13.6875 C19.88063543 43.75263677 35.43400824 72.51796018 55.64306641 98.26220703 C56.96216369 99.95154392 58.25626788 101.6569975 59.54296875 103.37109375 C65.69564481 111.54303479 72.2430944 119.32441247 79 127 C79.79148437 127.90492188 80.58296875 128.80984375 81.3984375 129.7421875 C87.90865334 137.01087508 94.80028598 143.90437655 101.6875 150.8125 C102.18504791 151.31272675 102.68259583 151.81295349 103.19522095 152.32833862 C109.96771273 159.12897317 109.96771273 159.12897317 117.01953125 165.63671875 C117.59871307 166.16421722 118.1778949 166.6917157 118.77462769 167.23519897 C120.97588893 169.10967553 120.97588893 169.10967553 123.75720215 170.35113525 C127.33536287 172.4032344 130.02058864 174.37123176 132 178 C134.12162332 186.68558276 133.2749788 196.04834833 133.07421875 204.91015625 C133.05368743 207.56540422 133.03749573 210.22032528 133.02705383 212.87559509 C132.99297908 219.13432076 132.90287965 225.39091126 132.79220945 231.64870018 C132.66888941 238.77785353 132.60868699 245.90711357 132.55355966 253.03706944 C132.43884328 267.69263385 132.23727184 282.34589208 132 297 C117.15 297 102.3 297 87 297 C84.380625 292.05 81.76125 287.1 79.0625 282 C71.92149966 268.52049667 71.92149966 268.52049667 64.625 255.125 C64.28734619 254.50367188 63.94969238 253.88234375 63.60180664 253.2421875 C61.93891798 250.27747478 60.90401966 248.93601311 58 247 C54.42823885 247.08167489 54.42823885 247.08167489 51 248 C48.67549025 250.84640105 48.67549025 250.84640105 49.14306641 254.21826172 C50.08643597 258.38145106 51.669087 261.80368148 53.7109375 265.5078125 C54.0797403 266.19632294 54.44854309 266.88483337 54.82852173 267.59420776 C56.00078546 269.77664558 57.18770688 271.95070914 58.375 274.125 C59.16501337 275.59193623 59.95408493 277.05938008 60.7421875 278.52734375 C64.6034823 285.75852253 64.6034823 285.75852253 68.74853516 292.82763672 C70 295 70 295 70 297 C36.67 297 3.34 297 -31 297 C-30.38782971 290.26612682 -29.75868913 283.86629246 -28.50390625 277.27734375 C-28.35500443 276.47464554 -28.2061026 275.67194733 -28.0526886 274.84492493 C-27.56150145 272.20804452 -27.06235027 269.5727509 -26.5625 266.9375 C-26.20906786 265.0550279 -25.85571693 263.17254056 -25.50244141 261.29003906 C-22.32984931 244.46075067 -18.978498 227.6671089 -15.59008789 210.88012695 C-13.7218871 201.62249302 -11.85976622 192.36519078 -10.1015625 183.0859375 C-9.96088348 182.34569336 -9.82020447 181.60544922 -9.67526245 180.84277344 C-9.04216281 177.50628593 -8.41592189 174.16887771 -7.80029297 170.82910156 C-7.58775879 169.70213867 -7.37522461 168.57517578 -7.15625 167.4140625 C-6.97900391 166.4545166 -6.80175781 165.4949707 -6.61914062 164.50634766 C-6.02281511 162.09235803 -5.20820004 160.16394985 -4 158 C1.96112639 168.54548158 7.72017385 179.19075763 13.38668823 189.89663696 C21.05255634 204.39665706 21.05255634 204.39665706 28.875 218.8125 C29.26107422 219.52212891 29.64714844 220.23175781 30.04492188 220.96289062 C32.43652503 225.47069854 32.43652503 225.47069854 36 229 C39.57756686 229.00082535 39.57756686 229.00082535 43 228 C45.43604643 224.34593036 45.56579983 223.33129527 45 219 C43.50423746 215.36165869 41.6361902 211.94872829 39.75 208.5 C39.20496826 207.480271 38.65993652 206.46054199 38.09838867 205.40991211 C36.41277623 202.2655546 34.70932715 199.1315193 33 196 C32.27127686 194.66026123 32.27127686 194.66026123 31.52783203 193.29345703 C29.64806478 189.83901564 27.76494553 186.38648767 25.87207031 182.93920898 C20.40733578 172.97270042 15.0981087 162.92385386 9.78637695 152.87524414 C9.43283646 152.20738892 9.07929596 151.53953369 8.71504211 150.85144043 C7.7504839 149.02914859 6.78730309 147.20612786 5.82421875 145.38305664 C4.09336303 141.99677678 4.09336303 141.99677678 1.91436768 139.11276245 C-1.13717155 133.73411496 -0.52400542 127.82645827 -0.45410156 121.81274414 C-0.45468567 120.49498993 -0.45526978 119.17723572 -0.45587158 117.81954956 C-0.45701498 114.22275044 -0.43356719 110.62648948 -0.40557575 107.02981496 C-0.38049916 103.26489474 -0.37821519 99.49996094 -0.37347412 95.73497009 C-0.36106264 88.61293375 -0.32826603 81.49114424 -0.28807616 74.36921638 C-0.24330132 66.25799785 -0.22135709 58.14676726 -0.20129442 50.03545582 C-0.15953157 33.35682627 -0.0892154 16.67844468 0 0 Z " fill="#FED05A" transform="translate(264,155)"/>
<path d="M0 0 C8.79572553 5.99658442 13.83064784 15.37136837 18.8359375 24.47265625 C19.53180929 25.71736876 20.22901836 26.9613345 20.92749023 28.20458984 C21.99391848 30.10303121 23.05961717 32.00183267 24.1212616 33.9029541 C27.42931565 39.82513202 30.84060092 45.68451113 34.2734375 51.53515625 C35.41031791 53.48428072 36.5470356 55.4335001 37.68359375 57.3828125 C40.17552242 61.65016109 42.68798256 65.9048625 45.20703125 70.15625 C61.36420297 97.56807833 71.71173287 125.31227245 63.75439453 157.35498047 C59.44346527 173.65749734 53.10559135 187.36251128 42.2109375 200.41015625 C41.61539063 201.20550781 41.01984375 202.00085938 40.40625 202.8203125 C29.41784053 215.7835073 11.37273076 225.48588205 -5.34765625 227.7578125 C-9.0230663 227.23443411 -10.29645244 226.19303886 -12.7890625 223.41015625 C-13.55069035 219.76646522 -13.44773601 216.15743511 -13.40087891 212.44702148 C-13.40654373 211.32959564 -13.41220856 210.2121698 -13.41804504 209.06088257 C-13.43156228 205.36316532 -13.41059206 201.66642465 -13.390625 197.96875 C-13.39612214 195.40331854 -13.40424398 192.83789147 -13.41488647 190.2724762 C-13.43780636 183.51511538 -13.43358275 176.75810672 -13.42108154 170.00073242 C-13.40131391 159.18040216 -13.41262775 148.36025281 -13.44694138 137.53996468 C-13.45306876 133.75350393 -13.43975609 129.96744427 -13.42495728 126.18101501 C-13.42790399 123.8686411 -13.4315579 121.55626794 -13.43603516 119.24389648 C-13.42674484 118.18563156 -13.41745453 117.12736664 -13.40788269 116.03703308 C-13.41319504 115.07106201 -13.41850739 114.10509094 -13.42398071 113.10984802 C-13.42115302 111.84971468 -13.42115302 111.84971468 -13.4182682 110.56412411 C-13.87825077 107.89205587 -14.63173671 107.01260291 -16.7890625 105.41015625 C-20.22200773 104.89886654 -22.02421928 104.90485553 -24.9463501 106.83538818 C-27.7410488 110.74033883 -27.36060194 114.35094849 -27.33496094 119.04394531 C-27.35046745 120.50785706 -27.35046745 120.50785706 -27.36628723 122.00134277 C-27.39577879 125.22632275 -27.39721578 128.45067686 -27.3984375 131.67578125 C-27.41341481 133.91210126 -27.430141 136.14841018 -27.44854736 138.38470459 C-27.49228322 144.27014669 -27.51223391 150.15543957 -27.52728271 156.04101562 C-27.54683122 162.04696499 -27.58880379 168.05275267 -27.62890625 174.05859375 C-27.70427602 185.84239812 -27.75452661 197.62616642 -27.7890625 209.41015625 C-31.52309801 207.65104143 -34.29956597 205.34378682 -37.2890625 202.53515625 C-38.10818115 201.77187012 -38.10818115 201.77187012 -38.94384766 200.99316406 C-44.44771063 195.8150001 -49.81058938 190.49297858 -55.1640625 185.16015625 C-56.00775391 184.3211377 -56.85144531 183.48211914 -57.72070312 182.61767578 C-62.61665439 177.70912607 -67.29012809 172.68357984 -71.7890625 167.41015625 C-72.6346875 166.4459375 -73.4803125 165.48171875 -74.3515625 164.48828125 C-81.99826855 155.61614154 -89.09251034 146.34040862 -95.98242188 136.86962891 C-97.22628571 135.17629319 -98.50049205 133.50496758 -99.79882812 131.85302734 C-105.22835271 124.71142905 -105.22835271 124.71142905 -105.3515625 120.31640625 C-104.74044895 116.07256217 -103.96359549 112.03126076 -102.7890625 107.91015625 C-102.45684692 106.73839844 -102.45684692 106.73839844 -102.11791992 105.54296875 C-99.11803945 95.53189278 -94.24775 86.61977261 -89.015625 77.62109375 C-88.55244873 76.81542969 -88.08927246 76.00976562 -87.61206055 75.1796875 C-86.70835035 73.6178215 -85.78857908 72.06510684 -84.85083008 70.5234375 C-82.82210451 67.03907268 -81.76861859 65.1216042 -81.88671875 61.01171875 C-82.61902379 58.28929674 -82.61902379 58.28929674 -84.7890625 56.41015625 C-84.21654359 52.19839904 -81.84673211 48.76334606 -79.7265625 45.16015625 C-79.34951172 44.51046875 -78.97246094 43.86078125 -78.58398438 43.19140625 C-77.65672135 41.59510534 -76.72347794 40.00228096 -75.7890625 38.41015625 C-73.80338542 38.5078125 -71.81770833 38.60546875 -69.83203125 38.703125 C-67.13274134 38.31603754 -66.46695318 37.53909281 -64.7890625 35.41015625 C-63.71873002 33.69560182 -62.69911197 31.94896186 -61.71484375 30.18359375 C-61.12896484 29.15105469 -60.54308594 28.11851562 -59.93945312 27.0546875 C-58.72889077 24.90114724 -57.52303653 22.74495258 -56.32226562 20.5859375 C-43.80972896 -1.38929012 -23.94310035 -12.50361907 0 0 Z " fill="#6DD3A0" transform="translate(422.7890625,102.58984375)"/>
<path d="M0 0 C5.23487155 3.70917085 8.51583487 7.78866175 11.5625 13.375 C12.42401412 14.89479496 13.286022 16.4143101 14.1484375 17.93359375 C14.60573242 18.74940918 15.06302734 19.56522461 15.53417969 20.40576172 C17.62788756 24.11124803 19.78327172 27.77961311 21.93701172 31.45043945 C23.71112308 34.47781079 25.47330774 37.51190033 27.234375 40.546875 C29.5270438 44.49143482 31.84244594 48.42072355 34.18632507 52.33494568 C35.60305737 54.70515265 37.0083021 57.08205789 38.41201782 59.45999146 C39.41978575 61.15765889 40.4425609 62.84638889 41.46557617 64.53491211 C42.07377197 65.5688208 42.68196777 66.60272949 43.30859375 67.66796875 C43.85314209 68.57828857 44.39769043 69.4886084 44.95874023 70.42651367 C46.5396147 74.33366437 45.5642093 76.66725483 43.97192383 80.4284668 C43.55450928 81.26031494 43.13709473 82.09216309 42.70703125 82.94921875 C42.24103516 83.88056641 41.77503906 84.81191406 41.29492188 85.77148438 C40.80572266 86.73376953 40.31652344 87.69605469 39.8125 88.6875 C39.34263672 89.63044922 38.87277344 90.57339844 38.38867188 91.54492188 C35.55738019 97.16501655 32.52358723 102.56890835 29.15698242 107.88671875 C27.57740225 110.7718941 27.40140412 112.78254716 28 116 C28.43054688 116.70898438 28.86109375 117.41796875 29.3046875 118.1484375 C30.25819779 122.05890106 29.02105853 123.76269156 27.01171875 127.12695312 C26.32529297 128.20879883 26.32529297 128.20879883 25.625 129.3125 C24.99658203 130.42334961 24.99658203 130.42334961 24.35546875 131.55664062 C23.03884122 133.67613746 21.88521069 135.36115857 20 137 C18.03808594 137.30224609 18.03808594 137.30224609 15.9609375 137.16796875 C11.9549377 136.57000574 11.9549377 136.57000574 9.31640625 139.08984375 C8.55199219 140.05019531 7.78757812 141.01054687 7 142 C6.5860498 142.5170752 6.17209961 143.03415039 5.74560547 143.56689453 C4.4481618 145.21256555 3.18895222 146.88164686 1.9375 148.5625 C-0.84078615 152.28531834 -3.67350106 155.7472574 -7 159 C-7.00546844 157.62270721 -7.00546844 157.62270721 -7.01104736 156.21759033 C-7.04890993 147.56552653 -7.1057428 138.91384035 -7.18390274 130.262043 C-7.22341651 125.81400321 -7.2555857 121.36616254 -7.27099609 116.91796875 C-7.28613722 112.62537475 -7.32053683 108.33332803 -7.36830902 104.04097748 C-7.38314922 102.40317287 -7.39104253 100.76529014 -7.39188385 99.12741852 C-7.39424746 96.83337521 -7.42127478 94.54085187 -7.45410156 92.24707031 C-7.46298401 90.94135071 -7.47186646 89.6356311 -7.48101807 88.29034424 C-8.08363868 84.46973096 -8.90472543 83.25334587 -12 81 C-16.10777749 80.49700684 -17.50875983 80.67250655 -21 83 C-21.30001405 86.03302256 -21.40606252 88.86431838 -21.38476562 91.90014648 C-21.3901384 92.82220886 -21.39551117 93.74427124 -21.40104675 94.6942749 C-21.41084671 96.70062091 -21.41376224 98.70700941 -21.41069031 100.713377 C-21.40622899 103.88603464 -21.42016457 107.05812951 -21.43908691 110.23072815 C-21.47594783 116.96630945 -21.48959253 123.70183266 -21.5 130.4375 C-21.51205826 138.23711658 -21.53351082 146.03646071 -21.58000183 153.83595467 C-21.59362109 156.96646291 -21.58939198 160.09663109 -21.58459473 163.22715759 C-21.59393229 165.14159586 -21.60410034 167.05603032 -21.61523438 168.97045898 C-21.60908615 169.84485123 -21.60293793 170.71924347 -21.59660339 171.62013245 C-21.65716739 177.53116382 -21.65716739 177.53116382 -23.277565 179.74711704 C-25.89208206 181.64889207 -28.2767427 181.10082985 -31.34375 180.6328125 C-47.66566386 176.74435655 -61.71680378 165.56966731 -70.71826172 151.5871582 C-81.95263304 133.13746567 -86.3113996 111.22014054 -81.76708984 89.96069336 C-78.80917493 78.04057036 -73.08497031 67.5844795 -67 57 C-66.58588867 56.27635254 -66.17177734 55.55270508 -65.74511719 54.80712891 C-63.77580253 51.38465712 -61.77207602 47.98451569 -59.7421875 44.59765625 C-57.63483744 41.08041492 -55.56518341 37.54280537 -53.5078125 33.99609375 C-52.89655518 32.94268799 -52.28529785 31.88928223 -51.65551758 30.80395508 C-50.46390375 28.74858302 -49.27354978 26.6924798 -48.0847168 24.63549805 C-45.22600681 19.71544468 -42.32028868 14.82758878 -39.3203125 9.9921875 C-38.77777832 9.11675293 -38.23524414 8.24131836 -37.67626953 7.33935547 C-28.63861263 -5.27334893 -13.10364381 -6.9024828 0 0 Z " fill="#6DD39F" transform="translate(177,99)"/>
<path d="M0 0 C8.10737627 6.02415641 13.15603171 14.24046416 18.01171875 22.94140625 C18.60404297 23.95589844 19.19636719 24.97039062 19.80664062 26.015625 C20.36029297 26.99660156 20.91394531 27.97757813 21.484375 28.98828125 C21.98332275 29.86838867 22.48227051 30.74849609 22.99633789 31.65527344 C24.13356876 34.68206161 23.92100811 36.14321957 22.94921875 39.19140625 C21.81507596 41.29561533 20.59261839 43.35279222 19.32421875 45.37890625 C14.15404638 53.7586001 9.25508081 62.28717757 4.35498047 70.8269043 C1.44385351 75.89244911 -1.4758911 80.95273248 -4.4453125 85.984375 C-4.92460205 86.79801514 -5.4038916 87.61165527 -5.89770508 88.44995117 C-6.27822021 89.02463135 -6.65873535 89.59931152 -7.05078125 90.19140625 C-7.38078125 90.19140625 -7.71078125 90.19140625 -8.05078125 90.19140625 C-8.16035156 89.56492187 -8.26992187 88.9384375 -8.3828125 88.29296875 C-8.62064453 87.06707031 -8.62064453 87.06707031 -8.86328125 85.81640625 C-9.08951172 84.59824219 -9.08951172 84.59824219 -9.3203125 83.35546875 C-9.92623067 80.83319984 -9.92623067 80.83319984 -13.05078125 79.19140625 C-16.13832672 78.71639926 -17.53894322 78.86027571 -20.17681885 80.5668335 C-23.09809952 84.65822489 -22.62149132 88.64940035 -22.59667969 93.55957031 C-22.6121862 95.1405249 -22.6121862 95.1405249 -22.62800598 96.75341797 C-22.65751016 100.23811028 -22.65893481 103.72222367 -22.66015625 107.20703125 C-22.67513269 109.62271233 -22.69185869 112.03838315 -22.71026611 114.45404053 C-22.75401168 120.81295229 -22.77395486 127.17172591 -22.78900146 133.53076172 C-22.80854644 140.01928907 -22.85051941 146.50766667 -22.890625 152.99609375 C-22.96600531 165.72781392 -23.01701103 178.45951122 -23.05078125 191.19140625 C-24.64625683 191.04819521 -26.2413141 190.90031902 -27.83618164 190.75048828 C-29.16861656 190.62772018 -29.16861656 190.62772018 -30.52796936 190.50247192 C-45.28194866 188.68328892 -59.57026544 177.99563474 -68.94921875 166.95703125 C-75.95694102 157.50770439 -82.20603572 145.65594463 -85.05078125 134.19140625 C-85.35435547 133.0621875 -85.35435547 133.0621875 -85.6640625 131.91015625 C-88.47552601 119.51676609 -88.50578197 104.44095426 -85.05078125 92.19140625 C-84.77878906 91.20269531 -84.50679687 90.21398437 -84.2265625 89.1953125 C-79.09362206 72.99506554 -69.41781427 58.2770615 -60.7578125 43.7578125 C-58.66264982 40.24096069 -56.60737286 36.70257587 -54.5625 33.15625 C-53.95067871 32.09776855 -53.33885742 31.03928711 -52.70849609 29.94873047 C-51.51406279 27.88067619 -50.32277201 25.81080239 -49.13525391 23.73876953 C-37.95135781 4.42465599 -23.86510883 -11.94957661 0 0 Z " fill="#00C079" transform="translate(102.05078125,63.80859375)"/>
<path d="M0 0 C3.22760805 2.72432848 4.90400337 6.27051538 6.80859375 9.95703125 C7.17161087 10.64838669 7.53462799 11.33974213 7.90864563 12.05204773 C8.6863012 13.53427035 9.46150904 15.01777929 10.23449707 16.50244141 C12.25310154 20.37865359 14.29022011 24.24513199 16.32421875 28.11328125 C16.72661774 28.87984039 17.12901672 29.64639954 17.54360962 30.43618774 C20.89592239 36.81828308 24.29827739 43.17099462 27.75 49.5 C28.20173584 50.33249268 28.65347168 51.16498535 29.11889648 52.02270508 C34.2209431 62.11845479 34.2209431 62.11845479 41 71 C44.58343976 71.16677282 44.58343976 71.16677282 48 71 C49.5617377 73.57297782 51.09906742 76.15591462 52.625 78.75 C53.07101562 79.47960937 53.51703125 80.20921875 53.9765625 80.9609375 C54.3890625 81.66992188 54.8015625 82.37890625 55.2265625 83.109375 C55.80784912 84.08342285 55.80784912 84.08342285 56.40087891 85.07714844 C57 87 57 87 56.17333984 88.80566406 C55.7861377 89.52979492 55.39893555 90.25392578 55 91 C53.33819208 97.29842218 54.69494381 100.54586995 57.734375 105.9453125 C58.3251181 107.04466629 58.3251181 107.04466629 58.92779541 108.16622925 C60.18484443 110.49554015 61.46691344 112.80994939 62.75 115.125 C63.59801584 116.68790162 64.44438751 118.25169654 65.2890625 119.81640625 C69.38429613 127.41816847 69.38429613 127.41816847 73.76660156 134.85498047 C75 137 75 137 75 139 C41.67 139 8.34 139 -26 139 C-25.38782971 132.26612682 -24.75868913 125.86629246 -23.50390625 119.27734375 C-23.35500443 118.47464554 -23.2061026 117.67194733 -23.0526886 116.84492493 C-22.56150145 114.20804452 -22.06235027 111.5727509 -21.5625 108.9375 C-21.20906786 107.0550279 -20.85571693 105.17254056 -20.50244141 103.29003906 C-17.13261594 85.41450925 -13.55435791 67.58067023 -9.96136475 49.74891663 C-9.65371185 48.22191383 -9.65371185 48.22191383 -9.33984375 46.6640625 C-9.03726654 45.16225685 -9.03726654 45.16225685 -8.72857666 43.63011169 C-6.66616421 33.37404851 -4.67524852 23.10463432 -2.71240234 12.82910156 C-2.49664551 11.70213867 -2.28088867 10.57517578 -2.05859375 9.4140625 C-1.87611084 8.4545166 -1.69362793 7.4949707 -1.50561523 6.50634766 C-1.06396309 4.31706668 -0.56409184 2.16050032 0 0 Z " fill="#7BA0AF" transform="translate(259,313)"/>
<path d="M0 0 C10.54042491 -1.00918962 19.41300291 0.26004962 28 7 C34.79126679 13.36304304 39.17946043 20.97902469 43.625 29.0625 C44.32087179 30.30721251 45.01808086 31.55117825 45.71655273 32.79443359 C46.78298098 34.69287496 47.84867967 36.59167642 48.9103241 38.49279785 C52.21837815 44.41497577 55.62966342 50.27435488 59.0625 56.125 C60.19938041 58.07412447 61.3360981 60.02334385 62.47265625 61.97265625 C64.96458492 66.24000484 67.47704506 70.49470625 69.99609375 74.74609375 C86.15326547 102.15792208 96.50079537 129.9021162 88.54345703 161.94482422 C84.23252777 178.24734109 77.89465385 191.95235503 67 205 C66.40445313 205.79535156 65.80890625 206.59070313 65.1953125 207.41015625 C54.47692207 220.05480546 37.95561449 228.46650078 22 232 C19.12890625 232.09765625 19.12890625 232.09765625 17 232 C16.505 231.01 16.505 231.01 16 230 C16.90621094 229.443125 17.81242187 228.88625 18.74609375 228.3125 C42.4650064 213.54855382 57.37150526 192.10696071 64.0703125 164.87890625 C64.78670562 161.59253976 65.43512552 158.31537867 66 155 C66.27070313 153.61554688 66.27070313 153.61554688 66.546875 152.203125 C70.90852671 121.37075949 59.36227723 95.0895291 43.96484375 69.32128906 C40.95383567 64.23160791 38.03926581 59.0876582 35.1222229 53.94381714 C29.62840197 44.26805472 24.09225238 34.61489485 18.46844482 25.0140686 C17.47017375 23.30590865 16.48030163 21.59284882 15.49072266 19.87963867 C11.07540312 12.37797734 6.16908423 6.10993339 0 0 Z " fill="#45CA8B" transform="translate(398,98)"/>
<path d="M0 0 C3.70923885 1.85461943 6.86788242 3.99875102 10.1875 6.4375 C15.62423919 10.37959049 21.16276523 14.12016709 26.8125 17.75 C27.89700439 18.44814819 27.89700439 18.44814819 29.00341797 19.16040039 C31.97430769 21.06908593 34.95020886 22.96861569 37.9375 24.8515625 C43.35471936 28.3264236 47.53535795 31.88012466 50 38 C50.24050903 41.1005249 50.24050903 41.1005249 50.22705078 44.78808594 C50.22734283 45.46166641 50.22763489 46.13524689 50.22793579 46.82923889 C50.22654641 49.04775026 50.21100401 51.26592256 50.1953125 53.484375 C50.19158097 55.02565324 50.18873466 56.56693387 50.18673706 58.10821533 C50.17911161 62.15902286 50.15947253 66.2096863 50.1373291 70.26043701 C50.11324422 75.12379479 50.1040845 79.98720082 50.09242249 84.8506012 C50.07304743 92.23383425 50.03471747 99.61675134 50 107 C33.5 107 17 107 0 107 C0 71.69 0 36.38 0 0 Z " fill="#F7BE42" transform="translate(410,345)"/>
<path d="M0 0 C0.66 0 1.32 0 2 0 C2 35.31 2 70.62 2 107 C-14.5 107 -31 107 -48 107 C-48.20054405 90.10082167 -48.20054405 90.10082167 -48.24414062 82.86328125 C-48.27395978 77.93641021 -48.30912613 73.01000649 -48.37719727 68.08349609 C-48.4317693 64.10880433 -48.461473 60.13461409 -48.47438622 56.15957642 C-48.48358126 54.64775708 -48.50153712 53.13596329 -48.52865028 51.62435913 C-48.79332772 36.24806128 -48.79332772 36.24806128 -43 30 C-40.921875 28.07421875 -40.921875 28.07421875 -38.75 26.6875 C-37.88375 26.1203125 -37.0175 25.553125 -36.125 24.96875 C-35.09375 24.3190625 -34.0625 23.669375 -33 23 C-30.9760437 21.7021641 -28.95522147 20.39954519 -26.93481445 19.09619141 C-25.47656319 18.15596235 -24.01675744 17.21813993 -22.55541992 16.28271484 C-16.99487554 12.70486152 -11.59917449 8.93772574 -6.29003906 4.99682617 C-2.20618286 2 -2.20618286 2 0 2 C0 1.34 0 0.68 0 0 Z " fill="#FBCE59" transform="translate(100,345)"/>
<path d="M0 0 C2.09719123 2.72997233 3.66307549 5.20110935 4.98046875 8.38671875 C5.3355249 9.23387451 5.69058105 10.08103027 6.05639648 10.95385742 C6.61629272 12.3070105 6.61629272 12.3070105 7.1875 13.6875 C19.88063543 43.75263677 35.43400824 72.51796018 55.64306641 98.26220703 C56.96216369 99.95154392 58.25626788 101.6569975 59.54296875 103.37109375 C65.69564481 111.54303479 72.2430944 119.32441247 79 127 C79.79148437 127.90492188 80.58296875 128.80984375 81.3984375 129.7421875 C87.90865334 137.01087508 94.80028598 143.90437655 101.6875 150.8125 C102.18504791 151.31272675 102.68259583 151.81295349 103.19522095 152.32833862 C109.96771273 159.12897317 109.96771273 159.12897317 117.01953125 165.63671875 C117.59871307 166.16421722 118.1778949 166.6917157 118.77462769 167.23519897 C120.97588893 169.10967553 120.97588893 169.10967553 123.75720215 170.35113525 C127.33536287 172.4032344 130.02058864 174.37123176 132 178 C134.12162332 186.68558276 133.2749788 196.04834833 133.07421875 204.91015625 C133.05368743 207.56540422 133.03749573 210.22032528 133.02705383 212.87559509 C132.99297908 219.13432076 132.90287965 225.39091126 132.79220945 231.64870018 C132.66888941 238.77785353 132.60868699 245.90711357 132.55355966 253.03706944 C132.43884451 267.69247681 132.24559649 282.34620852 132 297 C131.67 297 131.34 297 131 297 C131.01189865 295.68978882 131.0237973 294.37957764 131.03605652 293.02966309 C131.14110614 280.67042647 131.18818145 268.31214091 131.17878246 255.95244598 C131.17580602 249.59826161 131.19311405 243.24549264 131.25708008 236.89160156 C131.31808498 230.75722428 131.3254129 224.62489654 131.29583168 218.49031067 C131.29393098 216.15234541 131.31123644 213.81428167 131.34822655 211.47660828 C132.06059707 198.96856538 132.06059707 198.96856538 127.59263611 187.83966064 C124.79214438 185.78149572 122.17795169 184.37733492 119 183 C117.75615107 182.11765161 116.53222591 181.20439636 115.35546875 180.234375 C114.83138428 179.82582275 114.3072998 179.41727051 113.76733398 178.99633789 C112.98531616 178.37940063 112.98531616 178.37940063 112.1875 177.75 C111.60621338 177.29165771 111.02492676 176.83331543 110.42602539 176.36108398 C95.52423462 164.52336255 81.60254485 151.67309012 68.125 138.25 C67.32811768 137.45779053 66.53123535 136.66558105 65.71020508 135.84936523 C60.93420823 131.06034248 56.39736077 126.13700279 52 121 C51.03894957 119.90520498 50.07676286 118.81140606 49.11328125 117.71875 C31.9211265 98.03853619 17.37432911 76.4146928 4 54 C2.9339856 52.46085937 2.9339856 52.46085937 1.84643555 50.890625 C-0.83847796 46.14294655 -0.50144032 41.35950789 -0.390625 36.03515625 C-0.38496521 35.00184677 -0.37930542 33.96853729 -0.37347412 32.90391541 C-0.35119049 29.62296043 -0.30100783 26.34312156 -0.25 23.0625 C-0.2299247 20.83009396 -0.21167574 18.59767071 -0.1953125 16.36523438 C-0.15135214 10.90977929 -0.08452043 5.45496941 0 0 Z " fill="#F8BE42" transform="translate(264,155)"/>
<path d="M0 0 C3.22760805 2.72432848 4.90400337 6.27051538 6.80859375 9.95703125 C7.17161087 10.64838669 7.53462799 11.33974213 7.90864563 12.05204773 C8.6863012 13.53427035 9.46150904 15.01777929 10.23449707 16.50244141 C12.25310154 20.37865359 14.29022011 24.24513199 16.32421875 28.11328125 C16.72661774 28.87984039 17.12901672 29.64639954 17.54360962 30.43618774 C20.89592239 36.81828308 24.29827739 43.17099462 27.75 49.5 C28.20173584 50.33249268 28.65347168 51.16498535 29.11889648 52.02270508 C34.2209431 62.11845479 34.2209431 62.11845479 41 71 C44.58343976 71.16677282 44.58343976 71.16677282 48 71 C49.5617377 73.57297782 51.09906742 76.15591462 52.625 78.75 C53.07101562 79.47960937 53.51703125 80.20921875 53.9765625 80.9609375 C54.3890625 81.66992188 54.8015625 82.37890625 55.2265625 83.109375 C55.61408691 83.75874023 56.00161133 84.40810547 56.40087891 85.07714844 C57 87 57 87 56.17333984 88.80566406 C55.7861377 89.52979492 55.39893555 90.25392578 55 91 C53.33819208 97.29842218 54.69494381 100.54586995 57.734375 105.9453125 C58.3251181 107.04466629 58.3251181 107.04466629 58.92779541 108.16622925 C60.18484443 110.49554015 61.46691344 112.80994939 62.75 115.125 C63.59801584 116.68790162 64.44438751 118.25169654 65.2890625 119.81640625 C69.38429613 127.41816847 69.38429613 127.41816847 73.76660156 134.85498047 C75 137 75 137 75 139 C68.07 139 61.14 139 54 139 C53.20078125 137.45054687 52.4015625 135.90109375 51.578125 134.3046875 C45.76943164 123.07198837 39.89493588 111.88839786 33.80371094 100.80615234 C29.29131991 92.57827668 24.89188265 84.29256071 20.5 76 C15.44225879 66.45358541 10.36360985 56.92049923 5.1875 47.4375 C4.71441406 46.57060547 4.24132812 45.70371094 3.75390625 44.81054688 C1.21723739 40.17853019 -1.3646247 35.57658414 -4 31 C-4.66 31.33 -5.32 31.66 -6 32 C-5.34941146 24.82856996 -4.01874321 17.95786552 -2.4375 10.9375 C-2.20353516 9.88111328 -1.96957031 8.82472656 -1.72851562 7.73632812 C-1.15653688 5.15658727 -0.58028727 2.57788225 0 0 Z " fill="#668B96" transform="translate(259,313)"/>
<path d="M0 0 C1.08371442 3.31732911 0.89292365 5.59890612 0.17749023 8.99365234 C-0.02585434 9.98168854 -0.22919891 10.96972473 -0.43870544 11.98770142 C-0.66647171 13.05136932 -0.89423798 14.11503723 -1.12890625 15.2109375 C-1.60059073 17.48661892 -2.07210316 19.76233601 -2.54345703 22.03808594 C-2.78702942 23.19900757 -3.03060181 24.3599292 -3.28155518 25.55603027 C-4.37426423 30.79408999 -5.41891134 36.04150111 -6.46484375 41.2890625 C-6.87355691 43.32865786 -7.28249396 45.36820836 -7.69165039 47.40771484 C-8.10698357 49.48013321 -8.52226593 51.55256177 -8.9375 53.625 C-9.1524411 54.69776184 -9.3673822 55.77052368 -9.58883667 56.87579346 C-12.5431595 71.62893708 -15.46338619 86.3877275 -18.28686523 101.16650391 C-18.50286377 102.29491699 -18.7188623 103.42333008 -18.94140625 104.5859375 C-19.12388916 105.5454834 -19.30637207 106.5050293 -19.49438477 107.49365234 C-19.93459508 109.67578614 -20.46009298 111.84037193 -21 114 C-33.87 114 -46.74 114 -60 114 C-58.57652341 110.44130853 -57.13825107 107.1953629 -55.3828125 103.81640625 C-54.86493164 102.81859131 -54.34705078 101.82077637 -53.81347656 100.79272461 C-53.2562793 99.72675049 -52.69908203 98.66077637 -52.125 97.5625 C-51.54202148 96.44431885 -50.95904297 95.3261377 -50.35839844 94.17407227 C-46.25647623 86.33389313 -42.05936383 78.550977 -37.79882812 70.79614258 C-33.33337684 62.65304844 -28.97316106 54.45608293 -24.625 46.25 C-18.5573106 34.7990981 -12.45141023 23.37026961 -6.28955078 11.96972656 C-5.75185059 10.97424805 -5.21415039 9.97876953 -4.66015625 8.953125 C-4.19230713 8.08848633 -3.72445801 7.22384766 -3.24243164 6.33300781 C-2.1265889 4.23770556 -1.05000398 2.12890996 0 0 Z " fill="#FA9701" transform="translate(238,338)"/>
<path d="M0 0 C10.31655823 4.12662329 19.5546126 9.99047652 24.56855774 20.19117737 C26.12143839 23.89577445 26.36279965 27.0913961 26.34057617 31.12866211 C26.34123329 32.13968994 26.34123329 32.13968994 26.34190369 33.17114258 C26.33983283 35.37351631 26.31658455 37.57510493 26.29296875 39.77734375 C26.28736669 41.31433191 26.28309947 42.85132547 26.28010559 44.38832092 C26.26870474 48.41451054 26.23927927 52.44037044 26.20599365 56.46643066 C26.17518951 60.5823928 26.16157825 64.69840871 26.14648438 68.81445312 C26.11440431 76.87646953 26.061676 84.93815564 26 93 C17.42 93 8.84 93 0 93 C0 62.31 0 31.62 0 0 Z " fill="#FFD05A" transform="translate(411,358)"/>
<path d="M0 0 C6.6884192 3.52319547 10.76562139 8.28943743 14.3359375 14.8359375 C15.19745162 16.35573246 16.0594595 17.8752476 16.921875 19.39453125 C17.37916992 20.21034668 17.83646484 21.02616211 18.30761719 21.86669922 C20.40132506 25.57218553 22.55670922 29.24055061 24.71044922 32.91137695 C26.48456058 35.93874829 28.24674524 38.97283783 30.0078125 42.0078125 C32.3004813 45.95237232 34.61588344 49.88166105 36.95976257 53.79588318 C38.37649487 56.16609015 39.7817396 58.54299539 41.18545532 60.92092896 C42.19322325 62.61859639 43.2159984 64.30732639 44.23901367 65.99584961 C44.84720947 67.0297583 45.45540527 68.06366699 46.08203125 69.12890625 C46.62657959 70.03922607 47.17112793 70.9495459 47.73217773 71.88745117 C49.33220662 75.84194225 48.3098518 78.19453223 46.69775391 82.00048828 C46.04299072 83.31509033 46.04299072 83.31509033 45.375 84.65625 C44.89546875 85.61917969 44.4159375 86.58210938 43.921875 87.57421875 C43.41914063 88.56808594 42.91640625 89.56195313 42.3984375 90.5859375 C41.9034375 91.58753906 41.4084375 92.58914062 40.8984375 93.62109375 C40.41632813 94.58144531 39.93421875 95.54179687 39.4375 96.53125 C38.99873535 97.40539551 38.5599707 98.27954102 38.10791016 99.18017578 C36.85428642 101.32275773 35.61453397 102.81534377 33.7734375 104.4609375 C33.74765625 103.82929688 33.721875 103.19765625 33.6953125 102.546875 C31.95023062 75.0221744 14.13292031 50.49590781 0.52099609 27.42382812 C-0.64008454 25.45527901 -1.7986326 23.48523387 -2.95458984 21.51367188 C-4.58037771 18.74217566 -6.21451607 15.975795 -7.8515625 13.2109375 C-8.33616943 12.38335937 -8.82077637 11.55578125 -9.32006836 10.703125 C-12.37443439 5.57890704 -15.1981628 1.81320397 -20.2265625 -1.5390625 C-13.12011416 -3.90787861 -6.90798471 -2.42712976 0 0 Z " fill="#45C98B" transform="translate(174.2265625,97.5390625)"/>
<path d="M0 0 C9.57248875 -0.83373289 17.14440832 0.16293122 25 6 C31.34648242 12.11726966 35.7901214 19.09429269 40.0625 26.75 C40.65482422 27.76449219 41.24714844 28.77898437 41.85742188 29.82421875 C42.41107422 30.80519531 42.96472656 31.78617188 43.53515625 32.796875 C44.034104 33.67698242 44.53305176 34.55708984 45.04711914 35.46386719 C46.18435001 38.49065536 45.97178936 39.95181332 45 43 C43.86585721 45.10420908 42.64339964 47.16138597 41.375 49.1875 C36.20482763 57.56719385 31.30586206 66.09577132 26.40576172 74.63549805 C23.49463476 79.70104286 20.57489015 84.76132623 17.60546875 89.79296875 C17.1261792 90.60660889 16.64688965 91.42024902 16.15307617 92.25854492 C15.77256104 92.8332251 15.3920459 93.40790527 15 94 C14.67 94 14.34 94 14 94 C13.83564453 93.06027344 13.83564453 93.06027344 13.66796875 92.1015625 C13.43013672 90.87566406 13.43013672 90.87566406 13.1875 89.625 C12.96126953 88.40683594 12.96126953 88.40683594 12.73046875 87.1640625 C12.12455058 84.64179359 12.12455058 84.64179359 9 83 C5.89143 82.76685725 3.98586231 83.00471256 1 84 C2.33089868 79.54871714 4.0965333 75.83911117 6.484375 71.859375 C6.82245178 71.29228821 7.16052856 70.72520142 7.5088501 70.14093018 C8.58382552 68.34065077 9.66672444 66.54529448 10.75 64.75 C11.46146903 63.56151595 12.17241076 62.37271607 12.8828125 61.18359375 C13.40554749 60.31027405 13.40554749 60.31027405 13.93884277 59.41931152 C14.97137716 57.69359877 16.00230057 55.96692245 17.03320312 54.24023438 C18.28900216 52.171346 19.57175434 50.11842221 20.88867188 48.08789062 C21.44619141 47.21841797 22.00371094 46.34894531 22.578125 45.453125 C23.0721582 44.70708008 23.56619141 43.96103516 24.07519531 43.19238281 C25.30304771 40.28158172 24.98906955 38.9865144 24 36 C22.94250047 33.91277962 21.80401205 31.86575076 20.61328125 29.8515625 C20.27378952 29.27594574 19.93429779 28.70032898 19.58451843 28.10726929 C18.86597208 26.89329456 18.14379313 25.68146348 17.41821289 24.47167969 C16.32353635 22.64343209 15.24406779 20.80683757 14.16601562 18.96875 C10.01968183 11.96408791 5.76994356 5.76994356 0 0 Z " fill="#07B563" transform="translate(80,60)"/>
<path d="M0 0 C0.33 0 0.66 0 1 0 C1 35.64 1 71.28 1 108 C-2.3 107.67 -5.6 107.34 -9 107 C-9 106.01 -9 105.02 -9 104 C-9.85341287 102.14653974 -10.75814608 100.31657088 -11.6875 98.5 C-21.09533445 78.27650789 -23.02040326 56.56488709 -17 35 C-16.70609375 33.91460937 -16.4121875 32.82921875 -16.109375 31.7109375 C-12.52472728 20.28821677 -6.12137799 10.21350529 0 0 Z " fill="#07B765" transform="translate(78,147)"/>
<path d="M0 0 C1.28920782 2.57841563 0.84772577 3.68233086 0.30322266 6.49389648 C0.12618805 7.42503769 -0.05084656 8.35617889 -0.23324585 9.3155365 C-0.43213409 10.32387039 -0.63102234 11.33220428 -0.8359375 12.37109375 C-1.13414902 13.92099754 -1.13414902 13.92099754 -1.43838501 15.50221252 C-1.86076635 17.69095995 -2.28634475 19.87909242 -2.71484375 22.06665039 C-3.37134015 25.41881231 -4.01857877 28.77265505 -4.6640625 32.12695312 C-5.07497958 34.25010483 -5.48642054 36.37315522 -5.8984375 38.49609375 C-6.09327728 39.50240341 -6.28811707 40.50871307 -6.48886108 41.54551697 C-6.76386948 42.94695702 -6.76386948 42.94695702 -7.04443359 44.37670898 C-7.28545303 45.61009254 -7.28545303 45.61009254 -7.53134155 46.86839294 C-8 49 -8 49 -9 52 C-14.94 52 -20.88 52 -27 52 C-26.12379382 48.49517527 -25.13131392 46.07442418 -23.48046875 42.9140625 C-22.95807617 41.91052734 -22.43568359 40.90699219 -21.89746094 39.87304688 C-21.33317383 38.80119141 -20.76888672 37.72933594 -20.1875 36.625 C-19.61161133 35.52478516 -19.03572266 34.42457031 -18.44238281 33.29101562 C-14.43591662 25.66277394 -10.36830791 18.06840728 -6.25 10.5 C-5.73719482 9.55721191 -5.22438965 8.61442383 -4.69604492 7.64306641 C-3.98798706 6.35021729 -3.98798706 6.35021729 -3.265625 5.03125 C-2.85086914 4.27392578 -2.43611328 3.51660156 -2.00878906 2.73632812 C-1 1 -1 1 0 0 Z " fill="#F9A312" transform="translate(206,399)"/>
<path d="M0 0 C2.4375 1.625 2.4375 1.625 4 4 C4.5625 6.9375 4.5625 6.9375 4 10 C1.9375 12.9375 1.9375 12.9375 -1 15 C-4.85210127 15.06641554 -6.99848005 14.87229157 -9.9375 12.3125 C-11.33817538 9.26397123 -11.4842732 7.32073048 -11 4 C-8.05899778 -0.47032338 -5.13105401 -0.73300772 0 0 Z " fill="#000805" transform="translate(44,174)"/>
<path d="M0 0 C2.9375 2.0625 2.9375 2.0625 5 5 C5.06625411 8.8427383 4.81899419 10.99200716 2.375 14 C-1.11581787 15.46981805 -3.39148956 14.98413921 -7 14 C-9.5881216 11.74582958 -9.94242643 10.39479021 -10.4375 7 C-10 4 -10 4 -8.375 1.625 C-5.24988831 -0.51323431 -3.71837535 -0.6829669 0 0 Z " fill="#040806" transform="translate(362,220)"/>
<path d="M0 0 C2.9375 2.0625 2.9375 2.0625 5 5 C5.06625411 8.8427383 4.81899419 10.99200716 2.375 14 C-1.11581787 15.46981805 -3.39148956 14.98413921 -7 14 C-9.5881216 11.74582958 -9.94242643 10.39479021 -10.4375 7 C-10 4 -10 4 -8.375 1.625 C-5.24988831 -0.51323431 -3.71837535 -0.6829669 0 0 Z " fill="#000704" transform="translate(58,143)"/>
<path d="M0 0 C2.875 2.0625 2.875 2.0625 5 5 C5.06641554 8.85210127 4.87229157 10.99848005 2.3125 13.9375 C-0.73602877 15.33817538 -2.67926952 15.4842732 -6 15 C-8.375 13.4375 -8.375 13.4375 -10 11 C-10.5625 7.5 -10.5625 7.5 -10 4 C-6.99746894 0.65432253 -4.50513222 -1.01365475 0 0 Z " fill="#040806" transform="translate(378,248)"/>
<path d="M0 0 C3.4375 0.9375 3.4375 0.9375 5.375 2.0625 C7.1087306 5.12202459 6.85895216 7.50567525 6.4375 10.9375 C4.8125 13.375 4.8125 13.375 2.4375 14.9375 C-0.87373632 15.42038863 -2.859049 15.23368989 -5.9375 13.9375 C-8.04380516 11.34512442 -8.12924997 9.16704793 -7.94140625 5.8828125 C-7.5625 3.9375 -7.5625 3.9375 -6 1.375 C-3.5625 -0.0625 -3.5625 -0.0625 0 0 Z " fill="#030604" transform="translate(447.5625,210.0625)"/>
<path d="M0 0 C4.36689189 1.42398649 4.36689189 1.42398649 5.875 3.9375 C6.37530235 7.86844707 6.4746142 10.0380787 4.25 13.375 C1.15814769 15.40911336 -0.48867425 15.54355429 -4.125 14.9375 C-6.5 13.375 -6.5 13.375 -8.125 10.9375 C-8.6875 7.4375 -8.6875 7.4375 -8.125 3.9375 C-5.45043116 0.79094842 -4.15592269 -0.08311845 0 0 Z " fill="#020503" transform="translate(132.125,181.0625)"/>
<path d="M0 0 C0.33 0 0.66 0 1 0 C1 3.96 1 7.92 1 12 C0.34 10.68 -0.32 9.36 -1 8 C-1.66 7.67 -2.32 7.34 -3 7 C-2.01 4.69 -1.02 2.38 0 0 Z " fill="#F1B942" transform="translate(247,155)"/>
</svg>
