<?xml version="1.0" encoding="UTF-8" standalone="no"?>
<svg
   xmlns:dc="http://purl.org/dc/elements/1.1/"
   xmlns:cc="http://creativecommons.org/ns#"
   xmlns:rdf="http://www.w3.org/1999/02/22-rdf-syntax-ns#"
   xmlns:svg="http://www.w3.org/2000/svg"
   xmlns="http://www.w3.org/2000/svg"
   xmlns:sodipodi="http://sodipodi.sourceforge.net/DTD/sodipodi-0.dtd"
   xmlns:inkscape="http://www.inkscape.org/namespaces/inkscape"
   width="106.321mm"
   height="106.321mm"
   viewBox="0 0 106.321 106.321"
   version="1.1"
   id="svg1459"
   inkscape:version="1.0.1 (0767f8302a, 2020-10-17)"
   sodipodi:docname="ice-climbing.svg">
  <defs
     id="defs1453" />
  <sodipodi:namedview
     id="base"
     pagecolor="#ffffff"
     bordercolor="#666666"
     borderopacity="1.0"
     inkscape:pageopacity="0.0"
     inkscape:pageshadow="2"
     inkscape:zoom="0.7"
     inkscape:cx="223.66935"
     inkscape:cy="434.10606"
     inkscape:document-units="mm"
     inkscape:current-layer="layer1"
     inkscape:document-rotation="0"
     showgrid="false"
     inkscape:window-width="1428"
     inkscape:window-height="1083"
     inkscape:window-x="4999"
     inkscape:window-y="189"
     inkscape:window-maximized="0" />
  <metadata
     id="metadata1456">
    <rdf:RDF>
      <cc:Work
         rdf:about="">
        <dc:format>image/svg+xml</dc:format>
        <dc:type
           rdf:resource="http://purl.org/dc/dcmitype/StillImage" />
        <dc:title></dc:title>
      </cc:Work>
    </rdf:RDF>
  </metadata>
  <g
     inkscape:label="Layer 1"
     inkscape:groupmode="layer"
     id="layer1">
    <g
       id="g20"
       transform="matrix(0.35277777,0,0,-0.35277777,106.32122,53.160082)">
      <path
         d="m 0,0 c 0,-83.226 -67.465,-150.692 -150.692,-150.692 -83.226,0 -150.691,67.466 -150.691,150.692 0,83.226 67.465,150.69 150.691,150.69 C -67.465,150.69 0,83.226 0,0"
         style="fill:#e0b84b;fill-opacity:1;fill-rule:nonzero;stroke:none"
         id="path22" />
    </g>
    <g
       id="g24"
       transform="matrix(0.35277777,0,0,-0.35277777,82.67769,23.692022)">
      <path
         d="m 0,0 c -1.15,1.425 -28.837,34.954 -88.214,34.954 -1.018,0 -2.032,-0.01 -3.067,-0.03 l -68.511,1.798 c -0.078,0.003 -0.156,0.003 -0.23,0.003 -4.662,0 -8.507,-3.715 -8.629,-8.404 l -0.013,-0.529 -0.061,-2.24 -0.258,-9.928 -0.207,-8.038 -0.061,-2.31 c -0.065,-2.535 0.987,-4.967 2.88,-6.657 1.591,-1.425 3.644,-2.199 5.751,-2.199 0.394,0 0.788,0.027 1.184,0.082 0.034,0.007 3.546,0.488 9.379,1.157 l 2.036,0.227 1.139,0.126 1.785,0.19 1.35,0.142 2.393,0.248 1.048,0.102 0.624,0.061 0.536,0.054 0.835,0.081 2.758,0.258 0.252,0.024 1.357,0.125 1.469,0.129 0.662,0.062 0.909,0.074 0.349,0.031 c 1.171,0.102 2.352,0.2 3.553,0.291 L -125.574,0 c 1.232,0.098 2.464,0.19 3.715,0.278 l 0.462,0.034 1.004,0.075 2.399,0.166 2.087,0.132 3.301,0.204 0.859,0.047 V -42.49 c -0.323,-0.336 -0.638,-0.679 -0.94,-1.035 -0.051,-0.051 -0.095,-0.105 -0.143,-0.16 -0.841,-0.99 -1.635,-2.1 -2.365,-3.298 -0.108,-0.176 -0.186,-0.308 -0.264,-0.441 -0.648,-1.119 -1.222,-2.317 -1.697,-3.545 -0.03,-0.075 -0.091,-0.245 -0.152,-0.418 -0.018,-0.04 -0.041,-0.108 -0.058,-0.149 -0.462,-1.293 -0.821,-2.585 -1.059,-3.854 -0.033,-0.16 -0.071,-0.394 -0.102,-0.632 -0.24,-1.441 -0.356,-2.795 -0.356,-4.139 v -58.311 c 0,-1.351 0.116,-2.712 0.36,-4.16 0.027,-0.207 0.065,-0.451 0.115,-0.696 0.221,-1.181 0.577,-2.477 1.042,-3.769 0,0 0.058,-0.15 0.058,-0.153 0.061,-0.17 0.122,-0.339 0.189,-0.506 0.438,-1.136 1.012,-2.334 1.666,-3.467 0.072,-0.119 0.15,-0.251 0.231,-0.38 0.757,-1.245 1.551,-2.355 2.392,-3.346 0.048,-0.054 0.092,-0.108 0.143,-0.159 0.302,-0.353 0.617,-0.699 0.94,-1.035 v -9.168 -10.552 -11.661 c 0,-0.974 0.166,-1.945 0.488,-2.864 l 9.725,-27.636 c 1.214,-3.457 4.478,-5.768 8.143,-5.768 3.667,0 6.931,2.311 8.146,5.768 l 9.718,27.636 c 0.322,0.919 0.488,1.89 0.488,2.864 v 31.385 c 4.53,4.709 7.135,11.037 7.135,17.667 v 18.736 16.309 23.266 c 0,6.63 -2.605,12.958 -7.135,17.671 V 1.754 c 0.139,0 0.278,-0.003 0.417,-0.007 0.543,-0.01 1.049,-0.02 1.551,-0.034 1.561,-0.037 3.088,-0.085 4.611,-0.142 l 0.492,-0.017 0.852,-0.031 c 1.798,-0.078 3.569,-0.166 5.327,-0.271 l 0.342,-0.021 c 0.014,0 0.136,-0.006 0.15,-0.006 1.951,-0.123 3.885,-0.262 5.791,-0.421 l 0.248,-0.027 c 1.866,-0.16 3.566,-0.329 5.249,-0.513 l 0.916,-0.111 0.546,-0.068 c 1.286,-0.15 2.545,-0.313 3.78,-0.482 l 1.059,-0.156 0.668,-0.098 c 1.154,-0.177 2.338,-0.367 3.505,-0.578 0.567,-0.098 1.096,-0.186 1.612,-0.288 1.225,-0.227 2.385,-0.471 3.518,-0.723 l 0.638,-0.135 0.686,-0.15 c 3.063,-0.716 5.903,-1.53 8.438,-2.422 l 0.441,-0.166 0.624,-0.238 c 0.818,-0.309 1.663,-0.638 2.47,-0.987 0.319,-0.143 0.614,-0.282 0.91,-0.421 l 0.237,-0.109 c 0.679,-0.322 1.33,-0.651 1.958,-0.994 0.346,-0.186 0.668,-0.359 0.977,-0.543 0.509,-0.302 1.032,-0.644 1.659,-1.082 l 0.455,-0.309 0.268,-0.179 c 0.75,-0.574 1.347,-1.08 1.815,-1.548 1.683,-1.679 3.892,-2.531 6.107,-2.531 2.06,0 4.123,0.736 5.769,2.212 C 2.46,-8.778 2.881,-3.573 0,0"
         style="fill:#ffffff;fill-opacity:1;fill-rule:nonzero;stroke:none"
         id="path26" />
    </g>
    <g
       id="g28"
       transform="matrix(0.35277777,0,0,-0.35277777,49.73125,38.970162)">
      <path
         d="m 0,0 c -0.984,0 -1.941,-0.102 -2.877,-0.265 7.936,-1.363 13.975,-8.262 13.975,-16.588 v -58.311 c 0,-8.327 -6.039,-15.225 -13.975,-16.589 0.936,-0.163 1.893,-0.264 2.877,-0.264 9.31,0 16.853,7.542 16.853,16.853 v 58.311 C 16.853,-7.543 9.31,0 0,0"
         style="fill:#9dd746;fill-opacity:1;fill-rule:nonzero;stroke:none"
         id="path30" />
    </g>
    <g
       id="g32"
       transform="matrix(0.35277777,0,0,-0.35277777,53.64647,65.486482)">
      <path
         d="m 0,0 v 58.312 c 0,8.326 -6.039,15.224 -13.975,16.588 -7.937,-1.364 -13.98,-8.262 -13.98,-16.588 V 0 c 0,-8.326 6.043,-15.224 13.98,-16.588 C -6.039,-15.224 0,-8.326 0,0"
         style="fill:#7acb30;fill-opacity:1;fill-rule:nonzero;stroke:none"
         id="path34" />
    </g>
    <g
       id="g36"
       transform="matrix(0.35277777,0,0,-0.35277777,48.71623,71.338422)">
      <path
         d="M 0,0 C -2.514,0.441 -4.838,1.428 -6.844,2.85 V 0.265 c 1.276,-0.313 2.589,-0.53 3.967,-0.53 0.984,0 1.94,0.102 2.877,0.265"
         style="fill:#b2b4b3;fill-opacity:1;fill-rule:nonzero;stroke:none"
         id="path38" />
    </g>
    <g
       id="g40"
       transform="matrix(0.35277777,0,0,-0.35277777,51.12925,71.245032)">
      <path
         d="M 0,0 V -32.728 H 5.755 V 2.585 C 4.048,1.374 2.094,0.512 0,0"
         style="fill:#ffffff;fill-opacity:1;fill-rule:nonzero;stroke:none"
         id="path42" />
    </g>
    <g
       id="g44"
       transform="matrix(0.35277777,0,0,-0.35277777,49.73125,71.431822)">
      <path
         d="M 0,0 C -0.984,0 -1.941,0.102 -2.877,0.265 -3.814,0.102 -4.77,0 -5.754,0 -7.132,0 -8.445,0.217 -9.721,0.529 V -32.199 H 3.963 V 0.529 C 2.687,0.214 1.374,0 0,0"
         style="fill:#b2b4b3;fill-opacity:1;fill-rule:nonzero;stroke:none"
         id="path46" />
    </g>
    <g
       id="g48"
       transform="matrix(0.35277777,0,0,-0.35277777,46.30198,39.156812)">
      <path
         d="M 0,0 V -2.592 C 2.005,-1.171 4.329,-0.177 6.844,0.264 5.907,0.427 4.95,0.529 3.966,0.529 2.589,0.529 1.276,0.312 0,0"
         style="fill:#b2b4b3;fill-opacity:1;fill-rule:nonzero;stroke:none"
         id="path50" />
    </g>
    <g
       id="g52"
       transform="matrix(0.35277777,0,0,-0.35277777,53.1594,20.219672)">
      <path
         d="m 0,0 h -5.755 v -53.68 c 2.094,-0.516 4.048,-1.381 5.755,-2.592 z"
         style="fill:#ffffff;fill-opacity:1;fill-rule:nonzero;stroke:none"
         id="path54" />
    </g>
    <g
       id="g56"
       transform="matrix(0.35277777,0,0,-0.35277777,46.30198,20.219672)">
      <path
         d="m 0,0 v -53.68 c 1.276,0.312 2.589,0.529 3.966,0.529 0.984,0 1.941,-0.102 2.878,-0.265 0.936,0.163 1.893,0.265 2.877,0.265 1.374,0 2.687,-0.217 3.963,-0.529 V 0 Z"
         style="fill:#b2b4b3;fill-opacity:1;fill-rule:nonzero;stroke:none"
         id="path58" />
    </g>
    <g
       id="g60"
       transform="matrix(0.35277777,0,0,-0.35277777,53.1594,82.790912)">
      <path
         d="m 0,0 h -5.755 l -6.84,-19.452 2.877,-8.184 z"
         style="fill:#adafae;fill-opacity:1;fill-rule:nonzero;stroke:none"
         id="path62" />
    </g>
    <g
       id="g64"
       transform="matrix(0.35277777,0,0,-0.35277777,46.30198,82.790912)">
      <path
         d="M 0,0 6.844,-19.452 13.684,0 Z"
         style="fill:#828687;fill-opacity:1;fill-rule:nonzero;stroke:none"
         id="path66" />
    </g>
    <g
       id="g68"
       transform="matrix(0.35277777,0,0,-0.35277777,26.03622,21.094702)">
      <path
         d="m 0,0 -0.061,-2.307 c 0,0 32.348,4.496 67.893,5.289 C 43.074,3.596 17.233,1.697 0,0"
         style="fill:#828687;fill-opacity:1;fill-rule:nonzero;stroke:none"
         id="path70" />
    </g>
    <g
       id="g72"
       transform="matrix(0.35277777,0,0,-0.35277777,67.5756,20.849312)">
      <path
         d="m 0,0 c 15.842,-2.29 29.057,-6.447 36.088,-13.477 0,0 -26.503,32.909 -84.591,31.707 l -68.707,1.805 -0.014,-0.529 48.574,-1.276 C -36.203,18.902 -13.623,8.93 0,0"
         style="fill:#ffffff;fill-opacity:1;fill-rule:nonzero;stroke:none"
         id="path74" />
    </g>
    <g
       id="g76"
       transform="matrix(0.35277777,0,0,-0.35277777,67.5756,20.849312)">
      <path
         d="m 0,0 c -13.623,8.93 -36.203,18.902 -68.65,18.23 l -48.574,1.276 -0.525,-20.202 c 17.232,1.697 43.073,3.597 67.832,2.983 C -32.949,2.663 -15.258,2.199 0,0"
         style="fill:#828687;fill-opacity:1;fill-rule:nonzero;stroke:none"
         id="path78" />
    </g>
    <g
       id="g80"
       transform="matrix(0.35277777,0,0,-0.35277777,49.73128,72.351042)">
      <path
         d="M 0,0 C -10.732,0 -19.462,8.73 -19.462,19.459 V 77.77 c 0,10.729 8.73,19.459 19.462,19.459 10.729,0 19.459,-8.73 19.459,-19.459 V 54.505 c 0,-1.439 -1.167,-2.606 -2.606,-2.606 -1.439,0 -2.606,1.167 -2.606,2.606 V 77.77 c 0,7.855 -6.392,14.247 -14.247,14.247 -7.858,0 -14.25,-6.392 -14.25,-14.247 V 19.459 c 0,-7.855 6.392,-14.247 14.25,-14.247 7.855,0 14.247,6.392 14.247,14.247 v 18.736 c 0,1.438 1.167,2.605 2.606,2.605 1.439,0 2.606,-1.167 2.606,-2.605 V 19.459 C 19.459,8.73 10.729,0 0,0"
         style="fill:#212423;fill-opacity:1;fill-rule:nonzero;stroke:none"
         id="path82" />
    </g>
    <g
       id="g84"
       transform="matrix(0.35277777,0,0,-0.35277777,53.1594,83.710242)">
      <path
         d="m 0,0 h -19.438 c -1.439,0 -2.606,1.167 -2.606,2.606 v 11.661 c 0,1.439 1.167,2.606 2.606,2.606 1.438,0 2.605,-1.167 2.605,-2.606 V 5.212 h 14.227 v 28.344 c -4.506,-1.791 -9.71,-1.788 -14.227,0.004 v -8.74 c 0,-1.439 -1.167,-2.606 -2.605,-2.606 -1.439,0 -2.606,1.167 -2.606,2.606 v 13.1 c 0,0.974 0.543,1.866 1.408,2.314 0.865,0.448 1.91,0.38 2.701,-0.187 4.889,-3.447 11.573,-3.444 16.429,-0.003 0.797,0.563 1.839,0.638 2.704,0.19 0.865,-0.448 1.408,-1.34 1.408,-2.314 V 2.606 C 2.606,1.167 1.439,0 0,0"
         style="fill:#212423;fill-opacity:1;fill-rule:nonzero;stroke:none"
         id="path86" />
    </g>
    <g
       id="g88"
       transform="matrix(0.35277777,0,0,-0.35277777,47.22123,21.138972)">
      <path
         d="m 0,0 v -49.303 c 4.516,1.798 9.724,1.791 14.227,0.003 V 0 Z m 16.833,-56.272 c -0.533,0 -1.059,0.163 -1.51,0.481 -4.856,3.451 -11.54,3.461 -16.422,-0.003 -0.794,-0.56 -1.839,-0.638 -2.704,-0.187 -0.866,0.448 -1.409,1.341 -1.409,2.314 V 2.606 c 0,1.438 1.168,2.606 2.606,2.606 h 19.439 c 1.438,0 2.605,-1.168 2.605,-2.606 v -56.273 c 0,-0.973 -0.542,-1.869 -1.411,-2.314 -0.377,-0.196 -0.787,-0.291 -1.194,-0.291"
         style="fill:#212423;fill-opacity:1;fill-rule:nonzero;stroke:none"
         id="path90" />
    </g>
    <g
       id="g92"
       transform="matrix(0.35277777,0,0,-0.35277777,47.5995,83.710242)">
      <path
         d="M 0,0 6.043,-17.175 12.082,0 Z m 6.043,-27.636 c -1.106,0 -2.09,0.699 -2.457,1.741 L -6.135,1.741 c -0.281,0.797 -0.159,1.682 0.33,2.371 0.488,0.689 1.282,1.1 2.127,1.1 H 15.76 c 0.845,0 1.639,-0.411 2.128,-1.1 0.488,-0.689 0.61,-1.574 0.332,-2.371 L 8.503,-25.895 c -0.37,-1.042 -1.354,-1.741 -2.46,-1.741"
         style="fill:#212423;fill-opacity:1;fill-rule:nonzero;stroke:none"
         id="path94" />
    </g>
    <g
       id="g96"
       transform="matrix(0.35277777,0,0,-0.35277777,80.30653,26.522922)">
      <path
         d="m 0,0 c -0.668,0 -1.337,0.254 -1.842,0.763 -22.665,22.662 -114.839,14.047 -142.549,10.865 -1.456,-0.146 -2.721,0.862 -2.888,2.29 -0.162,1.432 0.862,2.724 2.291,2.887 28.752,3.302 89.326,8.462 124.983,-1.316 -13.528,8.252 -34.907,16.798 -64.531,16.218 l -66.224,1.737 -0.264,-10.09 c -0.038,-1.415 -1.198,-2.538 -2.606,-2.538 h -0.068 c -1.439,0.037 -2.575,1.235 -2.538,2.674 l 0.333,12.696 c 0.02,0.692 0.312,1.347 0.81,1.822 0.503,0.478 1.219,0.679 1.863,0.716 l 68.708,-1.805 C -25.936,38.008 0.916,5.626 2.029,4.241 2.898,3.162 2.772,1.591 1.741,0.668 1.245,0.221 0.621,0 0,0"
         style="fill:#212423;fill-opacity:1;fill-rule:nonzero;stroke:none"
         id="path98" />
    </g>
    <g
       id="g100"
       transform="matrix(0.35277777,0,0,-0.35277777,52.47596,20.048572)">
      <path
         d="m 0,0 c 0,-4.295 -3.485,-7.777 -7.78,-7.777 -4.292,0 -7.78,3.482 -7.78,7.777 0,4.295 3.488,7.783 7.78,7.783 C -3.485,7.783 0,4.295 0,0"
         style="fill:#496f97;fill-opacity:1;fill-rule:nonzero;stroke:none"
         id="path102" />
    </g>
    <g
       id="g104"
       transform="matrix(0.35277777,0,0,-0.35277777,49.73128,18.221992)">
      <path
         d="m 0,0 c -2.854,0 -5.174,-2.324 -5.174,-5.178 0,-2.85 2.32,-5.171 5.174,-5.171 2.854,0 5.174,2.321 5.174,5.171 C 5.174,-2.324 2.854,0 0,0 m 0,-15.56 c -5.727,0 -10.386,4.658 -10.386,10.382 0,5.728 4.659,10.39 10.386,10.39 5.727,0 10.386,-4.662 10.386,-10.39 C 10.386,-10.902 5.727,-15.56 0,-15.56"
         style="fill:#212423;fill-opacity:1;fill-rule:nonzero;stroke:none"
         id="path106" />
    </g>
  </g>
</svg>
