<?xml version="1.0" encoding="UTF-8" standalone="no"?>
<svg
   xmlns:dc="http://purl.org/dc/elements/1.1/"
   xmlns:cc="http://creativecommons.org/ns#"
   xmlns:rdf="http://www.w3.org/1999/02/22-rdf-syntax-ns#"
   xmlns:svg="http://www.w3.org/2000/svg"
   xmlns="http://www.w3.org/2000/svg"
   xmlns:sodipodi="http://sodipodi.sourceforge.net/DTD/sodipodi-0.dtd"
   xmlns:inkscape="http://www.inkscape.org/namespaces/inkscape"
   width="106.321mm"
   height="106.321mm"
   viewBox="0 0 106.321 106.321"
   version="1.1"
   id="svg1459"
   sodipodi:docname="rock-climbing.svg"
   inkscape:version="1.0.1 (0767f8302a, 2020-10-17)">
  <defs
     id="defs1453" />
  <sodipodi:namedview
     id="base"
     pagecolor="#ffffff"
     bordercolor="#666666"
     borderopacity="1.0"
     inkscape:pageopacity="0.0"
     inkscape:pageshadow="2"
     inkscape:zoom="0.7"
     inkscape:cx="223.66935"
     inkscape:cy="434.10606"
     inkscape:document-units="mm"
     inkscape:current-layer="layer1"
     inkscape:document-rotation="0"
     showgrid="false"
     inkscape:window-width="1428"
     inkscape:window-height="1083"
     inkscape:window-x="4999"
     inkscape:window-y="189"
     inkscape:window-maximized="0" />
  <metadata
     id="metadata1456">
    <rdf:RDF>
      <cc:Work
         rdf:about="">
        <dc:format>image/svg+xml</dc:format>
        <dc:type
           rdf:resource="http://purl.org/dc/dcmitype/StillImage" />
        <dc:title></dc:title>
      </cc:Work>
    </rdf:RDF>
  </metadata>
  <g
     inkscape:label="Layer 1"
     inkscape:groupmode="layer"
     id="layer1">
    <g
       id="g20"
       transform="matrix(0.3434909,0,0,-0.34724716,5.3369057,9.4085334)">
      <g
         id="g288"
         transform="translate(5.5395783,-186.48637)">
        <path
           d="M 0,0 0.326,0.238 0.869,0.633 C 2.07,1.491 3.278,2.34 4.584,3.23 4.601,3.241 4.75,3.341 4.764,3.349 5.88,4.107 7,4.844 8.126,5.566 L 8.94,6.08 9.266,6.284 c 0.865,0.548 1.734,1.079 2.596,1.595 0.434,0.261 0.869,0.515 1.282,0.754 0.889,0.518 1.768,1.01 2.633,1.48 l 0.292,0.159 c 0.295,0.162 0.587,0.323 0.892,0.482 0.309,0.163 0.608,0.317 0.896,0.467 l 19.147,33.678 9.941,17.488 12.778,22.473 17.569,30.917 c 1.696,2.982 4.838,4.852 8.265,4.921 0.068,0.002 0.132,0.002 0.197,0.002 3.356,0 6.481,-1.731 8.262,-4.587 l 15.896,-25.526 17.433,28.455 4.407,7.193 19.839,32.386 c 1.792,2.923 4.957,4.649 8.296,4.649 0.614,0 1.235,-0.06 1.856,-0.178 3.986,-0.772 7.071,-3.94 7.746,-7.942 l 7.471,-44.449 1.656,-9.87 2.779,6.577 c 1.462,3.464 4.791,5.778 8.547,5.939 0.139,0.007 0.281,0.009 0.424,0.009 3.593,0 6.915,-1.987 8.604,-5.19 l 11.896,-22.539 24.908,-47.181 5.887,-11.153 10.684,-20.247 c 4.143,-1.179 10.488,-3.363 17.013,-6.917 8.77,19.113 13.697,40.356 13.697,62.761 0,83.225 -67.466,150.691 -150.692,150.691 -83.223,0 -150.688,-67.466 -150.688,-150.691 0,-23.44 5.354,-45.63 14.901,-65.416 l 0.781,0.589 C -1.771,-1.286 -0.889,-0.641 0,0"
           style="fill:#e0b84b;fill-opacity:1;fill-rule:nonzero;stroke:none"
           id="path290" />
      </g>
      <g
         id="g292"
         transform="translate(255.5809,-216.82107)">
        <path
           d="M 0,0 -0.173,0.031 C -1.459,0.26 -2.789,0.487 -4.126,0.714 L -4.73,0.813 -5.052,0.865 c -1.076,0.18 -2.172,0.358 -3.308,0.54 l -1.222,0.193 c -1.194,0.187 -2.412,0.373 -3.596,0.551 l -0.489,0.073 -0.377,0.056 c -1.537,0.23 -3.111,0.451 -4.733,0.679 l -0.583,0.08 -0.306,0.04 c -1.303,0.178 -2.626,0.357 -3.973,0.53 L -25.142,3.8 c -1.289,0.163 -2.602,0.326 -3.956,0.485 l -0.485,0.06 -0.784,0.095 c -1.771,0.207 -3.566,0.412 -5.436,0.614 l -0.261,0.027 -0.4,0.041 c -1.598,0.171 -3.224,0.339 -4.869,0.502 l -0.977,0.093 -0.753,0.073 c -1.402,0.136 -2.823,0.265 -4.255,0.394 l -0.564,0.05 -1.173,0.102 c -1.985,0.172 -3.997,0.338 -6.05,0.497 -1.975,0.151 -3.994,0.292 -6.046,0.426 -0.94,-0.298 -1.931,-0.454 -2.939,-0.454 -0.248,0 -0.495,0.008 -0.743,0.028 -14.959,1.146 -30.669,1.795 -46.694,1.931 -0.037,-0.002 -0.071,-0.002 -0.102,-0.002 -3.678,-0.017 -7.427,-0.064 -11.217,-0.139 l -1.384,-0.03 -0.75,-0.017 c -3.311,-0.072 -6.66,-0.163 -10.06,-0.282 -1.476,-0.052 -2.972,-0.117 -4.469,-0.183 l -1.072,-0.048 -0.895,-0.035 c -2.223,-0.092 -4.442,-0.185 -6.708,-0.304 -5.246,-0.273 -9.894,-0.553 -14.196,-0.857 -23.921,-1.678 -48.205,-4.472 -72.525,-8.29 27.625,-34.173 69.864,-56.042 117.227,-56.042 47.966,0 90.663,22.438 118.262,57.358 -0.106,0.019 -0.204,0.038 -0.309,0.056 z"
           style="fill:#e0b84b;fill-opacity:1;fill-rule:nonzero;stroke:none"
           id="path294" />
      </g>
      <g
         id="g296"
         transform="translate(257.8849,-179.44067)">
        <path
           d="m 0,0 -10.685,20.247 -5.887,11.153 -24.907,47.181 -11.896,22.54 c -1.69,3.202 -5.011,5.189 -8.605,5.189 -0.142,0 -0.284,-0.002 -0.424,-0.008 -3.755,-0.162 -7.084,-2.476 -8.546,-5.94 l -2.779,-6.577 -1.656,9.87 -7.472,44.45 c -0.674,4.002 -3.759,7.169 -7.746,7.941 -0.621,0.118 -1.241,0.178 -1.856,0.178 -3.338,0 -6.504,-1.726 -8.295,-4.648 l -19.839,-32.386 -4.408,-7.193 -17.432,-28.455 -15.896,25.525 c -1.782,2.857 -4.907,4.587 -8.263,4.587 -0.064,0 -0.128,0 -0.196,-0.002 -3.427,-0.069 -6.569,-1.939 -8.265,-4.921 L -192.622,77.814 -205.4,55.341 -215.342,37.854 -234.488,4.175 c -0.289,-0.149 -0.587,-0.304 -0.896,-0.466 -0.305,-0.16 -0.597,-0.321 -0.892,-0.482 l -0.292,-0.16 c -0.865,-0.47 -1.744,-0.962 -2.633,-1.479 -0.414,-0.239 -0.848,-0.494 -1.282,-0.755 -0.862,-0.516 -1.731,-1.047 -2.596,-1.595 l -0.326,-0.204 -0.814,-0.513 c -1.127,-0.723 -2.246,-1.459 -3.363,-2.218 -0.013,-0.008 -0.162,-0.108 -0.179,-0.119 -1.307,-0.89 -2.515,-1.739 -3.716,-2.597 l -0.543,-0.395 -0.325,-0.238 c -0.889,-0.641 -1.772,-1.286 -2.643,-1.937 l -0.781,-0.589 c 5.059,-10.482 11.316,-20.271 18.56,-29.232 24.32,3.819 48.604,6.613 72.525,8.291 4.302,0.303 8.95,0.583 14.196,0.857 2.266,0.118 4.485,0.212 6.708,0.303 l 0.895,0.036 1.073,0.048 c 1.496,0.066 2.992,0.13 4.468,0.183 3.4,0.119 6.749,0.21 10.06,0.281 l 0.75,0.017 1.384,0.031 c 3.79,0.074 7.539,0.122 11.218,0.139 0.03,0 0.064,0 0.101,10e-4 16.025,-0.135 31.735,-0.785 46.694,-1.93 0.248,-0.02 0.496,-0.029 0.743,-0.029 1.008,0 1.999,0.156 2.939,0.455 2.052,-0.134 4.071,-0.275 6.046,-0.426 2.053,-0.159 4.065,-0.326 6.05,-0.497 l 1.173,-0.102 0.564,-0.051 c 1.432,-0.129 2.853,-0.257 4.255,-0.393 l 0.753,-0.073 0.977,-0.094 c 1.645,-0.162 3.271,-0.33 4.869,-0.502 l 0.4,-0.04 0.261,-0.027 c 1.87,-0.202 3.665,-0.408 5.436,-0.615 l 0.784,-0.095 0.485,-0.059 c 1.354,-0.16 2.667,-0.322 3.956,-0.485 l 1.503,-0.194 c 1.347,-0.173 2.67,-0.351 3.973,-0.529 l 0.306,-0.041 0.583,-0.079 c 1.622,-0.228 3.196,-0.45 4.734,-0.679 l 0.376,-0.056 0.489,-0.073 c 1.184,-0.178 2.402,-0.365 3.596,-0.551 l 1.222,-0.194 c 1.136,-0.181 2.232,-0.359 3.308,-0.539 l 0.322,-0.053 0.604,-0.098 c 1.337,-0.228 2.667,-0.455 3.953,-0.684 l 0.173,-0.03 0.275,-0.051 c 0.105,-0.019 0.203,-0.038 0.309,-0.056 7.396,9.358 13.7,19.606 18.732,30.57 C 10.487,-3.363 4.143,-1.179 0,0"
           style="fill:#ffffff;fill-opacity:1;fill-rule:nonzero;stroke:none"
           id="path298" />
      </g>
      <g
         id="g300"
         transform="translate(207.79795,-105.40297)">
        <path
           d="m 0,0 -11.896,22.541 -2.962,-7.022 10.573,-20.04 z"
           style="fill:#7acb30;fill-opacity:1;fill-rule:nonzero;stroke:none"
           id="path302" />
      </g>
      <g
         id="g304"
         transform="translate(192.58697,-104.88217)">
        <path
           d="M 0,0 2.938,5.14 7.709,-8.44 10.926,-5.042 0.353,14.999 -3.62,5.587 Z"
           style="fill:#6ca92e;fill-opacity:1;fill-rule:nonzero;stroke:none"
           id="path306" />
      </g>
      <g
         id="g308"
         transform="translate(148.27828,-68.970772)">
        <path
           d="M 0,0 4.075,-5.5 1.123,2.991 Z"
           style="fill:#2c9145;fill-opacity:1;fill-rule:nonzero;stroke:none"
           id="path310" />
      </g>
      <g
         id="g312"
         transform="translate(165.42968,-32.949268)">
        <path
           d="m 0,0 -5.089,-8.311 6.073,-36.139 -4.122,-6.986 2.405,-6.917 8.204,13.903 z"
           style="fill:#31a54e;fill-opacity:1;fill-rule:nonzero;stroke:none"
           id="path314" />
      </g>
      <g
         id="g316"
         transform="translate(160.34038,-41.260371)">
        <path
           d="m 0,0 -14.753,-24.077 2.691,-3.633 1.123,2.99 2.952,-8.49 0.234,-0.316 3.301,8.806 6.403,-18.405 4.122,6.986 z"
           style="fill:#2c9145;fill-opacity:1;fill-rule:nonzero;stroke:none"
           id="path318" />
      </g>
      <g
         id="g320"
         transform="translate(107.21998,-101.09367)">
        <path
           d="m 0,0 -15.927,25.574 -5.985,-10.535 15.425,-24.77 -1.185,-2.206 0.92,-0.658 z"
           style="fill:#216c36;fill-opacity:1;fill-rule:nonzero;stroke:none"
           id="path322" />
      </g>
      <g
         id="g324"
         transform="translate(87.723978,-124.95477)">
        <path
           d="m 0,0 3.569,-3.783 1.354,6.27 -3.8,2.716 z"
           style="fill:#154323;fill-opacity:1;fill-rule:nonzero;stroke:none"
           id="path326" />
      </g>
      <g
         id="g328"
         transform="translate(92.647278,-122.46777)">
        <path
           d="M 0,0 1.333,-0.952 6.901,9.438 2.687,12.449 Z"
           style="fill:#154323;fill-opacity:1;fill-rule:nonzero;stroke:none"
           id="path330" />
      </g>
      <g
         id="g332"
         transform="translate(85.308268,-86.054474)">
        <path
           d="m 0,0 -11.587,-20.381 5.096,-9.085 8.907,-9.434 1.123,5.203 3.8,-2.716 2.687,12.448 4.214,-3.011 1.184,2.206 z"
           style="fill:#154323;fill-opacity:1;fill-rule:nonzero;stroke:none"
           id="path334" />
      </g>
      <g
         id="g336"
         transform="translate(277.74715,-211.40237)">
        <path
           d="M 0,0 C 7.23,-1.69 10.99,-2.842 10.99,-2.842 3.654,17.709 -26.442,23.581 -26.442,23.581 l -43.507,82.418 -6.25,-6.597 40.023,-75.821 c 0,0 27.222,-5.349 36.176,-23.581"
           style="fill:#ffffff;fill-opacity:1;fill-rule:nonzero;stroke:none"
           id="path338" />
      </g>
      <g
         id="g340"
         transform="translate(201.54775,-112.00057)">
        <path
           d="M 0,0 -3.484,6.598 -3.885,6.174 -1.252,-1.322 Z"
           style="fill:#7acb30;fill-opacity:1;fill-rule:nonzero;stroke:none"
           id="path342" />
      </g>
      <g
         id="g344"
         transform="translate(241.5715,-187.82127)">
        <path
           d="m 0,0 -40.024,75.821 -1.252,-1.322 -2.632,7.495 -2.138,6.085 -2.938,-5.14 -3.621,5.587 -1.818,-4.309 -7.037,-16.692 -7.712,-22.751 11.38,-14.68 14.864,-28.627 2.579,-13.93 C -3.664,-15.277 22.485,-20.387 36.176,-23.581 27.222,-5.349 0,0 0,0"
           style="fill:#7acb30;fill-opacity:1;fill-rule:nonzero;stroke:none"
           id="path346" />
      </g>
      <g
         id="g348"
         transform="translate(92.453778,-199.65957)">
        <path
           d="M 0,0 0.065,-0.585 C 18.373,0.697 35.511,1.259 51.546,1.335 35.599,1.464 18.369,1.067 0,0"
           style="fill:#34b458;fill-opacity:1;fill-rule:nonzero;stroke:none"
           id="path350" />
      </g>
      <g
         id="g352"
         transform="translate(162.66788,-143.04767)">
        <path
           d="m 0,0 11.38,-14.68 14.865,-28.626 2.456,-13.262 c 3.349,-0.206 6.66,-0.424 9.853,-0.668 L 35.976,-43.306 21.111,-14.68 9.731,0 17.443,22.751 10.233,65.649 2.657,52.813 7.712,22.751 Z"
           style="fill:#ffffff;fill-opacity:1;fill-rule:nonzero;stroke:none"
           id="path354" />
      </g>
      <g
         id="g356"
         transform="translate(146.12388,-66.059572)">
        <path
           d="m 0,0 -0.536,0.723 -4.408,-7.192 1.673,-2.258 z"
           style="fill:#34b458;fill-opacity:1;fill-rule:nonzero;stroke:none"
           id="path358" />
      </g>
      <g
         id="g360"
         transform="translate(146.15438,-65.980072)">
        <path
           d="M 0,0 -0.031,-0.08 0.081,-0.231 Z"
           style="fill:#34b458;fill-opacity:1;fill-rule:nonzero;stroke:none"
           id="path362" />
      </g>
      <g
         id="g364"
         transform="translate(191.36875,-199.61547)">
        <path
           d="M 0,0 C -14.366,0.886 -30.211,1.371 -47.369,1.291 -30.031,1.149 -14.138,0.424 0.122,-0.668 Z"
           style="fill:#34b458;fill-opacity:1;fill-rule:nonzero;stroke:none"
           id="path366" />
      </g>
      <g
         id="g368"
         transform="translate(188.91235,-186.35407)">
        <path
           d="m 0,0 -14.865,28.627 -11.38,14.679 7.713,22.752 -5.056,30.062 -0.627,-1.068 -3.611,10.376 -5.198,14.946 -3.301,-8.806 -6.352,8.575 -0.112,0.151 -3.27,-8.726 -1.673,2.258 -25.668,-41.897 -27.154,-48.073 4.095,-37.162 c 18.37,1.068 35.599,1.465 51.547,1.336 17.157,0.08 33.003,-0.406 47.368,-1.291 z"
           style="fill:#34b458;fill-opacity:1;fill-rule:nonzero;stroke:none"
           id="path370" />
      </g>
      <g
         id="g372"
         transform="translate(115.51228,-114.42457)">
        <path
           d="M 0,0 -8.292,13.331 -12.798,4.928 -9.731,0 l -27.154,-48.073 4.16,-37.747 c -28.525,-2.002 -59.686,-5.677 -93.222,-11.724 -1.584,-1.422 -2.497,-2.275 -2.497,-2.275 38.228,7.432 73.485,11.756 105.45,13.999 l -4.16,37.747 z"
           style="fill:#ffffff;fill-opacity:1;fill-rule:nonzero;stroke:none"
           id="path374" />
      </g>
      <g
         id="g376"
         transform="translate(70.446878,-201.20497)">
        <path
           d="M 0,0 C 4.167,0.355 8.279,0.675 12.34,0.96 L 8.18,38.707 35.335,86.78 32.267,91.708 30.021,87.517 24.887,91.186 20.846,72.467 12.927,80.858 8.37,85.684 3.274,94.769 -1.625,86.151 -40.071,18.522 c -15.414,-7.113 -34.164,-23.311 -40.811,-29.286 15.788,2.847 31.053,5.167 45.765,7.035"
           style="fill:#2b8f4b;fill-opacity:1;fill-rule:nonzero;stroke:none"
           id="path378" />
      </g>
      <g
         id="g380"
         transform="translate(35.329778,-204.93367)">
        <path
           d="M 0,0 C 12.083,1.535 23.795,2.765 35.117,3.729"
           style="fill:#2b8f4b;fill-opacity:1;fill-rule:nonzero;stroke:none"
           id="path382" />
      </g>
      <g
         id="g384"
         transform="translate(195.5254,-97.135875)">
        <path
           d="M 0,0 C 0.078,0 0.156,-0.003 0.237,-0.01 1.252,-0.104 2.121,-0.78 2.46,-1.742 L 5.816,-11.295 9.097,-7.831 0.638,8.194 -3.62,-1.902 -3.077,-2.74 -2.263,-1.313 C -1.795,-0.495 -0.93,0 0,0 m 4.771,-18.792 c -0.18,0 -0.364,0.019 -0.543,0.058 -0.889,0.19 -1.615,0.828 -1.917,1.684 l -2.878,8.199 -0.108,-0.188 c -0.451,-0.789 -1.283,-1.286 -2.192,-1.311 -0.899,-0.072 -1.764,0.426 -2.256,1.187 l -3.624,5.587 c -0.468,0.724 -0.55,1.633 -0.214,2.429 l 6.935,16.434 c 0.394,0.928 1.283,1.547 2.291,1.591 1.014,0.044 1.947,-0.498 2.415,-1.387 L 14.576,-7.051 c 0.523,-0.987 0.356,-2.197 -0.41,-3.007 l -7.502,-7.92 C 6.165,-18.504 5.48,-18.792 4.771,-18.792"
           style="fill:#212423;fill-opacity:1;fill-rule:nonzero;stroke:none"
           id="path386" />
      </g>
      <g
         id="g388"
         transform="translate(155.88878,-63.374174)">
        <path
           d="M 0,0 H 0.031 C 1.13,-0.014 2.1,-0.713 2.46,-1.749 l 6.962,-20.012 4.862,8.242 -6.158,36.645 -15.285,-24.951 3.101,-4.186 1.618,4.32 C -2.06,-0.674 -1.086,0 0,0 m 8.808,-30.533 c -0.085,0 -0.173,0.003 -0.258,0.013 -1.011,0.1 -1.869,0.777 -2.202,1.736 l -6.44,18.51 -0.77,-2.053 c -0.336,-0.894 -1.133,-1.533 -2.076,-1.666 -0.964,-0.144 -1.887,0.262 -2.457,1.03 l -6.999,9.45 c -0.635,0.853 -0.682,2.005 -0.129,2.911 L 7.319,31.785 c 0.566,0.928 1.642,1.405 2.717,1.198 1.069,-0.207 1.894,-1.055 2.073,-2.126 l 7.472,-44.449 c 0.102,-0.606 -0.014,-1.228 -0.326,-1.758 l -8.204,-13.903 c -0.472,-0.799 -1.327,-1.28 -2.243,-1.28"
           style="fill:#212423;fill-opacity:1;fill-rule:nonzero;stroke:none"
           id="path390" />
      </g>
      <g
         id="g392"
         transform="translate(80.933068,-113.96497)">
        <path
           d="m 0,0 8.857,-9.385 2.998,13.881 c 0.185,0.858 0.789,1.564 1.607,1.881 0.816,0.314 1.742,0.2 2.454,-0.31 L 18.639,4.121 23.277,12.773 10.462,33.353 -4.219,7.521 Z m 10.36,-17.379 c -0.707,0 -1.396,0.289 -1.895,0.818 L -4.01,-3.344 c -0.146,0.155 -0.274,0.328 -0.379,0.514 l -5.096,9.085 c -0.446,0.796 -0.443,1.768 0.008,2.562 L 8.096,39.733 c 0.453,0.799 1.294,1.3 2.212,1.318 0.884,-0.025 1.779,-0.447 2.265,-1.228 L 28.499,14.249 c 0.492,-0.793 0.526,-1.787 0.085,-2.609 L 21.832,-0.955 c -0.353,-0.66 -0.975,-1.137 -1.705,-1.306 -0.735,-0.168 -1.496,-0.019 -2.107,0.417 l -1.909,1.364 -3.204,-14.843 c -0.204,-0.946 -0.915,-1.7 -1.846,-1.961 -0.232,-0.064 -0.467,-0.095 -0.701,-0.095"
           style="fill:#212423;fill-opacity:1;fill-rule:nonzero;stroke:none"
           id="path394" />
      </g>
      <g
         id="g396"
         transform="translate(288.73697,-216.84987)">
        <path
           d="m 0,0 c -0.255,0 -0.512,0.037 -0.763,0.115 -0.313,0.095 -31.894,9.63 -86.952,13.852 -1.177,0.092 -2.148,0.964 -2.362,2.124 l -2.507,13.548 -14.58,28.074 -11.234,14.493 c -0.536,0.69 -0.688,1.605 -0.407,2.432 l 7.712,22.752 8.921,21.177 c 0.376,0.889 1.211,1.498 2.174,1.583 0.951,0.085 1.89,-0.37 2.413,-1.179 l 1.296,-1.997 0.814,1.427 c 0.506,0.887 1.446,1.403 2.501,1.303 1.014,-0.093 1.883,-0.77 2.222,-1.732 l 3.356,-9.553 4.563,4.82 c 0.581,0.61 1.419,0.89 2.247,0.79 0.834,-0.115 1.56,-0.623 1.951,-1.366 l 24.907,-47.18 c 0.672,-1.273 0.187,-2.849 -1.085,-3.521 -1.28,-0.671 -2.854,-0.186 -3.522,1.088 l -23.212,43.966 -5.001,-5.28 c -0.624,-0.66 -1.544,-0.955 -2.436,-0.756 -0.889,0.19 -1.615,0.828 -1.917,1.684 l -2.877,8.199 -0.109,-0.188 c -0.451,-0.789 -1.282,-1.286 -2.192,-1.311 -0.899,-0.071 -1.764,0.426 -2.259,1.187 l -0.944,1.458 -6.942,-16.468 -7.196,-21.249 10.521,-13.573 c 0.095,-0.124 0.18,-0.256 0.255,-0.395 l 14.865,-28.627 c 0.118,-0.229 0.2,-0.473 0.247,-0.726 l 2.216,-11.964 c 41.248,-3.291 69.21,-9.52 80.488,-12.391 -9.365,15.023 -32.844,19.803 -33.105,19.856 -0.771,0.151 -1.436,0.643 -1.802,1.34 l -5.731,10.847 c -0.672,1.273 -0.186,2.849 1.086,3.521 1.279,0.677 2.85,0.186 3.522,-1.088 l 5.164,-9.775 C -29.709,29.923 -4.503,22.975 2.453,3.481 2.786,2.553 2.565,1.518 1.883,0.806 1.384,0.283 0.699,0 0,0"
           style="fill:#212423;fill-opacity:1;fill-rule:nonzero;stroke:none"
           id="path398" />
      </g>
      <g
         id="g400"
         transform="translate(201.22217,-202.88957)">
        <path
           d="m 0,0 c -0.064,0 -0.132,0.002 -0.2,0.007 -34.503,2.648 -70.954,2.658 -108.322,0.039 -1.354,-0.148 -2.618,0.921 -2.772,2.314 l -4.16,37.747 c -0.06,0.542 0.052,1.09 0.322,1.565 l 27.152,48.074 30.123,49.167 c 0.451,0.74 1.242,1.205 2.107,1.244 0.906,0.059 1.693,-0.358 2.209,-1.054 l 4.15,-5.598 1.618,4.319 c 0.383,1.028 1.439,1.583 2.47,1.691 1.099,-0.013 2.07,-0.712 2.429,-1.749 l 6.963,-20.011 5.347,9.061 c 0.553,0.939 1.636,1.437 2.718,1.236 1.075,-0.198 1.914,-1.05 2.093,-2.129 l 2.711,-16.13 c 0.241,-1.42 -0.716,-2.764 -2.137,-3.003 -1.412,-0.237 -2.759,0.72 -3,2.138 l -1.526,9.086 -4.578,-7.751 c -0.515,-0.872 -1.503,-1.384 -2.5,-1.267 -1.011,0.1 -1.87,0.777 -2.202,1.735 l -6.44,18.511 -0.77,-2.053 c -0.336,-0.894 -1.133,-1.534 -2.077,-1.666 -0.963,-0.144 -1.886,0.261 -2.456,1.03 l -4.703,6.346 -28.056,-45.795 -26.695,-47.262 3.794,-34.427 c 35.533,2.384 70.222,2.397 103.212,0.039 l -1.893,10.225 -14.58,28.073 -11.234,14.493 c -0.536,0.691 -0.689,1.605 -0.407,2.433 l 7.502,22.131 -2.077,12.364 c -0.24,1.418 0.716,2.762 2.138,3.001 1.425,0.231 2.762,-0.721 2.999,-2.139 l 2.185,-13.011 c 0.072,-0.424 0.038,-0.86 -0.101,-1.267 l -7.261,-21.425 10.521,-13.574 c 0.095,-0.123 0.18,-0.256 0.255,-0.395 L -0.265,17.737 c 0.119,-0.229 0.201,-0.474 0.248,-0.726 L 2.562,3.081 C 2.711,2.285 2.48,1.466 1.937,0.864 1.442,0.312 0.736,0 0,0"
           style="fill:#212423;fill-opacity:1;fill-rule:nonzero;stroke:none"
           id="path402" />
      </g>
      <g
         id="g404"
         transform="translate(-12.931722,-216.84987)">
        <path
           d="m 0,0 c -0.965,0 -1.868,0.536 -2.319,1.418 -0.529,1.033 -0.311,2.292 0.534,3.088 0.989,0.928 24.133,22.561 43.237,31.668 l 20.217,35.565 c 0.711,1.254 2.297,1.693 3.552,0.977 1.252,-0.71 1.69,-2.302 0.977,-3.552 L 45.573,32.88 C 45.305,32.406 44.894,32.03 44.4,31.801 32.052,26.102 17.277,14.228 8.766,6.915 c 31.381,5.761 62.876,9.824 93.797,12.096 L 98.7,54.067 c -0.06,0.543 0.052,1.091 0.322,1.566 l 26.392,46.728 -5.096,8.192 -4.621,-8.623 c -0.353,-0.66 -0.976,-1.137 -1.705,-1.306 -0.735,-0.168 -1.497,-0.019 -2.107,0.417 l -1.909,1.364 -3.204,-14.843 c -0.204,-0.946 -0.915,-1.7 -1.846,-1.961 -0.932,-0.261 -1.933,0.019 -2.596,0.723 L 89.854,99.541 c -0.146,0.155 -0.273,0.328 -0.378,0.514 l -2.838,5.059 -10.495,-18.463 c -0.712,-1.25 -2.302,-1.689 -3.552,-0.977 -1.252,0.711 -1.69,2.302 -0.977,3.553 l 12.774,22.475 c 0.463,0.814 1.328,1.318 2.265,1.318 h 0.007 c 0.94,-0.004 1.806,-0.511 2.266,-1.332 l 4.939,-8.803 8.857,-9.385 2.998,13.881 c 0.185,0.858 0.789,1.564 1.606,1.881 0.816,0.314 1.743,0.2 2.455,-0.31 l 2.723,-1.946 5.351,9.982 c 0.441,0.819 1.282,1.343 2.212,1.372 1.055,0.061 1.808,-0.439 2.297,-1.228 l 8.292,-13.331 c 0.503,-0.809 0.526,-1.827 0.058,-2.657 L 103.972,53.802 108.041,16.89 c 0.078,-0.704 -0.136,-1.41 -0.591,-1.954 -0.455,-0.545 -1.111,-0.881 -1.818,-0.93 C 71.016,11.577 35.643,6.881 0.497,0.047 0.331,0.015 0.165,0 0,0"
           style="fill:#212423;fill-opacity:1;fill-rule:nonzero;stroke:none"
           id="path406" />
      </g>
    </g>
  </g>
</svg>
